%TF.GenerationSoftware,KiCad,Pcbnew,7.0.1*%
%TF.CreationDate,2025-03-28T02:07:49+02:00*%
%TF.ProjectId,PowerCircuit_V6,506f7765-7243-4697-9263-7569745f5636,rev?*%
%TF.SameCoordinates,Original*%
%TF.FileFunction,Legend,Top*%
%TF.FilePolarity,Positive*%
%FSLAX46Y46*%
G04 Gerber Fmt 4.6, Leading zero omitted, Abs format (unit mm)*
G04 Created by KiCad (PCBNEW 7.0.1) date 2025-03-28 02:07:49*
%MOMM*%
%LPD*%
G01*
G04 APERTURE LIST*
%ADD10C,0.100000*%
%ADD11C,0.150000*%
%ADD12C,0.120000*%
%ADD13C,0.150013*%
%ADD14C,0.059995*%
%ADD15C,0.254000*%
%ADD16C,0.398781*%
%ADD17C,0.152400*%
%ADD18C,0.300000*%
%ADD19C,0.151994*%
G04 APERTURE END LIST*
D10*
X180951767Y-95619403D02*
X180856529Y-95571784D01*
X180856529Y-95571784D02*
X180713672Y-95571784D01*
X180713672Y-95571784D02*
X180570815Y-95619403D01*
X180570815Y-95619403D02*
X180475577Y-95714641D01*
X180475577Y-95714641D02*
X180427958Y-95809879D01*
X180427958Y-95809879D02*
X180380339Y-96000355D01*
X180380339Y-96000355D02*
X180380339Y-96143212D01*
X180380339Y-96143212D02*
X180427958Y-96333688D01*
X180427958Y-96333688D02*
X180475577Y-96428926D01*
X180475577Y-96428926D02*
X180570815Y-96524165D01*
X180570815Y-96524165D02*
X180713672Y-96571784D01*
X180713672Y-96571784D02*
X180808910Y-96571784D01*
X180808910Y-96571784D02*
X180951767Y-96524165D01*
X180951767Y-96524165D02*
X180999386Y-96476545D01*
X180999386Y-96476545D02*
X180999386Y-96143212D01*
X180999386Y-96143212D02*
X180808910Y-96143212D01*
X181999386Y-96571784D02*
X181666053Y-96095593D01*
X181427958Y-96571784D02*
X181427958Y-95571784D01*
X181427958Y-95571784D02*
X181808910Y-95571784D01*
X181808910Y-95571784D02*
X181904148Y-95619403D01*
X181904148Y-95619403D02*
X181951767Y-95667022D01*
X181951767Y-95667022D02*
X181999386Y-95762260D01*
X181999386Y-95762260D02*
X181999386Y-95905117D01*
X181999386Y-95905117D02*
X181951767Y-96000355D01*
X181951767Y-96000355D02*
X181904148Y-96047974D01*
X181904148Y-96047974D02*
X181808910Y-96095593D01*
X181808910Y-96095593D02*
X181427958Y-96095593D01*
X182618434Y-95571784D02*
X182808910Y-95571784D01*
X182808910Y-95571784D02*
X182904148Y-95619403D01*
X182904148Y-95619403D02*
X182999386Y-95714641D01*
X182999386Y-95714641D02*
X183047005Y-95905117D01*
X183047005Y-95905117D02*
X183047005Y-96238450D01*
X183047005Y-96238450D02*
X182999386Y-96428926D01*
X182999386Y-96428926D02*
X182904148Y-96524165D01*
X182904148Y-96524165D02*
X182808910Y-96571784D01*
X182808910Y-96571784D02*
X182618434Y-96571784D01*
X182618434Y-96571784D02*
X182523196Y-96524165D01*
X182523196Y-96524165D02*
X182427958Y-96428926D01*
X182427958Y-96428926D02*
X182380339Y-96238450D01*
X182380339Y-96238450D02*
X182380339Y-95905117D01*
X182380339Y-95905117D02*
X182427958Y-95714641D01*
X182427958Y-95714641D02*
X182523196Y-95619403D01*
X182523196Y-95619403D02*
X182618434Y-95571784D01*
X183475577Y-95571784D02*
X183475577Y-96381307D01*
X183475577Y-96381307D02*
X183523196Y-96476545D01*
X183523196Y-96476545D02*
X183570815Y-96524165D01*
X183570815Y-96524165D02*
X183666053Y-96571784D01*
X183666053Y-96571784D02*
X183856529Y-96571784D01*
X183856529Y-96571784D02*
X183951767Y-96524165D01*
X183951767Y-96524165D02*
X183999386Y-96476545D01*
X183999386Y-96476545D02*
X184047005Y-96381307D01*
X184047005Y-96381307D02*
X184047005Y-95571784D01*
X184523196Y-96571784D02*
X184523196Y-95571784D01*
X184523196Y-95571784D02*
X184904148Y-95571784D01*
X184904148Y-95571784D02*
X184999386Y-95619403D01*
X184999386Y-95619403D02*
X185047005Y-95667022D01*
X185047005Y-95667022D02*
X185094624Y-95762260D01*
X185094624Y-95762260D02*
X185094624Y-95905117D01*
X185094624Y-95905117D02*
X185047005Y-96000355D01*
X185047005Y-96000355D02*
X184999386Y-96047974D01*
X184999386Y-96047974D02*
X184904148Y-96095593D01*
X184904148Y-96095593D02*
X184523196Y-96095593D01*
X186427958Y-96000355D02*
X186332720Y-95952736D01*
X186332720Y-95952736D02*
X186285101Y-95905117D01*
X186285101Y-95905117D02*
X186237482Y-95809879D01*
X186237482Y-95809879D02*
X186237482Y-95762260D01*
X186237482Y-95762260D02*
X186285101Y-95667022D01*
X186285101Y-95667022D02*
X186332720Y-95619403D01*
X186332720Y-95619403D02*
X186427958Y-95571784D01*
X186427958Y-95571784D02*
X186618434Y-95571784D01*
X186618434Y-95571784D02*
X186713672Y-95619403D01*
X186713672Y-95619403D02*
X186761291Y-95667022D01*
X186761291Y-95667022D02*
X186808910Y-95762260D01*
X186808910Y-95762260D02*
X186808910Y-95809879D01*
X186808910Y-95809879D02*
X186761291Y-95905117D01*
X186761291Y-95905117D02*
X186713672Y-95952736D01*
X186713672Y-95952736D02*
X186618434Y-96000355D01*
X186618434Y-96000355D02*
X186427958Y-96000355D01*
X186427958Y-96000355D02*
X186332720Y-96047974D01*
X186332720Y-96047974D02*
X186285101Y-96095593D01*
X186285101Y-96095593D02*
X186237482Y-96190831D01*
X186237482Y-96190831D02*
X186237482Y-96381307D01*
X186237482Y-96381307D02*
X186285101Y-96476545D01*
X186285101Y-96476545D02*
X186332720Y-96524165D01*
X186332720Y-96524165D02*
X186427958Y-96571784D01*
X186427958Y-96571784D02*
X186618434Y-96571784D01*
X186618434Y-96571784D02*
X186713672Y-96524165D01*
X186713672Y-96524165D02*
X186761291Y-96476545D01*
X186761291Y-96476545D02*
X186808910Y-96381307D01*
X186808910Y-96381307D02*
X186808910Y-96190831D01*
X186808910Y-96190831D02*
X186761291Y-96095593D01*
X186761291Y-96095593D02*
X186713672Y-96047974D01*
X186713672Y-96047974D02*
X186618434Y-96000355D01*
X187237482Y-96476545D02*
X187285101Y-96524165D01*
X187285101Y-96524165D02*
X187237482Y-96571784D01*
X187237482Y-96571784D02*
X187189863Y-96524165D01*
X187189863Y-96524165D02*
X187237482Y-96476545D01*
X187237482Y-96476545D02*
X187237482Y-96571784D01*
X187237482Y-95952736D02*
X187285101Y-96000355D01*
X187285101Y-96000355D02*
X187237482Y-96047974D01*
X187237482Y-96047974D02*
X187189863Y-96000355D01*
X187189863Y-96000355D02*
X187237482Y-95952736D01*
X187237482Y-95952736D02*
X187237482Y-96047974D01*
X180761291Y-97667974D02*
X180904148Y-97715593D01*
X180904148Y-97715593D02*
X180951767Y-97763212D01*
X180951767Y-97763212D02*
X180999386Y-97858450D01*
X180999386Y-97858450D02*
X180999386Y-98001307D01*
X180999386Y-98001307D02*
X180951767Y-98096545D01*
X180951767Y-98096545D02*
X180904148Y-98144165D01*
X180904148Y-98144165D02*
X180808910Y-98191784D01*
X180808910Y-98191784D02*
X180427958Y-98191784D01*
X180427958Y-98191784D02*
X180427958Y-97191784D01*
X180427958Y-97191784D02*
X180761291Y-97191784D01*
X180761291Y-97191784D02*
X180856529Y-97239403D01*
X180856529Y-97239403D02*
X180904148Y-97287022D01*
X180904148Y-97287022D02*
X180951767Y-97382260D01*
X180951767Y-97382260D02*
X180951767Y-97477498D01*
X180951767Y-97477498D02*
X180904148Y-97572736D01*
X180904148Y-97572736D02*
X180856529Y-97620355D01*
X180856529Y-97620355D02*
X180761291Y-97667974D01*
X180761291Y-97667974D02*
X180427958Y-97667974D01*
X181427958Y-98191784D02*
X181427958Y-97191784D01*
X181427958Y-97667974D02*
X181999386Y-97667974D01*
X181999386Y-98191784D02*
X181999386Y-97191784D01*
X182475577Y-98191784D02*
X182475577Y-97191784D01*
X182475577Y-97191784D02*
X183047005Y-98191784D01*
X183047005Y-98191784D02*
X183047005Y-97191784D01*
X183475577Y-98144165D02*
X183618434Y-98191784D01*
X183618434Y-98191784D02*
X183856529Y-98191784D01*
X183856529Y-98191784D02*
X183951767Y-98144165D01*
X183951767Y-98144165D02*
X183999386Y-98096545D01*
X183999386Y-98096545D02*
X184047005Y-98001307D01*
X184047005Y-98001307D02*
X184047005Y-97906069D01*
X184047005Y-97906069D02*
X183999386Y-97810831D01*
X183999386Y-97810831D02*
X183951767Y-97763212D01*
X183951767Y-97763212D02*
X183856529Y-97715593D01*
X183856529Y-97715593D02*
X183666053Y-97667974D01*
X183666053Y-97667974D02*
X183570815Y-97620355D01*
X183570815Y-97620355D02*
X183523196Y-97572736D01*
X183523196Y-97572736D02*
X183475577Y-97477498D01*
X183475577Y-97477498D02*
X183475577Y-97382260D01*
X183475577Y-97382260D02*
X183523196Y-97287022D01*
X183523196Y-97287022D02*
X183570815Y-97239403D01*
X183570815Y-97239403D02*
X183666053Y-97191784D01*
X183666053Y-97191784D02*
X183904148Y-97191784D01*
X183904148Y-97191784D02*
X184047005Y-97239403D01*
X184427958Y-97906069D02*
X184904148Y-97906069D01*
X184332720Y-98191784D02*
X184666053Y-97191784D01*
X184666053Y-97191784D02*
X184999386Y-98191784D01*
X185332720Y-98191784D02*
X185332720Y-97191784D01*
X185332720Y-97191784D02*
X185904148Y-98191784D01*
X185904148Y-98191784D02*
X185904148Y-97191784D01*
X186570815Y-97191784D02*
X186666053Y-97191784D01*
X186666053Y-97191784D02*
X186761291Y-97239403D01*
X186761291Y-97239403D02*
X186808910Y-97287022D01*
X186808910Y-97287022D02*
X186856529Y-97382260D01*
X186856529Y-97382260D02*
X186904148Y-97572736D01*
X186904148Y-97572736D02*
X186904148Y-97810831D01*
X186904148Y-97810831D02*
X186856529Y-98001307D01*
X186856529Y-98001307D02*
X186808910Y-98096545D01*
X186808910Y-98096545D02*
X186761291Y-98144165D01*
X186761291Y-98144165D02*
X186666053Y-98191784D01*
X186666053Y-98191784D02*
X186570815Y-98191784D01*
X186570815Y-98191784D02*
X186475577Y-98144165D01*
X186475577Y-98144165D02*
X186427958Y-98096545D01*
X186427958Y-98096545D02*
X186380339Y-98001307D01*
X186380339Y-98001307D02*
X186332720Y-97810831D01*
X186332720Y-97810831D02*
X186332720Y-97572736D01*
X186332720Y-97572736D02*
X186380339Y-97382260D01*
X186380339Y-97382260D02*
X186427958Y-97287022D01*
X186427958Y-97287022D02*
X186475577Y-97239403D01*
X186475577Y-97239403D02*
X186570815Y-97191784D01*
X187856529Y-98191784D02*
X187285101Y-98191784D01*
X187570815Y-98191784D02*
X187570815Y-97191784D01*
X187570815Y-97191784D02*
X187475577Y-97334641D01*
X187475577Y-97334641D02*
X187380339Y-97429879D01*
X187380339Y-97429879D02*
X187285101Y-97477498D01*
X188475577Y-97191784D02*
X188570815Y-97191784D01*
X188570815Y-97191784D02*
X188666053Y-97239403D01*
X188666053Y-97239403D02*
X188713672Y-97287022D01*
X188713672Y-97287022D02*
X188761291Y-97382260D01*
X188761291Y-97382260D02*
X188808910Y-97572736D01*
X188808910Y-97572736D02*
X188808910Y-97810831D01*
X188808910Y-97810831D02*
X188761291Y-98001307D01*
X188761291Y-98001307D02*
X188713672Y-98096545D01*
X188713672Y-98096545D02*
X188666053Y-98144165D01*
X188666053Y-98144165D02*
X188570815Y-98191784D01*
X188570815Y-98191784D02*
X188475577Y-98191784D01*
X188475577Y-98191784D02*
X188380339Y-98144165D01*
X188380339Y-98144165D02*
X188332720Y-98096545D01*
X188332720Y-98096545D02*
X188285101Y-98001307D01*
X188285101Y-98001307D02*
X188237482Y-97810831D01*
X188237482Y-97810831D02*
X188237482Y-97572736D01*
X188237482Y-97572736D02*
X188285101Y-97382260D01*
X188285101Y-97382260D02*
X188332720Y-97287022D01*
X188332720Y-97287022D02*
X188380339Y-97239403D01*
X188380339Y-97239403D02*
X188475577Y-97191784D01*
X180761291Y-99287974D02*
X180904148Y-99335593D01*
X180904148Y-99335593D02*
X180951767Y-99383212D01*
X180951767Y-99383212D02*
X180999386Y-99478450D01*
X180999386Y-99478450D02*
X180999386Y-99621307D01*
X180999386Y-99621307D02*
X180951767Y-99716545D01*
X180951767Y-99716545D02*
X180904148Y-99764165D01*
X180904148Y-99764165D02*
X180808910Y-99811784D01*
X180808910Y-99811784D02*
X180427958Y-99811784D01*
X180427958Y-99811784D02*
X180427958Y-98811784D01*
X180427958Y-98811784D02*
X180761291Y-98811784D01*
X180761291Y-98811784D02*
X180856529Y-98859403D01*
X180856529Y-98859403D02*
X180904148Y-98907022D01*
X180904148Y-98907022D02*
X180951767Y-99002260D01*
X180951767Y-99002260D02*
X180951767Y-99097498D01*
X180951767Y-99097498D02*
X180904148Y-99192736D01*
X180904148Y-99192736D02*
X180856529Y-99240355D01*
X180856529Y-99240355D02*
X180761291Y-99287974D01*
X180761291Y-99287974D02*
X180427958Y-99287974D01*
X181951767Y-98859403D02*
X181856529Y-98811784D01*
X181856529Y-98811784D02*
X181713672Y-98811784D01*
X181713672Y-98811784D02*
X181570815Y-98859403D01*
X181570815Y-98859403D02*
X181475577Y-98954641D01*
X181475577Y-98954641D02*
X181427958Y-99049879D01*
X181427958Y-99049879D02*
X181380339Y-99240355D01*
X181380339Y-99240355D02*
X181380339Y-99383212D01*
X181380339Y-99383212D02*
X181427958Y-99573688D01*
X181427958Y-99573688D02*
X181475577Y-99668926D01*
X181475577Y-99668926D02*
X181570815Y-99764165D01*
X181570815Y-99764165D02*
X181713672Y-99811784D01*
X181713672Y-99811784D02*
X181808910Y-99811784D01*
X181808910Y-99811784D02*
X181951767Y-99764165D01*
X181951767Y-99764165D02*
X181999386Y-99716545D01*
X181999386Y-99716545D02*
X181999386Y-99383212D01*
X181999386Y-99383212D02*
X181808910Y-99383212D01*
X182951767Y-98859403D02*
X182856529Y-98811784D01*
X182856529Y-98811784D02*
X182713672Y-98811784D01*
X182713672Y-98811784D02*
X182570815Y-98859403D01*
X182570815Y-98859403D02*
X182475577Y-98954641D01*
X182475577Y-98954641D02*
X182427958Y-99049879D01*
X182427958Y-99049879D02*
X182380339Y-99240355D01*
X182380339Y-99240355D02*
X182380339Y-99383212D01*
X182380339Y-99383212D02*
X182427958Y-99573688D01*
X182427958Y-99573688D02*
X182475577Y-99668926D01*
X182475577Y-99668926D02*
X182570815Y-99764165D01*
X182570815Y-99764165D02*
X182713672Y-99811784D01*
X182713672Y-99811784D02*
X182808910Y-99811784D01*
X182808910Y-99811784D02*
X182951767Y-99764165D01*
X182951767Y-99764165D02*
X182999386Y-99716545D01*
X182999386Y-99716545D02*
X182999386Y-99383212D01*
X182999386Y-99383212D02*
X182808910Y-99383212D01*
X183761291Y-99287974D02*
X183904148Y-99335593D01*
X183904148Y-99335593D02*
X183951767Y-99383212D01*
X183951767Y-99383212D02*
X183999386Y-99478450D01*
X183999386Y-99478450D02*
X183999386Y-99621307D01*
X183999386Y-99621307D02*
X183951767Y-99716545D01*
X183951767Y-99716545D02*
X183904148Y-99764165D01*
X183904148Y-99764165D02*
X183808910Y-99811784D01*
X183808910Y-99811784D02*
X183427958Y-99811784D01*
X183427958Y-99811784D02*
X183427958Y-98811784D01*
X183427958Y-98811784D02*
X183761291Y-98811784D01*
X183761291Y-98811784D02*
X183856529Y-98859403D01*
X183856529Y-98859403D02*
X183904148Y-98907022D01*
X183904148Y-98907022D02*
X183951767Y-99002260D01*
X183951767Y-99002260D02*
X183951767Y-99097498D01*
X183951767Y-99097498D02*
X183904148Y-99192736D01*
X183904148Y-99192736D02*
X183856529Y-99240355D01*
X183856529Y-99240355D02*
X183761291Y-99287974D01*
X183761291Y-99287974D02*
X183427958Y-99287974D01*
X184999386Y-99811784D02*
X184666053Y-99335593D01*
X184427958Y-99811784D02*
X184427958Y-98811784D01*
X184427958Y-98811784D02*
X184808910Y-98811784D01*
X184808910Y-98811784D02*
X184904148Y-98859403D01*
X184904148Y-98859403D02*
X184951767Y-98907022D01*
X184951767Y-98907022D02*
X184999386Y-99002260D01*
X184999386Y-99002260D02*
X184999386Y-99145117D01*
X184999386Y-99145117D02*
X184951767Y-99240355D01*
X184951767Y-99240355D02*
X184904148Y-99287974D01*
X184904148Y-99287974D02*
X184808910Y-99335593D01*
X184808910Y-99335593D02*
X184427958Y-99335593D01*
X185618434Y-98811784D02*
X185808910Y-98811784D01*
X185808910Y-98811784D02*
X185904148Y-98859403D01*
X185904148Y-98859403D02*
X185999386Y-98954641D01*
X185999386Y-98954641D02*
X186047005Y-99145117D01*
X186047005Y-99145117D02*
X186047005Y-99478450D01*
X186047005Y-99478450D02*
X185999386Y-99668926D01*
X185999386Y-99668926D02*
X185904148Y-99764165D01*
X185904148Y-99764165D02*
X185808910Y-99811784D01*
X185808910Y-99811784D02*
X185618434Y-99811784D01*
X185618434Y-99811784D02*
X185523196Y-99764165D01*
X185523196Y-99764165D02*
X185427958Y-99668926D01*
X185427958Y-99668926D02*
X185380339Y-99478450D01*
X185380339Y-99478450D02*
X185380339Y-99145117D01*
X185380339Y-99145117D02*
X185427958Y-98954641D01*
X185427958Y-98954641D02*
X185523196Y-98859403D01*
X185523196Y-98859403D02*
X185618434Y-98811784D01*
X186666053Y-98811784D02*
X186761291Y-98811784D01*
X186761291Y-98811784D02*
X186856529Y-98859403D01*
X186856529Y-98859403D02*
X186904148Y-98907022D01*
X186904148Y-98907022D02*
X186951767Y-99002260D01*
X186951767Y-99002260D02*
X186999386Y-99192736D01*
X186999386Y-99192736D02*
X186999386Y-99430831D01*
X186999386Y-99430831D02*
X186951767Y-99621307D01*
X186951767Y-99621307D02*
X186904148Y-99716545D01*
X186904148Y-99716545D02*
X186856529Y-99764165D01*
X186856529Y-99764165D02*
X186761291Y-99811784D01*
X186761291Y-99811784D02*
X186666053Y-99811784D01*
X186666053Y-99811784D02*
X186570815Y-99764165D01*
X186570815Y-99764165D02*
X186523196Y-99716545D01*
X186523196Y-99716545D02*
X186475577Y-99621307D01*
X186475577Y-99621307D02*
X186427958Y-99430831D01*
X186427958Y-99430831D02*
X186427958Y-99192736D01*
X186427958Y-99192736D02*
X186475577Y-99002260D01*
X186475577Y-99002260D02*
X186523196Y-98907022D01*
X186523196Y-98907022D02*
X186570815Y-98859403D01*
X186570815Y-98859403D02*
X186666053Y-98811784D01*
X187618434Y-98811784D02*
X187713672Y-98811784D01*
X187713672Y-98811784D02*
X187808910Y-98859403D01*
X187808910Y-98859403D02*
X187856529Y-98907022D01*
X187856529Y-98907022D02*
X187904148Y-99002260D01*
X187904148Y-99002260D02*
X187951767Y-99192736D01*
X187951767Y-99192736D02*
X187951767Y-99430831D01*
X187951767Y-99430831D02*
X187904148Y-99621307D01*
X187904148Y-99621307D02*
X187856529Y-99716545D01*
X187856529Y-99716545D02*
X187808910Y-99764165D01*
X187808910Y-99764165D02*
X187713672Y-99811784D01*
X187713672Y-99811784D02*
X187618434Y-99811784D01*
X187618434Y-99811784D02*
X187523196Y-99764165D01*
X187523196Y-99764165D02*
X187475577Y-99716545D01*
X187475577Y-99716545D02*
X187427958Y-99621307D01*
X187427958Y-99621307D02*
X187380339Y-99430831D01*
X187380339Y-99430831D02*
X187380339Y-99192736D01*
X187380339Y-99192736D02*
X187427958Y-99002260D01*
X187427958Y-99002260D02*
X187475577Y-98907022D01*
X187475577Y-98907022D02*
X187523196Y-98859403D01*
X187523196Y-98859403D02*
X187618434Y-98811784D01*
X188332720Y-98907022D02*
X188380339Y-98859403D01*
X188380339Y-98859403D02*
X188475577Y-98811784D01*
X188475577Y-98811784D02*
X188713672Y-98811784D01*
X188713672Y-98811784D02*
X188808910Y-98859403D01*
X188808910Y-98859403D02*
X188856529Y-98907022D01*
X188856529Y-98907022D02*
X188904148Y-99002260D01*
X188904148Y-99002260D02*
X188904148Y-99097498D01*
X188904148Y-99097498D02*
X188856529Y-99240355D01*
X188856529Y-99240355D02*
X188285101Y-99811784D01*
X188285101Y-99811784D02*
X188904148Y-99811784D01*
D11*
%TO.C,U4*%
X204713095Y-118192784D02*
X204713095Y-119002307D01*
X204713095Y-119002307D02*
X204760714Y-119097545D01*
X204760714Y-119097545D02*
X204808333Y-119145165D01*
X204808333Y-119145165D02*
X204903571Y-119192784D01*
X204903571Y-119192784D02*
X205094047Y-119192784D01*
X205094047Y-119192784D02*
X205189285Y-119145165D01*
X205189285Y-119145165D02*
X205236904Y-119097545D01*
X205236904Y-119097545D02*
X205284523Y-119002307D01*
X205284523Y-119002307D02*
X205284523Y-118192784D01*
X206189285Y-118526117D02*
X206189285Y-119192784D01*
X205951190Y-118145165D02*
X205713095Y-118859450D01*
X205713095Y-118859450D02*
X206332142Y-118859450D01*
%TO.C,TP6*%
X184267358Y-116744784D02*
X184838786Y-116744784D01*
X184553072Y-117744784D02*
X184553072Y-116744784D01*
X185172120Y-117744784D02*
X185172120Y-116744784D01*
X185172120Y-116744784D02*
X185553072Y-116744784D01*
X185553072Y-116744784D02*
X185648310Y-116792403D01*
X185648310Y-116792403D02*
X185695929Y-116840022D01*
X185695929Y-116840022D02*
X185743548Y-116935260D01*
X185743548Y-116935260D02*
X185743548Y-117078117D01*
X185743548Y-117078117D02*
X185695929Y-117173355D01*
X185695929Y-117173355D02*
X185648310Y-117220974D01*
X185648310Y-117220974D02*
X185553072Y-117268593D01*
X185553072Y-117268593D02*
X185172120Y-117268593D01*
X186600691Y-116744784D02*
X186410215Y-116744784D01*
X186410215Y-116744784D02*
X186314977Y-116792403D01*
X186314977Y-116792403D02*
X186267358Y-116840022D01*
X186267358Y-116840022D02*
X186172120Y-116982879D01*
X186172120Y-116982879D02*
X186124501Y-117173355D01*
X186124501Y-117173355D02*
X186124501Y-117554307D01*
X186124501Y-117554307D02*
X186172120Y-117649545D01*
X186172120Y-117649545D02*
X186219739Y-117697165D01*
X186219739Y-117697165D02*
X186314977Y-117744784D01*
X186314977Y-117744784D02*
X186505453Y-117744784D01*
X186505453Y-117744784D02*
X186600691Y-117697165D01*
X186600691Y-117697165D02*
X186648310Y-117649545D01*
X186648310Y-117649545D02*
X186695929Y-117554307D01*
X186695929Y-117554307D02*
X186695929Y-117316212D01*
X186695929Y-117316212D02*
X186648310Y-117220974D01*
X186648310Y-117220974D02*
X186600691Y-117173355D01*
X186600691Y-117173355D02*
X186505453Y-117125736D01*
X186505453Y-117125736D02*
X186314977Y-117125736D01*
X186314977Y-117125736D02*
X186219739Y-117173355D01*
X186219739Y-117173355D02*
X186172120Y-117220974D01*
X186172120Y-117220974D02*
X186124501Y-117316212D01*
%TO.C,R9*%
X243075833Y-121212619D02*
X242742500Y-120736428D01*
X242504405Y-121212619D02*
X242504405Y-120212619D01*
X242504405Y-120212619D02*
X242885357Y-120212619D01*
X242885357Y-120212619D02*
X242980595Y-120260238D01*
X242980595Y-120260238D02*
X243028214Y-120307857D01*
X243028214Y-120307857D02*
X243075833Y-120403095D01*
X243075833Y-120403095D02*
X243075833Y-120545952D01*
X243075833Y-120545952D02*
X243028214Y-120641190D01*
X243028214Y-120641190D02*
X242980595Y-120688809D01*
X242980595Y-120688809D02*
X242885357Y-120736428D01*
X242885357Y-120736428D02*
X242504405Y-120736428D01*
X243552024Y-121212619D02*
X243742500Y-121212619D01*
X243742500Y-121212619D02*
X243837738Y-121165000D01*
X243837738Y-121165000D02*
X243885357Y-121117380D01*
X243885357Y-121117380D02*
X243980595Y-120974523D01*
X243980595Y-120974523D02*
X244028214Y-120784047D01*
X244028214Y-120784047D02*
X244028214Y-120403095D01*
X244028214Y-120403095D02*
X243980595Y-120307857D01*
X243980595Y-120307857D02*
X243932976Y-120260238D01*
X243932976Y-120260238D02*
X243837738Y-120212619D01*
X243837738Y-120212619D02*
X243647262Y-120212619D01*
X243647262Y-120212619D02*
X243552024Y-120260238D01*
X243552024Y-120260238D02*
X243504405Y-120307857D01*
X243504405Y-120307857D02*
X243456786Y-120403095D01*
X243456786Y-120403095D02*
X243456786Y-120641190D01*
X243456786Y-120641190D02*
X243504405Y-120736428D01*
X243504405Y-120736428D02*
X243552024Y-120784047D01*
X243552024Y-120784047D02*
X243647262Y-120831666D01*
X243647262Y-120831666D02*
X243837738Y-120831666D01*
X243837738Y-120831666D02*
X243932976Y-120784047D01*
X243932976Y-120784047D02*
X243980595Y-120736428D01*
X243980595Y-120736428D02*
X244028214Y-120641190D01*
%TO.C,U9*%
X248158095Y-108762492D02*
X248158095Y-109572015D01*
X248158095Y-109572015D02*
X248205714Y-109667253D01*
X248205714Y-109667253D02*
X248253333Y-109714873D01*
X248253333Y-109714873D02*
X248348571Y-109762492D01*
X248348571Y-109762492D02*
X248539047Y-109762492D01*
X248539047Y-109762492D02*
X248634285Y-109714873D01*
X248634285Y-109714873D02*
X248681904Y-109667253D01*
X248681904Y-109667253D02*
X248729523Y-109572015D01*
X248729523Y-109572015D02*
X248729523Y-108762492D01*
X249253333Y-109762492D02*
X249443809Y-109762492D01*
X249443809Y-109762492D02*
X249539047Y-109714873D01*
X249539047Y-109714873D02*
X249586666Y-109667253D01*
X249586666Y-109667253D02*
X249681904Y-109524396D01*
X249681904Y-109524396D02*
X249729523Y-109333920D01*
X249729523Y-109333920D02*
X249729523Y-108952968D01*
X249729523Y-108952968D02*
X249681904Y-108857730D01*
X249681904Y-108857730D02*
X249634285Y-108810111D01*
X249634285Y-108810111D02*
X249539047Y-108762492D01*
X249539047Y-108762492D02*
X249348571Y-108762492D01*
X249348571Y-108762492D02*
X249253333Y-108810111D01*
X249253333Y-108810111D02*
X249205714Y-108857730D01*
X249205714Y-108857730D02*
X249158095Y-108952968D01*
X249158095Y-108952968D02*
X249158095Y-109191063D01*
X249158095Y-109191063D02*
X249205714Y-109286301D01*
X249205714Y-109286301D02*
X249253333Y-109333920D01*
X249253333Y-109333920D02*
X249348571Y-109381539D01*
X249348571Y-109381539D02*
X249539047Y-109381539D01*
X249539047Y-109381539D02*
X249634285Y-109333920D01*
X249634285Y-109333920D02*
X249681904Y-109286301D01*
X249681904Y-109286301D02*
X249729523Y-109191063D01*
%TO.C,U10*%
X227489987Y-95982619D02*
X227489987Y-96792142D01*
X227489987Y-96792142D02*
X227537606Y-96887380D01*
X227537606Y-96887380D02*
X227585225Y-96935000D01*
X227585225Y-96935000D02*
X227680463Y-96982619D01*
X227680463Y-96982619D02*
X227870939Y-96982619D01*
X227870939Y-96982619D02*
X227966177Y-96935000D01*
X227966177Y-96935000D02*
X228013796Y-96887380D01*
X228013796Y-96887380D02*
X228061415Y-96792142D01*
X228061415Y-96792142D02*
X228061415Y-95982619D01*
X229061415Y-96982619D02*
X228489987Y-96982619D01*
X228775701Y-96982619D02*
X228775701Y-95982619D01*
X228775701Y-95982619D02*
X228680463Y-96125476D01*
X228680463Y-96125476D02*
X228585225Y-96220714D01*
X228585225Y-96220714D02*
X228489987Y-96268333D01*
X229680463Y-95982619D02*
X229775701Y-95982619D01*
X229775701Y-95982619D02*
X229870939Y-96030238D01*
X229870939Y-96030238D02*
X229918558Y-96077857D01*
X229918558Y-96077857D02*
X229966177Y-96173095D01*
X229966177Y-96173095D02*
X230013796Y-96363571D01*
X230013796Y-96363571D02*
X230013796Y-96601666D01*
X230013796Y-96601666D02*
X229966177Y-96792142D01*
X229966177Y-96792142D02*
X229918558Y-96887380D01*
X229918558Y-96887380D02*
X229870939Y-96935000D01*
X229870939Y-96935000D02*
X229775701Y-96982619D01*
X229775701Y-96982619D02*
X229680463Y-96982619D01*
X229680463Y-96982619D02*
X229585225Y-96935000D01*
X229585225Y-96935000D02*
X229537606Y-96887380D01*
X229537606Y-96887380D02*
X229489987Y-96792142D01*
X229489987Y-96792142D02*
X229442368Y-96601666D01*
X229442368Y-96601666D02*
X229442368Y-96363571D01*
X229442368Y-96363571D02*
X229489987Y-96173095D01*
X229489987Y-96173095D02*
X229537606Y-96077857D01*
X229537606Y-96077857D02*
X229585225Y-96030238D01*
X229585225Y-96030238D02*
X229680463Y-95982619D01*
%TO.C,U7*%
X215138120Y-89882695D02*
X215138120Y-90692218D01*
X215138120Y-90692218D02*
X215185739Y-90787456D01*
X215185739Y-90787456D02*
X215233358Y-90835076D01*
X215233358Y-90835076D02*
X215328596Y-90882695D01*
X215328596Y-90882695D02*
X215519072Y-90882695D01*
X215519072Y-90882695D02*
X215614310Y-90835076D01*
X215614310Y-90835076D02*
X215661929Y-90787456D01*
X215661929Y-90787456D02*
X215709548Y-90692218D01*
X215709548Y-90692218D02*
X215709548Y-89882695D01*
X216090501Y-89882695D02*
X216757167Y-89882695D01*
X216757167Y-89882695D02*
X216328596Y-90882695D01*
%TO.C,R13*%
X237572619Y-81922857D02*
X237096428Y-82256190D01*
X237572619Y-82494285D02*
X236572619Y-82494285D01*
X236572619Y-82494285D02*
X236572619Y-82113333D01*
X236572619Y-82113333D02*
X236620238Y-82018095D01*
X236620238Y-82018095D02*
X236667857Y-81970476D01*
X236667857Y-81970476D02*
X236763095Y-81922857D01*
X236763095Y-81922857D02*
X236905952Y-81922857D01*
X236905952Y-81922857D02*
X237001190Y-81970476D01*
X237001190Y-81970476D02*
X237048809Y-82018095D01*
X237048809Y-82018095D02*
X237096428Y-82113333D01*
X237096428Y-82113333D02*
X237096428Y-82494285D01*
X237572619Y-80970476D02*
X237572619Y-81541904D01*
X237572619Y-81256190D02*
X236572619Y-81256190D01*
X236572619Y-81256190D02*
X236715476Y-81351428D01*
X236715476Y-81351428D02*
X236810714Y-81446666D01*
X236810714Y-81446666D02*
X236858333Y-81541904D01*
X236572619Y-80637142D02*
X236572619Y-80018095D01*
X236572619Y-80018095D02*
X236953571Y-80351428D01*
X236953571Y-80351428D02*
X236953571Y-80208571D01*
X236953571Y-80208571D02*
X237001190Y-80113333D01*
X237001190Y-80113333D02*
X237048809Y-80065714D01*
X237048809Y-80065714D02*
X237144047Y-80018095D01*
X237144047Y-80018095D02*
X237382142Y-80018095D01*
X237382142Y-80018095D02*
X237477380Y-80065714D01*
X237477380Y-80065714D02*
X237525000Y-80113333D01*
X237525000Y-80113333D02*
X237572619Y-80208571D01*
X237572619Y-80208571D02*
X237572619Y-80494285D01*
X237572619Y-80494285D02*
X237525000Y-80589523D01*
X237525000Y-80589523D02*
X237477380Y-80637142D01*
%TO.C,C8*%
X191707196Y-96237545D02*
X191659577Y-96285165D01*
X191659577Y-96285165D02*
X191516720Y-96332784D01*
X191516720Y-96332784D02*
X191421482Y-96332784D01*
X191421482Y-96332784D02*
X191278625Y-96285165D01*
X191278625Y-96285165D02*
X191183387Y-96189926D01*
X191183387Y-96189926D02*
X191135768Y-96094688D01*
X191135768Y-96094688D02*
X191088149Y-95904212D01*
X191088149Y-95904212D02*
X191088149Y-95761355D01*
X191088149Y-95761355D02*
X191135768Y-95570879D01*
X191135768Y-95570879D02*
X191183387Y-95475641D01*
X191183387Y-95475641D02*
X191278625Y-95380403D01*
X191278625Y-95380403D02*
X191421482Y-95332784D01*
X191421482Y-95332784D02*
X191516720Y-95332784D01*
X191516720Y-95332784D02*
X191659577Y-95380403D01*
X191659577Y-95380403D02*
X191707196Y-95428022D01*
X192278625Y-95761355D02*
X192183387Y-95713736D01*
X192183387Y-95713736D02*
X192135768Y-95666117D01*
X192135768Y-95666117D02*
X192088149Y-95570879D01*
X192088149Y-95570879D02*
X192088149Y-95523260D01*
X192088149Y-95523260D02*
X192135768Y-95428022D01*
X192135768Y-95428022D02*
X192183387Y-95380403D01*
X192183387Y-95380403D02*
X192278625Y-95332784D01*
X192278625Y-95332784D02*
X192469101Y-95332784D01*
X192469101Y-95332784D02*
X192564339Y-95380403D01*
X192564339Y-95380403D02*
X192611958Y-95428022D01*
X192611958Y-95428022D02*
X192659577Y-95523260D01*
X192659577Y-95523260D02*
X192659577Y-95570879D01*
X192659577Y-95570879D02*
X192611958Y-95666117D01*
X192611958Y-95666117D02*
X192564339Y-95713736D01*
X192564339Y-95713736D02*
X192469101Y-95761355D01*
X192469101Y-95761355D02*
X192278625Y-95761355D01*
X192278625Y-95761355D02*
X192183387Y-95808974D01*
X192183387Y-95808974D02*
X192135768Y-95856593D01*
X192135768Y-95856593D02*
X192088149Y-95951831D01*
X192088149Y-95951831D02*
X192088149Y-96142307D01*
X192088149Y-96142307D02*
X192135768Y-96237545D01*
X192135768Y-96237545D02*
X192183387Y-96285165D01*
X192183387Y-96285165D02*
X192278625Y-96332784D01*
X192278625Y-96332784D02*
X192469101Y-96332784D01*
X192469101Y-96332784D02*
X192564339Y-96285165D01*
X192564339Y-96285165D02*
X192611958Y-96237545D01*
X192611958Y-96237545D02*
X192659577Y-96142307D01*
X192659577Y-96142307D02*
X192659577Y-95951831D01*
X192659577Y-95951831D02*
X192611958Y-95856593D01*
X192611958Y-95856593D02*
X192564339Y-95808974D01*
X192564339Y-95808974D02*
X192469101Y-95761355D01*
%TO.C,U14*%
X240601905Y-84417221D02*
X240601905Y-85226744D01*
X240601905Y-85226744D02*
X240649524Y-85321982D01*
X240649524Y-85321982D02*
X240697143Y-85369602D01*
X240697143Y-85369602D02*
X240792381Y-85417221D01*
X240792381Y-85417221D02*
X240982857Y-85417221D01*
X240982857Y-85417221D02*
X241078095Y-85369602D01*
X241078095Y-85369602D02*
X241125714Y-85321982D01*
X241125714Y-85321982D02*
X241173333Y-85226744D01*
X241173333Y-85226744D02*
X241173333Y-84417221D01*
X242173333Y-85417221D02*
X241601905Y-85417221D01*
X241887619Y-85417221D02*
X241887619Y-84417221D01*
X241887619Y-84417221D02*
X241792381Y-84560078D01*
X241792381Y-84560078D02*
X241697143Y-84655316D01*
X241697143Y-84655316D02*
X241601905Y-84702935D01*
X243030476Y-84750554D02*
X243030476Y-85417221D01*
X242792381Y-84369602D02*
X242554286Y-85083887D01*
X242554286Y-85083887D02*
X243173333Y-85083887D01*
%TO.C,U2*%
X226700595Y-107232619D02*
X226700595Y-108042142D01*
X226700595Y-108042142D02*
X226748214Y-108137380D01*
X226748214Y-108137380D02*
X226795833Y-108185000D01*
X226795833Y-108185000D02*
X226891071Y-108232619D01*
X226891071Y-108232619D02*
X227081547Y-108232619D01*
X227081547Y-108232619D02*
X227176785Y-108185000D01*
X227176785Y-108185000D02*
X227224404Y-108137380D01*
X227224404Y-108137380D02*
X227272023Y-108042142D01*
X227272023Y-108042142D02*
X227272023Y-107232619D01*
X227700595Y-107327857D02*
X227748214Y-107280238D01*
X227748214Y-107280238D02*
X227843452Y-107232619D01*
X227843452Y-107232619D02*
X228081547Y-107232619D01*
X228081547Y-107232619D02*
X228176785Y-107280238D01*
X228176785Y-107280238D02*
X228224404Y-107327857D01*
X228224404Y-107327857D02*
X228272023Y-107423095D01*
X228272023Y-107423095D02*
X228272023Y-107518333D01*
X228272023Y-107518333D02*
X228224404Y-107661190D01*
X228224404Y-107661190D02*
X227652976Y-108232619D01*
X227652976Y-108232619D02*
X228272023Y-108232619D01*
%TO.C,TP3*%
X227338095Y-86914619D02*
X227909523Y-86914619D01*
X227623809Y-87914619D02*
X227623809Y-86914619D01*
X228242857Y-87914619D02*
X228242857Y-86914619D01*
X228242857Y-86914619D02*
X228623809Y-86914619D01*
X228623809Y-86914619D02*
X228719047Y-86962238D01*
X228719047Y-86962238D02*
X228766666Y-87009857D01*
X228766666Y-87009857D02*
X228814285Y-87105095D01*
X228814285Y-87105095D02*
X228814285Y-87247952D01*
X228814285Y-87247952D02*
X228766666Y-87343190D01*
X228766666Y-87343190D02*
X228719047Y-87390809D01*
X228719047Y-87390809D02*
X228623809Y-87438428D01*
X228623809Y-87438428D02*
X228242857Y-87438428D01*
X229147619Y-86914619D02*
X229766666Y-86914619D01*
X229766666Y-86914619D02*
X229433333Y-87295571D01*
X229433333Y-87295571D02*
X229576190Y-87295571D01*
X229576190Y-87295571D02*
X229671428Y-87343190D01*
X229671428Y-87343190D02*
X229719047Y-87390809D01*
X229719047Y-87390809D02*
X229766666Y-87486047D01*
X229766666Y-87486047D02*
X229766666Y-87724142D01*
X229766666Y-87724142D02*
X229719047Y-87819380D01*
X229719047Y-87819380D02*
X229671428Y-87867000D01*
X229671428Y-87867000D02*
X229576190Y-87914619D01*
X229576190Y-87914619D02*
X229290476Y-87914619D01*
X229290476Y-87914619D02*
X229195238Y-87867000D01*
X229195238Y-87867000D02*
X229147619Y-87819380D01*
%TO.C,R7*%
X191707196Y-109032784D02*
X191373863Y-108556593D01*
X191135768Y-109032784D02*
X191135768Y-108032784D01*
X191135768Y-108032784D02*
X191516720Y-108032784D01*
X191516720Y-108032784D02*
X191611958Y-108080403D01*
X191611958Y-108080403D02*
X191659577Y-108128022D01*
X191659577Y-108128022D02*
X191707196Y-108223260D01*
X191707196Y-108223260D02*
X191707196Y-108366117D01*
X191707196Y-108366117D02*
X191659577Y-108461355D01*
X191659577Y-108461355D02*
X191611958Y-108508974D01*
X191611958Y-108508974D02*
X191516720Y-108556593D01*
X191516720Y-108556593D02*
X191135768Y-108556593D01*
X192040530Y-108032784D02*
X192707196Y-108032784D01*
X192707196Y-108032784D02*
X192278625Y-109032784D01*
%TO.C,JP3*%
X208171666Y-104342619D02*
X208171666Y-105056904D01*
X208171666Y-105056904D02*
X208124047Y-105199761D01*
X208124047Y-105199761D02*
X208028809Y-105295000D01*
X208028809Y-105295000D02*
X207885952Y-105342619D01*
X207885952Y-105342619D02*
X207790714Y-105342619D01*
X208647857Y-105342619D02*
X208647857Y-104342619D01*
X208647857Y-104342619D02*
X209028809Y-104342619D01*
X209028809Y-104342619D02*
X209124047Y-104390238D01*
X209124047Y-104390238D02*
X209171666Y-104437857D01*
X209171666Y-104437857D02*
X209219285Y-104533095D01*
X209219285Y-104533095D02*
X209219285Y-104675952D01*
X209219285Y-104675952D02*
X209171666Y-104771190D01*
X209171666Y-104771190D02*
X209124047Y-104818809D01*
X209124047Y-104818809D02*
X209028809Y-104866428D01*
X209028809Y-104866428D02*
X208647857Y-104866428D01*
X209552619Y-104342619D02*
X210171666Y-104342619D01*
X210171666Y-104342619D02*
X209838333Y-104723571D01*
X209838333Y-104723571D02*
X209981190Y-104723571D01*
X209981190Y-104723571D02*
X210076428Y-104771190D01*
X210076428Y-104771190D02*
X210124047Y-104818809D01*
X210124047Y-104818809D02*
X210171666Y-104914047D01*
X210171666Y-104914047D02*
X210171666Y-105152142D01*
X210171666Y-105152142D02*
X210124047Y-105247380D01*
X210124047Y-105247380D02*
X210076428Y-105295000D01*
X210076428Y-105295000D02*
X209981190Y-105342619D01*
X209981190Y-105342619D02*
X209695476Y-105342619D01*
X209695476Y-105342619D02*
X209600238Y-105295000D01*
X209600238Y-105295000D02*
X209552619Y-105247380D01*
%TO.C,U13*%
X234323768Y-117176784D02*
X234323768Y-117986307D01*
X234323768Y-117986307D02*
X234371387Y-118081545D01*
X234371387Y-118081545D02*
X234419006Y-118129165D01*
X234419006Y-118129165D02*
X234514244Y-118176784D01*
X234514244Y-118176784D02*
X234704720Y-118176784D01*
X234704720Y-118176784D02*
X234799958Y-118129165D01*
X234799958Y-118129165D02*
X234847577Y-118081545D01*
X234847577Y-118081545D02*
X234895196Y-117986307D01*
X234895196Y-117986307D02*
X234895196Y-117176784D01*
X235895196Y-118176784D02*
X235323768Y-118176784D01*
X235609482Y-118176784D02*
X235609482Y-117176784D01*
X235609482Y-117176784D02*
X235514244Y-117319641D01*
X235514244Y-117319641D02*
X235419006Y-117414879D01*
X235419006Y-117414879D02*
X235323768Y-117462498D01*
X236228530Y-117176784D02*
X236847577Y-117176784D01*
X236847577Y-117176784D02*
X236514244Y-117557736D01*
X236514244Y-117557736D02*
X236657101Y-117557736D01*
X236657101Y-117557736D02*
X236752339Y-117605355D01*
X236752339Y-117605355D02*
X236799958Y-117652974D01*
X236799958Y-117652974D02*
X236847577Y-117748212D01*
X236847577Y-117748212D02*
X236847577Y-117986307D01*
X236847577Y-117986307D02*
X236799958Y-118081545D01*
X236799958Y-118081545D02*
X236752339Y-118129165D01*
X236752339Y-118129165D02*
X236657101Y-118176784D01*
X236657101Y-118176784D02*
X236371387Y-118176784D01*
X236371387Y-118176784D02*
X236276149Y-118129165D01*
X236276149Y-118129165D02*
X236228530Y-118081545D01*
%TO.C,U12*%
X190192606Y-85093197D02*
X191002129Y-85093197D01*
X191002129Y-85093197D02*
X191097367Y-85045578D01*
X191097367Y-85045578D02*
X191144987Y-84997959D01*
X191144987Y-84997959D02*
X191192606Y-84902721D01*
X191192606Y-84902721D02*
X191192606Y-84712245D01*
X191192606Y-84712245D02*
X191144987Y-84617007D01*
X191144987Y-84617007D02*
X191097367Y-84569388D01*
X191097367Y-84569388D02*
X191002129Y-84521769D01*
X191002129Y-84521769D02*
X190192606Y-84521769D01*
X191192606Y-83521769D02*
X191192606Y-84093197D01*
X191192606Y-83807483D02*
X190192606Y-83807483D01*
X190192606Y-83807483D02*
X190335463Y-83902721D01*
X190335463Y-83902721D02*
X190430701Y-83997959D01*
X190430701Y-83997959D02*
X190478320Y-84093197D01*
X190287844Y-83140816D02*
X190240225Y-83093197D01*
X190240225Y-83093197D02*
X190192606Y-82997959D01*
X190192606Y-82997959D02*
X190192606Y-82759864D01*
X190192606Y-82759864D02*
X190240225Y-82664626D01*
X190240225Y-82664626D02*
X190287844Y-82617007D01*
X190287844Y-82617007D02*
X190383082Y-82569388D01*
X190383082Y-82569388D02*
X190478320Y-82569388D01*
X190478320Y-82569388D02*
X190621177Y-82617007D01*
X190621177Y-82617007D02*
X191192606Y-83188435D01*
X191192606Y-83188435D02*
X191192606Y-82569388D01*
%TO.C,U8*%
X243302631Y-102361871D02*
X244112154Y-102361871D01*
X244112154Y-102361871D02*
X244207392Y-102314252D01*
X244207392Y-102314252D02*
X244255012Y-102266633D01*
X244255012Y-102266633D02*
X244302631Y-102171395D01*
X244302631Y-102171395D02*
X244302631Y-101980919D01*
X244302631Y-101980919D02*
X244255012Y-101885681D01*
X244255012Y-101885681D02*
X244207392Y-101838062D01*
X244207392Y-101838062D02*
X244112154Y-101790443D01*
X244112154Y-101790443D02*
X243302631Y-101790443D01*
X243731202Y-101171395D02*
X243683583Y-101266633D01*
X243683583Y-101266633D02*
X243635964Y-101314252D01*
X243635964Y-101314252D02*
X243540726Y-101361871D01*
X243540726Y-101361871D02*
X243493107Y-101361871D01*
X243493107Y-101361871D02*
X243397869Y-101314252D01*
X243397869Y-101314252D02*
X243350250Y-101266633D01*
X243350250Y-101266633D02*
X243302631Y-101171395D01*
X243302631Y-101171395D02*
X243302631Y-100980919D01*
X243302631Y-100980919D02*
X243350250Y-100885681D01*
X243350250Y-100885681D02*
X243397869Y-100838062D01*
X243397869Y-100838062D02*
X243493107Y-100790443D01*
X243493107Y-100790443D02*
X243540726Y-100790443D01*
X243540726Y-100790443D02*
X243635964Y-100838062D01*
X243635964Y-100838062D02*
X243683583Y-100885681D01*
X243683583Y-100885681D02*
X243731202Y-100980919D01*
X243731202Y-100980919D02*
X243731202Y-101171395D01*
X243731202Y-101171395D02*
X243778821Y-101266633D01*
X243778821Y-101266633D02*
X243826440Y-101314252D01*
X243826440Y-101314252D02*
X243921678Y-101361871D01*
X243921678Y-101361871D02*
X244112154Y-101361871D01*
X244112154Y-101361871D02*
X244207392Y-101314252D01*
X244207392Y-101314252D02*
X244255012Y-101266633D01*
X244255012Y-101266633D02*
X244302631Y-101171395D01*
X244302631Y-101171395D02*
X244302631Y-100980919D01*
X244302631Y-100980919D02*
X244255012Y-100885681D01*
X244255012Y-100885681D02*
X244207392Y-100838062D01*
X244207392Y-100838062D02*
X244112154Y-100790443D01*
X244112154Y-100790443D02*
X243921678Y-100790443D01*
X243921678Y-100790443D02*
X243826440Y-100838062D01*
X243826440Y-100838062D02*
X243778821Y-100885681D01*
X243778821Y-100885681D02*
X243731202Y-100980919D01*
%TO.C,C15*%
X222727380Y-95190357D02*
X222775000Y-95237976D01*
X222775000Y-95237976D02*
X222822619Y-95380833D01*
X222822619Y-95380833D02*
X222822619Y-95476071D01*
X222822619Y-95476071D02*
X222775000Y-95618928D01*
X222775000Y-95618928D02*
X222679761Y-95714166D01*
X222679761Y-95714166D02*
X222584523Y-95761785D01*
X222584523Y-95761785D02*
X222394047Y-95809404D01*
X222394047Y-95809404D02*
X222251190Y-95809404D01*
X222251190Y-95809404D02*
X222060714Y-95761785D01*
X222060714Y-95761785D02*
X221965476Y-95714166D01*
X221965476Y-95714166D02*
X221870238Y-95618928D01*
X221870238Y-95618928D02*
X221822619Y-95476071D01*
X221822619Y-95476071D02*
X221822619Y-95380833D01*
X221822619Y-95380833D02*
X221870238Y-95237976D01*
X221870238Y-95237976D02*
X221917857Y-95190357D01*
X222822619Y-94237976D02*
X222822619Y-94809404D01*
X222822619Y-94523690D02*
X221822619Y-94523690D01*
X221822619Y-94523690D02*
X221965476Y-94618928D01*
X221965476Y-94618928D02*
X222060714Y-94714166D01*
X222060714Y-94714166D02*
X222108333Y-94809404D01*
X221822619Y-93333214D02*
X221822619Y-93809404D01*
X221822619Y-93809404D02*
X222298809Y-93857023D01*
X222298809Y-93857023D02*
X222251190Y-93809404D01*
X222251190Y-93809404D02*
X222203571Y-93714166D01*
X222203571Y-93714166D02*
X222203571Y-93476071D01*
X222203571Y-93476071D02*
X222251190Y-93380833D01*
X222251190Y-93380833D02*
X222298809Y-93333214D01*
X222298809Y-93333214D02*
X222394047Y-93285595D01*
X222394047Y-93285595D02*
X222632142Y-93285595D01*
X222632142Y-93285595D02*
X222727380Y-93333214D01*
X222727380Y-93333214D02*
X222775000Y-93380833D01*
X222775000Y-93380833D02*
X222822619Y-93476071D01*
X222822619Y-93476071D02*
X222822619Y-93714166D01*
X222822619Y-93714166D02*
X222775000Y-93809404D01*
X222775000Y-93809404D02*
X222727380Y-93857023D01*
%TO.C,U1*%
X205628092Y-91132606D02*
X205628092Y-91942129D01*
X205628092Y-91942129D02*
X205675711Y-92037367D01*
X205675711Y-92037367D02*
X205723330Y-92084987D01*
X205723330Y-92084987D02*
X205818568Y-92132606D01*
X205818568Y-92132606D02*
X206009044Y-92132606D01*
X206009044Y-92132606D02*
X206104282Y-92084987D01*
X206104282Y-92084987D02*
X206151901Y-92037367D01*
X206151901Y-92037367D02*
X206199520Y-91942129D01*
X206199520Y-91942129D02*
X206199520Y-91132606D01*
X207199520Y-92132606D02*
X206628092Y-92132606D01*
X206913806Y-92132606D02*
X206913806Y-91132606D01*
X206913806Y-91132606D02*
X206818568Y-91275463D01*
X206818568Y-91275463D02*
X206723330Y-91370701D01*
X206723330Y-91370701D02*
X206628092Y-91418320D01*
%TO.C,C13*%
X238475005Y-118081545D02*
X238427386Y-118129165D01*
X238427386Y-118129165D02*
X238284529Y-118176784D01*
X238284529Y-118176784D02*
X238189291Y-118176784D01*
X238189291Y-118176784D02*
X238046434Y-118129165D01*
X238046434Y-118129165D02*
X237951196Y-118033926D01*
X237951196Y-118033926D02*
X237903577Y-117938688D01*
X237903577Y-117938688D02*
X237855958Y-117748212D01*
X237855958Y-117748212D02*
X237855958Y-117605355D01*
X237855958Y-117605355D02*
X237903577Y-117414879D01*
X237903577Y-117414879D02*
X237951196Y-117319641D01*
X237951196Y-117319641D02*
X238046434Y-117224403D01*
X238046434Y-117224403D02*
X238189291Y-117176784D01*
X238189291Y-117176784D02*
X238284529Y-117176784D01*
X238284529Y-117176784D02*
X238427386Y-117224403D01*
X238427386Y-117224403D02*
X238475005Y-117272022D01*
X239427386Y-118176784D02*
X238855958Y-118176784D01*
X239141672Y-118176784D02*
X239141672Y-117176784D01*
X239141672Y-117176784D02*
X239046434Y-117319641D01*
X239046434Y-117319641D02*
X238951196Y-117414879D01*
X238951196Y-117414879D02*
X238855958Y-117462498D01*
X239760720Y-117176784D02*
X240379767Y-117176784D01*
X240379767Y-117176784D02*
X240046434Y-117557736D01*
X240046434Y-117557736D02*
X240189291Y-117557736D01*
X240189291Y-117557736D02*
X240284529Y-117605355D01*
X240284529Y-117605355D02*
X240332148Y-117652974D01*
X240332148Y-117652974D02*
X240379767Y-117748212D01*
X240379767Y-117748212D02*
X240379767Y-117986307D01*
X240379767Y-117986307D02*
X240332148Y-118081545D01*
X240332148Y-118081545D02*
X240284529Y-118129165D01*
X240284529Y-118129165D02*
X240189291Y-118176784D01*
X240189291Y-118176784D02*
X239903577Y-118176784D01*
X239903577Y-118176784D02*
X239808339Y-118129165D01*
X239808339Y-118129165D02*
X239760720Y-118081545D01*
%TO.C,TP2*%
X245118095Y-76754619D02*
X245689523Y-76754619D01*
X245403809Y-77754619D02*
X245403809Y-76754619D01*
X246022857Y-77754619D02*
X246022857Y-76754619D01*
X246022857Y-76754619D02*
X246403809Y-76754619D01*
X246403809Y-76754619D02*
X246499047Y-76802238D01*
X246499047Y-76802238D02*
X246546666Y-76849857D01*
X246546666Y-76849857D02*
X246594285Y-76945095D01*
X246594285Y-76945095D02*
X246594285Y-77087952D01*
X246594285Y-77087952D02*
X246546666Y-77183190D01*
X246546666Y-77183190D02*
X246499047Y-77230809D01*
X246499047Y-77230809D02*
X246403809Y-77278428D01*
X246403809Y-77278428D02*
X246022857Y-77278428D01*
X246975238Y-76849857D02*
X247022857Y-76802238D01*
X247022857Y-76802238D02*
X247118095Y-76754619D01*
X247118095Y-76754619D02*
X247356190Y-76754619D01*
X247356190Y-76754619D02*
X247451428Y-76802238D01*
X247451428Y-76802238D02*
X247499047Y-76849857D01*
X247499047Y-76849857D02*
X247546666Y-76945095D01*
X247546666Y-76945095D02*
X247546666Y-77040333D01*
X247546666Y-77040333D02*
X247499047Y-77183190D01*
X247499047Y-77183190D02*
X246927619Y-77754619D01*
X246927619Y-77754619D02*
X247546666Y-77754619D01*
%TO.C,C9*%
X195652196Y-119097545D02*
X195604577Y-119145165D01*
X195604577Y-119145165D02*
X195461720Y-119192784D01*
X195461720Y-119192784D02*
X195366482Y-119192784D01*
X195366482Y-119192784D02*
X195223625Y-119145165D01*
X195223625Y-119145165D02*
X195128387Y-119049926D01*
X195128387Y-119049926D02*
X195080768Y-118954688D01*
X195080768Y-118954688D02*
X195033149Y-118764212D01*
X195033149Y-118764212D02*
X195033149Y-118621355D01*
X195033149Y-118621355D02*
X195080768Y-118430879D01*
X195080768Y-118430879D02*
X195128387Y-118335641D01*
X195128387Y-118335641D02*
X195223625Y-118240403D01*
X195223625Y-118240403D02*
X195366482Y-118192784D01*
X195366482Y-118192784D02*
X195461720Y-118192784D01*
X195461720Y-118192784D02*
X195604577Y-118240403D01*
X195604577Y-118240403D02*
X195652196Y-118288022D01*
X196128387Y-119192784D02*
X196318863Y-119192784D01*
X196318863Y-119192784D02*
X196414101Y-119145165D01*
X196414101Y-119145165D02*
X196461720Y-119097545D01*
X196461720Y-119097545D02*
X196556958Y-118954688D01*
X196556958Y-118954688D02*
X196604577Y-118764212D01*
X196604577Y-118764212D02*
X196604577Y-118383260D01*
X196604577Y-118383260D02*
X196556958Y-118288022D01*
X196556958Y-118288022D02*
X196509339Y-118240403D01*
X196509339Y-118240403D02*
X196414101Y-118192784D01*
X196414101Y-118192784D02*
X196223625Y-118192784D01*
X196223625Y-118192784D02*
X196128387Y-118240403D01*
X196128387Y-118240403D02*
X196080768Y-118288022D01*
X196080768Y-118288022D02*
X196033149Y-118383260D01*
X196033149Y-118383260D02*
X196033149Y-118621355D01*
X196033149Y-118621355D02*
X196080768Y-118716593D01*
X196080768Y-118716593D02*
X196128387Y-118764212D01*
X196128387Y-118764212D02*
X196223625Y-118811831D01*
X196223625Y-118811831D02*
X196414101Y-118811831D01*
X196414101Y-118811831D02*
X196509339Y-118764212D01*
X196509339Y-118764212D02*
X196556958Y-118716593D01*
X196556958Y-118716593D02*
X196604577Y-118621355D01*
%TO.C,C14*%
X222727380Y-100270357D02*
X222775000Y-100317976D01*
X222775000Y-100317976D02*
X222822619Y-100460833D01*
X222822619Y-100460833D02*
X222822619Y-100556071D01*
X222822619Y-100556071D02*
X222775000Y-100698928D01*
X222775000Y-100698928D02*
X222679761Y-100794166D01*
X222679761Y-100794166D02*
X222584523Y-100841785D01*
X222584523Y-100841785D02*
X222394047Y-100889404D01*
X222394047Y-100889404D02*
X222251190Y-100889404D01*
X222251190Y-100889404D02*
X222060714Y-100841785D01*
X222060714Y-100841785D02*
X221965476Y-100794166D01*
X221965476Y-100794166D02*
X221870238Y-100698928D01*
X221870238Y-100698928D02*
X221822619Y-100556071D01*
X221822619Y-100556071D02*
X221822619Y-100460833D01*
X221822619Y-100460833D02*
X221870238Y-100317976D01*
X221870238Y-100317976D02*
X221917857Y-100270357D01*
X222822619Y-99317976D02*
X222822619Y-99889404D01*
X222822619Y-99603690D02*
X221822619Y-99603690D01*
X221822619Y-99603690D02*
X221965476Y-99698928D01*
X221965476Y-99698928D02*
X222060714Y-99794166D01*
X222060714Y-99794166D02*
X222108333Y-99889404D01*
X222155952Y-98460833D02*
X222822619Y-98460833D01*
X221775000Y-98698928D02*
X222489285Y-98937023D01*
X222489285Y-98937023D02*
X222489285Y-98317976D01*
%TO.C,C2*%
X240565833Y-105887380D02*
X240518214Y-105935000D01*
X240518214Y-105935000D02*
X240375357Y-105982619D01*
X240375357Y-105982619D02*
X240280119Y-105982619D01*
X240280119Y-105982619D02*
X240137262Y-105935000D01*
X240137262Y-105935000D02*
X240042024Y-105839761D01*
X240042024Y-105839761D02*
X239994405Y-105744523D01*
X239994405Y-105744523D02*
X239946786Y-105554047D01*
X239946786Y-105554047D02*
X239946786Y-105411190D01*
X239946786Y-105411190D02*
X239994405Y-105220714D01*
X239994405Y-105220714D02*
X240042024Y-105125476D01*
X240042024Y-105125476D02*
X240137262Y-105030238D01*
X240137262Y-105030238D02*
X240280119Y-104982619D01*
X240280119Y-104982619D02*
X240375357Y-104982619D01*
X240375357Y-104982619D02*
X240518214Y-105030238D01*
X240518214Y-105030238D02*
X240565833Y-105077857D01*
X240946786Y-105077857D02*
X240994405Y-105030238D01*
X240994405Y-105030238D02*
X241089643Y-104982619D01*
X241089643Y-104982619D02*
X241327738Y-104982619D01*
X241327738Y-104982619D02*
X241422976Y-105030238D01*
X241422976Y-105030238D02*
X241470595Y-105077857D01*
X241470595Y-105077857D02*
X241518214Y-105173095D01*
X241518214Y-105173095D02*
X241518214Y-105268333D01*
X241518214Y-105268333D02*
X241470595Y-105411190D01*
X241470595Y-105411190D02*
X240899167Y-105982619D01*
X240899167Y-105982619D02*
X241518214Y-105982619D01*
%TO.C,R6*%
X185077196Y-109032784D02*
X184743863Y-108556593D01*
X184505768Y-109032784D02*
X184505768Y-108032784D01*
X184505768Y-108032784D02*
X184886720Y-108032784D01*
X184886720Y-108032784D02*
X184981958Y-108080403D01*
X184981958Y-108080403D02*
X185029577Y-108128022D01*
X185029577Y-108128022D02*
X185077196Y-108223260D01*
X185077196Y-108223260D02*
X185077196Y-108366117D01*
X185077196Y-108366117D02*
X185029577Y-108461355D01*
X185029577Y-108461355D02*
X184981958Y-108508974D01*
X184981958Y-108508974D02*
X184886720Y-108556593D01*
X184886720Y-108556593D02*
X184505768Y-108556593D01*
X185934339Y-108032784D02*
X185743863Y-108032784D01*
X185743863Y-108032784D02*
X185648625Y-108080403D01*
X185648625Y-108080403D02*
X185601006Y-108128022D01*
X185601006Y-108128022D02*
X185505768Y-108270879D01*
X185505768Y-108270879D02*
X185458149Y-108461355D01*
X185458149Y-108461355D02*
X185458149Y-108842307D01*
X185458149Y-108842307D02*
X185505768Y-108937545D01*
X185505768Y-108937545D02*
X185553387Y-108985165D01*
X185553387Y-108985165D02*
X185648625Y-109032784D01*
X185648625Y-109032784D02*
X185839101Y-109032784D01*
X185839101Y-109032784D02*
X185934339Y-108985165D01*
X185934339Y-108985165D02*
X185981958Y-108937545D01*
X185981958Y-108937545D02*
X186029577Y-108842307D01*
X186029577Y-108842307D02*
X186029577Y-108604212D01*
X186029577Y-108604212D02*
X185981958Y-108508974D01*
X185981958Y-108508974D02*
X185934339Y-108461355D01*
X185934339Y-108461355D02*
X185839101Y-108413736D01*
X185839101Y-108413736D02*
X185648625Y-108413736D01*
X185648625Y-108413736D02*
X185553387Y-108461355D01*
X185553387Y-108461355D02*
X185505768Y-108508974D01*
X185505768Y-108508974D02*
X185458149Y-108604212D01*
%TO.C,TP5*%
X216423095Y-108124619D02*
X216994523Y-108124619D01*
X216708809Y-109124619D02*
X216708809Y-108124619D01*
X217327857Y-109124619D02*
X217327857Y-108124619D01*
X217327857Y-108124619D02*
X217708809Y-108124619D01*
X217708809Y-108124619D02*
X217804047Y-108172238D01*
X217804047Y-108172238D02*
X217851666Y-108219857D01*
X217851666Y-108219857D02*
X217899285Y-108315095D01*
X217899285Y-108315095D02*
X217899285Y-108457952D01*
X217899285Y-108457952D02*
X217851666Y-108553190D01*
X217851666Y-108553190D02*
X217804047Y-108600809D01*
X217804047Y-108600809D02*
X217708809Y-108648428D01*
X217708809Y-108648428D02*
X217327857Y-108648428D01*
X218804047Y-108124619D02*
X218327857Y-108124619D01*
X218327857Y-108124619D02*
X218280238Y-108600809D01*
X218280238Y-108600809D02*
X218327857Y-108553190D01*
X218327857Y-108553190D02*
X218423095Y-108505571D01*
X218423095Y-108505571D02*
X218661190Y-108505571D01*
X218661190Y-108505571D02*
X218756428Y-108553190D01*
X218756428Y-108553190D02*
X218804047Y-108600809D01*
X218804047Y-108600809D02*
X218851666Y-108696047D01*
X218851666Y-108696047D02*
X218851666Y-108934142D01*
X218851666Y-108934142D02*
X218804047Y-109029380D01*
X218804047Y-109029380D02*
X218756428Y-109077000D01*
X218756428Y-109077000D02*
X218661190Y-109124619D01*
X218661190Y-109124619D02*
X218423095Y-109124619D01*
X218423095Y-109124619D02*
X218327857Y-109077000D01*
X218327857Y-109077000D02*
X218280238Y-109029380D01*
%TO.C,R8*%
X242652619Y-114466666D02*
X242176428Y-114799999D01*
X242652619Y-115038094D02*
X241652619Y-115038094D01*
X241652619Y-115038094D02*
X241652619Y-114657142D01*
X241652619Y-114657142D02*
X241700238Y-114561904D01*
X241700238Y-114561904D02*
X241747857Y-114514285D01*
X241747857Y-114514285D02*
X241843095Y-114466666D01*
X241843095Y-114466666D02*
X241985952Y-114466666D01*
X241985952Y-114466666D02*
X242081190Y-114514285D01*
X242081190Y-114514285D02*
X242128809Y-114561904D01*
X242128809Y-114561904D02*
X242176428Y-114657142D01*
X242176428Y-114657142D02*
X242176428Y-115038094D01*
X242081190Y-113895237D02*
X242033571Y-113990475D01*
X242033571Y-113990475D02*
X241985952Y-114038094D01*
X241985952Y-114038094D02*
X241890714Y-114085713D01*
X241890714Y-114085713D02*
X241843095Y-114085713D01*
X241843095Y-114085713D02*
X241747857Y-114038094D01*
X241747857Y-114038094D02*
X241700238Y-113990475D01*
X241700238Y-113990475D02*
X241652619Y-113895237D01*
X241652619Y-113895237D02*
X241652619Y-113704761D01*
X241652619Y-113704761D02*
X241700238Y-113609523D01*
X241700238Y-113609523D02*
X241747857Y-113561904D01*
X241747857Y-113561904D02*
X241843095Y-113514285D01*
X241843095Y-113514285D02*
X241890714Y-113514285D01*
X241890714Y-113514285D02*
X241985952Y-113561904D01*
X241985952Y-113561904D02*
X242033571Y-113609523D01*
X242033571Y-113609523D02*
X242081190Y-113704761D01*
X242081190Y-113704761D02*
X242081190Y-113895237D01*
X242081190Y-113895237D02*
X242128809Y-113990475D01*
X242128809Y-113990475D02*
X242176428Y-114038094D01*
X242176428Y-114038094D02*
X242271666Y-114085713D01*
X242271666Y-114085713D02*
X242462142Y-114085713D01*
X242462142Y-114085713D02*
X242557380Y-114038094D01*
X242557380Y-114038094D02*
X242605000Y-113990475D01*
X242605000Y-113990475D02*
X242652619Y-113895237D01*
X242652619Y-113895237D02*
X242652619Y-113704761D01*
X242652619Y-113704761D02*
X242605000Y-113609523D01*
X242605000Y-113609523D02*
X242557380Y-113561904D01*
X242557380Y-113561904D02*
X242462142Y-113514285D01*
X242462142Y-113514285D02*
X242271666Y-113514285D01*
X242271666Y-113514285D02*
X242176428Y-113561904D01*
X242176428Y-113561904D02*
X242128809Y-113609523D01*
X242128809Y-113609523D02*
X242081190Y-113704761D01*
%TO.C,LED1*%
X252880919Y-86822592D02*
X252404729Y-86822592D01*
X252404729Y-86822592D02*
X252404729Y-85822592D01*
X253214253Y-86298782D02*
X253547586Y-86298782D01*
X253690443Y-86822592D02*
X253214253Y-86822592D01*
X253214253Y-86822592D02*
X253214253Y-85822592D01*
X253214253Y-85822592D02*
X253690443Y-85822592D01*
X254119015Y-86822592D02*
X254119015Y-85822592D01*
X254119015Y-85822592D02*
X254357110Y-85822592D01*
X254357110Y-85822592D02*
X254499967Y-85870211D01*
X254499967Y-85870211D02*
X254595205Y-85965449D01*
X254595205Y-85965449D02*
X254642824Y-86060687D01*
X254642824Y-86060687D02*
X254690443Y-86251163D01*
X254690443Y-86251163D02*
X254690443Y-86394020D01*
X254690443Y-86394020D02*
X254642824Y-86584496D01*
X254642824Y-86584496D02*
X254595205Y-86679734D01*
X254595205Y-86679734D02*
X254499967Y-86774973D01*
X254499967Y-86774973D02*
X254357110Y-86822592D01*
X254357110Y-86822592D02*
X254119015Y-86822592D01*
X255642824Y-86822592D02*
X255071396Y-86822592D01*
X255357110Y-86822592D02*
X255357110Y-85822592D01*
X255357110Y-85822592D02*
X255261872Y-85965449D01*
X255261872Y-85965449D02*
X255166634Y-86060687D01*
X255166634Y-86060687D02*
X255071396Y-86108306D01*
%TO.C,JP1*%
X249851666Y-103802619D02*
X249851666Y-104516904D01*
X249851666Y-104516904D02*
X249804047Y-104659761D01*
X249804047Y-104659761D02*
X249708809Y-104755000D01*
X249708809Y-104755000D02*
X249565952Y-104802619D01*
X249565952Y-104802619D02*
X249470714Y-104802619D01*
X250327857Y-104802619D02*
X250327857Y-103802619D01*
X250327857Y-103802619D02*
X250708809Y-103802619D01*
X250708809Y-103802619D02*
X250804047Y-103850238D01*
X250804047Y-103850238D02*
X250851666Y-103897857D01*
X250851666Y-103897857D02*
X250899285Y-103993095D01*
X250899285Y-103993095D02*
X250899285Y-104135952D01*
X250899285Y-104135952D02*
X250851666Y-104231190D01*
X250851666Y-104231190D02*
X250804047Y-104278809D01*
X250804047Y-104278809D02*
X250708809Y-104326428D01*
X250708809Y-104326428D02*
X250327857Y-104326428D01*
X251851666Y-104802619D02*
X251280238Y-104802619D01*
X251565952Y-104802619D02*
X251565952Y-103802619D01*
X251565952Y-103802619D02*
X251470714Y-103945476D01*
X251470714Y-103945476D02*
X251375476Y-104040714D01*
X251375476Y-104040714D02*
X251280238Y-104088333D01*
%TO.C,R4*%
X201432619Y-77606666D02*
X200956428Y-77939999D01*
X201432619Y-78178094D02*
X200432619Y-78178094D01*
X200432619Y-78178094D02*
X200432619Y-77797142D01*
X200432619Y-77797142D02*
X200480238Y-77701904D01*
X200480238Y-77701904D02*
X200527857Y-77654285D01*
X200527857Y-77654285D02*
X200623095Y-77606666D01*
X200623095Y-77606666D02*
X200765952Y-77606666D01*
X200765952Y-77606666D02*
X200861190Y-77654285D01*
X200861190Y-77654285D02*
X200908809Y-77701904D01*
X200908809Y-77701904D02*
X200956428Y-77797142D01*
X200956428Y-77797142D02*
X200956428Y-78178094D01*
X200765952Y-76749523D02*
X201432619Y-76749523D01*
X200385000Y-76987618D02*
X201099285Y-77225713D01*
X201099285Y-77225713D02*
X201099285Y-76606666D01*
%TO.C,J1*%
X240552619Y-126063333D02*
X241266904Y-126063333D01*
X241266904Y-126063333D02*
X241409761Y-126110952D01*
X241409761Y-126110952D02*
X241505000Y-126206190D01*
X241505000Y-126206190D02*
X241552619Y-126349047D01*
X241552619Y-126349047D02*
X241552619Y-126444285D01*
X241552619Y-125063333D02*
X241552619Y-125634761D01*
X241552619Y-125349047D02*
X240552619Y-125349047D01*
X240552619Y-125349047D02*
X240695476Y-125444285D01*
X240695476Y-125444285D02*
X240790714Y-125539523D01*
X240790714Y-125539523D02*
X240838333Y-125634761D01*
%TO.C,TP4*%
X214638095Y-117394619D02*
X215209523Y-117394619D01*
X214923809Y-118394619D02*
X214923809Y-117394619D01*
X215542857Y-118394619D02*
X215542857Y-117394619D01*
X215542857Y-117394619D02*
X215923809Y-117394619D01*
X215923809Y-117394619D02*
X216019047Y-117442238D01*
X216019047Y-117442238D02*
X216066666Y-117489857D01*
X216066666Y-117489857D02*
X216114285Y-117585095D01*
X216114285Y-117585095D02*
X216114285Y-117727952D01*
X216114285Y-117727952D02*
X216066666Y-117823190D01*
X216066666Y-117823190D02*
X216019047Y-117870809D01*
X216019047Y-117870809D02*
X215923809Y-117918428D01*
X215923809Y-117918428D02*
X215542857Y-117918428D01*
X216971428Y-117727952D02*
X216971428Y-118394619D01*
X216733333Y-117347000D02*
X216495238Y-118061285D01*
X216495238Y-118061285D02*
X217114285Y-118061285D01*
%TO.C,C4*%
X187161243Y-81364331D02*
X187208863Y-81411950D01*
X187208863Y-81411950D02*
X187256482Y-81554807D01*
X187256482Y-81554807D02*
X187256482Y-81650045D01*
X187256482Y-81650045D02*
X187208863Y-81792902D01*
X187208863Y-81792902D02*
X187113624Y-81888140D01*
X187113624Y-81888140D02*
X187018386Y-81935759D01*
X187018386Y-81935759D02*
X186827910Y-81983378D01*
X186827910Y-81983378D02*
X186685053Y-81983378D01*
X186685053Y-81983378D02*
X186494577Y-81935759D01*
X186494577Y-81935759D02*
X186399339Y-81888140D01*
X186399339Y-81888140D02*
X186304101Y-81792902D01*
X186304101Y-81792902D02*
X186256482Y-81650045D01*
X186256482Y-81650045D02*
X186256482Y-81554807D01*
X186256482Y-81554807D02*
X186304101Y-81411950D01*
X186304101Y-81411950D02*
X186351720Y-81364331D01*
X186589815Y-80507188D02*
X187256482Y-80507188D01*
X186208863Y-80745283D02*
X186923148Y-80983378D01*
X186923148Y-80983378D02*
X186923148Y-80364331D01*
%TO.C,R10*%
X252759642Y-121212619D02*
X252426309Y-120736428D01*
X252188214Y-121212619D02*
X252188214Y-120212619D01*
X252188214Y-120212619D02*
X252569166Y-120212619D01*
X252569166Y-120212619D02*
X252664404Y-120260238D01*
X252664404Y-120260238D02*
X252712023Y-120307857D01*
X252712023Y-120307857D02*
X252759642Y-120403095D01*
X252759642Y-120403095D02*
X252759642Y-120545952D01*
X252759642Y-120545952D02*
X252712023Y-120641190D01*
X252712023Y-120641190D02*
X252664404Y-120688809D01*
X252664404Y-120688809D02*
X252569166Y-120736428D01*
X252569166Y-120736428D02*
X252188214Y-120736428D01*
X253712023Y-121212619D02*
X253140595Y-121212619D01*
X253426309Y-121212619D02*
X253426309Y-120212619D01*
X253426309Y-120212619D02*
X253331071Y-120355476D01*
X253331071Y-120355476D02*
X253235833Y-120450714D01*
X253235833Y-120450714D02*
X253140595Y-120498333D01*
X254331071Y-120212619D02*
X254426309Y-120212619D01*
X254426309Y-120212619D02*
X254521547Y-120260238D01*
X254521547Y-120260238D02*
X254569166Y-120307857D01*
X254569166Y-120307857D02*
X254616785Y-120403095D01*
X254616785Y-120403095D02*
X254664404Y-120593571D01*
X254664404Y-120593571D02*
X254664404Y-120831666D01*
X254664404Y-120831666D02*
X254616785Y-121022142D01*
X254616785Y-121022142D02*
X254569166Y-121117380D01*
X254569166Y-121117380D02*
X254521547Y-121165000D01*
X254521547Y-121165000D02*
X254426309Y-121212619D01*
X254426309Y-121212619D02*
X254331071Y-121212619D01*
X254331071Y-121212619D02*
X254235833Y-121165000D01*
X254235833Y-121165000D02*
X254188214Y-121117380D01*
X254188214Y-121117380D02*
X254140595Y-121022142D01*
X254140595Y-121022142D02*
X254092976Y-120831666D01*
X254092976Y-120831666D02*
X254092976Y-120593571D01*
X254092976Y-120593571D02*
X254140595Y-120403095D01*
X254140595Y-120403095D02*
X254188214Y-120307857D01*
X254188214Y-120307857D02*
X254235833Y-120260238D01*
X254235833Y-120260238D02*
X254331071Y-120212619D01*
%TO.C,C7*%
X191139696Y-120477545D02*
X191092077Y-120525165D01*
X191092077Y-120525165D02*
X190949220Y-120572784D01*
X190949220Y-120572784D02*
X190853982Y-120572784D01*
X190853982Y-120572784D02*
X190711125Y-120525165D01*
X190711125Y-120525165D02*
X190615887Y-120429926D01*
X190615887Y-120429926D02*
X190568268Y-120334688D01*
X190568268Y-120334688D02*
X190520649Y-120144212D01*
X190520649Y-120144212D02*
X190520649Y-120001355D01*
X190520649Y-120001355D02*
X190568268Y-119810879D01*
X190568268Y-119810879D02*
X190615887Y-119715641D01*
X190615887Y-119715641D02*
X190711125Y-119620403D01*
X190711125Y-119620403D02*
X190853982Y-119572784D01*
X190853982Y-119572784D02*
X190949220Y-119572784D01*
X190949220Y-119572784D02*
X191092077Y-119620403D01*
X191092077Y-119620403D02*
X191139696Y-119668022D01*
X191473030Y-119572784D02*
X192139696Y-119572784D01*
X192139696Y-119572784D02*
X191711125Y-120572784D01*
%TO.C,JP4*%
X203015529Y-104200784D02*
X203015529Y-104915069D01*
X203015529Y-104915069D02*
X202967910Y-105057926D01*
X202967910Y-105057926D02*
X202872672Y-105153165D01*
X202872672Y-105153165D02*
X202729815Y-105200784D01*
X202729815Y-105200784D02*
X202634577Y-105200784D01*
X203491720Y-105200784D02*
X203491720Y-104200784D01*
X203491720Y-104200784D02*
X203872672Y-104200784D01*
X203872672Y-104200784D02*
X203967910Y-104248403D01*
X203967910Y-104248403D02*
X204015529Y-104296022D01*
X204015529Y-104296022D02*
X204063148Y-104391260D01*
X204063148Y-104391260D02*
X204063148Y-104534117D01*
X204063148Y-104534117D02*
X204015529Y-104629355D01*
X204015529Y-104629355D02*
X203967910Y-104676974D01*
X203967910Y-104676974D02*
X203872672Y-104724593D01*
X203872672Y-104724593D02*
X203491720Y-104724593D01*
X204920291Y-104534117D02*
X204920291Y-105200784D01*
X204682196Y-104153165D02*
X204444101Y-104867450D01*
X204444101Y-104867450D02*
X205063148Y-104867450D01*
%TO.C,U5*%
X212598095Y-116302619D02*
X212598095Y-117112142D01*
X212598095Y-117112142D02*
X212645714Y-117207380D01*
X212645714Y-117207380D02*
X212693333Y-117255000D01*
X212693333Y-117255000D02*
X212788571Y-117302619D01*
X212788571Y-117302619D02*
X212979047Y-117302619D01*
X212979047Y-117302619D02*
X213074285Y-117255000D01*
X213074285Y-117255000D02*
X213121904Y-117207380D01*
X213121904Y-117207380D02*
X213169523Y-117112142D01*
X213169523Y-117112142D02*
X213169523Y-116302619D01*
X214121904Y-116302619D02*
X213645714Y-116302619D01*
X213645714Y-116302619D02*
X213598095Y-116778809D01*
X213598095Y-116778809D02*
X213645714Y-116731190D01*
X213645714Y-116731190D02*
X213740952Y-116683571D01*
X213740952Y-116683571D02*
X213979047Y-116683571D01*
X213979047Y-116683571D02*
X214074285Y-116731190D01*
X214074285Y-116731190D02*
X214121904Y-116778809D01*
X214121904Y-116778809D02*
X214169523Y-116874047D01*
X214169523Y-116874047D02*
X214169523Y-117112142D01*
X214169523Y-117112142D02*
X214121904Y-117207380D01*
X214121904Y-117207380D02*
X214074285Y-117255000D01*
X214074285Y-117255000D02*
X213979047Y-117302619D01*
X213979047Y-117302619D02*
X213740952Y-117302619D01*
X213740952Y-117302619D02*
X213645714Y-117255000D01*
X213645714Y-117255000D02*
X213598095Y-117207380D01*
%TO.C,C11*%
X193407380Y-94622857D02*
X193455000Y-94670476D01*
X193455000Y-94670476D02*
X193502619Y-94813333D01*
X193502619Y-94813333D02*
X193502619Y-94908571D01*
X193502619Y-94908571D02*
X193455000Y-95051428D01*
X193455000Y-95051428D02*
X193359761Y-95146666D01*
X193359761Y-95146666D02*
X193264523Y-95194285D01*
X193264523Y-95194285D02*
X193074047Y-95241904D01*
X193074047Y-95241904D02*
X192931190Y-95241904D01*
X192931190Y-95241904D02*
X192740714Y-95194285D01*
X192740714Y-95194285D02*
X192645476Y-95146666D01*
X192645476Y-95146666D02*
X192550238Y-95051428D01*
X192550238Y-95051428D02*
X192502619Y-94908571D01*
X192502619Y-94908571D02*
X192502619Y-94813333D01*
X192502619Y-94813333D02*
X192550238Y-94670476D01*
X192550238Y-94670476D02*
X192597857Y-94622857D01*
X193502619Y-93670476D02*
X193502619Y-94241904D01*
X193502619Y-93956190D02*
X192502619Y-93956190D01*
X192502619Y-93956190D02*
X192645476Y-94051428D01*
X192645476Y-94051428D02*
X192740714Y-94146666D01*
X192740714Y-94146666D02*
X192788333Y-94241904D01*
X193502619Y-92718095D02*
X193502619Y-93289523D01*
X193502619Y-93003809D02*
X192502619Y-93003809D01*
X192502619Y-93003809D02*
X192645476Y-93099047D01*
X192645476Y-93099047D02*
X192740714Y-93194285D01*
X192740714Y-93194285D02*
X192788333Y-93289523D01*
%TO.C,R14*%
X231094642Y-113592619D02*
X230761309Y-113116428D01*
X230523214Y-113592619D02*
X230523214Y-112592619D01*
X230523214Y-112592619D02*
X230904166Y-112592619D01*
X230904166Y-112592619D02*
X230999404Y-112640238D01*
X230999404Y-112640238D02*
X231047023Y-112687857D01*
X231047023Y-112687857D02*
X231094642Y-112783095D01*
X231094642Y-112783095D02*
X231094642Y-112925952D01*
X231094642Y-112925952D02*
X231047023Y-113021190D01*
X231047023Y-113021190D02*
X230999404Y-113068809D01*
X230999404Y-113068809D02*
X230904166Y-113116428D01*
X230904166Y-113116428D02*
X230523214Y-113116428D01*
X232047023Y-113592619D02*
X231475595Y-113592619D01*
X231761309Y-113592619D02*
X231761309Y-112592619D01*
X231761309Y-112592619D02*
X231666071Y-112735476D01*
X231666071Y-112735476D02*
X231570833Y-112830714D01*
X231570833Y-112830714D02*
X231475595Y-112878333D01*
X232904166Y-112925952D02*
X232904166Y-113592619D01*
X232666071Y-112545000D02*
X232427976Y-113259285D01*
X232427976Y-113259285D02*
X233047023Y-113259285D01*
%TO.C,C3*%
X240565833Y-109587380D02*
X240518214Y-109635000D01*
X240518214Y-109635000D02*
X240375357Y-109682619D01*
X240375357Y-109682619D02*
X240280119Y-109682619D01*
X240280119Y-109682619D02*
X240137262Y-109635000D01*
X240137262Y-109635000D02*
X240042024Y-109539761D01*
X240042024Y-109539761D02*
X239994405Y-109444523D01*
X239994405Y-109444523D02*
X239946786Y-109254047D01*
X239946786Y-109254047D02*
X239946786Y-109111190D01*
X239946786Y-109111190D02*
X239994405Y-108920714D01*
X239994405Y-108920714D02*
X240042024Y-108825476D01*
X240042024Y-108825476D02*
X240137262Y-108730238D01*
X240137262Y-108730238D02*
X240280119Y-108682619D01*
X240280119Y-108682619D02*
X240375357Y-108682619D01*
X240375357Y-108682619D02*
X240518214Y-108730238D01*
X240518214Y-108730238D02*
X240565833Y-108777857D01*
X240899167Y-108682619D02*
X241518214Y-108682619D01*
X241518214Y-108682619D02*
X241184881Y-109063571D01*
X241184881Y-109063571D02*
X241327738Y-109063571D01*
X241327738Y-109063571D02*
X241422976Y-109111190D01*
X241422976Y-109111190D02*
X241470595Y-109158809D01*
X241470595Y-109158809D02*
X241518214Y-109254047D01*
X241518214Y-109254047D02*
X241518214Y-109492142D01*
X241518214Y-109492142D02*
X241470595Y-109587380D01*
X241470595Y-109587380D02*
X241422976Y-109635000D01*
X241422976Y-109635000D02*
X241327738Y-109682619D01*
X241327738Y-109682619D02*
X241042024Y-109682619D01*
X241042024Y-109682619D02*
X240946786Y-109635000D01*
X240946786Y-109635000D02*
X240899167Y-109587380D01*
%TO.C,Q1*%
X214130624Y-93207857D02*
X214035386Y-93160238D01*
X214035386Y-93160238D02*
X213940148Y-93065000D01*
X213940148Y-93065000D02*
X213797291Y-92922142D01*
X213797291Y-92922142D02*
X213702053Y-92874523D01*
X213702053Y-92874523D02*
X213606815Y-92874523D01*
X213654434Y-93112619D02*
X213559196Y-93065000D01*
X213559196Y-93065000D02*
X213463958Y-92969761D01*
X213463958Y-92969761D02*
X213416339Y-92779285D01*
X213416339Y-92779285D02*
X213416339Y-92445952D01*
X213416339Y-92445952D02*
X213463958Y-92255476D01*
X213463958Y-92255476D02*
X213559196Y-92160238D01*
X213559196Y-92160238D02*
X213654434Y-92112619D01*
X213654434Y-92112619D02*
X213844910Y-92112619D01*
X213844910Y-92112619D02*
X213940148Y-92160238D01*
X213940148Y-92160238D02*
X214035386Y-92255476D01*
X214035386Y-92255476D02*
X214083005Y-92445952D01*
X214083005Y-92445952D02*
X214083005Y-92779285D01*
X214083005Y-92779285D02*
X214035386Y-92969761D01*
X214035386Y-92969761D02*
X213940148Y-93065000D01*
X213940148Y-93065000D02*
X213844910Y-93112619D01*
X213844910Y-93112619D02*
X213654434Y-93112619D01*
X215035386Y-93112619D02*
X214463958Y-93112619D01*
X214749672Y-93112619D02*
X214749672Y-92112619D01*
X214749672Y-92112619D02*
X214654434Y-92255476D01*
X214654434Y-92255476D02*
X214559196Y-92350714D01*
X214559196Y-92350714D02*
X214463958Y-92398333D01*
%TO.C,C5*%
X183097243Y-81812831D02*
X183144863Y-81860450D01*
X183144863Y-81860450D02*
X183192482Y-82003307D01*
X183192482Y-82003307D02*
X183192482Y-82098545D01*
X183192482Y-82098545D02*
X183144863Y-82241402D01*
X183144863Y-82241402D02*
X183049624Y-82336640D01*
X183049624Y-82336640D02*
X182954386Y-82384259D01*
X182954386Y-82384259D02*
X182763910Y-82431878D01*
X182763910Y-82431878D02*
X182621053Y-82431878D01*
X182621053Y-82431878D02*
X182430577Y-82384259D01*
X182430577Y-82384259D02*
X182335339Y-82336640D01*
X182335339Y-82336640D02*
X182240101Y-82241402D01*
X182240101Y-82241402D02*
X182192482Y-82098545D01*
X182192482Y-82098545D02*
X182192482Y-82003307D01*
X182192482Y-82003307D02*
X182240101Y-81860450D01*
X182240101Y-81860450D02*
X182287720Y-81812831D01*
X182192482Y-80908069D02*
X182192482Y-81384259D01*
X182192482Y-81384259D02*
X182668672Y-81431878D01*
X182668672Y-81431878D02*
X182621053Y-81384259D01*
X182621053Y-81384259D02*
X182573434Y-81289021D01*
X182573434Y-81289021D02*
X182573434Y-81050926D01*
X182573434Y-81050926D02*
X182621053Y-80955688D01*
X182621053Y-80955688D02*
X182668672Y-80908069D01*
X182668672Y-80908069D02*
X182763910Y-80860450D01*
X182763910Y-80860450D02*
X183002005Y-80860450D01*
X183002005Y-80860450D02*
X183097243Y-80908069D01*
X183097243Y-80908069D02*
X183144863Y-80955688D01*
X183144863Y-80955688D02*
X183192482Y-81050926D01*
X183192482Y-81050926D02*
X183192482Y-81289021D01*
X183192482Y-81289021D02*
X183144863Y-81384259D01*
X183144863Y-81384259D02*
X183097243Y-81431878D01*
%TO.C,C12*%
X194937142Y-98267380D02*
X194889523Y-98315000D01*
X194889523Y-98315000D02*
X194746666Y-98362619D01*
X194746666Y-98362619D02*
X194651428Y-98362619D01*
X194651428Y-98362619D02*
X194508571Y-98315000D01*
X194508571Y-98315000D02*
X194413333Y-98219761D01*
X194413333Y-98219761D02*
X194365714Y-98124523D01*
X194365714Y-98124523D02*
X194318095Y-97934047D01*
X194318095Y-97934047D02*
X194318095Y-97791190D01*
X194318095Y-97791190D02*
X194365714Y-97600714D01*
X194365714Y-97600714D02*
X194413333Y-97505476D01*
X194413333Y-97505476D02*
X194508571Y-97410238D01*
X194508571Y-97410238D02*
X194651428Y-97362619D01*
X194651428Y-97362619D02*
X194746666Y-97362619D01*
X194746666Y-97362619D02*
X194889523Y-97410238D01*
X194889523Y-97410238D02*
X194937142Y-97457857D01*
X195889523Y-98362619D02*
X195318095Y-98362619D01*
X195603809Y-98362619D02*
X195603809Y-97362619D01*
X195603809Y-97362619D02*
X195508571Y-97505476D01*
X195508571Y-97505476D02*
X195413333Y-97600714D01*
X195413333Y-97600714D02*
X195318095Y-97648333D01*
X196270476Y-97457857D02*
X196318095Y-97410238D01*
X196318095Y-97410238D02*
X196413333Y-97362619D01*
X196413333Y-97362619D02*
X196651428Y-97362619D01*
X196651428Y-97362619D02*
X196746666Y-97410238D01*
X196746666Y-97410238D02*
X196794285Y-97457857D01*
X196794285Y-97457857D02*
X196841904Y-97553095D01*
X196841904Y-97553095D02*
X196841904Y-97648333D01*
X196841904Y-97648333D02*
X196794285Y-97791190D01*
X196794285Y-97791190D02*
X196222857Y-98362619D01*
X196222857Y-98362619D02*
X196841904Y-98362619D01*
%TO.C,R5*%
X201988482Y-87400831D02*
X201512291Y-87734164D01*
X201988482Y-87972259D02*
X200988482Y-87972259D01*
X200988482Y-87972259D02*
X200988482Y-87591307D01*
X200988482Y-87591307D02*
X201036101Y-87496069D01*
X201036101Y-87496069D02*
X201083720Y-87448450D01*
X201083720Y-87448450D02*
X201178958Y-87400831D01*
X201178958Y-87400831D02*
X201321815Y-87400831D01*
X201321815Y-87400831D02*
X201417053Y-87448450D01*
X201417053Y-87448450D02*
X201464672Y-87496069D01*
X201464672Y-87496069D02*
X201512291Y-87591307D01*
X201512291Y-87591307D02*
X201512291Y-87972259D01*
X200988482Y-86496069D02*
X200988482Y-86972259D01*
X200988482Y-86972259D02*
X201464672Y-87019878D01*
X201464672Y-87019878D02*
X201417053Y-86972259D01*
X201417053Y-86972259D02*
X201369434Y-86877021D01*
X201369434Y-86877021D02*
X201369434Y-86638926D01*
X201369434Y-86638926D02*
X201417053Y-86543688D01*
X201417053Y-86543688D02*
X201464672Y-86496069D01*
X201464672Y-86496069D02*
X201559910Y-86448450D01*
X201559910Y-86448450D02*
X201798005Y-86448450D01*
X201798005Y-86448450D02*
X201893243Y-86496069D01*
X201893243Y-86496069D02*
X201940863Y-86543688D01*
X201940863Y-86543688D02*
X201988482Y-86638926D01*
X201988482Y-86638926D02*
X201988482Y-86877021D01*
X201988482Y-86877021D02*
X201940863Y-86972259D01*
X201940863Y-86972259D02*
X201893243Y-87019878D01*
%TO.C,JP2*%
X235386666Y-108682619D02*
X235386666Y-109396904D01*
X235386666Y-109396904D02*
X235339047Y-109539761D01*
X235339047Y-109539761D02*
X235243809Y-109635000D01*
X235243809Y-109635000D02*
X235100952Y-109682619D01*
X235100952Y-109682619D02*
X235005714Y-109682619D01*
X235862857Y-109682619D02*
X235862857Y-108682619D01*
X235862857Y-108682619D02*
X236243809Y-108682619D01*
X236243809Y-108682619D02*
X236339047Y-108730238D01*
X236339047Y-108730238D02*
X236386666Y-108777857D01*
X236386666Y-108777857D02*
X236434285Y-108873095D01*
X236434285Y-108873095D02*
X236434285Y-109015952D01*
X236434285Y-109015952D02*
X236386666Y-109111190D01*
X236386666Y-109111190D02*
X236339047Y-109158809D01*
X236339047Y-109158809D02*
X236243809Y-109206428D01*
X236243809Y-109206428D02*
X235862857Y-109206428D01*
X236815238Y-108777857D02*
X236862857Y-108730238D01*
X236862857Y-108730238D02*
X236958095Y-108682619D01*
X236958095Y-108682619D02*
X237196190Y-108682619D01*
X237196190Y-108682619D02*
X237291428Y-108730238D01*
X237291428Y-108730238D02*
X237339047Y-108777857D01*
X237339047Y-108777857D02*
X237386666Y-108873095D01*
X237386666Y-108873095D02*
X237386666Y-108968333D01*
X237386666Y-108968333D02*
X237339047Y-109111190D01*
X237339047Y-109111190D02*
X236767619Y-109682619D01*
X236767619Y-109682619D02*
X237386666Y-109682619D01*
%TO.C,CN1*%
X248229523Y-122287380D02*
X248181904Y-122335000D01*
X248181904Y-122335000D02*
X248039047Y-122382619D01*
X248039047Y-122382619D02*
X247943809Y-122382619D01*
X247943809Y-122382619D02*
X247800952Y-122335000D01*
X247800952Y-122335000D02*
X247705714Y-122239761D01*
X247705714Y-122239761D02*
X247658095Y-122144523D01*
X247658095Y-122144523D02*
X247610476Y-121954047D01*
X247610476Y-121954047D02*
X247610476Y-121811190D01*
X247610476Y-121811190D02*
X247658095Y-121620714D01*
X247658095Y-121620714D02*
X247705714Y-121525476D01*
X247705714Y-121525476D02*
X247800952Y-121430238D01*
X247800952Y-121430238D02*
X247943809Y-121382619D01*
X247943809Y-121382619D02*
X248039047Y-121382619D01*
X248039047Y-121382619D02*
X248181904Y-121430238D01*
X248181904Y-121430238D02*
X248229523Y-121477857D01*
X248658095Y-122382619D02*
X248658095Y-121382619D01*
X248658095Y-121382619D02*
X249229523Y-122382619D01*
X249229523Y-122382619D02*
X249229523Y-121382619D01*
X250229523Y-122382619D02*
X249658095Y-122382619D01*
X249943809Y-122382619D02*
X249943809Y-121382619D01*
X249943809Y-121382619D02*
X249848571Y-121525476D01*
X249848571Y-121525476D02*
X249753333Y-121620714D01*
X249753333Y-121620714D02*
X249658095Y-121668333D01*
%TO.C,TP7*%
X184267358Y-121824784D02*
X184838786Y-121824784D01*
X184553072Y-122824784D02*
X184553072Y-121824784D01*
X185172120Y-122824784D02*
X185172120Y-121824784D01*
X185172120Y-121824784D02*
X185553072Y-121824784D01*
X185553072Y-121824784D02*
X185648310Y-121872403D01*
X185648310Y-121872403D02*
X185695929Y-121920022D01*
X185695929Y-121920022D02*
X185743548Y-122015260D01*
X185743548Y-122015260D02*
X185743548Y-122158117D01*
X185743548Y-122158117D02*
X185695929Y-122253355D01*
X185695929Y-122253355D02*
X185648310Y-122300974D01*
X185648310Y-122300974D02*
X185553072Y-122348593D01*
X185553072Y-122348593D02*
X185172120Y-122348593D01*
X186076882Y-121824784D02*
X186743548Y-121824784D01*
X186743548Y-121824784D02*
X186314977Y-122824784D01*
%TO.C,C1*%
X240565833Y-103347380D02*
X240518214Y-103395000D01*
X240518214Y-103395000D02*
X240375357Y-103442619D01*
X240375357Y-103442619D02*
X240280119Y-103442619D01*
X240280119Y-103442619D02*
X240137262Y-103395000D01*
X240137262Y-103395000D02*
X240042024Y-103299761D01*
X240042024Y-103299761D02*
X239994405Y-103204523D01*
X239994405Y-103204523D02*
X239946786Y-103014047D01*
X239946786Y-103014047D02*
X239946786Y-102871190D01*
X239946786Y-102871190D02*
X239994405Y-102680714D01*
X239994405Y-102680714D02*
X240042024Y-102585476D01*
X240042024Y-102585476D02*
X240137262Y-102490238D01*
X240137262Y-102490238D02*
X240280119Y-102442619D01*
X240280119Y-102442619D02*
X240375357Y-102442619D01*
X240375357Y-102442619D02*
X240518214Y-102490238D01*
X240518214Y-102490238D02*
X240565833Y-102537857D01*
X241518214Y-103442619D02*
X240946786Y-103442619D01*
X241232500Y-103442619D02*
X241232500Y-102442619D01*
X241232500Y-102442619D02*
X241137262Y-102585476D01*
X241137262Y-102585476D02*
X241042024Y-102680714D01*
X241042024Y-102680714D02*
X240946786Y-102728333D01*
%TO.C,R1*%
X227835833Y-103432619D02*
X227502500Y-102956428D01*
X227264405Y-103432619D02*
X227264405Y-102432619D01*
X227264405Y-102432619D02*
X227645357Y-102432619D01*
X227645357Y-102432619D02*
X227740595Y-102480238D01*
X227740595Y-102480238D02*
X227788214Y-102527857D01*
X227788214Y-102527857D02*
X227835833Y-102623095D01*
X227835833Y-102623095D02*
X227835833Y-102765952D01*
X227835833Y-102765952D02*
X227788214Y-102861190D01*
X227788214Y-102861190D02*
X227740595Y-102908809D01*
X227740595Y-102908809D02*
X227645357Y-102956428D01*
X227645357Y-102956428D02*
X227264405Y-102956428D01*
X228788214Y-103432619D02*
X228216786Y-103432619D01*
X228502500Y-103432619D02*
X228502500Y-102432619D01*
X228502500Y-102432619D02*
X228407262Y-102575476D01*
X228407262Y-102575476D02*
X228312024Y-102670714D01*
X228312024Y-102670714D02*
X228216786Y-102718333D01*
%TO.C,U3*%
X227838095Y-113762619D02*
X227838095Y-114572142D01*
X227838095Y-114572142D02*
X227885714Y-114667380D01*
X227885714Y-114667380D02*
X227933333Y-114715000D01*
X227933333Y-114715000D02*
X228028571Y-114762619D01*
X228028571Y-114762619D02*
X228219047Y-114762619D01*
X228219047Y-114762619D02*
X228314285Y-114715000D01*
X228314285Y-114715000D02*
X228361904Y-114667380D01*
X228361904Y-114667380D02*
X228409523Y-114572142D01*
X228409523Y-114572142D02*
X228409523Y-113762619D01*
X228790476Y-113762619D02*
X229409523Y-113762619D01*
X229409523Y-113762619D02*
X229076190Y-114143571D01*
X229076190Y-114143571D02*
X229219047Y-114143571D01*
X229219047Y-114143571D02*
X229314285Y-114191190D01*
X229314285Y-114191190D02*
X229361904Y-114238809D01*
X229361904Y-114238809D02*
X229409523Y-114334047D01*
X229409523Y-114334047D02*
X229409523Y-114572142D01*
X229409523Y-114572142D02*
X229361904Y-114667380D01*
X229361904Y-114667380D02*
X229314285Y-114715000D01*
X229314285Y-114715000D02*
X229219047Y-114762619D01*
X229219047Y-114762619D02*
X228933333Y-114762619D01*
X228933333Y-114762619D02*
X228838095Y-114715000D01*
X228838095Y-114715000D02*
X228790476Y-114667380D01*
%TO.C,C6*%
X192615833Y-87797380D02*
X192568214Y-87845000D01*
X192568214Y-87845000D02*
X192425357Y-87892619D01*
X192425357Y-87892619D02*
X192330119Y-87892619D01*
X192330119Y-87892619D02*
X192187262Y-87845000D01*
X192187262Y-87845000D02*
X192092024Y-87749761D01*
X192092024Y-87749761D02*
X192044405Y-87654523D01*
X192044405Y-87654523D02*
X191996786Y-87464047D01*
X191996786Y-87464047D02*
X191996786Y-87321190D01*
X191996786Y-87321190D02*
X192044405Y-87130714D01*
X192044405Y-87130714D02*
X192092024Y-87035476D01*
X192092024Y-87035476D02*
X192187262Y-86940238D01*
X192187262Y-86940238D02*
X192330119Y-86892619D01*
X192330119Y-86892619D02*
X192425357Y-86892619D01*
X192425357Y-86892619D02*
X192568214Y-86940238D01*
X192568214Y-86940238D02*
X192615833Y-86987857D01*
X193472976Y-86892619D02*
X193282500Y-86892619D01*
X193282500Y-86892619D02*
X193187262Y-86940238D01*
X193187262Y-86940238D02*
X193139643Y-86987857D01*
X193139643Y-86987857D02*
X193044405Y-87130714D01*
X193044405Y-87130714D02*
X192996786Y-87321190D01*
X192996786Y-87321190D02*
X192996786Y-87702142D01*
X192996786Y-87702142D02*
X193044405Y-87797380D01*
X193044405Y-87797380D02*
X193092024Y-87845000D01*
X193092024Y-87845000D02*
X193187262Y-87892619D01*
X193187262Y-87892619D02*
X193377738Y-87892619D01*
X193377738Y-87892619D02*
X193472976Y-87845000D01*
X193472976Y-87845000D02*
X193520595Y-87797380D01*
X193520595Y-87797380D02*
X193568214Y-87702142D01*
X193568214Y-87702142D02*
X193568214Y-87464047D01*
X193568214Y-87464047D02*
X193520595Y-87368809D01*
X193520595Y-87368809D02*
X193472976Y-87321190D01*
X193472976Y-87321190D02*
X193377738Y-87273571D01*
X193377738Y-87273571D02*
X193187262Y-87273571D01*
X193187262Y-87273571D02*
X193092024Y-87321190D01*
X193092024Y-87321190D02*
X193044405Y-87368809D01*
X193044405Y-87368809D02*
X192996786Y-87464047D01*
%TO.C,R11*%
X247679642Y-88192619D02*
X247346309Y-87716428D01*
X247108214Y-88192619D02*
X247108214Y-87192619D01*
X247108214Y-87192619D02*
X247489166Y-87192619D01*
X247489166Y-87192619D02*
X247584404Y-87240238D01*
X247584404Y-87240238D02*
X247632023Y-87287857D01*
X247632023Y-87287857D02*
X247679642Y-87383095D01*
X247679642Y-87383095D02*
X247679642Y-87525952D01*
X247679642Y-87525952D02*
X247632023Y-87621190D01*
X247632023Y-87621190D02*
X247584404Y-87668809D01*
X247584404Y-87668809D02*
X247489166Y-87716428D01*
X247489166Y-87716428D02*
X247108214Y-87716428D01*
X248632023Y-88192619D02*
X248060595Y-88192619D01*
X248346309Y-88192619D02*
X248346309Y-87192619D01*
X248346309Y-87192619D02*
X248251071Y-87335476D01*
X248251071Y-87335476D02*
X248155833Y-87430714D01*
X248155833Y-87430714D02*
X248060595Y-87478333D01*
X249584404Y-88192619D02*
X249012976Y-88192619D01*
X249298690Y-88192619D02*
X249298690Y-87192619D01*
X249298690Y-87192619D02*
X249203452Y-87335476D01*
X249203452Y-87335476D02*
X249108214Y-87430714D01*
X249108214Y-87430714D02*
X249012976Y-87478333D01*
%TO.C,U11*%
X255472428Y-82358169D02*
X256281951Y-82358169D01*
X256281951Y-82358169D02*
X256377189Y-82310550D01*
X256377189Y-82310550D02*
X256424809Y-82262931D01*
X256424809Y-82262931D02*
X256472428Y-82167693D01*
X256472428Y-82167693D02*
X256472428Y-81977217D01*
X256472428Y-81977217D02*
X256424809Y-81881979D01*
X256424809Y-81881979D02*
X256377189Y-81834360D01*
X256377189Y-81834360D02*
X256281951Y-81786741D01*
X256281951Y-81786741D02*
X255472428Y-81786741D01*
X256472428Y-80786741D02*
X256472428Y-81358169D01*
X256472428Y-81072455D02*
X255472428Y-81072455D01*
X255472428Y-81072455D02*
X255615285Y-81167693D01*
X255615285Y-81167693D02*
X255710523Y-81262931D01*
X255710523Y-81262931D02*
X255758142Y-81358169D01*
X256472428Y-79834360D02*
X256472428Y-80405788D01*
X256472428Y-80120074D02*
X255472428Y-80120074D01*
X255472428Y-80120074D02*
X255615285Y-80215312D01*
X255615285Y-80215312D02*
X255710523Y-80310550D01*
X255710523Y-80310550D02*
X255758142Y-80405788D01*
%TO.C,R12*%
X245672619Y-86405357D02*
X245196428Y-86738690D01*
X245672619Y-86976785D02*
X244672619Y-86976785D01*
X244672619Y-86976785D02*
X244672619Y-86595833D01*
X244672619Y-86595833D02*
X244720238Y-86500595D01*
X244720238Y-86500595D02*
X244767857Y-86452976D01*
X244767857Y-86452976D02*
X244863095Y-86405357D01*
X244863095Y-86405357D02*
X245005952Y-86405357D01*
X245005952Y-86405357D02*
X245101190Y-86452976D01*
X245101190Y-86452976D02*
X245148809Y-86500595D01*
X245148809Y-86500595D02*
X245196428Y-86595833D01*
X245196428Y-86595833D02*
X245196428Y-86976785D01*
X245672619Y-85452976D02*
X245672619Y-86024404D01*
X245672619Y-85738690D02*
X244672619Y-85738690D01*
X244672619Y-85738690D02*
X244815476Y-85833928D01*
X244815476Y-85833928D02*
X244910714Y-85929166D01*
X244910714Y-85929166D02*
X244958333Y-86024404D01*
X244767857Y-85072023D02*
X244720238Y-85024404D01*
X244720238Y-85024404D02*
X244672619Y-84929166D01*
X244672619Y-84929166D02*
X244672619Y-84691071D01*
X244672619Y-84691071D02*
X244720238Y-84595833D01*
X244720238Y-84595833D02*
X244767857Y-84548214D01*
X244767857Y-84548214D02*
X244863095Y-84500595D01*
X244863095Y-84500595D02*
X244958333Y-84500595D01*
X244958333Y-84500595D02*
X245101190Y-84548214D01*
X245101190Y-84548214D02*
X245672619Y-85119642D01*
X245672619Y-85119642D02*
X245672619Y-84500595D01*
%TO.C,R3*%
X224530833Y-81922619D02*
X224197500Y-81446428D01*
X223959405Y-81922619D02*
X223959405Y-80922619D01*
X223959405Y-80922619D02*
X224340357Y-80922619D01*
X224340357Y-80922619D02*
X224435595Y-80970238D01*
X224435595Y-80970238D02*
X224483214Y-81017857D01*
X224483214Y-81017857D02*
X224530833Y-81113095D01*
X224530833Y-81113095D02*
X224530833Y-81255952D01*
X224530833Y-81255952D02*
X224483214Y-81351190D01*
X224483214Y-81351190D02*
X224435595Y-81398809D01*
X224435595Y-81398809D02*
X224340357Y-81446428D01*
X224340357Y-81446428D02*
X223959405Y-81446428D01*
X224864167Y-80922619D02*
X225483214Y-80922619D01*
X225483214Y-80922619D02*
X225149881Y-81303571D01*
X225149881Y-81303571D02*
X225292738Y-81303571D01*
X225292738Y-81303571D02*
X225387976Y-81351190D01*
X225387976Y-81351190D02*
X225435595Y-81398809D01*
X225435595Y-81398809D02*
X225483214Y-81494047D01*
X225483214Y-81494047D02*
X225483214Y-81732142D01*
X225483214Y-81732142D02*
X225435595Y-81827380D01*
X225435595Y-81827380D02*
X225387976Y-81875000D01*
X225387976Y-81875000D02*
X225292738Y-81922619D01*
X225292738Y-81922619D02*
X225007024Y-81922619D01*
X225007024Y-81922619D02*
X224911786Y-81875000D01*
X224911786Y-81875000D02*
X224864167Y-81827380D01*
%TO.C,D1*%
X216946905Y-102992619D02*
X216946905Y-101992619D01*
X216946905Y-101992619D02*
X217185000Y-101992619D01*
X217185000Y-101992619D02*
X217327857Y-102040238D01*
X217327857Y-102040238D02*
X217423095Y-102135476D01*
X217423095Y-102135476D02*
X217470714Y-102230714D01*
X217470714Y-102230714D02*
X217518333Y-102421190D01*
X217518333Y-102421190D02*
X217518333Y-102564047D01*
X217518333Y-102564047D02*
X217470714Y-102754523D01*
X217470714Y-102754523D02*
X217423095Y-102849761D01*
X217423095Y-102849761D02*
X217327857Y-102945000D01*
X217327857Y-102945000D02*
X217185000Y-102992619D01*
X217185000Y-102992619D02*
X216946905Y-102992619D01*
X218470714Y-102992619D02*
X217899286Y-102992619D01*
X218185000Y-102992619D02*
X218185000Y-101992619D01*
X218185000Y-101992619D02*
X218089762Y-102135476D01*
X218089762Y-102135476D02*
X217994524Y-102230714D01*
X217994524Y-102230714D02*
X217899286Y-102278333D01*
%TO.C,R2*%
X223950833Y-103422619D02*
X223617500Y-102946428D01*
X223379405Y-103422619D02*
X223379405Y-102422619D01*
X223379405Y-102422619D02*
X223760357Y-102422619D01*
X223760357Y-102422619D02*
X223855595Y-102470238D01*
X223855595Y-102470238D02*
X223903214Y-102517857D01*
X223903214Y-102517857D02*
X223950833Y-102613095D01*
X223950833Y-102613095D02*
X223950833Y-102755952D01*
X223950833Y-102755952D02*
X223903214Y-102851190D01*
X223903214Y-102851190D02*
X223855595Y-102898809D01*
X223855595Y-102898809D02*
X223760357Y-102946428D01*
X223760357Y-102946428D02*
X223379405Y-102946428D01*
X224331786Y-102517857D02*
X224379405Y-102470238D01*
X224379405Y-102470238D02*
X224474643Y-102422619D01*
X224474643Y-102422619D02*
X224712738Y-102422619D01*
X224712738Y-102422619D02*
X224807976Y-102470238D01*
X224807976Y-102470238D02*
X224855595Y-102517857D01*
X224855595Y-102517857D02*
X224903214Y-102613095D01*
X224903214Y-102613095D02*
X224903214Y-102708333D01*
X224903214Y-102708333D02*
X224855595Y-102851190D01*
X224855595Y-102851190D02*
X224284167Y-103422619D01*
X224284167Y-103422619D02*
X224903214Y-103422619D01*
%TO.C,C10*%
X193771005Y-125557545D02*
X193723386Y-125605165D01*
X193723386Y-125605165D02*
X193580529Y-125652784D01*
X193580529Y-125652784D02*
X193485291Y-125652784D01*
X193485291Y-125652784D02*
X193342434Y-125605165D01*
X193342434Y-125605165D02*
X193247196Y-125509926D01*
X193247196Y-125509926D02*
X193199577Y-125414688D01*
X193199577Y-125414688D02*
X193151958Y-125224212D01*
X193151958Y-125224212D02*
X193151958Y-125081355D01*
X193151958Y-125081355D02*
X193199577Y-124890879D01*
X193199577Y-124890879D02*
X193247196Y-124795641D01*
X193247196Y-124795641D02*
X193342434Y-124700403D01*
X193342434Y-124700403D02*
X193485291Y-124652784D01*
X193485291Y-124652784D02*
X193580529Y-124652784D01*
X193580529Y-124652784D02*
X193723386Y-124700403D01*
X193723386Y-124700403D02*
X193771005Y-124748022D01*
X194723386Y-125652784D02*
X194151958Y-125652784D01*
X194437672Y-125652784D02*
X194437672Y-124652784D01*
X194437672Y-124652784D02*
X194342434Y-124795641D01*
X194342434Y-124795641D02*
X194247196Y-124890879D01*
X194247196Y-124890879D02*
X194151958Y-124938498D01*
X195342434Y-124652784D02*
X195437672Y-124652784D01*
X195437672Y-124652784D02*
X195532910Y-124700403D01*
X195532910Y-124700403D02*
X195580529Y-124748022D01*
X195580529Y-124748022D02*
X195628148Y-124843260D01*
X195628148Y-124843260D02*
X195675767Y-125033736D01*
X195675767Y-125033736D02*
X195675767Y-125271831D01*
X195675767Y-125271831D02*
X195628148Y-125462307D01*
X195628148Y-125462307D02*
X195580529Y-125557545D01*
X195580529Y-125557545D02*
X195532910Y-125605165D01*
X195532910Y-125605165D02*
X195437672Y-125652784D01*
X195437672Y-125652784D02*
X195342434Y-125652784D01*
X195342434Y-125652784D02*
X195247196Y-125605165D01*
X195247196Y-125605165D02*
X195199577Y-125557545D01*
X195199577Y-125557545D02*
X195151958Y-125462307D01*
X195151958Y-125462307D02*
X195104339Y-125271831D01*
X195104339Y-125271831D02*
X195104339Y-125033736D01*
X195104339Y-125033736D02*
X195151958Y-124843260D01*
X195151958Y-124843260D02*
X195199577Y-124748022D01*
X195199577Y-124748022D02*
X195247196Y-124700403D01*
X195247196Y-124700403D02*
X195342434Y-124652784D01*
%TO.C,TP1*%
X252738095Y-114854619D02*
X253309523Y-114854619D01*
X253023809Y-115854619D02*
X253023809Y-114854619D01*
X253642857Y-115854619D02*
X253642857Y-114854619D01*
X253642857Y-114854619D02*
X254023809Y-114854619D01*
X254023809Y-114854619D02*
X254119047Y-114902238D01*
X254119047Y-114902238D02*
X254166666Y-114949857D01*
X254166666Y-114949857D02*
X254214285Y-115045095D01*
X254214285Y-115045095D02*
X254214285Y-115187952D01*
X254214285Y-115187952D02*
X254166666Y-115283190D01*
X254166666Y-115283190D02*
X254119047Y-115330809D01*
X254119047Y-115330809D02*
X254023809Y-115378428D01*
X254023809Y-115378428D02*
X253642857Y-115378428D01*
X255166666Y-115854619D02*
X254595238Y-115854619D01*
X254880952Y-115854619D02*
X254880952Y-114854619D01*
X254880952Y-114854619D02*
X254785714Y-114997476D01*
X254785714Y-114997476D02*
X254690476Y-115092714D01*
X254690476Y-115092714D02*
X254595238Y-115140333D01*
D12*
%TO.C,U4*%
X201797500Y-117170165D02*
X199997500Y-117170165D01*
X201797500Y-117170165D02*
X202597500Y-117170165D01*
X201797500Y-120290165D02*
X200997500Y-120290165D01*
X201797500Y-120290165D02*
X202597500Y-120290165D01*
%TO.C,TP6*%
X184829263Y-118030165D02*
X186229263Y-118030165D01*
X184829263Y-119430165D02*
X184829263Y-118030165D01*
X186229263Y-118030165D02*
X186229263Y-119430165D01*
X186229263Y-119430165D02*
X184829263Y-119430165D01*
%TO.C,R9*%
X243074879Y-121540000D02*
X243410121Y-121540000D01*
X243074879Y-122300000D02*
X243410121Y-122300000D01*
D13*
%TO.C,U9*%
X246420000Y-112350038D02*
X251420000Y-112350038D01*
X246420000Y-113480010D02*
X246420000Y-112350038D01*
X246420000Y-113719990D02*
X246420000Y-113480010D01*
X246420000Y-114780036D02*
X246520025Y-114780036D01*
X246420000Y-116250013D02*
X246420000Y-114780036D01*
X246420000Y-116250013D02*
X251420000Y-116250013D01*
X246459980Y-113759995D02*
X246420000Y-113719990D01*
X251420000Y-116250013D02*
X251420000Y-112350038D01*
X247000011Y-114300001D02*
G75*
G03*
X246460005Y-113759995I-496079J43927D01*
G01*
X246520000Y-114780010D02*
G75*
G03*
X247000010Y-114300000I-1J480011D01*
G01*
D14*
X246499959Y-117300127D02*
G75*
G03*
X246499959Y-117300127I-29972J0D01*
G01*
D13*
X247284313Y-115560224D02*
G75*
G03*
X247284313Y-115560224I-284227J0D01*
G01*
D15*
%TO.C,U10*%
X236675753Y-91518730D02*
X237376795Y-91518730D01*
X237376795Y-91518730D02*
X237376795Y-101521270D01*
X237376795Y-93540574D02*
X239276718Y-93540574D01*
X237376795Y-96080579D02*
X238875398Y-96080579D01*
X237376795Y-98620584D02*
X239276718Y-98620584D01*
X237376795Y-99519746D02*
X239276718Y-99519746D01*
X237376795Y-101521270D02*
X236675753Y-101521270D01*
X238875398Y-96080579D02*
X238875398Y-96979741D01*
X238875398Y-96979741D02*
X237376795Y-96979741D01*
X239276718Y-93540574D02*
X239276718Y-94439736D01*
X239276718Y-94439736D02*
X237376795Y-94439736D01*
X239276718Y-98620584D02*
X239276718Y-99519746D01*
D16*
X238273416Y-100721168D02*
G75*
G03*
X238275956Y-100721168I1270J201610D01*
G01*
D14*
X241770749Y-101570038D02*
G75*
G03*
X241770749Y-101570038I-29972J0D01*
G01*
D15*
%TO.C,U7*%
X222700051Y-80492289D02*
X222700051Y-83940015D01*
X222700051Y-77639990D02*
X222700051Y-77947686D01*
X217900025Y-72620000D02*
X217900025Y-77639990D01*
X213900025Y-72620000D02*
X217900025Y-72620000D01*
X213900025Y-72620000D02*
X213900025Y-77620025D01*
X209100000Y-83940015D02*
X222700051Y-83940015D01*
X209100000Y-80492289D02*
X209100000Y-83940015D01*
X209100000Y-77639990D02*
X222700051Y-77639990D01*
X209100000Y-77639990D02*
X209100000Y-77947686D01*
D14*
X209179781Y-89070064D02*
G75*
G03*
X209179781Y-89070064I-29972J0D01*
G01*
D12*
%TO.C,R13*%
X238025000Y-81507064D02*
X238025000Y-81052936D01*
X239495000Y-81507064D02*
X239495000Y-81052936D01*
%TO.C,C8*%
X194896665Y-96160000D02*
X195128335Y-96160000D01*
X194896665Y-96880000D02*
X195128335Y-96880000D01*
D17*
%TO.C,U14*%
X237033787Y-83883787D02*
X237033787Y-84915410D01*
X237033787Y-86936213D02*
X237033787Y-85904590D01*
X238486213Y-83883787D02*
X237033787Y-83883787D01*
X238486213Y-84954602D02*
X238486213Y-85865398D01*
X238486213Y-86936213D02*
X237033787Y-86936213D01*
D14*
X238989997Y-86860013D02*
G75*
G03*
X238989997Y-86860013I-29997J0D01*
G01*
D12*
%TO.C,U2*%
X227462500Y-108610000D02*
X225662500Y-108610000D01*
X227462500Y-108610000D02*
X228262500Y-108610000D01*
X227462500Y-111730000D02*
X226662500Y-111730000D01*
X227462500Y-111730000D02*
X228262500Y-111730000D01*
%TO.C,TP3*%
X227900000Y-88200000D02*
X229300000Y-88200000D01*
X227900000Y-89600000D02*
X227900000Y-88200000D01*
X229300000Y-88200000D02*
X229300000Y-89600000D01*
X229300000Y-89600000D02*
X227900000Y-89600000D01*
%TO.C,R7*%
X191146799Y-105120165D02*
X192600927Y-105120165D01*
X191146799Y-106940165D02*
X192600927Y-106940165D01*
%TO.C,JP3*%
X207605000Y-105680000D02*
X210405000Y-105680000D01*
X207605000Y-107680000D02*
X207605000Y-105680000D01*
X210405000Y-105680000D02*
X210405000Y-107680000D01*
X210405000Y-107680000D02*
X207605000Y-107680000D01*
D17*
%TO.C,U13*%
X234534700Y-118828887D02*
X235277500Y-118828887D01*
X234534700Y-121881313D02*
X234534700Y-118828887D01*
X235277500Y-118828887D02*
X235277500Y-121881313D01*
X235277500Y-121881313D02*
X234534700Y-121881313D01*
D18*
X236282275Y-121964447D02*
G75*
G03*
X236282275Y-121964447I-150115J0D01*
G01*
D14*
X236336123Y-121805189D02*
G75*
G03*
X236336123Y-121805189I-29972J0D01*
G01*
D19*
%TO.C,U12*%
X193440224Y-86375105D02*
X195198999Y-86375105D01*
X197719776Y-86375105D02*
X195961001Y-86375105D01*
X193380000Y-85801547D02*
X193380000Y-85768831D01*
X197780000Y-85801547D02*
X197780000Y-85768831D01*
X193380000Y-85151559D02*
X193380000Y-85118844D01*
X197780000Y-85151559D02*
X197780000Y-85118844D01*
X193380000Y-84501572D02*
X193380000Y-84468603D01*
X197780000Y-84501572D02*
X197780000Y-84468603D01*
X193380000Y-83851331D02*
X193380000Y-83818615D01*
X197780000Y-83851331D02*
X197780000Y-83818615D01*
X193380000Y-83201343D02*
X193380000Y-83168628D01*
X197780000Y-83201343D02*
X197780000Y-83168628D01*
X193380000Y-82551356D02*
X193380000Y-82518641D01*
X197780000Y-82551356D02*
X197780000Y-82518641D01*
X193380000Y-81901369D02*
X193380000Y-81868653D01*
X197780000Y-81901369D02*
X197780000Y-81868653D01*
X193479086Y-81335100D02*
X197680914Y-81335100D01*
X195961001Y-86375105D02*
G75*
G03*
X195198999Y-86375105I-381001J0D01*
G01*
D18*
X198589653Y-86734008D02*
G75*
G03*
X198589653Y-86734008I-150115J0D01*
G01*
D14*
X198797424Y-86334973D02*
G75*
G03*
X198797424Y-86334973I-29972J0D01*
G01*
D18*
X197381117Y-85867104D02*
G75*
G03*
X197381117Y-85867104I-150114J0D01*
G01*
D15*
%TO.C,U8*%
X245791996Y-102063010D02*
X255825016Y-102063010D01*
X255825016Y-102063010D02*
X255825016Y-92156990D01*
X255299514Y-100955237D02*
X250244904Y-100371036D01*
X255350289Y-100650386D02*
X255299514Y-100955237D01*
X250244904Y-100371036D02*
X250244904Y-98516807D01*
X250752905Y-99863035D02*
X255350289Y-100650386D01*
X250752905Y-98923233D02*
X250752905Y-99863035D01*
X252632509Y-98694608D02*
X252632509Y-100142385D01*
X250244904Y-98516807D02*
X255291869Y-97935146D01*
X254385138Y-98364382D02*
X254385138Y-100447236D01*
X255317294Y-98267912D02*
X250752905Y-98923233D01*
X255291869Y-97935146D02*
X255317294Y-98267912D01*
X255248714Y-96484803D02*
X255299514Y-96180028D01*
X255299514Y-96180028D02*
X250702130Y-95392601D01*
X250194129Y-95900602D02*
X255248714Y-96484803D01*
X250702130Y-95392601D02*
X250702130Y-94452799D01*
X250702130Y-94452799D02*
X255266519Y-93797478D01*
X252581709Y-94224224D02*
X252581709Y-95672027D01*
X250194129Y-94046373D02*
X250194129Y-95900602D01*
X254334287Y-93894023D02*
X254334287Y-95976802D01*
X255266519Y-93797478D02*
X255241094Y-93464763D01*
X255241094Y-93464763D02*
X250194129Y-94046373D01*
X245791996Y-92156990D02*
X245791996Y-102063010D01*
X255825016Y-92156990D02*
X245791996Y-92156990D01*
D14*
X245896897Y-101910076D02*
G75*
G03*
X245896897Y-101910076I-29997J0D01*
G01*
D12*
%TO.C,C15*%
X223160000Y-94663335D02*
X223160000Y-94431665D01*
X223880000Y-94663335D02*
X223880000Y-94431665D01*
D19*
%TO.C,U1*%
X203869995Y-94380224D02*
X203869995Y-96138999D01*
X203869995Y-98659776D02*
X203869995Y-96901001D01*
X204443553Y-94320000D02*
X204476269Y-94320000D01*
X204443553Y-98720000D02*
X204476269Y-98720000D01*
X205093541Y-94320000D02*
X205126256Y-94320000D01*
X205093541Y-98720000D02*
X205126256Y-98720000D01*
X205743528Y-94320000D02*
X205776497Y-94320000D01*
X205743528Y-98720000D02*
X205776497Y-98720000D01*
X206393769Y-94320000D02*
X206426485Y-94320000D01*
X206393769Y-98720000D02*
X206426485Y-98720000D01*
X207043757Y-94320000D02*
X207076472Y-94320000D01*
X207043757Y-98720000D02*
X207076472Y-98720000D01*
X207693744Y-94320000D02*
X207726459Y-94320000D01*
X207693744Y-98720000D02*
X207726459Y-98720000D01*
X208343731Y-94320000D02*
X208376447Y-94320000D01*
X208343731Y-98720000D02*
X208376447Y-98720000D01*
X208910000Y-94419086D02*
X208910000Y-98620914D01*
X203869995Y-96901001D02*
G75*
G03*
X203869995Y-96138999I0J381001D01*
G01*
D18*
X203661207Y-99379538D02*
G75*
G03*
X203661207Y-99379538I-150115J0D01*
G01*
D14*
X203940099Y-99707452D02*
G75*
G03*
X203940099Y-99707452I-29972J0D01*
G01*
D18*
X204528110Y-98171003D02*
G75*
G03*
X204528110Y-98171003I-150114J0D01*
G01*
D12*
%TO.C,C13*%
X240616665Y-119020000D02*
X240848335Y-119020000D01*
X240616665Y-119740000D02*
X240848335Y-119740000D01*
%TO.C,TP2*%
X245680000Y-78040000D02*
X247080000Y-78040000D01*
X245680000Y-79440000D02*
X245680000Y-78040000D01*
X247080000Y-78040000D02*
X247080000Y-79440000D01*
X247080000Y-79440000D02*
X245680000Y-79440000D01*
%TO.C,C9*%
X196270528Y-120910165D02*
X196502198Y-120910165D01*
X196270528Y-121630165D02*
X196502198Y-121630165D01*
%TO.C,C14*%
X223160000Y-99743335D02*
X223160000Y-99511665D01*
X223880000Y-99743335D02*
X223880000Y-99511665D01*
%TO.C,C2*%
X240616665Y-106320000D02*
X240848335Y-106320000D01*
X240616665Y-107040000D02*
X240848335Y-107040000D01*
%TO.C,R6*%
X185970927Y-106940165D02*
X184516799Y-106940165D01*
X185970927Y-105120165D02*
X184516799Y-105120165D01*
%TO.C,TP5*%
X217740000Y-113600000D02*
X219140000Y-113600000D01*
X217740000Y-115000000D02*
X217740000Y-113600000D01*
X219140000Y-113600000D02*
X219140000Y-115000000D01*
X219140000Y-115000000D02*
X217740000Y-115000000D01*
%TO.C,R8*%
X243105000Y-114527064D02*
X243105000Y-114072936D01*
X244575000Y-114527064D02*
X244575000Y-114072936D01*
D13*
%TO.C,LED1*%
X251710889Y-88445769D02*
X252010838Y-88145820D01*
X251710889Y-88545922D02*
X251710889Y-88445769D01*
X251710889Y-88545922D02*
X251710889Y-89245871D01*
X251710889Y-89245871D02*
X251710889Y-89345896D01*
X251710889Y-89345896D02*
X252010838Y-89645947D01*
X253060952Y-88145820D02*
X252010838Y-88145820D01*
X253060952Y-89645947D02*
X252010838Y-89645947D01*
X253410965Y-89223620D02*
X253080917Y-88893572D01*
X253420922Y-88543585D02*
X253420922Y-88553567D01*
X253420922Y-88543585D02*
X253420922Y-89223620D01*
X253420922Y-88553567D02*
X253080917Y-88893572D01*
X253420922Y-88893572D02*
X253080917Y-88893572D01*
X253420922Y-89223620D02*
X253410965Y-89223620D01*
X253440962Y-88143509D02*
X254590975Y-88143509D01*
X253440962Y-89643636D02*
X254590975Y-89643636D01*
X254590975Y-88143610D02*
X254590975Y-89623544D01*
D14*
X252431005Y-89303580D02*
G75*
G03*
X252431005Y-89303580I-29972J0D01*
G01*
D12*
%TO.C,JP1*%
X249285000Y-105140000D02*
X252085000Y-105140000D01*
X249285000Y-107140000D02*
X249285000Y-105140000D01*
X252085000Y-105140000D02*
X252085000Y-107140000D01*
X252085000Y-107140000D02*
X249285000Y-107140000D01*
%TO.C,R4*%
X202600000Y-80707064D02*
X202600000Y-79252936D01*
X204420000Y-80707064D02*
X204420000Y-79252936D01*
%TO.C,J1*%
X240090000Y-123130000D02*
X240090000Y-124460000D01*
X238760000Y-123130000D02*
X240090000Y-123130000D01*
X237490000Y-123130000D02*
X199330000Y-123130000D01*
X237490000Y-123130000D02*
X237490000Y-125730000D01*
X199330000Y-123130000D02*
X199330000Y-128330000D01*
X240090000Y-125730000D02*
X240090000Y-128330000D01*
X237490000Y-125730000D02*
X240090000Y-125730000D01*
X240090000Y-128330000D02*
X199330000Y-128330000D01*
%TO.C,TP4*%
X215200000Y-118680000D02*
X216600000Y-118680000D01*
X215200000Y-120080000D02*
X215200000Y-118680000D01*
X216600000Y-118680000D02*
X216600000Y-120080000D01*
X216600000Y-120080000D02*
X215200000Y-120080000D01*
%TO.C,C4*%
X186433863Y-83853500D02*
X186433863Y-83621830D01*
X187153863Y-83853500D02*
X187153863Y-83621830D01*
%TO.C,R10*%
X253234879Y-121540000D02*
X253570121Y-121540000D01*
X253234879Y-122300000D02*
X253570121Y-122300000D01*
%TO.C,C7*%
X191190528Y-120910165D02*
X191422198Y-120910165D01*
X191190528Y-121630165D02*
X191422198Y-121630165D01*
%TO.C,JP4*%
X202448863Y-105538165D02*
X205248863Y-105538165D01*
X202448863Y-107538165D02*
X202448863Y-105538165D01*
X205248863Y-105538165D02*
X205248863Y-107538165D01*
X205248863Y-107538165D02*
X202448863Y-107538165D01*
%TO.C,U5*%
X209682500Y-116230000D02*
X207882500Y-116230000D01*
X209682500Y-116230000D02*
X210482500Y-116230000D01*
X209682500Y-119350000D02*
X208882500Y-119350000D01*
X209682500Y-119350000D02*
X210482500Y-119350000D01*
%TO.C,C11*%
X195220000Y-93528335D02*
X195220000Y-93296665D01*
X195940000Y-93528335D02*
X195940000Y-93296665D01*
%TO.C,R14*%
X231569879Y-113920000D02*
X231905121Y-113920000D01*
X231569879Y-114680000D02*
X231905121Y-114680000D01*
%TO.C,C3*%
X240616665Y-110830000D02*
X240848335Y-110830000D01*
X240616665Y-111550000D02*
X240848335Y-111550000D01*
%TO.C,Q1*%
X217502500Y-92420000D02*
X215827500Y-92420000D01*
X217502500Y-92420000D02*
X218152500Y-92420000D01*
X217502500Y-95540000D02*
X216852500Y-95540000D01*
X217502500Y-95540000D02*
X218152500Y-95540000D01*
%TO.C,C5*%
X183893863Y-83286000D02*
X183893863Y-83054330D01*
X184613863Y-83286000D02*
X184613863Y-83054330D01*
%TO.C,C12*%
X195464165Y-98700000D02*
X195695835Y-98700000D01*
X195464165Y-99420000D02*
X195695835Y-99420000D01*
%TO.C,R5*%
X202600000Y-86777064D02*
X202600000Y-85322936D01*
X204420000Y-86777064D02*
X204420000Y-85322936D01*
%TO.C,JP2*%
X234095000Y-113300000D02*
X236895000Y-113300000D01*
X234095000Y-115300000D02*
X234095000Y-113300000D01*
X236895000Y-113300000D02*
X236895000Y-115300000D01*
X236895000Y-115300000D02*
X234095000Y-115300000D01*
D15*
%TO.C,CN1*%
X244380000Y-124199898D02*
X244380000Y-128700025D01*
X244380000Y-128700025D02*
X250380000Y-128700025D01*
X244458994Y-126745999D02*
X244966995Y-126745999D01*
X244458994Y-127381001D02*
X244966995Y-127381001D01*
X244966995Y-124840996D02*
X249920005Y-124840996D01*
X244966995Y-126745999D02*
X244966995Y-124840996D01*
X244966995Y-127381001D02*
X244966995Y-128143002D01*
X244966995Y-128143002D02*
X247125999Y-128143002D01*
X247125999Y-128143002D02*
X247125999Y-128651003D01*
X247713045Y-128143002D02*
X247713045Y-128651003D01*
X249872050Y-127381001D02*
X249872050Y-128143002D01*
X249872050Y-128143002D02*
X247713045Y-128143002D01*
X249920005Y-124840996D02*
X249920005Y-126745999D01*
X249920005Y-126745999D02*
X250301006Y-126745999D01*
X250380000Y-124199898D02*
X244380000Y-124199898D01*
X250380000Y-128700025D02*
X250380000Y-124199898D01*
X250380051Y-127381001D02*
X249872050Y-127381001D01*
D14*
X250359934Y-124199898D02*
G75*
G03*
X250359934Y-124199898I-29972J0D01*
G01*
D12*
%TO.C,TP7*%
X184829263Y-123110165D02*
X186229263Y-123110165D01*
X184829263Y-124510165D02*
X184829263Y-123110165D01*
X186229263Y-123110165D02*
X186229263Y-124510165D01*
X186229263Y-124510165D02*
X184829263Y-124510165D01*
%TO.C,C1*%
X240616665Y-103780000D02*
X240848335Y-103780000D01*
X240616665Y-104500000D02*
X240848335Y-104500000D01*
%TO.C,R1*%
X227834879Y-103760000D02*
X228170121Y-103760000D01*
X227834879Y-104520000D02*
X228170121Y-104520000D01*
%TO.C,U3*%
X224922500Y-116230000D02*
X223122500Y-116230000D01*
X224922500Y-116230000D02*
X225722500Y-116230000D01*
X224922500Y-119350000D02*
X224122500Y-119350000D01*
X224922500Y-119350000D02*
X225722500Y-119350000D01*
%TO.C,C6*%
X192666665Y-88230000D02*
X192898335Y-88230000D01*
X192666665Y-88950000D02*
X192898335Y-88950000D01*
%TO.C,R11*%
X248154879Y-88520000D02*
X248490121Y-88520000D01*
X248154879Y-89280000D02*
X248490121Y-89280000D01*
D15*
%TO.C,U11*%
X254009809Y-79070036D02*
X254009809Y-83170138D01*
X253896144Y-79070036D02*
X254009809Y-79070036D01*
X252626142Y-79070036D02*
X252833863Y-79070036D01*
X251356139Y-79070036D02*
X251563861Y-79070036D01*
X250086137Y-79070036D02*
X250293858Y-79070036D01*
X248909936Y-79070036D02*
X249023856Y-79070036D01*
X248909936Y-80320024D02*
X248909936Y-79070036D01*
X248909936Y-81920176D02*
X248909936Y-83170138D01*
X253896144Y-83170138D02*
X254009809Y-83170138D01*
X252626142Y-83170138D02*
X252833863Y-83170138D01*
X251356139Y-83170138D02*
X251563861Y-83170138D01*
X250086137Y-83170138D02*
X250293858Y-83170138D01*
X248909936Y-83170138D02*
X249023856Y-83170138D01*
X248960000Y-81920201D02*
G75*
G03*
X248960000Y-80319999I-375289J800101D01*
G01*
X248600132Y-83620075D02*
G75*
G03*
X248600132Y-83620075I-170180J0D01*
G01*
D14*
X249039807Y-84119948D02*
G75*
G03*
X249039807Y-84119948I-29972J0D01*
G01*
D12*
%TO.C,R12*%
X246000000Y-85930121D02*
X246000000Y-85594879D01*
X246760000Y-85930121D02*
X246760000Y-85594879D01*
%TO.C,R3*%
X224529879Y-82250000D02*
X224865121Y-82250000D01*
X224529879Y-83010000D02*
X224865121Y-83010000D01*
%TO.C,D1*%
X214175000Y-103380000D02*
X214175000Y-106680000D01*
X214175000Y-103380000D02*
X219685000Y-103380000D01*
X214175000Y-106680000D02*
X219685000Y-106680000D01*
%TO.C,R2*%
X223949879Y-103750000D02*
X224285121Y-103750000D01*
X223949879Y-104510000D02*
X224285121Y-104510000D01*
%TO.C,C10*%
X194865528Y-125990165D02*
X195097198Y-125990165D01*
X194865528Y-126710165D02*
X195097198Y-126710165D01*
%TO.C,TP1*%
X253300000Y-116140000D02*
X254700000Y-116140000D01*
X253300000Y-117540000D02*
X253300000Y-116140000D01*
X254700000Y-116140000D02*
X254700000Y-117540000D01*
X254700000Y-117540000D02*
X253300000Y-117540000D01*
%TD*%
M02*
