M48
; DRILL file {KiCad 7.0.1} date Fri Mar 28 02:09:48 2025
; FORMAT={-:-/ absolute / metric / decimal}
; #@! TF.CreationDate,2025-03-28T02:09:48+02:00
; #@! TF.GenerationSoftware,Kicad,Pcbnew,7.0.1
; #@! TF.FileFunction,Plated,1,2,PTH
FMAT,2
METRIC
; #@! TA.AperFunction,Plated,PTH,ViaDrill
T1C0.300
; #@! TA.AperFunction,Plated,PTH,ComponentDrill
T2C0.400
; #@! TA.AperFunction,Plated,PTH,ComponentDrill
T3C0.500
; #@! TA.AperFunction,Plated,PTH,ComponentDrill
T4C0.900
; #@! TA.AperFunction,Plated,PTH,ComponentDrill
T5C1.000
; #@! TA.AperFunction,Plated,PTH,ComponentDrill
T6C1.500
; #@! TA.AperFunction,Plated,PTH,ComponentDrill
T7C1.800
%
G90
G05
T1
X185.778Y-90.79
X185.778Y-94.854
X190.957Y-82.749
X191.243Y-88.425
X191.366Y-120.254
X192.382Y-95.362
X192.382Y-98.918
X192.89Y-113.65
X192.89Y-117.714
X193.682Y-86.592
X196.35Y-86.593
X197.462Y-117.714
X198.478Y-114.158
X198.478Y-119.238
X198.478Y-124.318
X199.382Y-86.627
X200.66Y-84.022
X201.274Y-84.543
X201.282Y-99.682
X201.422Y-116.962
X202.034Y-93.33
X202.086Y-115.174
X202.644Y-116.911
X203.093Y-101.256
X204.467Y-98.232
X204.574Y-113.65
X204.574Y-117.206
X204.942Y-92.497
X205.137Y-119.411
X206.078Y-101.328
X206.778Y-122.791
X207.357Y-118.704
X212.194Y-113.65
X212.194Y-121.27
X212.702Y-92.314
X212.702Y-97.394
X213.36Y-104.358
X214.725Y-119.704
X216.258Y-111.11
X216.258Y-114.158
X216.355Y-103.288
X217.238Y-114.3
X217.889Y-119.706
X218.44Y-121.834
X219.218Y-116.031
X219.82Y-95.362
X222.855Y-102.322
X224.032Y-113.845
X224.035Y-120.68
X224.674Y-95.964
X225.228Y-119.525
X232.372Y-77.413
X235.068Y-76.811
X236.22Y-102.592
X237.49Y-78.184
X245.596Y-97.719
X245.596Y-109.846
X245.665Y-121.265
X246.097Y-110.592
X246.759Y-115.715
X246.852Y-89.015
X248.749Y-77.829
T2
X248.22Y-94.31
X248.22Y-95.91
X248.22Y-96.71
X248.22Y-97.51
X248.22Y-98.31
X248.22Y-99.91
X248.92Y-94.71
X248.92Y-95.51
X248.92Y-96.31
X248.92Y-97.91
X248.92Y-98.71
X248.92Y-99.51
T4
X246.38Y-127.0
X248.38Y-127.0
T5
X200.66Y-124.46
X200.66Y-127.0
X203.2Y-124.46
X203.2Y-127.0
X205.74Y-124.46
X205.74Y-127.0
X208.28Y-124.46
X208.28Y-127.0
X210.82Y-124.46
X210.82Y-127.0
X213.36Y-124.46
X213.36Y-127.0
X215.9Y-124.46
X215.9Y-127.0
X218.44Y-124.46
X218.44Y-127.0
X220.98Y-124.46
X220.98Y-127.0
X223.52Y-124.46
X223.52Y-127.0
X226.06Y-124.46
X226.06Y-127.0
X228.6Y-124.46
X228.6Y-127.0
X231.14Y-124.46
X231.14Y-127.0
X233.68Y-124.46
X233.68Y-127.0
X236.22Y-124.46
X236.22Y-127.0
X238.76Y-124.46
X238.76Y-127.0
T6
X209.25Y-79.22
X222.55Y-79.22
T7
X211.1Y-88.42
X215.9Y-88.42
X220.7Y-88.42
T3
X249.07Y-92.98G85X248.57Y-92.98
G05
X249.07Y-101.24G85X248.57Y-101.24
G05
X253.46Y-92.62G85X252.96Y-92.62
G05
X253.46Y-101.6G85X252.96Y-101.6
G05
T0
M30
