%TF.GenerationSoftware,KiCad,Pcbnew,7.0.1*%
%TF.CreationDate,2025-03-28T02:07:49+02:00*%
%TF.ProjectId,PowerCircuit_V6,506f7765-7243-4697-9263-7569745f5636,rev?*%
%TF.SameCoordinates,Original*%
%TF.FileFunction,Copper,L1,Top*%
%TF.FilePolarity,Positive*%
%FSLAX46Y46*%
G04 Gerber Fmt 4.6, Leading zero omitted, Abs format (unit mm)*
G04 Created by KiCad (PCBNEW 7.0.1) date 2025-03-28 02:07:49*
%MOMM*%
%LPD*%
G01*
G04 APERTURE LIST*
G04 Aperture macros list*
%AMRoundRect*
0 Rectangle with rounded corners*
0 $1 Rounding radius*
0 $2 $3 $4 $5 $6 $7 $8 $9 X,Y pos of 4 corners*
0 Add a 4 corners polygon primitive as box body*
4,1,4,$2,$3,$4,$5,$6,$7,$8,$9,$2,$3,0*
0 Add four circle primitives for the rounded corners*
1,1,$1+$1,$2,$3*
1,1,$1+$1,$4,$5*
1,1,$1+$1,$6,$7*
1,1,$1+$1,$8,$9*
0 Add four rect primitives between the rounded corners*
20,1,$1+$1,$2,$3,$4,$5,0*
20,1,$1+$1,$4,$5,$6,$7,0*
20,1,$1+$1,$6,$7,$8,$9,0*
20,1,$1+$1,$8,$9,$2,$3,0*%
%AMFreePoly0*
4,1,6,1.000000,0.000000,0.500000,-0.750000,-0.500000,-0.750000,-0.500000,0.750000,0.500000,0.750000,1.000000,0.000000,1.000000,0.000000,$1*%
%AMFreePoly1*
4,1,6,0.500000,-0.750000,-0.650000,-0.750000,-0.150000,0.000000,-0.650000,0.750000,0.500000,0.750000,0.500000,-0.750000,0.500000,-0.750000,$1*%
G04 Aperture macros list end*
%TA.AperFunction,SMDPad,CuDef*%
%ADD10RoundRect,0.150000X-0.512500X-0.150000X0.512500X-0.150000X0.512500X0.150000X-0.512500X0.150000X0*%
%TD*%
%TA.AperFunction,SMDPad,CuDef*%
%ADD11R,1.000000X1.000000*%
%TD*%
%TA.AperFunction,SMDPad,CuDef*%
%ADD12RoundRect,0.160000X-0.197500X-0.160000X0.197500X-0.160000X0.197500X0.160000X-0.197500X0.160000X0*%
%TD*%
%TA.AperFunction,SMDPad,CuDef*%
%ADD13R,0.600000X1.500000*%
%TD*%
%TA.AperFunction,SMDPad,CuDef*%
%ADD14R,3.300000X2.100000*%
%TD*%
%TA.AperFunction,SMDPad,CuDef*%
%ADD15R,3.300000X1.510998*%
%TD*%
%TA.AperFunction,SMDPad,CuDef*%
%ADD16R,10.020015X10.122022*%
%TD*%
%TA.AperFunction,ComponentPad*%
%ADD17R,2.600000X2.600000*%
%TD*%
%TA.AperFunction,ComponentPad*%
%ADD18C,2.600000*%
%TD*%
%TA.AperFunction,ComponentPad*%
%ADD19C,2.100000*%
%TD*%
%TA.AperFunction,SMDPad,CuDef*%
%ADD20RoundRect,0.250000X0.450000X-0.350000X0.450000X0.350000X-0.450000X0.350000X-0.450000X-0.350000X0*%
%TD*%
%TA.AperFunction,SMDPad,CuDef*%
%ADD21RoundRect,0.155000X-0.212500X-0.155000X0.212500X-0.155000X0.212500X0.155000X-0.212500X0.155000X0*%
%TD*%
%TA.AperFunction,SMDPad,CuDef*%
%ADD22R,1.250013X0.700000*%
%TD*%
%TA.AperFunction,SMDPad,CuDef*%
%ADD23RoundRect,0.250000X-0.400000X-0.625000X0.400000X-0.625000X0.400000X0.625000X-0.400000X0.625000X0*%
%TD*%
%TA.AperFunction,SMDPad,CuDef*%
%ADD24FreePoly0,0.000000*%
%TD*%
%TA.AperFunction,SMDPad,CuDef*%
%ADD25FreePoly1,0.000000*%
%TD*%
%TA.AperFunction,SMDPad,CuDef*%
%ADD26O,1.251994X0.364008*%
%TD*%
%TA.AperFunction,SMDPad,CuDef*%
%ADD27O,1.300000X0.350013*%
%TD*%
%TA.AperFunction,SMDPad,CuDef*%
%ADD28R,2.740005X2.740005*%
%TD*%
%TA.AperFunction,ComponentPad*%
%ADD29O,1.400000X0.800000*%
%TD*%
%TA.AperFunction,SMDPad,CuDef*%
%ADD30R,1.400000X0.300000*%
%TD*%
%TA.AperFunction,ComponentPad*%
%ADD31C,0.600000*%
%TD*%
%TA.AperFunction,SMDPad,CuDef*%
%ADD32RoundRect,0.155000X0.155000X-0.212500X0.155000X0.212500X-0.155000X0.212500X-0.155000X-0.212500X0*%
%TD*%
%TA.AperFunction,SMDPad,CuDef*%
%ADD33O,0.350013X1.300000*%
%TD*%
%TA.AperFunction,SMDPad,CuDef*%
%ADD34RoundRect,0.250000X0.400000X0.625000X-0.400000X0.625000X-0.400000X-0.625000X0.400000X-0.625000X0*%
%TD*%
%TA.AperFunction,SMDPad,CuDef*%
%ADD35R,0.800000X0.800000*%
%TD*%
%TA.AperFunction,SMDPad,CuDef*%
%ADD36RoundRect,0.250000X0.625000X-0.400000X0.625000X0.400000X-0.625000X0.400000X-0.625000X-0.400000X0*%
%TD*%
%TA.AperFunction,ComponentPad*%
%ADD37R,1.700000X1.700000*%
%TD*%
%TA.AperFunction,ComponentPad*%
%ADD38O,1.700000X1.700000*%
%TD*%
%TA.AperFunction,SMDPad,CuDef*%
%ADD39RoundRect,0.150000X-0.587500X-0.150000X0.587500X-0.150000X0.587500X0.150000X-0.587500X0.150000X0*%
%TD*%
%TA.AperFunction,ComponentPad*%
%ADD40C,1.600000*%
%TD*%
%TA.AperFunction,SMDPad,CuDef*%
%ADD41R,0.600000X1.300000*%
%TD*%
%TA.AperFunction,SMDPad,CuDef*%
%ADD42R,3.300000X2.400000*%
%TD*%
%TA.AperFunction,SMDPad,CuDef*%
%ADD43RoundRect,0.160000X0.160000X-0.197500X0.160000X0.197500X-0.160000X0.197500X-0.160000X-0.197500X0*%
%TD*%
%TA.AperFunction,SMDPad,CuDef*%
%ADD44RoundRect,0.250000X-1.000000X-0.650000X1.000000X-0.650000X1.000000X0.650000X-1.000000X0.650000X0*%
%TD*%
%TA.AperFunction,ViaPad*%
%ADD45C,0.600000*%
%TD*%
%TA.AperFunction,Conductor*%
%ADD46C,0.200000*%
%TD*%
G04 APERTURE END LIST*
D10*
%TO.P,U4,1,VOUT*%
%TO.N,Net-(JP4-B)*%
X200660000Y-117780165D03*
%TO.P,U4,2,GND*%
%TO.N,GND*%
X200660000Y-118730165D03*
%TO.P,U4,3,ON*%
%TO.N,/CTRL_EXT_LOAD2*%
X200660000Y-119680165D03*
%TO.P,U4,4,VIN*%
%TO.N,/PWR_OUT*%
X202935000Y-119680165D03*
%TO.P,U4,5,GND*%
%TO.N,GND*%
X202935000Y-118730165D03*
%TO.P,U4,6,VIN*%
%TO.N,/PWR_OUT*%
X202935000Y-117780165D03*
%TD*%
D11*
%TO.P,TP6,1,1*%
%TO.N,Net-(JP3-B)*%
X185529263Y-118730165D03*
%TD*%
D12*
%TO.P,R9,1*%
%TO.N,/VBUS*%
X242645000Y-121920000D03*
%TO.P,R9,2*%
%TO.N,Net-(U9-VBUS)*%
X243840000Y-121920000D03*
%TD*%
D13*
%TO.P,U9,1,VDD*%
%TO.N,Net-(U9-VDD)*%
X246920076Y-117300127D03*
%TO.P,U9,2,CFG2*%
%TO.N,unconnected-(U9-CFG2-Pad2)*%
X247920076Y-117300127D03*
%TO.P,U9,3,CFG3*%
%TO.N,unconnected-(U9-CFG3-Pad3)*%
X248920076Y-117300127D03*
%TO.P,U9,4,DP*%
%TO.N,unconnected-(U9-DP-Pad4)*%
X249920076Y-117300127D03*
%TO.P,U9,5,DM*%
%TO.N,unconnected-(U9-DM-Pad5)*%
X250920076Y-117300127D03*
%TO.P,U9,6,CC2*%
%TO.N,/CC2*%
X250920076Y-111300127D03*
%TO.P,U9,7,CC1*%
%TO.N,/CC1*%
X249920076Y-111299873D03*
%TO.P,U9,8,VBUS*%
%TO.N,Net-(U9-VBUS)*%
X248920076Y-111299873D03*
%TO.P,U9,9,CFG1*%
%TO.N,Net-(U9-CFG1)*%
X247920076Y-111299873D03*
%TO.P,U9,10,PG*%
%TO.N,unconnected-(U9-PG-Pad10)*%
X246920076Y-111300127D03*
D14*
%TO.P,U9,11,GND*%
%TO.N,GND*%
X248920076Y-114299873D03*
%TD*%
D15*
%TO.P,U10,1,VCC*%
%TO.N,/VBUS*%
X241171816Y-99060005D03*
%TO.P,U10,2,GND*%
%TO.N,GND*%
X241171816Y-96520000D03*
%TO.P,U10,3,OUT*%
%TO.N,/Step_5V*%
X241171816Y-93979995D03*
D16*
%TO.P,U10,4,GND*%
%TO.N,GND*%
X231268082Y-96520000D03*
%TD*%
D17*
%TO.P,U7,1,1*%
%TO.N,Net-(Q1-G)*%
X211100025Y-88420076D03*
D18*
%TO.P,U7,2,2*%
%TO.N,GND*%
X215900127Y-88420076D03*
%TO.P,U7,3,3*%
%TO.N,/BATTERY*%
X220699975Y-88420076D03*
D19*
%TO.P,U7,4,EH*%
%TO.N,unconnected-(U7-EH-Pad4)*%
X222550114Y-79219924D03*
X209249886Y-79219924D03*
%TD*%
D20*
%TO.P,R13,1*%
%TO.N,/PROG*%
X238760000Y-82280000D03*
%TO.P,R13,2*%
%TO.N,GND*%
X238760000Y-80280000D03*
%TD*%
D21*
%TO.P,C8,1*%
%TO.N,Net-(U1-VINT)*%
X194445000Y-96520000D03*
%TO.P,C8,2*%
%TO.N,GND*%
X195580000Y-96520000D03*
%TD*%
D22*
%TO.P,U14,1,B*%
%TO.N,/FAST_CHARGE*%
X238760000Y-86359962D03*
%TO.P,U14,2,E*%
%TO.N,GND*%
X238760000Y-84460038D03*
%TO.P,U14,3,C*%
%TO.N,Net-(U14-C)*%
X236760000Y-85410000D03*
%TD*%
D10*
%TO.P,U2,1,SW*%
%TO.N,Net-(D1-A)*%
X226325000Y-109220000D03*
%TO.P,U2,2,GND*%
%TO.N,GND*%
X226325000Y-110170000D03*
%TO.P,U2,3,FB*%
%TO.N,Net-(U2-FB)*%
X226325000Y-111120000D03*
%TO.P,U2,4,EN*%
%TO.N,/PWR_OUT*%
X228600000Y-111120000D03*
%TO.P,U2,5,IN*%
X228600000Y-110170000D03*
%TO.P,U2,6,NC*%
%TO.N,unconnected-(U2-NC-Pad6)*%
X228600000Y-109220000D03*
%TD*%
D11*
%TO.P,TP3,1,1*%
%TO.N,/BATTERY*%
X228600000Y-88900000D03*
%TD*%
D23*
%TO.P,R7,1*%
%TO.N,Net-(U1-BISEN)*%
X190323863Y-106030165D03*
%TO.P,R7,2*%
%TO.N,GND*%
X193423863Y-106030165D03*
%TD*%
D24*
%TO.P,JP3,1,A*%
%TO.N,/EXT_LOAD1_OUT*%
X208280000Y-106680000D03*
D25*
%TO.P,JP3,2,B*%
%TO.N,Net-(JP3-B)*%
X209730000Y-106680000D03*
%TD*%
D26*
%TO.P,U13,1,IN+*%
%TO.N,/BATTERY*%
X236132160Y-121330208D03*
%TO.P,U13,2,IN-*%
%TO.N,/BATT_OUT*%
X236132160Y-120680221D03*
%TO.P,U13,3,GND*%
%TO.N,GND*%
X236132160Y-120030233D03*
%TO.P,U13,4,VS*%
%TO.N,/3V3*%
X236132160Y-119379992D03*
%TO.P,U13,5,SCL*%
%TO.N,/I2C1_SCL*%
X233680040Y-119379992D03*
%TO.P,U13,6,SDA*%
%TO.N,/I2C1_SDA*%
X233680040Y-120030233D03*
%TO.P,U13,7,A0*%
%TO.N,Net-(JP2-A)*%
X233680040Y-120680221D03*
%TO.P,U13,8,A1*%
%TO.N,Net-(U13-A1)*%
X233680040Y-121330208D03*
%TD*%
D27*
%TO.P,U12,1,nSleep*%
%TO.N,/PWR_OUT*%
X198430013Y-86110183D03*
%TO.P,U12,2,AOUT1*%
%TO.N,/MOTOR1_A_OUT*%
X198430013Y-85460195D03*
%TO.P,U12,3,AISEN*%
%TO.N,Net-(U12-AISEN)*%
X198430013Y-84810208D03*
%TO.P,U12,4,AOUT2*%
%TO.N,/MOTOR1_B_OUT*%
X198430013Y-84159967D03*
%TO.P,U12,5,BOUT2*%
%TO.N,/MOTOR2_B_OUT*%
X198430013Y-83509979D03*
%TO.P,U12,6,BISEN*%
%TO.N,Net-(U12-BISEN)*%
X198430013Y-82859992D03*
%TO.P,U12,7,BOUT1*%
%TO.N,/MOTOR2_A_OUT*%
X198430013Y-82210005D03*
%TO.P,U12,8,nFault*%
%TO.N,unconnected-(U12-nFault-Pad8)*%
X198430013Y-81560017D03*
%TO.P,U12,9,BIN1*%
%TO.N,/MOTOR2_CTRL1*%
X192729987Y-81560017D03*
%TO.P,U12,10,BIN2*%
%TO.N,/MOTOR2_CTRL2*%
X192729987Y-82210005D03*
%TO.P,U12,11,VCP*%
%TO.N,Net-(U12-VCP)*%
X192729987Y-82859992D03*
%TO.P,U12,12,VM*%
%TO.N,/PWR_OUT*%
X192729987Y-83509979D03*
%TO.P,U12,13,GND*%
%TO.N,GND*%
X192729987Y-84159967D03*
%TO.P,U12,14,VINT*%
%TO.N,Net-(U12-VINT)*%
X192729987Y-84810208D03*
%TO.P,U12,15,AIN2*%
%TO.N,/MOTOR1_CTRL2*%
X192729987Y-85460195D03*
%TO.P,U12,16,AIN1*%
%TO.N,/MOTOR1_CTRL1*%
X192729987Y-86110183D03*
D28*
%TO.P,U12,17,GND*%
%TO.N,unconnected-(U12-GND-Pad17)*%
X195580000Y-83835100D03*
%TD*%
D29*
%TO.P,U8,13,EP*%
%TO.N,unconnected-(U8-EP-Pad13)*%
X248819936Y-92980206D03*
%TO.P,U8,14,EP*%
%TO.N,unconnected-(U8-EP-Pad14)*%
X248819936Y-101240048D03*
%TO.P,U8,15,EP*%
%TO.N,unconnected-(U8-EP-Pad15)*%
X253209826Y-101599967D03*
%TO.P,U8,16,EP*%
%TO.N,unconnected-(U8-EP-Pad16)*%
X253209826Y-92620033D03*
D30*
%TO.P,U8,A1,GND*%
%TO.N,GND*%
X246819174Y-99859301D03*
%TO.P,U8,A2,SSTXP1*%
%TO.N,unconnected-(U8-SSTXP1-PadA2)*%
X246819174Y-99360191D03*
%TO.P,U8,A3,SSTXN1*%
%TO.N,unconnected-(U8-SSTXN1-PadA3)*%
X246819174Y-98861080D03*
%TO.P,U8,A4,VBUS*%
%TO.N,/VBUS*%
X246819174Y-98360699D03*
%TO.P,U8,A5,CC1*%
%TO.N,/CC1*%
X246819174Y-97860318D03*
%TO.P,U8,A6,DP1*%
%TO.N,unconnected-(U8-DP1-PadA6)*%
X246819174Y-97359936D03*
%TO.P,U8,A7,DN1*%
%TO.N,unconnected-(U8-DN1-PadA7)*%
X246819174Y-96859555D03*
%TO.P,U8,A8,SBU1*%
%TO.N,unconnected-(U8-SBU1-PadA8)*%
X246819174Y-96359174D03*
%TO.P,U8,A9,VBUS*%
%TO.N,/VBUS*%
X246819174Y-95860064D03*
%TO.P,U8,A10,SSRXN2*%
%TO.N,unconnected-(U8-SSRXN2-PadA10)*%
X246819174Y-95360953D03*
%TO.P,U8,A11,SSRXP2*%
%TO.N,unconnected-(U8-SSRXP2-PadA11)*%
X246819174Y-94860572D03*
%TO.P,U8,A12,GND*%
%TO.N,GND*%
X246819174Y-94360191D03*
D31*
%TO.P,U8,B1,GND*%
X248219986Y-94310152D03*
%TO.P,U8,B2,SSTXP2*%
%TO.N,unconnected-(U8-SSTXP2-PadB2)*%
X248920012Y-94710203D03*
%TO.P,U8,B3,SSTXN2*%
%TO.N,unconnected-(U8-SSTXN2-PadB3)*%
X248920012Y-95510051D03*
%TO.P,U8,B4,VBUS*%
%TO.N,/VBUS*%
X248219986Y-95910102D03*
%TO.P,U8,B5,CC2*%
%TO.N,Net-(JP1-A)*%
X248920012Y-96310152D03*
%TO.P,U8,B6,DP2*%
%TO.N,unconnected-(U8-DP2-PadB6)*%
X248219986Y-96710203D03*
%TO.P,U8,B7,DN2*%
%TO.N,unconnected-(U8-DN2-PadB7)*%
X248219986Y-97510051D03*
%TO.P,U8,B8,SBU2*%
%TO.N,unconnected-(U8-SBU2-PadB8)*%
X248920012Y-97910102D03*
%TO.P,U8,B9,VBUS*%
%TO.N,/VBUS*%
X248219986Y-98310152D03*
%TO.P,U8,B10,SSRXN1*%
%TO.N,unconnected-(U8-SSRXN1-PadB10)*%
X248920012Y-98710203D03*
%TO.P,U8,B11,SSRXP1*%
%TO.N,unconnected-(U8-SSRXP1-PadB11)*%
X248920012Y-99510051D03*
%TO.P,U8,B12,GND*%
%TO.N,GND*%
X248219986Y-99910102D03*
%TD*%
D32*
%TO.P,C15,1*%
%TO.N,/Step_5V*%
X223520000Y-95115000D03*
%TO.P,C15,2*%
%TO.N,GND*%
X223520000Y-93980000D03*
%TD*%
D33*
%TO.P,U1,1,nSleep*%
%TO.N,/PWR_OUT*%
X204134917Y-99370013D03*
%TO.P,U1,2,AOUT1*%
%TO.N,/MOTOR3_A_OUT*%
X204784905Y-99370013D03*
%TO.P,U1,3,AISEN*%
%TO.N,Net-(U1-AISEN)*%
X205434892Y-99370013D03*
%TO.P,U1,4,AOUT2*%
%TO.N,/MOTOR3_B_OUT*%
X206085133Y-99370013D03*
%TO.P,U1,5,BOUT2*%
%TO.N,/MOTOR4_B_OUT*%
X206735121Y-99370013D03*
%TO.P,U1,6,BISEN*%
%TO.N,Net-(U1-BISEN)*%
X207385108Y-99370013D03*
%TO.P,U1,7,BOUT1*%
%TO.N,/MOTOR4_A_OUT*%
X208035095Y-99370013D03*
%TO.P,U1,8,nFault*%
%TO.N,unconnected-(U1-nFault-Pad8)*%
X208685083Y-99370013D03*
%TO.P,U1,9,BIN1*%
%TO.N,/MOTOR4_CTRL1*%
X208685083Y-93669987D03*
%TO.P,U1,10,BIN2*%
%TO.N,/MOTOR4_CTRL2*%
X208035095Y-93669987D03*
%TO.P,U1,11,VCP*%
%TO.N,Net-(U1-VCP)*%
X207385108Y-93669987D03*
%TO.P,U1,12,VM*%
%TO.N,/PWR_OUT*%
X206735121Y-93669987D03*
%TO.P,U1,13,GND*%
%TO.N,GND*%
X206085133Y-93669987D03*
%TO.P,U1,14,VINT*%
%TO.N,Net-(U1-VINT)*%
X205434892Y-93669987D03*
%TO.P,U1,15,AIN2*%
%TO.N,/MOTOR3_CTRL2*%
X204784905Y-93669987D03*
%TO.P,U1,16,AIN1*%
%TO.N,/MOTOR3_CTRL1*%
X204134917Y-93669987D03*
D28*
%TO.P,U1,17,GND*%
%TO.N,unconnected-(U1-GND-Pad17)*%
X206410000Y-96520000D03*
%TD*%
D21*
%TO.P,C13,1*%
%TO.N,Net-(U9-VDD)*%
X240165000Y-119380000D03*
%TO.P,C13,2*%
%TO.N,GND*%
X241300000Y-119380000D03*
%TD*%
D11*
%TO.P,TP2,1,1*%
%TO.N,/BATTERY*%
X246380000Y-78740000D03*
%TD*%
D21*
%TO.P,C9,1*%
%TO.N,Net-(JP3-B)*%
X195818863Y-121270165D03*
%TO.P,C9,2*%
%TO.N,GND*%
X196953863Y-121270165D03*
%TD*%
D32*
%TO.P,C14,1*%
%TO.N,/VBUS*%
X223520000Y-100195000D03*
%TO.P,C14,2*%
%TO.N,GND*%
X223520000Y-99060000D03*
%TD*%
D21*
%TO.P,C2,1*%
%TO.N,/5V*%
X240165000Y-106680000D03*
%TO.P,C2,2*%
%TO.N,GND*%
X241300000Y-106680000D03*
%TD*%
D34*
%TO.P,R6,1*%
%TO.N,GND*%
X186793863Y-106030165D03*
%TO.P,R6,2*%
%TO.N,Net-(U1-AISEN)*%
X183693863Y-106030165D03*
%TD*%
D11*
%TO.P,TP5,1,1*%
%TO.N,/3V3*%
X218440000Y-114300000D03*
%TD*%
D20*
%TO.P,R8,1*%
%TO.N,GND*%
X243840000Y-115300000D03*
%TO.P,R8,2*%
%TO.N,Net-(U9-CFG1)*%
X243840000Y-113300000D03*
%TD*%
D35*
%TO.P,LED1,1,K*%
%TO.N,GND*%
X252401033Y-88900227D03*
%TO.P,LED1,2,A*%
%TO.N,Net-(LED1-A)*%
X253999967Y-88899973D03*
%TD*%
D24*
%TO.P,JP1,1,A*%
%TO.N,Net-(JP1-A)*%
X249960000Y-106140000D03*
D25*
%TO.P,JP1,2,B*%
%TO.N,/CC2*%
X251410000Y-106140000D03*
%TD*%
D36*
%TO.P,R4,1*%
%TO.N,GND*%
X203510000Y-81530000D03*
%TO.P,R4,2*%
%TO.N,Net-(U12-AISEN)*%
X203510000Y-78430000D03*
%TD*%
D37*
%TO.P,J1,1,Pin_1*%
%TO.N,/MOTOR2_B_OUT*%
X238760000Y-124460000D03*
D38*
%TO.P,J1,2,Pin_2*%
%TO.N,/MOTOR2_A_OUT*%
X238760000Y-127000000D03*
%TO.P,J1,3,Pin_3*%
%TO.N,/MOTOR4_A_OUT*%
X236220000Y-124460000D03*
%TO.P,J1,4,Pin_4*%
%TO.N,/MOTOR2_CTRL1*%
X236220000Y-127000000D03*
%TO.P,J1,5,Pin_5*%
%TO.N,/MOTOR4_B_OUT*%
X233680000Y-124460000D03*
%TO.P,J1,6,Pin_6*%
%TO.N,/MOTOR2_CTRL2*%
X233680000Y-127000000D03*
%TO.P,J1,7,Pin_7*%
%TO.N,/CTRL_EXT_LOAD2*%
X231140000Y-124460000D03*
%TO.P,J1,8,Pin_8*%
%TO.N,/MOTOR4_CTRL1*%
X231140000Y-127000000D03*
%TO.P,J1,9,Pin_9*%
%TO.N,unconnected-(J1-Pin_9-Pad9)*%
X228600000Y-124460000D03*
%TO.P,J1,10,Pin_10*%
%TO.N,/MOTOR4_CTRL2*%
X228600000Y-127000000D03*
%TO.P,J1,11,Pin_11*%
%TO.N,/EXT_LOAD2_OUT*%
X226060000Y-124460000D03*
%TO.P,J1,12,Pin_12*%
%TO.N,unconnected-(J1-Pin_12-Pad12)*%
X226060000Y-127000000D03*
%TO.P,J1,13,Pin_13*%
%TO.N,/FAST_CHARGE_CTRL*%
X223520000Y-124460000D03*
%TO.P,J1,14,Pin_14*%
%TO.N,/BATTERY*%
X223520000Y-127000000D03*
%TO.P,J1,15,Pin_15*%
%TO.N,unconnected-(J1-Pin_15-Pad15)*%
X220980000Y-124460000D03*
%TO.P,J1,16,Pin_16*%
%TO.N,/I2C1_SCL*%
X220980000Y-127000000D03*
%TO.P,J1,17,Pin_17*%
%TO.N,/I2C1_SDA*%
X218440000Y-124460000D03*
%TO.P,J1,18,Pin_18*%
%TO.N,/3V3*%
X218440000Y-127000000D03*
%TO.P,J1,19,Pin_19*%
%TO.N,GND*%
X215900000Y-124460000D03*
%TO.P,J1,20,Pin_20*%
%TO.N,/5V*%
X215900000Y-127000000D03*
%TO.P,J1,21,Pin_21*%
%TO.N,/EXT_LOAD1_OUT*%
X213360000Y-124460000D03*
%TO.P,J1,22,Pin_22*%
%TO.N,/9V*%
X213360000Y-127000000D03*
%TO.P,J1,23,Pin_23*%
%TO.N,GND*%
X210820000Y-124460000D03*
%TO.P,J1,24,Pin_24*%
%TO.N,/MOTOR3_CTRL1*%
X210820000Y-127000000D03*
%TO.P,J1,25,Pin_25*%
%TO.N,/CTRL_EXT_LOAD1*%
X208280000Y-124460000D03*
%TO.P,J1,26,Pin_26*%
%TO.N,/MOTOR3_CTRL2*%
X208280000Y-127000000D03*
%TO.P,J1,27,Pin_27*%
%TO.N,/MOTOR3_A_OUT*%
X205740000Y-124460000D03*
%TO.P,J1,28,Pin_28*%
%TO.N,/MOTOR1_CTRL1*%
X205740000Y-127000000D03*
%TO.P,J1,29,Pin_29*%
%TO.N,/MOTOR3_B_OUT*%
X203200000Y-124460000D03*
%TO.P,J1,30,Pin_30*%
%TO.N,/MOTOR1_CTRL2*%
X203200000Y-127000000D03*
%TO.P,J1,31,Pin_31*%
%TO.N,/MOTOR1_B_OUT*%
X200660000Y-124460000D03*
%TO.P,J1,32,Pin_32*%
%TO.N,/MOTOR1_A_OUT*%
X200660000Y-127000000D03*
%TD*%
D11*
%TO.P,TP4,1,1*%
%TO.N,/5V*%
X215900000Y-119380000D03*
%TD*%
D32*
%TO.P,C4,1*%
%TO.N,Net-(U12-VINT)*%
X186793863Y-84305165D03*
%TO.P,C4,2*%
%TO.N,GND*%
X186793863Y-83170165D03*
%TD*%
D12*
%TO.P,R10,1*%
%TO.N,Net-(U9-VDD)*%
X252805000Y-121920000D03*
%TO.P,R10,2*%
%TO.N,/VBUS*%
X254000000Y-121920000D03*
%TD*%
D21*
%TO.P,C7,1*%
%TO.N,GND*%
X190738863Y-121270165D03*
%TO.P,C7,2*%
%TO.N,/PWR_OUT*%
X191873863Y-121270165D03*
%TD*%
D24*
%TO.P,JP4,1,A*%
%TO.N,/EXT_LOAD2_OUT*%
X203123863Y-106538165D03*
D25*
%TO.P,JP4,2,B*%
%TO.N,Net-(JP4-B)*%
X204573863Y-106538165D03*
%TD*%
D10*
%TO.P,U5,1,VOUT*%
%TO.N,Net-(JP3-B)*%
X208545000Y-116840000D03*
%TO.P,U5,2,GND*%
%TO.N,GND*%
X208545000Y-117790000D03*
%TO.P,U5,3,ON*%
%TO.N,/CTRL_EXT_LOAD1*%
X208545000Y-118740000D03*
%TO.P,U5,4,VIN*%
%TO.N,/PWR_OUT*%
X210820000Y-118740000D03*
%TO.P,U5,5,GND*%
%TO.N,GND*%
X210820000Y-117790000D03*
%TO.P,U5,6,VIN*%
%TO.N,/PWR_OUT*%
X210820000Y-116840000D03*
%TD*%
D32*
%TO.P,C11,1*%
%TO.N,Net-(U1-VCP)*%
X195580000Y-93980000D03*
%TO.P,C11,2*%
%TO.N,/PWR_OUT*%
X195580000Y-92845000D03*
%TD*%
D12*
%TO.P,R14,1*%
%TO.N,/3V3*%
X231140000Y-114300000D03*
%TO.P,R14,2*%
%TO.N,Net-(U13-A1)*%
X232335000Y-114300000D03*
%TD*%
D21*
%TO.P,C3,1*%
%TO.N,/PWR_OUT*%
X240165000Y-111190000D03*
%TO.P,C3,2*%
%TO.N,GND*%
X241300000Y-111190000D03*
%TD*%
D39*
%TO.P,Q1,1,G*%
%TO.N,Net-(Q1-G)*%
X216565000Y-93030000D03*
%TO.P,Q1,2,S*%
%TO.N,/BATTERY*%
X216565000Y-94930000D03*
%TO.P,Q1,3,D*%
%TO.N,/PWR_OUT*%
X218440000Y-93980000D03*
%TD*%
D32*
%TO.P,C5,1*%
%TO.N,/PWR_OUT*%
X184253863Y-83737665D03*
%TO.P,C5,2*%
%TO.N,GND*%
X184253863Y-82602665D03*
%TD*%
D21*
%TO.P,C12,1*%
%TO.N,/PWR_OUT*%
X195012500Y-99060000D03*
%TO.P,C12,2*%
%TO.N,GND*%
X196147500Y-99060000D03*
%TD*%
D36*
%TO.P,R5,1*%
%TO.N,Net-(U12-BISEN)*%
X203510000Y-87600000D03*
%TO.P,R5,2*%
%TO.N,GND*%
X203510000Y-84500000D03*
%TD*%
D24*
%TO.P,JP2,1,A*%
%TO.N,Net-(JP2-A)*%
X234770000Y-114300000D03*
D25*
%TO.P,JP2,2,B*%
%TO.N,GND*%
X236220000Y-114300000D03*
%TD*%
D40*
%TO.P,CN1,1,1*%
%TO.N,/BATTERY*%
X248380000Y-127000000D03*
%TO.P,CN1,2,2*%
%TO.N,/BATT_OUT*%
X246380000Y-127000000D03*
%TD*%
D11*
%TO.P,TP7,1,1*%
%TO.N,Net-(JP4-B)*%
X185529263Y-123810165D03*
%TD*%
D21*
%TO.P,C1,1*%
%TO.N,/5V*%
X240165000Y-104140000D03*
%TO.P,C1,2*%
%TO.N,GND*%
X241300000Y-104140000D03*
%TD*%
D12*
%TO.P,R1,1*%
%TO.N,/5V*%
X227405000Y-104140000D03*
%TO.P,R1,2*%
%TO.N,Net-(U2-FB)*%
X228600000Y-104140000D03*
%TD*%
D10*
%TO.P,U3,1,VIN*%
%TO.N,/5V*%
X223785000Y-116840000D03*
%TO.P,U3,2,GND*%
%TO.N,GND*%
X223785000Y-117790000D03*
%TO.P,U3,3,EN*%
%TO.N,/PWR_OUT*%
X223785000Y-118740000D03*
%TO.P,U3,4,NC*%
%TO.N,unconnected-(U3-NC-Pad4)*%
X226060000Y-118740000D03*
%TO.P,U3,5,VOUT*%
%TO.N,/3V3*%
X226060000Y-116840000D03*
%TD*%
D21*
%TO.P,C6,1*%
%TO.N,Net-(U12-VCP)*%
X192215000Y-88590000D03*
%TO.P,C6,2*%
%TO.N,/PWR_OUT*%
X193350000Y-88590000D03*
%TD*%
D12*
%TO.P,R11,1*%
%TO.N,Net-(U11-CHRG)*%
X247725000Y-88900000D03*
%TO.P,R11,2*%
%TO.N,Net-(LED1-A)*%
X248920000Y-88900000D03*
%TD*%
D41*
%TO.P,U11,1,TEMP*%
%TO.N,GND*%
X249554920Y-83819973D03*
%TO.P,U11,2,PROG*%
%TO.N,/PROG*%
X250824923Y-83819973D03*
%TO.P,U11,3,GND*%
%TO.N,GND*%
X252094925Y-83819973D03*
%TO.P,U11,4,VCC*%
%TO.N,/Step_5V*%
X253364928Y-83819973D03*
%TO.P,U11,5,BAT*%
%TO.N,/BATTERY*%
X253364928Y-78420176D03*
%TO.P,U11,6,STDBY*%
%TO.N,unconnected-(U11-STDBY-Pad6)*%
X252094925Y-78420176D03*
%TO.P,U11,7,CHRG*%
%TO.N,Net-(U11-CHRG)*%
X250824923Y-78420176D03*
%TO.P,U11,8,CE*%
%TO.N,GND*%
X249554920Y-78420176D03*
D42*
%TO.P,U11,9,EP*%
X251459924Y-81119948D03*
%TD*%
D43*
%TO.P,R12,1*%
%TO.N,Net-(U14-C)*%
X246380000Y-86360000D03*
%TO.P,R12,2*%
%TO.N,/PROG*%
X246380000Y-85165000D03*
%TD*%
D12*
%TO.P,R3,1*%
%TO.N,/BATTERY*%
X224100000Y-82630000D03*
%TO.P,R3,2*%
%TO.N,Net-(Q1-G)*%
X225295000Y-82630000D03*
%TD*%
D44*
%TO.P,D1,1,K*%
%TO.N,/5V*%
X215685000Y-105030000D03*
%TO.P,D1,2,A*%
%TO.N,Net-(D1-A)*%
X219685000Y-105030000D03*
%TD*%
D12*
%TO.P,R2,1*%
%TO.N,Net-(U2-FB)*%
X223520000Y-104130000D03*
%TO.P,R2,2*%
%TO.N,GND*%
X224715000Y-104130000D03*
%TD*%
D21*
%TO.P,C10,1*%
%TO.N,Net-(JP4-B)*%
X194413863Y-126350165D03*
%TO.P,C10,2*%
%TO.N,GND*%
X195548863Y-126350165D03*
%TD*%
D11*
%TO.P,TP1,1,1*%
%TO.N,/VBUS*%
X254000000Y-116840000D03*
%TD*%
D45*
%TO.N,/5V*%
X214725400Y-119704000D03*
X216355100Y-103288400D03*
X219217800Y-116031200D03*
X217889200Y-119705600D03*
%TO.N,GND*%
X212701863Y-97394165D03*
X198477863Y-114158165D03*
X191365863Y-120254165D03*
X216257863Y-111110165D03*
X212193863Y-121270165D03*
X204573863Y-113650165D03*
X192889863Y-113650165D03*
X185777863Y-94854165D03*
X212193863Y-113650165D03*
X185777863Y-90790165D03*
X212701863Y-92314165D03*
X216257863Y-114158165D03*
X204573863Y-117206165D03*
X192889863Y-117714165D03*
X198477863Y-119238165D03*
%TO.N,/PWR_OUT*%
X192381863Y-95362165D03*
X201281900Y-99682000D03*
X202644000Y-116911365D03*
X192381863Y-98918165D03*
%TO.N,Net-(U12-VCP)*%
X191242800Y-88424700D03*
X190957200Y-82749100D03*
%TO.N,Net-(JP4-B)*%
X201422400Y-116962465D03*
X198477863Y-124318165D03*
X202086200Y-115174165D03*
X197461863Y-117714165D03*
%TO.N,/VBUS*%
X246759200Y-115715400D03*
%TO.N,/MOTOR2_B_OUT*%
X205137100Y-119411400D03*
X201273600Y-84543100D03*
%TO.N,/MOTOR2_A_OUT*%
X237490000Y-78184200D03*
%TO.N,/MOTOR4_A_OUT*%
X236220000Y-102592200D03*
%TO.N,/MOTOR2_CTRL1*%
X235068100Y-76811100D03*
%TO.N,/MOTOR4_B_OUT*%
X206078100Y-101327900D03*
X206778000Y-122791300D03*
%TO.N,/MOTOR2_CTRL2*%
X232372400Y-77413000D03*
%TO.N,/MOTOR4_CTRL1*%
X224673600Y-95963600D03*
%TO.N,/MOTOR4_CTRL2*%
X219819700Y-95361700D03*
%TO.N,/EXT_LOAD2_OUT*%
X222855100Y-102321900D03*
%TO.N,/I2C1_SCL*%
X225228000Y-119525400D03*
%TO.N,/I2C1_SDA*%
X218440000Y-121834200D03*
%TO.N,/3V3*%
X217238100Y-114300000D03*
%TO.N,/EXT_LOAD1_OUT*%
X213360000Y-104357900D03*
%TO.N,/MOTOR3_CTRL1*%
X202033863Y-93330165D03*
%TO.N,/CTRL_EXT_LOAD1*%
X207356900Y-118704200D03*
%TO.N,/MOTOR3_CTRL2*%
X204942300Y-92496700D03*
%TO.N,/MOTOR3_A_OUT*%
X204467200Y-98231900D03*
%TO.N,/MOTOR1_CTRL1*%
X193681900Y-86591900D03*
%TO.N,/MOTOR3_B_OUT*%
X203093000Y-101255900D03*
%TO.N,/MOTOR1_CTRL2*%
X196349700Y-86592700D03*
%TO.N,/MOTOR1_B_OUT*%
X200660000Y-84021800D03*
%TO.N,/MOTOR1_A_OUT*%
X199381900Y-86626700D03*
%TO.N,Net-(JP2-A)*%
X224035500Y-120680200D03*
X224032300Y-113845000D03*
%TO.N,Net-(U9-VBUS)*%
X245664700Y-121264900D03*
X246096900Y-110592100D03*
%TO.N,Net-(U11-CHRG)*%
X246852300Y-89015400D03*
X248749300Y-77829500D03*
%TO.N,/CC1*%
X245596000Y-97719500D03*
X245596000Y-109846100D03*
%TD*%
D46*
%TO.N,/5V*%
X214774100Y-119704000D02*
X214725400Y-119704000D01*
X219217800Y-116031200D02*
X222976200Y-116031200D01*
X215499100Y-119380000D02*
X215900000Y-119380000D01*
X215098100Y-119380000D02*
X214774100Y-119704000D01*
X216355100Y-104359900D02*
X215685000Y-105030000D01*
X215900000Y-119380000D02*
X216701900Y-119380000D01*
X240165000Y-104140000D02*
X240165000Y-106680000D01*
X216701900Y-119380000D02*
X217027500Y-119705600D01*
X217027500Y-119705600D02*
X217889200Y-119705600D01*
X215499100Y-119380000D02*
X215098100Y-119380000D01*
X216355100Y-103288400D02*
X216355100Y-104359900D01*
X227405000Y-104140000D02*
X228036000Y-103509000D01*
X222976200Y-116031200D02*
X223785000Y-116840000D01*
X239534000Y-103509000D02*
X240165000Y-104140000D01*
X228036000Y-103509000D02*
X239534000Y-103509000D01*
X226330500Y-103065500D02*
X216578000Y-103065500D01*
X227405000Y-104140000D02*
X226330500Y-103065500D01*
X216578000Y-103065500D02*
X216355100Y-103288400D01*
%TO.N,GND*%
X193423863Y-106030165D02*
X196953863Y-106030165D01*
X249554920Y-78420176D02*
X249554920Y-79214944D01*
X196953863Y-106030165D02*
X204573863Y-113650165D01*
X246819174Y-94360191D02*
X247578870Y-94360191D01*
X248169185Y-99859301D02*
X248219986Y-99910102D01*
X241949835Y-118730165D02*
X241300000Y-119380000D01*
X246819174Y-99859301D02*
X248169185Y-99859301D01*
X228612200Y-96520000D02*
X231268100Y-96520000D01*
X245580699Y-99859301D02*
X241300000Y-104140000D01*
X197250002Y-94849998D02*
X195580000Y-96520000D01*
X252094925Y-81754949D02*
X251459924Y-81119948D01*
X209507500Y-116336528D02*
X209507500Y-117176396D01*
X243840000Y-115300000D02*
X243221700Y-115300000D01*
X226789700Y-110170000D02*
X227287500Y-109672200D01*
X205755122Y-94849998D02*
X197250002Y-94849998D01*
X246819174Y-99859301D02*
X245580699Y-99859301D01*
X236132160Y-120030233D02*
X238893931Y-120030233D01*
X206085133Y-93669987D02*
X206085133Y-94519987D01*
X212193863Y-121270165D02*
X209145863Y-121270165D01*
X242066317Y-96520000D02*
X244226126Y-94360191D01*
X208893896Y-117790000D02*
X208545000Y-117790000D01*
X227287500Y-109672200D02*
X227287500Y-106702500D01*
X187777541Y-84153843D02*
X186793863Y-83170165D01*
X208545000Y-117790000D02*
X205157698Y-117790000D01*
X241536600Y-104140000D02*
X241300000Y-104140000D01*
X249554920Y-79214944D02*
X251459924Y-81119948D01*
X242673863Y-118730165D02*
X241949835Y-118730165D01*
X205157698Y-117790000D02*
X204573863Y-117206165D01*
X247578870Y-94360191D02*
X247753863Y-94185198D01*
X223610300Y-93980000D02*
X223520000Y-93980000D01*
X242673863Y-121270165D02*
X242673863Y-118730165D01*
X191879987Y-84159967D02*
X191873863Y-84153843D01*
X191873863Y-84153843D02*
X187777541Y-84153843D01*
X238893931Y-120030233D02*
X240133863Y-121270165D01*
X244226126Y-94360191D02*
X246819174Y-94360191D01*
X248095032Y-94185198D02*
X248219986Y-94310152D01*
X241171816Y-96520000D02*
X242066317Y-96520000D01*
X212193863Y-113650165D02*
X209507500Y-116336528D01*
X190738863Y-121270165D02*
X190738863Y-120881165D01*
X210820000Y-117790000D02*
X223785000Y-117790000D01*
X226325000Y-110170000D02*
X226789700Y-110170000D01*
X240133863Y-121270165D02*
X242673863Y-121270165D01*
X227287500Y-106702500D02*
X224715000Y-104130000D01*
X209507500Y-117176396D02*
X208893896Y-117790000D01*
X252094925Y-83819973D02*
X252094925Y-81754949D01*
X243840000Y-115124100D02*
X243840000Y-115300000D01*
X192729987Y-84159967D02*
X191879987Y-84159967D01*
X206085133Y-94519987D02*
X205755122Y-94849998D01*
X247753863Y-94185198D02*
X248095032Y-94185198D01*
X201008896Y-118730165D02*
X200660000Y-118730165D01*
X190738863Y-120881165D02*
X191365863Y-120254165D01*
%TO.N,/PWR_OUT*%
X181713863Y-80630165D02*
X184253863Y-78090165D01*
X184253863Y-93330165D02*
X184253863Y-83270165D01*
X210820000Y-118740000D02*
X210820000Y-120254165D01*
X192730000Y-83510000D02*
X190867000Y-83510000D01*
X181713863Y-83170165D02*
X181713863Y-80630165D01*
X191228100Y-89261100D02*
X192678900Y-89261100D01*
X240165000Y-111190000D02*
X240095000Y-111120000D01*
X195918767Y-94652200D02*
X194937900Y-94652200D01*
X197478100Y-86110200D02*
X197478100Y-88590000D01*
X195580000Y-92162200D02*
X192678900Y-89261100D01*
X197478100Y-88590000D02*
X193350000Y-88590000D01*
X198430000Y-86110200D02*
X197478100Y-86110200D01*
X228600000Y-110170000D02*
X228600000Y-111120000D01*
X181813863Y-83270165D02*
X181713863Y-83170165D01*
X194413863Y-123810165D02*
X196953863Y-123810165D01*
X215212700Y-112447300D02*
X210820000Y-116840000D01*
X195580000Y-92845000D02*
X195580000Y-92162200D01*
X194798100Y-99060000D02*
X195012500Y-99060000D01*
X189333863Y-93330165D02*
X184253863Y-93330165D01*
X193350000Y-88590000D02*
X192678900Y-89261100D01*
X194870665Y-98918165D02*
X192381863Y-98918165D01*
X203952300Y-119015365D02*
X203952300Y-118379765D01*
X210981900Y-118578100D02*
X210820000Y-118740000D01*
X196190000Y-94380967D02*
X195918767Y-94652200D01*
X202935000Y-117780165D02*
X202935000Y-117202365D01*
X209653863Y-117922759D02*
X210471104Y-118740000D01*
X210471104Y-116840000D02*
X209653863Y-117657241D01*
X195012500Y-99060000D02*
X195634500Y-99682000D01*
X199493863Y-121270165D02*
X202033863Y-121270165D01*
X196953863Y-123810165D02*
X199493863Y-121270165D01*
X202935000Y-117202365D02*
X202644000Y-116911365D01*
X191228100Y-91435928D02*
X189333863Y-93330165D01*
X206735100Y-92718100D02*
X204807165Y-90790165D01*
X206799065Y-89990165D02*
X198878265Y-89990165D01*
X194937900Y-94652200D02*
X192583828Y-94652200D01*
X202935000Y-119680165D02*
X203287500Y-119680165D01*
X210820000Y-120254165D02*
X207113863Y-120254165D01*
X203952300Y-118379765D02*
X203352700Y-117780165D01*
X195634500Y-99682000D02*
X201281900Y-99682000D01*
X210471104Y-118740000D02*
X210820000Y-118740000D01*
X201281900Y-99682000D02*
X203822900Y-99682000D01*
X194937900Y-94652200D02*
X194937900Y-93487100D01*
X210788900Y-93980000D02*
X206799065Y-89990165D01*
X198878265Y-89990165D02*
X197478100Y-88590000D01*
X227272700Y-112447300D02*
X215212700Y-112447300D01*
X204807165Y-90790165D02*
X199609106Y-90790165D01*
X190355300Y-81408600D02*
X188652800Y-79706100D01*
X223623100Y-118578100D02*
X211795400Y-118578100D01*
X202033863Y-121270165D02*
X202935000Y-120369028D01*
X203287500Y-119680165D02*
X203952300Y-119015365D01*
X207113863Y-120254165D02*
X205671098Y-118811400D01*
X203352700Y-117780165D02*
X202935000Y-117780165D01*
X192381863Y-94854165D02*
X192381863Y-95362165D01*
X228600000Y-111120000D02*
X227272700Y-112447300D01*
X205671098Y-118811400D02*
X204156265Y-118811400D01*
X191228100Y-89261100D02*
X191228100Y-91435928D01*
X209653863Y-117657241D02*
X209653863Y-117922759D01*
X187036865Y-78090165D02*
X189333863Y-80387163D01*
X184253863Y-83270165D02*
X181813863Y-83270165D01*
X195012500Y-99060000D02*
X194870665Y-98918165D01*
X184253863Y-78090165D02*
X186793863Y-78090165D01*
X218440000Y-93980000D02*
X210788900Y-93980000D01*
X190867000Y-83510000D02*
X190355300Y-82998300D01*
X206735100Y-93670000D02*
X206735100Y-92718100D01*
X192583828Y-94652200D02*
X192381863Y-94854165D01*
X210820000Y-116840000D02*
X210471104Y-116840000D01*
X202935000Y-120369028D02*
X202935000Y-119680165D01*
X199609106Y-90790165D02*
X196190000Y-94209271D01*
X203822900Y-99682000D02*
X204134900Y-99370000D01*
X194937900Y-93487100D02*
X195580000Y-92845000D01*
X196190000Y-94209271D02*
X196190000Y-94380967D01*
X223785000Y-118740000D02*
X223623100Y-118578100D01*
X211795400Y-118578100D02*
X210981900Y-118578100D01*
X186793863Y-78090165D02*
X187036865Y-78090165D01*
X240095000Y-111120000D02*
X228600000Y-111120000D01*
X190355300Y-82998300D02*
X190355300Y-81408600D01*
X204156265Y-118811400D02*
X203952300Y-119015365D01*
X191873863Y-121270165D02*
X194413863Y-123810165D01*
%TO.N,Net-(U12-VINT)*%
X190130635Y-85710165D02*
X186793863Y-85710165D01*
X191030600Y-84810200D02*
X192730000Y-84810200D01*
X191030600Y-84810200D02*
X190130635Y-85710165D01*
X186793863Y-85710165D02*
X186793863Y-84305165D01*
%TO.N,Net-(U12-VCP)*%
X192730000Y-82860000D02*
X191778100Y-82860000D01*
X191242800Y-88424700D02*
X192049700Y-88424700D01*
X191667200Y-82749100D02*
X190957200Y-82749100D01*
X192049700Y-88424700D02*
X192215000Y-88590000D01*
X191778100Y-82860000D02*
X191667200Y-82749100D01*
%TO.N,Net-(U1-VINT)*%
X202033863Y-91190165D02*
X199893863Y-91190165D01*
X205542300Y-93562579D02*
X205542300Y-92158602D01*
X205434892Y-93669987D02*
X205542300Y-93562579D01*
X199893863Y-91242789D02*
X195266487Y-95870165D01*
X199893863Y-91190165D02*
X199893863Y-91242789D01*
X204573863Y-91190165D02*
X202033863Y-91190165D01*
X194445000Y-96520000D02*
X195163100Y-95801900D01*
X205542300Y-92158602D02*
X204573863Y-91190165D01*
%TO.N,Net-(JP3-B)*%
X189333863Y-116190165D02*
X208545000Y-116190165D01*
X208545000Y-116840000D02*
X208545000Y-111097800D01*
X186793863Y-118730165D02*
X189333863Y-116190165D01*
X185529263Y-119994765D02*
X185529263Y-118730165D01*
X189333863Y-118730165D02*
X186793863Y-121270165D01*
X193278863Y-118730165D02*
X189333863Y-118730165D01*
X209730000Y-106680000D02*
X209730000Y-109109000D01*
X186793863Y-121270165D02*
X184253863Y-121270165D01*
X184253863Y-121270165D02*
X185529263Y-119994765D01*
X208545000Y-111097800D02*
X208143100Y-110695900D01*
X195818863Y-121270165D02*
X193278863Y-118730165D01*
X185529263Y-118730165D02*
X186793863Y-118730165D01*
X209730000Y-109109000D02*
X208143100Y-110695900D01*
%TO.N,Net-(JP4-B)*%
X201422400Y-117017765D02*
X201422400Y-116962465D01*
X181713863Y-119746165D02*
X181713863Y-119994765D01*
X197969863Y-124826165D02*
X198477863Y-124318165D01*
X194413863Y-126350165D02*
X195937863Y-124826165D01*
X195937863Y-124826165D02*
X197969863Y-124826165D01*
X200660000Y-117780165D02*
X198035863Y-117780165D01*
X198035863Y-117780165D02*
X197969863Y-117714165D01*
X197969863Y-117714165D02*
X197461863Y-117714165D01*
X181713863Y-119994765D02*
X185529263Y-123810165D01*
X202086200Y-115174165D02*
X205589863Y-115174165D01*
X200660000Y-117780165D02*
X201422400Y-117017765D01*
X185529263Y-123810165D02*
X191873863Y-123810165D01*
X205589863Y-108606065D02*
X204573863Y-107590065D01*
X191873863Y-123810165D02*
X194413863Y-126350165D01*
X204573863Y-107590065D02*
X204573863Y-106538165D01*
X205589863Y-115174165D02*
X205589863Y-108606065D01*
X186285863Y-115174165D02*
X181713863Y-119746165D01*
X202086200Y-115174165D02*
X186285863Y-115174165D01*
%TO.N,Net-(U1-VCP)*%
X205057165Y-90390165D02*
X199169835Y-90390165D01*
X199169835Y-90390165D02*
X195580000Y-93980000D01*
X207385100Y-93670000D02*
X207385100Y-92718100D01*
X207385100Y-92718100D02*
X205057165Y-90390165D01*
%TO.N,Net-(U9-VDD)*%
X241956000Y-117589000D02*
X246920100Y-117589000D01*
X250488100Y-121920000D02*
X252805000Y-121920000D01*
X246920100Y-117300100D02*
X246920100Y-117589000D01*
X240165000Y-119380000D02*
X241956000Y-117589000D01*
X246920100Y-118352000D02*
X250488100Y-121920000D01*
X246920100Y-117589000D02*
X246920100Y-118352000D01*
%TO.N,/VBUS*%
X241171800Y-99060000D02*
X243123700Y-99060000D01*
X243823000Y-98360700D02*
X246819200Y-98360700D01*
X240195900Y-99060000D02*
X241171800Y-99060000D01*
X253369000Y-122551000D02*
X254000000Y-121920000D01*
X248169400Y-98360700D02*
X246819200Y-98360700D01*
X239219900Y-99060000D02*
X239219900Y-99192200D01*
X224088300Y-100195000D02*
X223520000Y-100195000D01*
X240195900Y-99060000D02*
X239219900Y-99060000D01*
X248220000Y-98310100D02*
X248169400Y-98360700D01*
X254000000Y-117240900D02*
X254000000Y-117641900D01*
X243276000Y-122551000D02*
X253369000Y-122551000D01*
X236503800Y-101908300D02*
X225801600Y-101908300D01*
X239219900Y-99192200D02*
X236503800Y-101908300D01*
X254000000Y-121920000D02*
X254000000Y-117641900D01*
X254000000Y-116840000D02*
X254000000Y-117240900D01*
X242645000Y-121920000D02*
X243276000Y-122551000D01*
X248170000Y-95860100D02*
X246819200Y-95860100D01*
X243123700Y-99060000D02*
X243823000Y-98360700D01*
X225801600Y-101908300D02*
X224088300Y-100195000D01*
X254000000Y-117240900D02*
X252474500Y-115715400D01*
X248220000Y-95910100D02*
X248170000Y-95860100D01*
X252474500Y-115715400D02*
X246759200Y-115715400D01*
%TO.N,/Step_5V*%
X246866500Y-88413500D02*
X246603100Y-88413500D01*
X223520000Y-95115000D02*
X222846500Y-94441500D01*
X222846500Y-94441500D02*
X222846500Y-93588300D01*
X252370700Y-85343900D02*
X252370700Y-85344000D01*
X241171800Y-93980000D02*
X239219900Y-93980000D01*
X252370700Y-85344000D02*
X251988100Y-85726600D01*
X253364900Y-84771900D02*
X252792900Y-85343900D01*
X246603100Y-88413500D02*
X246250400Y-88766200D01*
X246250400Y-88766200D02*
X246250400Y-89029600D01*
X225289700Y-91145100D02*
X239219900Y-91145100D01*
X239219900Y-91145100D02*
X239219900Y-93980000D01*
X249553400Y-85726600D02*
X246866500Y-88413500D01*
X252792900Y-85343900D02*
X252370700Y-85343900D01*
X244134900Y-91145100D02*
X239219900Y-91145100D01*
X246250400Y-89029600D02*
X244134900Y-91145100D01*
X222846500Y-93588300D02*
X225289700Y-91145100D01*
X253364900Y-83820000D02*
X253364900Y-84771900D01*
X251988100Y-85726600D02*
X249553400Y-85726600D01*
%TO.N,/BATT_OUT*%
X243527835Y-127000000D02*
X246380000Y-127000000D01*
X240338000Y-123313115D02*
X240338000Y-123810165D01*
X236132200Y-120680200D02*
X237705085Y-120680200D01*
X237705085Y-120680200D02*
X240338000Y-123313115D01*
X240338000Y-123810165D02*
X243527835Y-127000000D01*
%TO.N,/BATTERY*%
X220700000Y-88420100D02*
X221802700Y-89522800D01*
X224775100Y-81954900D02*
X226019900Y-81954900D01*
X223520000Y-127000000D02*
X224096000Y-127000000D01*
X224100000Y-82630000D02*
X224775100Y-81954900D01*
X246380000Y-78740000D02*
X245578100Y-78740000D01*
X252962800Y-77066200D02*
X248642600Y-77066200D01*
X247265300Y-128114700D02*
X248380000Y-127000000D01*
X227175300Y-89522800D02*
X227798100Y-88900000D01*
X228600000Y-88900000D02*
X227798100Y-88900000D01*
X239938000Y-123478800D02*
X237789400Y-121330200D01*
X248642600Y-77066200D02*
X247181900Y-78526900D01*
X246380000Y-78740000D02*
X247181900Y-78740000D01*
X229188700Y-78786100D02*
X245532000Y-78786100D01*
X247181900Y-78526900D02*
X247181900Y-78740000D01*
X221802700Y-89522800D02*
X227175300Y-89522800D01*
X253364900Y-78420200D02*
X253364900Y-77468300D01*
X226019900Y-83100200D02*
X220700000Y-88420100D01*
X245532000Y-78786100D02*
X245578100Y-78740000D01*
X253364900Y-77468300D02*
X252962800Y-77066200D01*
X225285000Y-128189000D02*
X224096000Y-127000000D01*
X226019900Y-81954900D02*
X226019900Y-83100200D01*
X239863700Y-128189000D02*
X225285000Y-128189000D01*
X226019900Y-81954900D02*
X229188700Y-78786100D01*
X239938000Y-128114700D02*
X239863700Y-128189000D01*
X239938000Y-128114700D02*
X247265300Y-128114700D01*
X239938000Y-128114700D02*
X239938000Y-123478800D01*
X221802700Y-92038700D02*
X218911400Y-94930000D01*
X237789400Y-121330200D02*
X236132200Y-121330200D01*
X218911400Y-94930000D02*
X216565000Y-94930000D01*
X221802700Y-89522800D02*
X221802700Y-92038700D01*
%TO.N,Net-(D1-A)*%
X222135000Y-105030000D02*
X226325000Y-109220000D01*
X219685000Y-105030000D02*
X222135000Y-105030000D01*
%TO.N,/MOTOR2_B_OUT*%
X237608100Y-124460000D02*
X237608100Y-124172000D01*
X201273600Y-84543100D02*
X201273600Y-83699800D01*
X201273600Y-83699800D02*
X200909200Y-83335400D01*
X237608100Y-124172000D02*
X235940400Y-122504300D01*
X200909200Y-83335400D02*
X199640200Y-83335400D01*
X199640200Y-83335400D02*
X199465600Y-83510000D01*
X238760000Y-124460000D02*
X237608100Y-124460000D01*
X235940400Y-122504300D02*
X208230000Y-122504300D01*
X199465600Y-83510000D02*
X198430000Y-83510000D01*
X208230000Y-122504300D02*
X205137100Y-119411400D01*
%TO.N,/MOTOR2_A_OUT*%
X200601900Y-82210000D02*
X202831900Y-79980000D01*
X232292400Y-78184200D02*
X237490000Y-78184200D01*
X202831900Y-79980000D02*
X205591500Y-79980000D01*
X207729500Y-77842000D02*
X231950200Y-77842000D01*
X231950200Y-77842000D02*
X232292400Y-78184200D01*
X205591500Y-79980000D02*
X207729500Y-77842000D01*
X198430000Y-82210000D02*
X200601900Y-82210000D01*
%TO.N,/MOTOR4_A_OUT*%
X225634200Y-102592200D02*
X236220000Y-102592200D01*
X208035100Y-100321900D02*
X209098900Y-101385700D01*
X208035100Y-99370000D02*
X208035100Y-100321900D01*
X224427700Y-101385700D02*
X225634200Y-102592200D01*
X209098900Y-101385700D02*
X224427700Y-101385700D01*
%TO.N,/MOTOR2_CTRL1*%
X192730000Y-81560000D02*
X193681900Y-81560000D01*
X198430800Y-76811100D02*
X235068100Y-76811100D01*
X193681900Y-81560000D02*
X198430800Y-76811100D01*
%TO.N,/MOTOR4_B_OUT*%
X232528100Y-124748000D02*
X231629300Y-125646800D01*
X233680000Y-124460000D02*
X232528100Y-124460000D01*
X206735100Y-100670900D02*
X206735100Y-99370000D01*
X227330000Y-124823900D02*
X227330000Y-124078800D01*
X231629300Y-125646800D02*
X228152900Y-125646800D01*
X207294800Y-123308100D02*
X206778000Y-122791300D01*
X228152900Y-125646800D02*
X227330000Y-124823900D01*
X226559300Y-123308100D02*
X207294800Y-123308100D01*
X206078100Y-101327900D02*
X206735100Y-100670900D01*
X227330000Y-124078800D02*
X226559300Y-123308100D01*
X232528100Y-124460000D02*
X232528100Y-124748000D01*
%TO.N,/MOTOR2_CTRL2*%
X232372400Y-77413000D02*
X198532000Y-77413000D01*
X198532000Y-77413000D02*
X193735000Y-82210000D01*
X193735000Y-82210000D02*
X192730000Y-82210000D01*
%TO.N,/CTRL_EXT_LOAD2*%
X228702800Y-122906200D02*
X207771500Y-122906200D01*
X196553863Y-123410165D02*
X196788177Y-123410165D01*
X191308177Y-123244479D02*
X189333863Y-121270165D01*
X192839549Y-124210165D02*
X191873863Y-123244479D01*
X189333863Y-121270165D02*
X191473863Y-119130165D01*
X229988100Y-124460000D02*
X229988100Y-124191500D01*
X207771500Y-122906200D02*
X206701151Y-121835851D01*
X200518177Y-119680165D02*
X200660000Y-119680165D01*
X231140000Y-124460000D02*
X229988100Y-124460000D01*
X197119548Y-124210165D02*
X192839549Y-124210165D01*
X199493863Y-121835851D02*
X197119548Y-124210165D01*
X206701151Y-121835851D02*
X199493863Y-121835851D01*
X196788177Y-123410165D02*
X200518177Y-119680165D01*
X191473863Y-119130165D02*
X192273863Y-119130165D01*
X229988100Y-124191500D02*
X228702800Y-122906200D01*
X191873863Y-123244479D02*
X191308177Y-123244479D01*
X192273863Y-119130165D02*
X196553863Y-123410165D01*
%TO.N,/MOTOR4_CTRL1*%
X210026800Y-95963600D02*
X224673600Y-95963600D01*
X208685100Y-93670000D02*
X208685100Y-94621900D01*
X208685100Y-94621900D02*
X210026800Y-95963600D01*
%TO.N,/MOTOR4_CTRL2*%
X219638100Y-95543300D02*
X219819700Y-95361700D01*
X211783900Y-95543300D02*
X219638100Y-95543300D01*
X208035100Y-93670000D02*
X208035100Y-92718100D01*
X208958700Y-92718100D02*
X211783900Y-95543300D01*
X208035100Y-92718100D02*
X208958700Y-92718100D01*
%TO.N,/EXT_LOAD2_OUT*%
X203123863Y-106538165D02*
X203123863Y-103826537D01*
X222708800Y-102468200D02*
X222855100Y-102321900D01*
X204482200Y-102468200D02*
X222708800Y-102468200D01*
X203123863Y-103826537D02*
X204482200Y-102468200D01*
%TO.N,/I2C1_SCL*%
X225373400Y-119380000D02*
X225228000Y-119525400D01*
X233680000Y-119380000D02*
X225373400Y-119380000D01*
%TO.N,/I2C1_SDA*%
X218440000Y-121834200D02*
X234359600Y-121834200D01*
X234607900Y-121585900D02*
X234607900Y-120030200D01*
X233680000Y-120030200D02*
X234607900Y-120030200D01*
X234359600Y-121834200D02*
X234607900Y-121585900D01*
%TO.N,/3V3*%
X226830500Y-114300000D02*
X231140000Y-114300000D01*
X233774100Y-117949800D02*
X235204300Y-119380000D01*
X220012400Y-115070500D02*
X219241900Y-114300000D01*
X231140000Y-114300000D02*
X231780600Y-113659400D01*
X226060000Y-115070500D02*
X220012400Y-115070500D01*
X226060000Y-116840000D02*
X226060000Y-115070500D01*
X218440000Y-114300000D02*
X217638100Y-114300000D01*
X232718500Y-113659400D02*
X233774100Y-114715000D01*
X236132200Y-119380000D02*
X235204300Y-119380000D01*
X233774100Y-114715000D02*
X233774100Y-117949800D01*
X231780600Y-113659400D02*
X232718500Y-113659400D01*
X217638100Y-114300000D02*
X217238100Y-114300000D01*
X226060000Y-115070500D02*
X226830500Y-114300000D01*
X218440000Y-114300000D02*
X219241900Y-114300000D01*
%TO.N,/EXT_LOAD1_OUT*%
X208280000Y-106224400D02*
X210146500Y-104357900D01*
X210146500Y-104357900D02*
X213360000Y-104357900D01*
X208280000Y-106680000D02*
X208280000Y-106224400D01*
%TO.N,/MOTOR3_CTRL1*%
X202373698Y-93670000D02*
X204134900Y-93670000D01*
X202033863Y-93330165D02*
X202373698Y-93670000D01*
%TO.N,/CTRL_EXT_LOAD1*%
X208545000Y-118740000D02*
X207392700Y-118740000D01*
X207392700Y-118740000D02*
X207356900Y-118704200D01*
%TO.N,/MOTOR3_CTRL2*%
X204784900Y-92654100D02*
X204942300Y-92496700D01*
X204784900Y-93670000D02*
X204784900Y-92654100D01*
%TO.N,/MOTOR3_A_OUT*%
X204784900Y-98418100D02*
X204653400Y-98418100D01*
X204784900Y-99370000D02*
X204784900Y-98418100D01*
X204653400Y-98418100D02*
X204467200Y-98231900D01*
%TO.N,/MOTOR1_CTRL1*%
X193681900Y-86591900D02*
X193681900Y-86110200D01*
X192730000Y-86110200D02*
X193681900Y-86110200D01*
%TO.N,/MOTOR3_B_OUT*%
X206085100Y-100321900D02*
X205151100Y-101255900D01*
X206085100Y-99370000D02*
X206085100Y-100321900D01*
X205151100Y-101255900D02*
X203093000Y-101255900D01*
%TO.N,/MOTOR1_CTRL2*%
X192730000Y-85460200D02*
X193681900Y-85460200D01*
X196349700Y-86592700D02*
X194814400Y-86592700D01*
X194814400Y-86592700D02*
X193681900Y-85460200D01*
%TO.N,/MOTOR1_B_OUT*%
X199520100Y-84021800D02*
X200660000Y-84021800D01*
X198430000Y-84160000D02*
X199381900Y-84160000D01*
X199381900Y-84160000D02*
X199520100Y-84021800D01*
%TO.N,/MOTOR1_A_OUT*%
X198430000Y-85460200D02*
X199381900Y-85460200D01*
X199381900Y-85460200D02*
X199381900Y-86626700D01*
%TO.N,Net-(JP1-A)*%
X248920000Y-96310200D02*
X249960000Y-97350200D01*
X249960000Y-97350200D02*
X249960000Y-106140000D01*
%TO.N,/CC2*%
X250920100Y-111300100D02*
X250920100Y-110248200D01*
X251410000Y-109758300D02*
X250920100Y-110248200D01*
X251410000Y-106140000D02*
X251410000Y-109758300D01*
%TO.N,Net-(JP2-A)*%
X233708400Y-113238400D02*
X230925900Y-113238400D01*
X230319300Y-113845000D02*
X224032300Y-113845000D01*
X234770000Y-114300000D02*
X233708400Y-113238400D01*
X230925900Y-113238400D02*
X230319300Y-113845000D01*
X233680000Y-120680200D02*
X224035500Y-120680200D01*
%TO.N,Net-(LED1-A)*%
X248920000Y-88900000D02*
X249621700Y-88198300D01*
X254000000Y-88900000D02*
X253298100Y-88900000D01*
X249621700Y-88198300D02*
X252947300Y-88198300D01*
X253298100Y-88549100D02*
X253298100Y-88900000D01*
X252947300Y-88198300D02*
X253298100Y-88549100D01*
%TO.N,Net-(Q1-G)*%
X224336500Y-83588500D02*
X225295000Y-82630000D01*
X223076100Y-83588500D02*
X224336500Y-83588500D01*
X214883200Y-90601400D02*
X216063200Y-90601400D01*
X216063200Y-92528200D02*
X216565000Y-93030000D01*
X216063200Y-90601400D02*
X216063200Y-92528200D01*
X212701900Y-88420100D02*
X214883200Y-90601400D01*
X211100000Y-88420100D02*
X212701900Y-88420100D01*
X216063200Y-90601400D02*
X223076100Y-83588500D01*
%TO.N,Net-(U2-FB)*%
X228600000Y-104140000D02*
X227964800Y-104775200D01*
X223520000Y-104130000D02*
X223186500Y-103796500D01*
X227964800Y-104775200D02*
X226459800Y-104775200D01*
X226459800Y-104775200D02*
X225173100Y-103488500D01*
X223186500Y-103796500D02*
X218413900Y-103796500D01*
X223322400Y-111120000D02*
X226325000Y-111120000D01*
X225173100Y-103488500D02*
X224161500Y-103488500D01*
X218413900Y-103796500D02*
X218049500Y-104160900D01*
X218049500Y-105847100D02*
X223322400Y-111120000D01*
X224161500Y-103488500D02*
X223520000Y-104130000D01*
X218049500Y-104160900D02*
X218049500Y-105847100D01*
%TO.N,Net-(U12-AISEN)*%
X203510000Y-78430100D02*
X203510000Y-78430000D01*
X198430000Y-84810200D02*
X197478100Y-84810200D01*
X200344400Y-78430100D02*
X203510000Y-78430100D01*
X197478100Y-81296400D02*
X200344400Y-78430100D01*
X197478100Y-84810200D02*
X197478100Y-81296400D01*
%TO.N,Net-(U12-BISEN)*%
X202105500Y-83921900D02*
X201043600Y-82860000D01*
X202105500Y-86195500D02*
X202105500Y-83921900D01*
X201043600Y-82860000D02*
X198430000Y-82860000D01*
X203510000Y-87600000D02*
X202105500Y-86195500D01*
%TO.N,Net-(U1-AISEN)*%
X189333863Y-100950165D02*
X185967891Y-104316137D01*
X205434900Y-99370000D02*
X205434900Y-99866772D01*
X204981659Y-100320013D02*
X202664015Y-100320013D01*
X185407891Y-104316137D02*
X183693863Y-106030165D01*
X202033863Y-100950165D02*
X189333863Y-100950165D01*
X202664015Y-100320013D02*
X202033863Y-100950165D01*
X185967891Y-104316137D02*
X185407891Y-104316137D01*
X205434900Y-99866772D02*
X204981659Y-100320013D01*
%TO.N,Net-(U1-BISEN)*%
X203247328Y-101855900D02*
X202705283Y-101855900D01*
X202199548Y-101350165D02*
X191473863Y-101350165D01*
X203457728Y-102066300D02*
X203247328Y-101855900D01*
X207385100Y-99370000D02*
X207385100Y-100872100D01*
X190323863Y-102982165D02*
X190323863Y-102500165D01*
X190323863Y-106030165D02*
X190323863Y-102982165D01*
X191473863Y-101350165D02*
X190323863Y-102500165D01*
X207385100Y-100872100D02*
X206190900Y-102066300D01*
X202705283Y-101855900D02*
X202199548Y-101350165D01*
X206190900Y-102066300D02*
X203457728Y-102066300D01*
%TO.N,Net-(U9-CFG1)*%
X243840000Y-113300000D02*
X246467000Y-113300000D01*
X247415200Y-112351800D02*
X247920100Y-112351800D01*
X247920100Y-111299900D02*
X247920100Y-112351800D01*
X246467000Y-113300000D02*
X247415200Y-112351800D01*
%TO.N,Net-(U9-VBUS)*%
X248920100Y-110248000D02*
X246441000Y-110248000D01*
X243840000Y-121920000D02*
X244495100Y-121264900D01*
X244495100Y-121264900D02*
X245664700Y-121264900D01*
X246441000Y-110248000D02*
X246096900Y-110592100D01*
X248920100Y-111299900D02*
X248920100Y-110248000D01*
%TO.N,Net-(U11-CHRG)*%
X248749300Y-77829500D02*
X249110500Y-77468300D01*
X247725000Y-88900000D02*
X246967700Y-88900000D01*
X246967700Y-88900000D02*
X246852300Y-89015400D01*
X250824900Y-78420200D02*
X250824900Y-77468300D01*
X249110500Y-77468300D02*
X250824900Y-77468300D01*
%TO.N,Net-(U14-C)*%
X236760000Y-85410000D02*
X245430000Y-85410000D01*
X245430000Y-85410000D02*
X246380000Y-86360000D01*
%TO.N,/PROG*%
X243495000Y-82280000D02*
X246380000Y-85165000D01*
X250824900Y-83820000D02*
X250824900Y-84771900D01*
X238760000Y-82280000D02*
X243495000Y-82280000D01*
X250824900Y-84771900D02*
X246773100Y-84771900D01*
X246773100Y-84771900D02*
X246380000Y-85165000D01*
%TO.N,Net-(U13-A1)*%
X224434200Y-119380000D02*
X224520200Y-119380000D01*
X224520200Y-119380000D02*
X224998900Y-118901300D01*
X223431900Y-121001200D02*
X223431900Y-120382300D01*
X225688700Y-117790000D02*
X228845000Y-117790000D01*
X233680000Y-121330200D02*
X223760900Y-121330200D01*
X224998900Y-118479800D02*
X225688700Y-117790000D01*
X224998900Y-118901300D02*
X224998900Y-118479800D01*
X223760900Y-121330200D02*
X223431900Y-121001200D01*
X223431900Y-120382300D02*
X224434200Y-119380000D01*
X228845000Y-117790000D02*
X232335000Y-114300000D01*
%TO.N,unconnected-(U7-EH-Pad4)*%
X209249900Y-79219900D02*
X222550100Y-79219900D01*
%TO.N,/CC1*%
X249518200Y-109846100D02*
X245596000Y-109846100D01*
X246819200Y-97860300D02*
X245736800Y-97860300D01*
X245736800Y-97860300D02*
X245596000Y-97719500D01*
X249920100Y-110248000D02*
X249518200Y-109846100D01*
X249920100Y-111299900D02*
X249920100Y-110248000D01*
%TD*%
%TA.AperFunction,Conductor*%
%TO.N,GND*%
G36*
X198259581Y-76018938D02*
G01*
X198305276Y-76068370D01*
X198318409Y-76134394D01*
X198295109Y-76197551D01*
X198242243Y-76239226D01*
X198127961Y-76286562D01*
X198098935Y-76308835D01*
X198002518Y-76382818D01*
X198002516Y-76382819D01*
X198002515Y-76382821D01*
X197983290Y-76407874D01*
X197972598Y-76420065D01*
X193515518Y-80877145D01*
X193476441Y-80903542D01*
X193430334Y-80913439D01*
X193383867Y-80905406D01*
X193367827Y-80899323D01*
X193245839Y-80884511D01*
X192214135Y-80884511D01*
X192153140Y-80891917D01*
X192092146Y-80899323D01*
X191938763Y-80957493D01*
X191803761Y-81050678D01*
X191694979Y-81173469D01*
X191618744Y-81318720D01*
X191579487Y-81477997D01*
X191579487Y-81642037D01*
X191618744Y-81801314D01*
X191632428Y-81827386D01*
X191646631Y-81885011D01*
X191632428Y-81942636D01*
X191618745Y-81968706D01*
X191606315Y-82019136D01*
X191579615Y-82070682D01*
X191532380Y-82104426D01*
X191474963Y-82112975D01*
X191419946Y-82094454D01*
X191359449Y-82056442D01*
X191306722Y-82023311D01*
X191136455Y-81963732D01*
X191136451Y-81963731D01*
X191136450Y-81963731D01*
X191065917Y-81955784D01*
X191009948Y-81935018D01*
X190970170Y-81890505D01*
X190955800Y-81832564D01*
X190955800Y-81456094D01*
X190956861Y-81439908D01*
X190960983Y-81408600D01*
X190940344Y-81251838D01*
X190879836Y-81105759D01*
X190843532Y-81058447D01*
X190837571Y-81050678D01*
X190783582Y-80980317D01*
X190758529Y-80961094D01*
X190746334Y-80950399D01*
X187495064Y-77699129D01*
X187484368Y-77686933D01*
X187480535Y-77681938D01*
X187465769Y-77662693D01*
X187465146Y-77661881D01*
X187339705Y-77565628D01*
X187193627Y-77505121D01*
X187076226Y-77489665D01*
X187071645Y-77489062D01*
X187036865Y-77484482D01*
X187009028Y-77488147D01*
X187005562Y-77488604D01*
X186989378Y-77489665D01*
X186833224Y-77489665D01*
X184301350Y-77489665D01*
X184285165Y-77488604D01*
X184281239Y-77488087D01*
X184253862Y-77484482D01*
X184097100Y-77505121D01*
X183951022Y-77565628D01*
X183907330Y-77599154D01*
X183907329Y-77599156D01*
X183825580Y-77661882D01*
X183806357Y-77686934D01*
X183795664Y-77699126D01*
X181322828Y-80171963D01*
X181310636Y-80182656D01*
X181285580Y-80201882D01*
X181223460Y-80282840D01*
X181223460Y-80282841D01*
X181202211Y-80310532D01*
X181189325Y-80327326D01*
X181128819Y-80473402D01*
X181108180Y-80630164D01*
X181112302Y-80661466D01*
X181113363Y-80677652D01*
X181113363Y-83122678D01*
X181112302Y-83138864D01*
X181108180Y-83170165D01*
X181113363Y-83209525D01*
X181113363Y-83209526D01*
X181128819Y-83326927D01*
X181189326Y-83473005D01*
X181285579Y-83598446D01*
X181300687Y-83610038D01*
X181309030Y-83616440D01*
X181310631Y-83617668D01*
X181322827Y-83628364D01*
X181355662Y-83661199D01*
X181366357Y-83673394D01*
X181385580Y-83698447D01*
X181456479Y-83752849D01*
X181486451Y-83775847D01*
X181511022Y-83794701D01*
X181657101Y-83855209D01*
X181782561Y-83871726D01*
X181813862Y-83875847D01*
X181813862Y-83875846D01*
X181813863Y-83875847D01*
X181845165Y-83871725D01*
X181861350Y-83870665D01*
X183319364Y-83870665D01*
X183381364Y-83887278D01*
X183426751Y-83932665D01*
X183443364Y-83994665D01*
X183443364Y-84016369D01*
X183446286Y-84053524D01*
X183492492Y-84212563D01*
X183492493Y-84212565D01*
X183500036Y-84225319D01*
X183576800Y-84355119D01*
X183617043Y-84395362D01*
X183643924Y-84435591D01*
X183653363Y-84483044D01*
X183653363Y-93282678D01*
X183652302Y-93298864D01*
X183648180Y-93330165D01*
X183658141Y-93405817D01*
X183658141Y-93405818D01*
X183668819Y-93486927D01*
X183729326Y-93633005D01*
X183825580Y-93758447D01*
X183921994Y-93832427D01*
X183951022Y-93854701D01*
X184097101Y-93915209D01*
X184222561Y-93931726D01*
X184253862Y-93935847D01*
X184253862Y-93935846D01*
X184253863Y-93935847D01*
X184285165Y-93931725D01*
X184301350Y-93930665D01*
X189286376Y-93930665D01*
X189302560Y-93931725D01*
X189333863Y-93935847D01*
X189490625Y-93915209D01*
X189636704Y-93854701D01*
X189677707Y-93823238D01*
X189762145Y-93758447D01*
X189781372Y-93733388D01*
X189792053Y-93721208D01*
X191619143Y-91894118D01*
X191631323Y-91883437D01*
X191656382Y-91864210D01*
X191752636Y-91738769D01*
X191813144Y-91592690D01*
X191828600Y-91475289D01*
X191833782Y-91435928D01*
X191829660Y-91404625D01*
X191828600Y-91388441D01*
X191828600Y-89985600D01*
X191845213Y-89923600D01*
X191890600Y-89878213D01*
X191952600Y-89861600D01*
X192378803Y-89861600D01*
X192426256Y-89871039D01*
X192466484Y-89897919D01*
X194795225Y-92226660D01*
X194824212Y-92272335D01*
X194830994Y-92326005D01*
X194821680Y-92354674D01*
X194823000Y-92355058D01*
X194772424Y-92529139D01*
X194772424Y-92529142D01*
X194769908Y-92561121D01*
X194769500Y-92566300D01*
X194769500Y-92754902D01*
X194760061Y-92802355D01*
X194733181Y-92842583D01*
X194546865Y-93028898D01*
X194534674Y-93039590D01*
X194509620Y-93058815D01*
X194497315Y-93074852D01*
X194423883Y-93170550D01*
X194423879Y-93170554D01*
X194423870Y-93170564D01*
X194413365Y-93184256D01*
X194352855Y-93330339D01*
X194332217Y-93487099D01*
X194336339Y-93518401D01*
X194337400Y-93534587D01*
X194337400Y-93927700D01*
X194320787Y-93989700D01*
X194275400Y-94035087D01*
X194213400Y-94051700D01*
X192631315Y-94051700D01*
X192615130Y-94050639D01*
X192611204Y-94050122D01*
X192583827Y-94046517D01*
X192548569Y-94051159D01*
X192544467Y-94051700D01*
X192427065Y-94067156D01*
X192280987Y-94127663D01*
X192155544Y-94223918D01*
X192136325Y-94248966D01*
X192125631Y-94261161D01*
X191990824Y-94395967D01*
X191978632Y-94406659D01*
X191953580Y-94425882D01*
X191867759Y-94537729D01*
X191867756Y-94537732D01*
X191857326Y-94551323D01*
X191796819Y-94697401D01*
X191784464Y-94791248D01*
X191772739Y-94829902D01*
X191757781Y-94850777D01*
X191677952Y-94977825D01*
X191656074Y-95012643D01*
X191597585Y-95179796D01*
X191596494Y-95182913D01*
X191576297Y-95362164D01*
X191596494Y-95541416D01*
X191596494Y-95541418D01*
X191596495Y-95541420D01*
X191656074Y-95711687D01*
X191685570Y-95758629D01*
X191752048Y-95864429D01*
X191879598Y-95991979D01*
X191879600Y-95991980D01*
X191879601Y-95991981D01*
X192032341Y-96087954D01*
X192202608Y-96147533D01*
X192324804Y-96161301D01*
X192381862Y-96167730D01*
X192381862Y-96167729D01*
X192381863Y-96167730D01*
X192561118Y-96147533D01*
X192731385Y-96087954D01*
X192884125Y-95991981D01*
X193011679Y-95864427D01*
X193107652Y-95711687D01*
X193167231Y-95541420D01*
X193182341Y-95407311D01*
X193187355Y-95362816D01*
X193208121Y-95306848D01*
X193252634Y-95267070D01*
X193310575Y-95252700D01*
X194563703Y-95252700D01*
X194619998Y-95266215D01*
X194664021Y-95303815D01*
X194686176Y-95357302D01*
X194681634Y-95415019D01*
X194651386Y-95464378D01*
X194492008Y-95623756D01*
X194442582Y-95673182D01*
X194402354Y-95700061D01*
X194354902Y-95709500D01*
X194166295Y-95709500D01*
X194129140Y-95712423D01*
X193970101Y-95758629D01*
X193827544Y-95842937D01*
X193710437Y-95960044D01*
X193626129Y-96102600D01*
X193579924Y-96261639D01*
X193577000Y-96298799D01*
X193577000Y-96741204D01*
X193579923Y-96778359D01*
X193626129Y-96937398D01*
X193710437Y-97079955D01*
X193827544Y-97197062D01*
X193861660Y-97217238D01*
X193970100Y-97281370D01*
X194129142Y-97327576D01*
X194166297Y-97330500D01*
X194723702Y-97330499D01*
X194723704Y-97330499D01*
X194760859Y-97327576D01*
X194919897Y-97281371D01*
X194919897Y-97281370D01*
X194919900Y-97281370D01*
X194949870Y-97263645D01*
X195012990Y-97246377D01*
X195076112Y-97263645D01*
X195105301Y-97280907D01*
X195264217Y-97327077D01*
X195301352Y-97330000D01*
X195330000Y-97330000D01*
X195330000Y-96770000D01*
X195830000Y-96770000D01*
X195830000Y-97330000D01*
X195858648Y-97330000D01*
X195895782Y-97327077D01*
X196054698Y-97280907D01*
X196197145Y-97196664D01*
X196314164Y-97079645D01*
X196398407Y-96937198D01*
X196444578Y-96778279D01*
X196445230Y-96770000D01*
X195830000Y-96770000D01*
X195330000Y-96770000D01*
X195330000Y-96576231D01*
X195344012Y-96518971D01*
X195382882Y-96474652D01*
X195409366Y-96464354D01*
X195408166Y-96461457D01*
X195454770Y-96442152D01*
X195569328Y-96394701D01*
X195663272Y-96322615D01*
X195679568Y-96306319D01*
X195719796Y-96279439D01*
X195767249Y-96270000D01*
X196445230Y-96270000D01*
X196444578Y-96261720D01*
X196398407Y-96102801D01*
X196314164Y-95960354D01*
X196257529Y-95903719D01*
X196225435Y-95848132D01*
X196225435Y-95783944D01*
X196257527Y-95728359D01*
X200158903Y-91826983D01*
X200199131Y-91800104D01*
X200246584Y-91790665D01*
X201994502Y-91790665D01*
X202073224Y-91790665D01*
X204216894Y-91790665D01*
X204273189Y-91804180D01*
X204317212Y-91841780D01*
X204339367Y-91895267D01*
X204334825Y-91952983D01*
X204317573Y-91981135D01*
X204319917Y-91982608D01*
X204220044Y-92141555D01*
X204216511Y-92147178D01*
X204170646Y-92278255D01*
X204156931Y-92317449D01*
X204146160Y-92413043D01*
X204130682Y-92460540D01*
X204097717Y-92498075D01*
X204052615Y-92519556D01*
X203893620Y-92558744D01*
X203748369Y-92634979D01*
X203625578Y-92743761D01*
X203532392Y-92878765D01*
X203490408Y-92989470D01*
X203463895Y-93031398D01*
X203423070Y-93059577D01*
X203374466Y-93069500D01*
X202878727Y-93069500D01*
X202829140Y-93059154D01*
X202787828Y-93029841D01*
X202761685Y-92986454D01*
X202759652Y-92980643D01*
X202663679Y-92827903D01*
X202663678Y-92827902D01*
X202663677Y-92827900D01*
X202536127Y-92700350D01*
X202385436Y-92605665D01*
X202383385Y-92604376D01*
X202213118Y-92544797D01*
X202213116Y-92544796D01*
X202213114Y-92544796D01*
X202033863Y-92524599D01*
X201854611Y-92544796D01*
X201854608Y-92544796D01*
X201854608Y-92544797D01*
X201684341Y-92604376D01*
X201684339Y-92604376D01*
X201684339Y-92604377D01*
X201531598Y-92700350D01*
X201404048Y-92827900D01*
X201308075Y-92980641D01*
X201308074Y-92980643D01*
X201253765Y-93135848D01*
X201248494Y-93150913D01*
X201228297Y-93330165D01*
X201248494Y-93509416D01*
X201248494Y-93509418D01*
X201248495Y-93509420D01*
X201308074Y-93679687D01*
X201336806Y-93725414D01*
X201404048Y-93832429D01*
X201531598Y-93959979D01*
X201531600Y-93959980D01*
X201531601Y-93959981D01*
X201684341Y-94055954D01*
X201854608Y-94115533D01*
X201953140Y-94126634D01*
X202014741Y-94151477D01*
X202054546Y-94182020D01*
X202054547Y-94182021D01*
X202059523Y-94185839D01*
X202070857Y-94194536D01*
X202216936Y-94255044D01*
X202342396Y-94271561D01*
X202373697Y-94275682D01*
X202373697Y-94275681D01*
X202373698Y-94275682D01*
X202405000Y-94271560D01*
X202421185Y-94270500D01*
X203374476Y-94270500D01*
X203423080Y-94280423D01*
X203463905Y-94308603D01*
X203490418Y-94350530D01*
X203532392Y-94461209D01*
X203625578Y-94596212D01*
X203625579Y-94596213D01*
X203625580Y-94596214D01*
X203748368Y-94704994D01*
X203893620Y-94781229D01*
X204052896Y-94820487D01*
X204216937Y-94820487D01*
X204216938Y-94820487D01*
X204376214Y-94781229D01*
X204402286Y-94767544D01*
X204459910Y-94753341D01*
X204517536Y-94767545D01*
X204530298Y-94774243D01*
X204574591Y-94813413D01*
X204595709Y-94868642D01*
X204588851Y-94927371D01*
X204545906Y-95042511D01*
X204539497Y-95102128D01*
X204539497Y-97307376D01*
X204525127Y-97365317D01*
X204485349Y-97409830D01*
X204429380Y-97430596D01*
X204287949Y-97446531D01*
X204287946Y-97446531D01*
X204287945Y-97446532D01*
X204117678Y-97506111D01*
X204117676Y-97506111D01*
X204117676Y-97506112D01*
X203964935Y-97602085D01*
X203837385Y-97729635D01*
X203786628Y-97810415D01*
X203741411Y-97882378D01*
X203712880Y-97963915D01*
X203681831Y-98052648D01*
X203661634Y-98231900D01*
X203672858Y-98331518D01*
X203665390Y-98389869D01*
X203631870Y-98438212D01*
X203625581Y-98443783D01*
X203532393Y-98578789D01*
X203474223Y-98732172D01*
X203459411Y-98854162D01*
X203459411Y-98957500D01*
X203442798Y-99019500D01*
X203397411Y-99064887D01*
X203335411Y-99081500D01*
X201864841Y-99081500D01*
X201817388Y-99072061D01*
X201796811Y-99058312D01*
X201795992Y-99059617D01*
X201654384Y-98970639D01*
X201631422Y-98956211D01*
X201461155Y-98896632D01*
X201461153Y-98896631D01*
X201461151Y-98896631D01*
X201281899Y-98876434D01*
X201102648Y-98896631D01*
X201102645Y-98896631D01*
X201102645Y-98896632D01*
X200932378Y-98956211D01*
X200932376Y-98956211D01*
X200932376Y-98956212D01*
X200767808Y-99059617D01*
X200766988Y-99058312D01*
X200746412Y-99072061D01*
X200698959Y-99081500D01*
X197139000Y-99081500D01*
X197077000Y-99064887D01*
X197031613Y-99019500D01*
X197015000Y-98957500D01*
X197015000Y-98838852D01*
X197012077Y-98801717D01*
X196965907Y-98642801D01*
X196881664Y-98500354D01*
X196764645Y-98383335D01*
X196622198Y-98299092D01*
X196463282Y-98252922D01*
X196426148Y-98250000D01*
X196397500Y-98250000D01*
X196397500Y-98957500D01*
X196380887Y-99019500D01*
X196335500Y-99064887D01*
X196273500Y-99081500D01*
X196021500Y-99081500D01*
X195959500Y-99064887D01*
X195914113Y-99019500D01*
X195897500Y-98957500D01*
X195897500Y-98250000D01*
X195868852Y-98250000D01*
X195831717Y-98252922D01*
X195672801Y-98299092D01*
X195643609Y-98316356D01*
X195580489Y-98333622D01*
X195517370Y-98316354D01*
X195487399Y-98298629D01*
X195328360Y-98252424D01*
X195313496Y-98251254D01*
X195291203Y-98249500D01*
X195291200Y-98249500D01*
X194733795Y-98249500D01*
X194696640Y-98252423D01*
X194537603Y-98298628D01*
X194537599Y-98298630D01*
X194537600Y-98298630D01*
X194534611Y-98300397D01*
X194471491Y-98317665D01*
X192964804Y-98317665D01*
X192917351Y-98308226D01*
X192896774Y-98294477D01*
X192895955Y-98295782D01*
X192794287Y-98231900D01*
X192731385Y-98192376D01*
X192561118Y-98132797D01*
X192561116Y-98132796D01*
X192561114Y-98132796D01*
X192381863Y-98112599D01*
X192202611Y-98132796D01*
X192202608Y-98132796D01*
X192202608Y-98132797D01*
X192032341Y-98192376D01*
X192032339Y-98192376D01*
X192032339Y-98192377D01*
X191879598Y-98288350D01*
X191752048Y-98415900D01*
X191656075Y-98568641D01*
X191656074Y-98568643D01*
X191630125Y-98642801D01*
X191596494Y-98738913D01*
X191576297Y-98918165D01*
X191596494Y-99097416D01*
X191596494Y-99097418D01*
X191596495Y-99097420D01*
X191656074Y-99267687D01*
X191695180Y-99329924D01*
X191752048Y-99420429D01*
X191879598Y-99547979D01*
X191879600Y-99547980D01*
X191879601Y-99547981D01*
X192032341Y-99643954D01*
X192202608Y-99703533D01*
X192381863Y-99723730D01*
X192561118Y-99703533D01*
X192731385Y-99643954D01*
X192884125Y-99547981D01*
X192884124Y-99547981D01*
X192895955Y-99540548D01*
X192896774Y-99541852D01*
X192917351Y-99528104D01*
X192964804Y-99518665D01*
X194147306Y-99518665D01*
X194208743Y-99534955D01*
X194254038Y-99579544D01*
X194277937Y-99619955D01*
X194395044Y-99737062D01*
X194395046Y-99737063D01*
X194537600Y-99821370D01*
X194696642Y-99867576D01*
X194733797Y-99870500D01*
X194922402Y-99870499D01*
X194969854Y-99879938D01*
X195010083Y-99906818D01*
X195176299Y-100073034D01*
X195186994Y-100085229D01*
X195206217Y-100110281D01*
X195228382Y-100127289D01*
X195266175Y-100175229D01*
X195276514Y-100235393D01*
X195256891Y-100293200D01*
X195212064Y-100334638D01*
X195152896Y-100349665D01*
X189381350Y-100349665D01*
X189365165Y-100348604D01*
X189361239Y-100348087D01*
X189333862Y-100344482D01*
X189258733Y-100354374D01*
X189177100Y-100365121D01*
X189031022Y-100425628D01*
X188905579Y-100521883D01*
X188886357Y-100546935D01*
X188875663Y-100559129D01*
X185755475Y-103679318D01*
X185715247Y-103706198D01*
X185667794Y-103715637D01*
X185455378Y-103715637D01*
X185439193Y-103714576D01*
X185435267Y-103714059D01*
X185407890Y-103710454D01*
X185273985Y-103728084D01*
X185262557Y-103729588D01*
X185251128Y-103731093D01*
X185105050Y-103791600D01*
X184979607Y-103887855D01*
X184960385Y-103912907D01*
X184949691Y-103925101D01*
X184254724Y-104620067D01*
X184208608Y-104649212D01*
X184154447Y-104655745D01*
X184147991Y-104655085D01*
X184143872Y-104654665D01*
X184143870Y-104654665D01*
X183243854Y-104654665D01*
X183141066Y-104665165D01*
X182974528Y-104720351D01*
X182825205Y-104812453D01*
X182701151Y-104936507D01*
X182609049Y-105085830D01*
X182553863Y-105252367D01*
X182543363Y-105355155D01*
X182543363Y-106705173D01*
X182553863Y-106807961D01*
X182609049Y-106974499D01*
X182701151Y-107123822D01*
X182825205Y-107247876D01*
X182825207Y-107247877D01*
X182974529Y-107339979D01*
X183066367Y-107370411D01*
X183141065Y-107395164D01*
X183151565Y-107396236D01*
X183243854Y-107405665D01*
X184143871Y-107405664D01*
X184246660Y-107395164D01*
X184413197Y-107339979D01*
X184562519Y-107247877D01*
X184686575Y-107123821D01*
X184778677Y-106974499D01*
X184833862Y-106807962D01*
X184844363Y-106705174D01*
X184844363Y-106280165D01*
X185643864Y-106280165D01*
X185643864Y-106705144D01*
X185654356Y-106807860D01*
X185709505Y-106974287D01*
X185801546Y-107123510D01*
X185925517Y-107247481D01*
X186074740Y-107339522D01*
X186241166Y-107394671D01*
X186343884Y-107405165D01*
X186543863Y-107405165D01*
X186543863Y-106280165D01*
X187043863Y-106280165D01*
X187043863Y-107405164D01*
X187243842Y-107405164D01*
X187346558Y-107394671D01*
X187512985Y-107339522D01*
X187662208Y-107247481D01*
X187786179Y-107123510D01*
X187878220Y-106974287D01*
X187933369Y-106807861D01*
X187943863Y-106705144D01*
X187943863Y-106280165D01*
X187043863Y-106280165D01*
X186543863Y-106280165D01*
X185643864Y-106280165D01*
X184844363Y-106280165D01*
X184844362Y-105780260D01*
X184853801Y-105732808D01*
X184880678Y-105692583D01*
X185449709Y-105123553D01*
X185506691Y-105091095D01*
X185572259Y-105092239D01*
X185628075Y-105126665D01*
X185658527Y-105184746D01*
X185655687Y-105238952D01*
X185655737Y-105238958D01*
X185655633Y-105239966D01*
X185655096Y-105250235D01*
X185654357Y-105252465D01*
X185643863Y-105355186D01*
X185643863Y-105780165D01*
X186543863Y-105780165D01*
X186543863Y-104655165D01*
X187043863Y-104655165D01*
X187043863Y-105780165D01*
X187943862Y-105780165D01*
X187943862Y-105355186D01*
X187933369Y-105252469D01*
X187878220Y-105086042D01*
X187786179Y-104936819D01*
X187662208Y-104812848D01*
X187512985Y-104720807D01*
X187346559Y-104665658D01*
X187243842Y-104655165D01*
X187043863Y-104655165D01*
X186543863Y-104655165D01*
X186543863Y-104640760D01*
X186553302Y-104593307D01*
X186580179Y-104553082D01*
X189546278Y-101586984D01*
X189586507Y-101560104D01*
X189633960Y-101550665D01*
X190124766Y-101550665D01*
X190181061Y-101564180D01*
X190225084Y-101601780D01*
X190247239Y-101655267D01*
X190242697Y-101712983D01*
X190212449Y-101762343D01*
X190002211Y-101972581D01*
X189932828Y-102041964D01*
X189920637Y-102052655D01*
X189895583Y-102071880D01*
X189895580Y-102071883D01*
X189895581Y-102071883D01*
X189859806Y-102118506D01*
X189847362Y-102134724D01*
X189799325Y-102197326D01*
X189738819Y-102343402D01*
X189718180Y-102500164D01*
X189722302Y-102531466D01*
X189723363Y-102547652D01*
X189723363Y-104591432D01*
X189712740Y-104641647D01*
X189682693Y-104683259D01*
X189638368Y-104709137D01*
X189634755Y-104710335D01*
X189604527Y-104720351D01*
X189455205Y-104812453D01*
X189331151Y-104936507D01*
X189239049Y-105085830D01*
X189183863Y-105252367D01*
X189173363Y-105355155D01*
X189173363Y-106705173D01*
X189183863Y-106807961D01*
X189239049Y-106974499D01*
X189331151Y-107123822D01*
X189455205Y-107247876D01*
X189455207Y-107247877D01*
X189604529Y-107339979D01*
X189696367Y-107370411D01*
X189771065Y-107395164D01*
X189781565Y-107396236D01*
X189873854Y-107405665D01*
X190773871Y-107405664D01*
X190876660Y-107395164D01*
X191043197Y-107339979D01*
X191192519Y-107247877D01*
X191316575Y-107123821D01*
X191408677Y-106974499D01*
X191463862Y-106807962D01*
X191474363Y-106705174D01*
X191474363Y-106280165D01*
X192273864Y-106280165D01*
X192273864Y-106705144D01*
X192284356Y-106807860D01*
X192339505Y-106974287D01*
X192431546Y-107123510D01*
X192555517Y-107247481D01*
X192704740Y-107339522D01*
X192871166Y-107394671D01*
X192973884Y-107405165D01*
X193173863Y-107405165D01*
X193173863Y-106280165D01*
X193673863Y-106280165D01*
X193673863Y-107405164D01*
X193873842Y-107405164D01*
X193976558Y-107394671D01*
X194142985Y-107339522D01*
X194292208Y-107247481D01*
X194416179Y-107123510D01*
X194508220Y-106974287D01*
X194563369Y-106807861D01*
X194573863Y-106705144D01*
X194573863Y-106280165D01*
X193673863Y-106280165D01*
X193173863Y-106280165D01*
X192273864Y-106280165D01*
X191474363Y-106280165D01*
X191474362Y-105780165D01*
X192273863Y-105780165D01*
X193173863Y-105780165D01*
X193173863Y-104655166D01*
X192973884Y-104655166D01*
X192871167Y-104665658D01*
X192704740Y-104720807D01*
X192555517Y-104812848D01*
X192431546Y-104936819D01*
X192339505Y-105086042D01*
X192284356Y-105252468D01*
X192273863Y-105355186D01*
X192273863Y-105780165D01*
X191474362Y-105780165D01*
X191474362Y-105355157D01*
X191464849Y-105262035D01*
X191463862Y-105252368D01*
X191441454Y-105184746D01*
X191408677Y-105085831D01*
X191331372Y-104960499D01*
X191316574Y-104936507D01*
X191192520Y-104812453D01*
X191043198Y-104720351D01*
X191020772Y-104712920D01*
X191009357Y-104709137D01*
X190965033Y-104683259D01*
X190944747Y-104655165D01*
X193673863Y-104655165D01*
X193673863Y-105780165D01*
X194573862Y-105780165D01*
X194573862Y-105355186D01*
X194563369Y-105252469D01*
X194508220Y-105086042D01*
X194416179Y-104936819D01*
X194292208Y-104812848D01*
X194142985Y-104720807D01*
X193976559Y-104665658D01*
X193873842Y-104655165D01*
X193673863Y-104655165D01*
X190944747Y-104655165D01*
X190934986Y-104641647D01*
X190924363Y-104591432D01*
X190924363Y-102800262D01*
X190933802Y-102752809D01*
X190960682Y-102712581D01*
X191686279Y-101986984D01*
X191726507Y-101960104D01*
X191773960Y-101950665D01*
X201899451Y-101950665D01*
X201946904Y-101960104D01*
X201987132Y-101986984D01*
X202247082Y-102246934D01*
X202257777Y-102259129D01*
X202277000Y-102284182D01*
X202354180Y-102343403D01*
X202376787Y-102360750D01*
X202402442Y-102380436D01*
X202548521Y-102440944D01*
X202673981Y-102457461D01*
X202705282Y-102461582D01*
X202705282Y-102461581D01*
X202705283Y-102461582D01*
X202736585Y-102457460D01*
X202752770Y-102456400D01*
X202938998Y-102456400D01*
X202993847Y-102469190D01*
X203015018Y-102486567D01*
X203016494Y-102484644D01*
X203154887Y-102590836D01*
X203234768Y-102623924D01*
X203283169Y-102659820D01*
X203308933Y-102714294D01*
X203305977Y-102774480D01*
X203274997Y-102826166D01*
X202732828Y-103368335D01*
X202720637Y-103379027D01*
X202695583Y-103398252D01*
X202695580Y-103398255D01*
X202695581Y-103398255D01*
X202646449Y-103462285D01*
X202599326Y-103523696D01*
X202538819Y-103669774D01*
X202518180Y-103826536D01*
X202522302Y-103857838D01*
X202523363Y-103874024D01*
X202523363Y-105204313D01*
X202513924Y-105251766D01*
X202487044Y-105291994D01*
X202446816Y-105318874D01*
X202371039Y-105350261D01*
X202266316Y-105430618D01*
X202185959Y-105535342D01*
X202135446Y-105657292D01*
X202118216Y-105788164D01*
X202118216Y-107288166D01*
X202135446Y-107419036D01*
X202185959Y-107540989D01*
X202266100Y-107645428D01*
X202266317Y-107645711D01*
X202371040Y-107726068D01*
X202492992Y-107776582D01*
X202604019Y-107791199D01*
X202623862Y-107793812D01*
X202623863Y-107793812D01*
X203623863Y-107793812D01*
X203623866Y-107793812D01*
X203762050Y-107776750D01*
X203762481Y-107780242D01*
X203795395Y-107776372D01*
X203923863Y-107793812D01*
X203925427Y-107793812D01*
X203928785Y-107794480D01*
X203932166Y-107794939D01*
X203932137Y-107795146D01*
X203972880Y-107803251D01*
X204013109Y-107830131D01*
X204039986Y-107870356D01*
X204049327Y-107892906D01*
X204049328Y-107892908D01*
X204145579Y-108018346D01*
X204170631Y-108037568D01*
X204182827Y-108048264D01*
X204953044Y-108818481D01*
X204979924Y-108858709D01*
X204989363Y-108906162D01*
X204989363Y-114449665D01*
X204972750Y-114511665D01*
X204927363Y-114557052D01*
X204865363Y-114573665D01*
X202669141Y-114573665D01*
X202621688Y-114564226D01*
X202601111Y-114550477D01*
X202600292Y-114551782D01*
X202488687Y-114481656D01*
X202435722Y-114448376D01*
X202265455Y-114388797D01*
X202265453Y-114388796D01*
X202265451Y-114388796D01*
X202086200Y-114368599D01*
X201906948Y-114388796D01*
X201906945Y-114388796D01*
X201906945Y-114388797D01*
X201736678Y-114448376D01*
X201736676Y-114448376D01*
X201736676Y-114448377D01*
X201572108Y-114551782D01*
X201571288Y-114550477D01*
X201550712Y-114564226D01*
X201503259Y-114573665D01*
X186333350Y-114573665D01*
X186317165Y-114572604D01*
X186313239Y-114572087D01*
X186285862Y-114568482D01*
X186250604Y-114573124D01*
X186246502Y-114573665D01*
X186129100Y-114589121D01*
X185983024Y-114649627D01*
X185932845Y-114688130D01*
X185857581Y-114745883D01*
X185857579Y-114745884D01*
X185857578Y-114745886D01*
X185838353Y-114770939D01*
X185827661Y-114783130D01*
X181322828Y-119287963D01*
X181310637Y-119298655D01*
X181285582Y-119317881D01*
X181199781Y-119429700D01*
X181199780Y-119429701D01*
X181189326Y-119443324D01*
X181128819Y-119589402D01*
X181108180Y-119746164D01*
X181112302Y-119777466D01*
X181113363Y-119793652D01*
X181113363Y-119947278D01*
X181112302Y-119963464D01*
X181108180Y-119994765D01*
X181120792Y-120090562D01*
X181122874Y-120106377D01*
X181123147Y-120108446D01*
X181128819Y-120151527D01*
X181189327Y-120297606D01*
X181285579Y-120423046D01*
X181297130Y-120431909D01*
X181306284Y-120438933D01*
X181310631Y-120442268D01*
X181322827Y-120452964D01*
X184492444Y-123622581D01*
X184519324Y-123662809D01*
X184528763Y-123710262D01*
X184528763Y-124358034D01*
X184535172Y-124417649D01*
X184546901Y-124449096D01*
X184585467Y-124552496D01*
X184671717Y-124667711D01*
X184786932Y-124753961D01*
X184921780Y-124804256D01*
X184981390Y-124810665D01*
X186077135Y-124810664D01*
X186136746Y-124804256D01*
X186271594Y-124753961D01*
X186386809Y-124667711D01*
X186473059Y-124552496D01*
X186495872Y-124491329D01*
X186522310Y-124449096D01*
X186563240Y-124420677D01*
X186612053Y-124410665D01*
X191573766Y-124410665D01*
X191621219Y-124420104D01*
X191661447Y-124446984D01*
X193509544Y-126295082D01*
X193536424Y-126335310D01*
X193545863Y-126382762D01*
X193545863Y-126571369D01*
X193548786Y-126608524D01*
X193594129Y-126764592D01*
X193594993Y-126767565D01*
X193598391Y-126773310D01*
X193679300Y-126910120D01*
X193796407Y-127027227D01*
X193796409Y-127027228D01*
X193938963Y-127111535D01*
X194098005Y-127157741D01*
X194135160Y-127160665D01*
X194692565Y-127160664D01*
X194692567Y-127160664D01*
X194729722Y-127157741D01*
X194888760Y-127111536D01*
X194888760Y-127111535D01*
X194888763Y-127111535D01*
X194918733Y-127093810D01*
X194981853Y-127076542D01*
X195044975Y-127093810D01*
X195074164Y-127111072D01*
X195233080Y-127157242D01*
X195270215Y-127160165D01*
X195298863Y-127160165D01*
X195298863Y-126600165D01*
X195798863Y-126600165D01*
X195798863Y-127160165D01*
X195827511Y-127160165D01*
X195864645Y-127157242D01*
X196023561Y-127111072D01*
X196166008Y-127026829D01*
X196283027Y-126909810D01*
X196367270Y-126767363D01*
X196413441Y-126608444D01*
X196414093Y-126600165D01*
X195798863Y-126600165D01*
X195298863Y-126600165D01*
X195298863Y-126365761D01*
X195308302Y-126318308D01*
X195335179Y-126278082D01*
X195476780Y-126136482D01*
X195517007Y-126109604D01*
X195564460Y-126100165D01*
X196414093Y-126100165D01*
X196413441Y-126091885D01*
X196367270Y-125932966D01*
X196283028Y-125790521D01*
X196166006Y-125673498D01*
X196161437Y-125670796D01*
X196120918Y-125632140D01*
X196101537Y-125579601D01*
X196107248Y-125523892D01*
X196136881Y-125476382D01*
X196150286Y-125462977D01*
X196190514Y-125436102D01*
X196237962Y-125426665D01*
X197922376Y-125426665D01*
X197938560Y-125427725D01*
X197969863Y-125431847D01*
X198126625Y-125411209D01*
X198272704Y-125350701D01*
X198357794Y-125285409D01*
X198398145Y-125254447D01*
X198417372Y-125229388D01*
X198428053Y-125217208D01*
X198496399Y-125148862D01*
X198530276Y-125124826D01*
X198570193Y-125113326D01*
X198657118Y-125103533D01*
X198827385Y-125043954D01*
X198980125Y-124947981D01*
X199107679Y-124820427D01*
X199132262Y-124781302D01*
X199172860Y-124741308D01*
X199227063Y-124723696D01*
X199283419Y-124732190D01*
X199330023Y-124764995D01*
X199357030Y-124815182D01*
X199386097Y-124923664D01*
X199409095Y-124972983D01*
X199485965Y-125137830D01*
X199621505Y-125331401D01*
X199788599Y-125498495D01*
X199974160Y-125628426D01*
X200013024Y-125672743D01*
X200027035Y-125730000D01*
X200013024Y-125787257D01*
X199974159Y-125831575D01*
X199943738Y-125852875D01*
X199886958Y-125892634D01*
X199788595Y-125961508D01*
X199621505Y-126128598D01*
X199485965Y-126322170D01*
X199386097Y-126536336D01*
X199324936Y-126764592D01*
X199304340Y-127000000D01*
X199324936Y-127235407D01*
X199342919Y-127302519D01*
X199386097Y-127463663D01*
X199485965Y-127677830D01*
X199621505Y-127871401D01*
X199788599Y-128038495D01*
X199982170Y-128174035D01*
X200196337Y-128273903D01*
X200424592Y-128335063D01*
X200660000Y-128355659D01*
X200895408Y-128335063D01*
X201123663Y-128273903D01*
X201337830Y-128174035D01*
X201531401Y-128038495D01*
X201698495Y-127871401D01*
X201828426Y-127685839D01*
X201872743Y-127646975D01*
X201930000Y-127632964D01*
X201987257Y-127646975D01*
X202031573Y-127685839D01*
X202161505Y-127871401D01*
X202328599Y-128038495D01*
X202522170Y-128174035D01*
X202736337Y-128273903D01*
X202964592Y-128335063D01*
X203200000Y-128355659D01*
X203435408Y-128335063D01*
X203663663Y-128273903D01*
X203877830Y-128174035D01*
X204071401Y-128038495D01*
X204238495Y-127871401D01*
X204368426Y-127685839D01*
X204412743Y-127646975D01*
X204470000Y-127632964D01*
X204527257Y-127646975D01*
X204571573Y-127685839D01*
X204701505Y-127871401D01*
X204868599Y-128038495D01*
X205062170Y-128174035D01*
X205276337Y-128273903D01*
X205504592Y-128335063D01*
X205740000Y-128355659D01*
X205975408Y-128335063D01*
X206203663Y-128273903D01*
X206417830Y-128174035D01*
X206611401Y-128038495D01*
X206778495Y-127871401D01*
X206908426Y-127685839D01*
X206952743Y-127646975D01*
X207010000Y-127632964D01*
X207067257Y-127646975D01*
X207111573Y-127685839D01*
X207241505Y-127871401D01*
X207408599Y-128038495D01*
X207602170Y-128174035D01*
X207816337Y-128273903D01*
X208044592Y-128335063D01*
X208280000Y-128355659D01*
X208515408Y-128335063D01*
X208743663Y-128273903D01*
X208957830Y-128174035D01*
X209151401Y-128038495D01*
X209318495Y-127871401D01*
X209448426Y-127685839D01*
X209492743Y-127646975D01*
X209550000Y-127632964D01*
X209607257Y-127646975D01*
X209651573Y-127685839D01*
X209781505Y-127871401D01*
X209948599Y-128038495D01*
X210142170Y-128174035D01*
X210356337Y-128273903D01*
X210584592Y-128335063D01*
X210820000Y-128355659D01*
X211055408Y-128335063D01*
X211283663Y-128273903D01*
X211497830Y-128174035D01*
X211691401Y-128038495D01*
X211858495Y-127871401D01*
X211988426Y-127685839D01*
X212032743Y-127646975D01*
X212090000Y-127632964D01*
X212147257Y-127646975D01*
X212191573Y-127685839D01*
X212321505Y-127871401D01*
X212488599Y-128038495D01*
X212682170Y-128174035D01*
X212896337Y-128273903D01*
X213124592Y-128335063D01*
X213360000Y-128355659D01*
X213595408Y-128335063D01*
X213823663Y-128273903D01*
X214037830Y-128174035D01*
X214231401Y-128038495D01*
X214398495Y-127871401D01*
X214528426Y-127685839D01*
X214572743Y-127646975D01*
X214630000Y-127632964D01*
X214687257Y-127646975D01*
X214731573Y-127685839D01*
X214861505Y-127871401D01*
X215028599Y-128038495D01*
X215222170Y-128174035D01*
X215436337Y-128273903D01*
X215664592Y-128335063D01*
X215900000Y-128355659D01*
X216135408Y-128335063D01*
X216363663Y-128273903D01*
X216577830Y-128174035D01*
X216771401Y-128038495D01*
X216938495Y-127871401D01*
X217068426Y-127685839D01*
X217112743Y-127646975D01*
X217170000Y-127632964D01*
X217227257Y-127646975D01*
X217271573Y-127685839D01*
X217401505Y-127871401D01*
X217568599Y-128038495D01*
X217762170Y-128174035D01*
X217976337Y-128273903D01*
X218204592Y-128335063D01*
X218440000Y-128355659D01*
X218675408Y-128335063D01*
X218903663Y-128273903D01*
X219117830Y-128174035D01*
X219311401Y-128038495D01*
X219478495Y-127871401D01*
X219608426Y-127685839D01*
X219652743Y-127646975D01*
X219710000Y-127632964D01*
X219767257Y-127646975D01*
X219811573Y-127685839D01*
X219941505Y-127871401D01*
X220108599Y-128038495D01*
X220302170Y-128174035D01*
X220516337Y-128273903D01*
X220744592Y-128335063D01*
X220980000Y-128355659D01*
X221215408Y-128335063D01*
X221443663Y-128273903D01*
X221657830Y-128174035D01*
X221851401Y-128038495D01*
X222018495Y-127871401D01*
X222148426Y-127685839D01*
X222192743Y-127646975D01*
X222250000Y-127632964D01*
X222307257Y-127646975D01*
X222351573Y-127685839D01*
X222481505Y-127871401D01*
X222648599Y-128038495D01*
X222842170Y-128174035D01*
X223056337Y-128273903D01*
X223284592Y-128335063D01*
X223520000Y-128355659D01*
X223755408Y-128335063D01*
X223983663Y-128273903D01*
X224197830Y-128174035D01*
X224243742Y-128141886D01*
X224296891Y-128120770D01*
X224353867Y-128125755D01*
X224402545Y-128155780D01*
X224826799Y-128580034D01*
X224837494Y-128592229D01*
X224856717Y-128617282D01*
X224964184Y-128699743D01*
X224964185Y-128699744D01*
X224982159Y-128713536D01*
X225128238Y-128774044D01*
X225253698Y-128790561D01*
X225284999Y-128794682D01*
X225284999Y-128794681D01*
X225285000Y-128794682D01*
X225316302Y-128790560D01*
X225332487Y-128789500D01*
X239816213Y-128789500D01*
X239832397Y-128790560D01*
X239863700Y-128794682D01*
X240020462Y-128774044D01*
X240111048Y-128736521D01*
X240139737Y-128724639D01*
X240187189Y-128715200D01*
X247217813Y-128715200D01*
X247233997Y-128716260D01*
X247265300Y-128720382D01*
X247422062Y-128699744D01*
X247568141Y-128639236D01*
X247596752Y-128617282D01*
X247693582Y-128542982D01*
X247712809Y-128517923D01*
X247723490Y-128505743D01*
X247937294Y-128291939D01*
X247992880Y-128259847D01*
X248057067Y-128259847D01*
X248153308Y-128285635D01*
X248380000Y-128305468D01*
X248606692Y-128285635D01*
X248826496Y-128226739D01*
X249032734Y-128130568D01*
X249219139Y-128000047D01*
X249380047Y-127839139D01*
X249510568Y-127652734D01*
X249606739Y-127446496D01*
X249665635Y-127226692D01*
X249685468Y-127000000D01*
X249665635Y-126773308D01*
X249606739Y-126553504D01*
X249510568Y-126347266D01*
X249502196Y-126335310D01*
X249380046Y-126160859D01*
X249219140Y-125999953D01*
X249032735Y-125869432D01*
X248826497Y-125773261D01*
X248606689Y-125714364D01*
X248380000Y-125694531D01*
X248153310Y-125714364D01*
X247933502Y-125773261D01*
X247727264Y-125869432D01*
X247540859Y-125999953D01*
X247467681Y-126073132D01*
X247412094Y-126105226D01*
X247347906Y-126105226D01*
X247292319Y-126073132D01*
X247219140Y-125999953D01*
X247032735Y-125869432D01*
X246826497Y-125773261D01*
X246606689Y-125714364D01*
X246380000Y-125694531D01*
X246153310Y-125714364D01*
X245933502Y-125773261D01*
X245727264Y-125869432D01*
X245540859Y-125999953D01*
X245379953Y-126160859D01*
X245249882Y-126346623D01*
X245205564Y-126385489D01*
X245148307Y-126399500D01*
X243827932Y-126399500D01*
X243780479Y-126390061D01*
X243740251Y-126363181D01*
X240974819Y-123597749D01*
X240947939Y-123557521D01*
X240938500Y-123510068D01*
X240938500Y-123360602D01*
X240939561Y-123344416D01*
X240943682Y-123313114D01*
X240940108Y-123285965D01*
X240923044Y-123156353D01*
X240862536Y-123010274D01*
X240838755Y-122979282D01*
X240810174Y-122942034D01*
X240766282Y-122884832D01*
X240741229Y-122865609D01*
X240729034Y-122854914D01*
X238163284Y-120289164D01*
X238152588Y-120276968D01*
X238133366Y-120251916D01*
X238007926Y-120155664D01*
X237973417Y-120141370D01*
X237865597Y-120096709D01*
X237862298Y-120095214D01*
X237705086Y-120074517D01*
X237677708Y-120078122D01*
X237673782Y-120078639D01*
X237657598Y-120079700D01*
X237307034Y-120079700D01*
X237241289Y-120060836D01*
X237195547Y-120009983D01*
X237183726Y-119942615D01*
X237209423Y-119879227D01*
X237233708Y-119848228D01*
X237218521Y-119786616D01*
X237206272Y-119763277D01*
X237192068Y-119705649D01*
X237206273Y-119648024D01*
X237218993Y-119623789D01*
X237224560Y-119601204D01*
X239297000Y-119601204D01*
X239299923Y-119638359D01*
X239346129Y-119797398D01*
X239430437Y-119939955D01*
X239547544Y-120057062D01*
X239604189Y-120090562D01*
X239690100Y-120141370D01*
X239849142Y-120187576D01*
X239886297Y-120190500D01*
X240443702Y-120190499D01*
X240443704Y-120190499D01*
X240480859Y-120187576D01*
X240639897Y-120141371D01*
X240639897Y-120141370D01*
X240639900Y-120141370D01*
X240669870Y-120123645D01*
X240732990Y-120106377D01*
X240796112Y-120123645D01*
X240825301Y-120140907D01*
X240984217Y-120187077D01*
X241021352Y-120190000D01*
X241050000Y-120190000D01*
X241050000Y-119630000D01*
X241550000Y-119630000D01*
X241550000Y-120190000D01*
X241578648Y-120190000D01*
X241615782Y-120187077D01*
X241774698Y-120140907D01*
X241917145Y-120056664D01*
X242034164Y-119939645D01*
X242118407Y-119797198D01*
X242164578Y-119638279D01*
X242165230Y-119630000D01*
X241550000Y-119630000D01*
X241050000Y-119630000D01*
X241050000Y-119395596D01*
X241059439Y-119348143D01*
X241086319Y-119307915D01*
X241227915Y-119166319D01*
X241268143Y-119139439D01*
X241315596Y-119130000D01*
X242165230Y-119130000D01*
X242164578Y-119121720D01*
X242118407Y-118962801D01*
X242034165Y-118820356D01*
X241917143Y-118703334D01*
X241912575Y-118700632D01*
X241872056Y-118661979D01*
X241852674Y-118609441D01*
X241858381Y-118553734D01*
X241888010Y-118506224D01*
X242168419Y-118225816D01*
X242208645Y-118198939D01*
X242256098Y-118189500D01*
X246051784Y-118189500D01*
X246100596Y-118199512D01*
X246141527Y-118227930D01*
X246167964Y-118270164D01*
X246176280Y-118292458D01*
X246202088Y-118326933D01*
X246262530Y-118407674D01*
X246286411Y-118425551D01*
X246319114Y-118462177D01*
X246335037Y-118508625D01*
X246335054Y-118508758D01*
X246395564Y-118654841D01*
X246491816Y-118780281D01*
X246516868Y-118799503D01*
X246529064Y-118810199D01*
X249457684Y-121738819D01*
X249487934Y-121788182D01*
X249492476Y-121845898D01*
X249470321Y-121899385D01*
X249426298Y-121936985D01*
X249370003Y-121950500D01*
X246403679Y-121950500D01*
X246340678Y-121933303D01*
X246295151Y-121886481D01*
X246279728Y-121823023D01*
X246298685Y-121760528D01*
X246332560Y-121706615D01*
X246390489Y-121614422D01*
X246450068Y-121444155D01*
X246470265Y-121264900D01*
X246450068Y-121085645D01*
X246390489Y-120915378D01*
X246294516Y-120762638D01*
X246294515Y-120762637D01*
X246294514Y-120762635D01*
X246166964Y-120635085D01*
X246104567Y-120595879D01*
X246014222Y-120539111D01*
X245843955Y-120479532D01*
X245843953Y-120479531D01*
X245843951Y-120479531D01*
X245664700Y-120459334D01*
X245485448Y-120479531D01*
X245485445Y-120479531D01*
X245485445Y-120479532D01*
X245315178Y-120539111D01*
X245315176Y-120539111D01*
X245315176Y-120539112D01*
X245150608Y-120642517D01*
X245149788Y-120641212D01*
X245129212Y-120654961D01*
X245081759Y-120664400D01*
X244542587Y-120664400D01*
X244526402Y-120663339D01*
X244522476Y-120662822D01*
X244495099Y-120659217D01*
X244415747Y-120669665D01*
X244338337Y-120679856D01*
X244192261Y-120740362D01*
X244163235Y-120762635D01*
X244066818Y-120836618D01*
X244066816Y-120836619D01*
X244066815Y-120836621D01*
X244047590Y-120861674D01*
X244036898Y-120873865D01*
X243847582Y-121063181D01*
X243807354Y-121090061D01*
X243759902Y-121099500D01*
X243589115Y-121099500D01*
X243522567Y-121105547D01*
X243369429Y-121153267D01*
X243306649Y-121191219D01*
X243242500Y-121209102D01*
X243178351Y-121191219D01*
X243115569Y-121153266D01*
X242962434Y-121105548D01*
X242895881Y-121099500D01*
X242394115Y-121099500D01*
X242327567Y-121105547D01*
X242174432Y-121153266D01*
X242037162Y-121236248D01*
X241923748Y-121349662D01*
X241840765Y-121486933D01*
X241793048Y-121640065D01*
X241787000Y-121706618D01*
X241787000Y-122133384D01*
X241793047Y-122199932D01*
X241840766Y-122353067D01*
X241923748Y-122490337D01*
X242037162Y-122603751D01*
X242037164Y-122603752D01*
X242037165Y-122603753D01*
X242129274Y-122659435D01*
X242174433Y-122686734D01*
X242250998Y-122710592D01*
X242327567Y-122734452D01*
X242394119Y-122740500D01*
X242564902Y-122740499D01*
X242612354Y-122749938D01*
X242652583Y-122776818D01*
X242817799Y-122942034D01*
X242828494Y-122954229D01*
X242847717Y-122979282D01*
X242940555Y-123050518D01*
X242940556Y-123050519D01*
X242973159Y-123075536D01*
X243119238Y-123136044D01*
X243244698Y-123152561D01*
X243275999Y-123156682D01*
X243275999Y-123156681D01*
X243276000Y-123156682D01*
X243307302Y-123152560D01*
X243323487Y-123151500D01*
X253321513Y-123151500D01*
X253337697Y-123152560D01*
X253369000Y-123156682D01*
X253525762Y-123136044D01*
X253671841Y-123075536D01*
X253704445Y-123050518D01*
X253797282Y-122979282D01*
X253816509Y-122954223D01*
X253827183Y-122942050D01*
X253992419Y-122776814D01*
X254032644Y-122749938D01*
X254080097Y-122740499D01*
X254250884Y-122740499D01*
X254304122Y-122735661D01*
X254317433Y-122734452D01*
X254470569Y-122686733D01*
X254607835Y-122603753D01*
X254721253Y-122490335D01*
X254804233Y-122353069D01*
X254851952Y-122199933D01*
X254858000Y-122133381D01*
X254857999Y-121706620D01*
X254857256Y-121698447D01*
X254851952Y-121640067D01*
X254831055Y-121573005D01*
X254804233Y-121486931D01*
X254721253Y-121349665D01*
X254636816Y-121265228D01*
X254609939Y-121225003D01*
X254600500Y-121177550D01*
X254600500Y-117922790D01*
X254610512Y-117873977D01*
X254638931Y-117833047D01*
X254681164Y-117806609D01*
X254742331Y-117783796D01*
X254857546Y-117697546D01*
X254943796Y-117582331D01*
X254994091Y-117447483D01*
X255000500Y-117387873D01*
X255000499Y-116292128D01*
X254994091Y-116232517D01*
X254943796Y-116097669D01*
X254857546Y-115982454D01*
X254742331Y-115896204D01*
X254607483Y-115845909D01*
X254547873Y-115839500D01*
X254547869Y-115839500D01*
X253499197Y-115839500D01*
X253451744Y-115830061D01*
X253411516Y-115803181D01*
X252932699Y-115324364D01*
X252922003Y-115312168D01*
X252916818Y-115305411D01*
X252913050Y-115300500D01*
X252902781Y-115287116D01*
X252777340Y-115190863D01*
X252631262Y-115130356D01*
X252513861Y-115114900D01*
X252509280Y-115114297D01*
X252474500Y-115109717D01*
X252446663Y-115113382D01*
X252443197Y-115113839D01*
X252427013Y-115114900D01*
X251194076Y-115114900D01*
X251132076Y-115098287D01*
X251086689Y-115052900D01*
X251070076Y-114990900D01*
X251070076Y-114549873D01*
X246770076Y-114549873D01*
X246770076Y-114797796D01*
X246755706Y-114855737D01*
X246715928Y-114900249D01*
X246659960Y-114921016D01*
X246579949Y-114930031D01*
X246579946Y-114930031D01*
X246579945Y-114930032D01*
X246409678Y-114989611D01*
X246409676Y-114989611D01*
X246409676Y-114989612D01*
X246256935Y-115085585D01*
X246129385Y-115213135D01*
X246055651Y-115330483D01*
X246033411Y-115365878D01*
X246012936Y-115424393D01*
X245973831Y-115536148D01*
X245953634Y-115715400D01*
X245973831Y-115894651D01*
X245973831Y-115894653D01*
X245973832Y-115894655D01*
X246033411Y-116064922D01*
X246066979Y-116118345D01*
X246129385Y-116217664D01*
X246131676Y-116219955D01*
X246165161Y-116281278D01*
X246160177Y-116350969D01*
X246125985Y-116442641D01*
X246125985Y-116442644D01*
X246120575Y-116492967D01*
X246119576Y-116502258D01*
X246119576Y-116864500D01*
X246102963Y-116926500D01*
X246057576Y-116971887D01*
X245995576Y-116988500D01*
X242003487Y-116988500D01*
X241987302Y-116987439D01*
X241983376Y-116986922D01*
X241955999Y-116983317D01*
X241920741Y-116987959D01*
X241916639Y-116988500D01*
X241799237Y-117003956D01*
X241653159Y-117064463D01*
X241527717Y-117160717D01*
X241508494Y-117185769D01*
X241497801Y-117197961D01*
X240162582Y-118533181D01*
X240122354Y-118560061D01*
X240074902Y-118569500D01*
X239886295Y-118569500D01*
X239849140Y-118572423D01*
X239690101Y-118618629D01*
X239547544Y-118702937D01*
X239430437Y-118820044D01*
X239346129Y-118962600D01*
X239299924Y-119121639D01*
X239297000Y-119158799D01*
X239297000Y-119601204D01*
X237224560Y-119601204D01*
X237258657Y-119462863D01*
X237258657Y-119297121D01*
X237218993Y-119136195D01*
X237141968Y-118989438D01*
X237032061Y-118865378D01*
X237032060Y-118865377D01*
X237032059Y-118865376D01*
X236895658Y-118771225D01*
X236740687Y-118712453D01*
X236740686Y-118712452D01*
X236617439Y-118697488D01*
X235646881Y-118697488D01*
X235620988Y-118700632D01*
X235523630Y-118712453D01*
X235498794Y-118721872D01*
X235452327Y-118729904D01*
X235406221Y-118720006D01*
X235367145Y-118693610D01*
X234410919Y-117737384D01*
X234384039Y-117697156D01*
X234374600Y-117649703D01*
X234374600Y-115679647D01*
X234391213Y-115617647D01*
X234436600Y-115572260D01*
X234498600Y-115555647D01*
X235270002Y-115555647D01*
X235315730Y-115550000D01*
X242640001Y-115550000D01*
X242640001Y-115699979D01*
X242650493Y-115802695D01*
X242705642Y-115969122D01*
X242797683Y-116118345D01*
X242921654Y-116242316D01*
X243070877Y-116334357D01*
X243237303Y-116389506D01*
X243340021Y-116400000D01*
X243590000Y-116400000D01*
X243590000Y-115550000D01*
X244090000Y-115550000D01*
X244090000Y-116399999D01*
X244339979Y-116399999D01*
X244442695Y-116389506D01*
X244609122Y-116334357D01*
X244758345Y-116242316D01*
X244882316Y-116118345D01*
X244974357Y-115969122D01*
X245029506Y-115802696D01*
X245040000Y-115699979D01*
X245040000Y-115550000D01*
X244090000Y-115550000D01*
X243590000Y-115550000D01*
X242640001Y-115550000D01*
X235315730Y-115550000D01*
X235319196Y-115549572D01*
X235392990Y-115540461D01*
X235508594Y-115495816D01*
X235609866Y-115424393D01*
X235690724Y-115330482D01*
X236190724Y-114580482D01*
X236244503Y-114474715D01*
X236272155Y-114359327D01*
X236272155Y-114240673D01*
X236265445Y-114212672D01*
X236244503Y-114125284D01*
X236217157Y-114071504D01*
X236190724Y-114019518D01*
X235826171Y-113472688D01*
X235690723Y-113269516D01*
X235609867Y-113175608D01*
X235508593Y-113104183D01*
X235416720Y-113068703D01*
X235392990Y-113059539D01*
X235392989Y-113059538D01*
X235392987Y-113059538D01*
X235270002Y-113044353D01*
X235270000Y-113044353D01*
X234414950Y-113044353D01*
X234367497Y-113034914D01*
X234327269Y-113008034D01*
X234166599Y-112847364D01*
X234155903Y-112835168D01*
X234136681Y-112810116D01*
X234011240Y-112713863D01*
X233865162Y-112653356D01*
X233747761Y-112637900D01*
X233743180Y-112637297D01*
X233708400Y-112632717D01*
X233680563Y-112636382D01*
X233677097Y-112636839D01*
X233660913Y-112637900D01*
X230973387Y-112637900D01*
X230957202Y-112636839D01*
X230953276Y-112636322D01*
X230925899Y-112632717D01*
X230890641Y-112637359D01*
X230886539Y-112637900D01*
X230769137Y-112653356D01*
X230623061Y-112713862D01*
X230575515Y-112750346D01*
X230497618Y-112810118D01*
X230497616Y-112810119D01*
X230497615Y-112810121D01*
X230478390Y-112835174D01*
X230467698Y-112847365D01*
X230106884Y-113208181D01*
X230066656Y-113235061D01*
X230019203Y-113244500D01*
X227540662Y-113244500D01*
X227475872Y-113226227D01*
X227430177Y-113176795D01*
X227417044Y-113110771D01*
X227440344Y-113047614D01*
X227493210Y-113005939D01*
X227613588Y-112956077D01*
X227636713Y-112924896D01*
X227700982Y-112875582D01*
X227720209Y-112850523D01*
X227730890Y-112838343D01*
X228612415Y-111956819D01*
X228652644Y-111929939D01*
X228700097Y-111920500D01*
X229178192Y-111920500D01*
X229178194Y-111920500D01*
X229215069Y-111917598D01*
X229372898Y-111871744D01*
X229514365Y-111788081D01*
X229545626Y-111756819D01*
X229585855Y-111729939D01*
X229633308Y-111720500D01*
X239349621Y-111720500D01*
X239397074Y-111729939D01*
X239437299Y-111756816D01*
X239512257Y-111831774D01*
X239547547Y-111867064D01*
X239689317Y-111950907D01*
X239690100Y-111951370D01*
X239849142Y-111997576D01*
X239886297Y-112000500D01*
X240443702Y-112000499D01*
X240443704Y-112000499D01*
X240480859Y-111997576D01*
X240639897Y-111951371D01*
X240639897Y-111951370D01*
X240639900Y-111951370D01*
X240669870Y-111933645D01*
X240732990Y-111916377D01*
X240796112Y-111933645D01*
X240825301Y-111950907D01*
X240984217Y-111997077D01*
X241021352Y-112000000D01*
X241050000Y-112000000D01*
X241050000Y-111440000D01*
X241550000Y-111440000D01*
X241550000Y-112000000D01*
X241578648Y-112000000D01*
X241615782Y-111997077D01*
X241774698Y-111950907D01*
X241917145Y-111866664D01*
X242034164Y-111749645D01*
X242118407Y-111607198D01*
X242164578Y-111448279D01*
X242165230Y-111440000D01*
X241550000Y-111440000D01*
X241050000Y-111440000D01*
X241050000Y-110380000D01*
X241550000Y-110380000D01*
X241550000Y-110940000D01*
X242165230Y-110940000D01*
X242164578Y-110931720D01*
X242118407Y-110772801D01*
X242034164Y-110630354D01*
X241917145Y-110513335D01*
X241774698Y-110429092D01*
X241615782Y-110382922D01*
X241578648Y-110380000D01*
X241550000Y-110380000D01*
X241050000Y-110380000D01*
X241021352Y-110380000D01*
X240984217Y-110382922D01*
X240825301Y-110429092D01*
X240796109Y-110446356D01*
X240732989Y-110463622D01*
X240669870Y-110446354D01*
X240639899Y-110428629D01*
X240480860Y-110382424D01*
X240465995Y-110381254D01*
X240443703Y-110379500D01*
X240443700Y-110379500D01*
X239886295Y-110379500D01*
X239849140Y-110382423D01*
X239690100Y-110428629D01*
X239565646Y-110502232D01*
X239502525Y-110519500D01*
X229886612Y-110519500D01*
X229821824Y-110501229D01*
X229776130Y-110451799D01*
X229763946Y-110390566D01*
X229763000Y-110390566D01*
X229763000Y-110385809D01*
X229762994Y-110385779D01*
X229763000Y-110385703D01*
X229763000Y-109954308D01*
X229760300Y-109920000D01*
X229760098Y-109917431D01*
X229751571Y-109888081D01*
X229714245Y-109759604D01*
X229714244Y-109759602D01*
X229713368Y-109758122D01*
X229696100Y-109695000D01*
X229713369Y-109631877D01*
X229714243Y-109630399D01*
X229714244Y-109630398D01*
X229760098Y-109472569D01*
X229763000Y-109435694D01*
X229763000Y-109004306D01*
X229760098Y-108967431D01*
X229746974Y-108922260D01*
X229714244Y-108809602D01*
X229630580Y-108668134D01*
X229514365Y-108551919D01*
X229372897Y-108468255D01*
X229215072Y-108422402D01*
X229192943Y-108420660D01*
X229178194Y-108419500D01*
X228021806Y-108419500D01*
X228009514Y-108420467D01*
X227984927Y-108422402D01*
X227827102Y-108468255D01*
X227685634Y-108551919D01*
X227569419Y-108668134D01*
X227569231Y-108668453D01*
X227560902Y-108676651D01*
X227558342Y-108679212D01*
X227558321Y-108679191D01*
X227523936Y-108713041D01*
X227462500Y-108729330D01*
X227401064Y-108713041D01*
X227366678Y-108679191D01*
X227366658Y-108679212D01*
X227364097Y-108676651D01*
X227355769Y-108668453D01*
X227355580Y-108668134D01*
X227239365Y-108551919D01*
X227097897Y-108468255D01*
X226940072Y-108422402D01*
X226917943Y-108420660D01*
X226903194Y-108419500D01*
X226903192Y-108419500D01*
X226425097Y-108419500D01*
X226377644Y-108410061D01*
X226337416Y-108383181D01*
X223110478Y-105156243D01*
X223079553Y-105104736D01*
X223076469Y-105044738D01*
X223101951Y-104990332D01*
X223150016Y-104954289D01*
X223209380Y-104945071D01*
X223269119Y-104950500D01*
X223770880Y-104950499D01*
X223770884Y-104950499D01*
X223830620Y-104945071D01*
X223837433Y-104944452D01*
X223990569Y-104896733D01*
X224053835Y-104858487D01*
X224117983Y-104840605D01*
X224182133Y-104858488D01*
X224244640Y-104896275D01*
X224397656Y-104943956D01*
X224464159Y-104950000D01*
X224465000Y-104950000D01*
X224465000Y-104213000D01*
X224481613Y-104151000D01*
X224527000Y-104105613D01*
X224589000Y-104089000D01*
X224841000Y-104089000D01*
X224903000Y-104105613D01*
X224948387Y-104151000D01*
X224965000Y-104213000D01*
X224965000Y-104950000D01*
X224965841Y-104950000D01*
X225032343Y-104943956D01*
X225185361Y-104896274D01*
X225322521Y-104813359D01*
X225397941Y-104737939D01*
X225453529Y-104705845D01*
X225517716Y-104705845D01*
X225573304Y-104737939D01*
X226001599Y-105166234D01*
X226012294Y-105178429D01*
X226031517Y-105203482D01*
X226129792Y-105278890D01*
X226129793Y-105278891D01*
X226134520Y-105282518D01*
X226156959Y-105299736D01*
X226303038Y-105360244D01*
X226459800Y-105380883D01*
X226491108Y-105376760D01*
X226507294Y-105375700D01*
X227917313Y-105375700D01*
X227933497Y-105376760D01*
X227964800Y-105380882D01*
X228121562Y-105360244D01*
X228267641Y-105299736D01*
X228290080Y-105282518D01*
X228294807Y-105278891D01*
X228294808Y-105278890D01*
X228320561Y-105259129D01*
X228393082Y-105203482D01*
X228412309Y-105178423D01*
X228422990Y-105166243D01*
X228592416Y-104996817D01*
X228632644Y-104969938D01*
X228680097Y-104960499D01*
X228850884Y-104960499D01*
X228904122Y-104955661D01*
X228917433Y-104954452D01*
X229070569Y-104906733D01*
X229207835Y-104823753D01*
X229321253Y-104710335D01*
X229404233Y-104573069D01*
X229451952Y-104419933D01*
X229458000Y-104353381D01*
X229457999Y-104233499D01*
X229474612Y-104171501D01*
X229519999Y-104126113D01*
X229581999Y-104109500D01*
X239173000Y-104109500D01*
X239235000Y-104126113D01*
X239280387Y-104171499D01*
X239297000Y-104233499D01*
X239297000Y-104361203D01*
X239299923Y-104398359D01*
X239346129Y-104557398D01*
X239430435Y-104699952D01*
X239430436Y-104699953D01*
X239430437Y-104699954D01*
X239528183Y-104797700D01*
X239555061Y-104837926D01*
X239564500Y-104885379D01*
X239564500Y-105934621D01*
X239555061Y-105982074D01*
X239528183Y-106022299D01*
X239493242Y-106057241D01*
X239430435Y-106120047D01*
X239346129Y-106262600D01*
X239299924Y-106421639D01*
X239297000Y-106458799D01*
X239297000Y-106901204D01*
X239299923Y-106938359D01*
X239346071Y-107097198D01*
X239346130Y-107097400D01*
X239361756Y-107123822D01*
X239430437Y-107239955D01*
X239547544Y-107357062D01*
X239652336Y-107419036D01*
X239690100Y-107441370D01*
X239849142Y-107487576D01*
X239886297Y-107490500D01*
X240443702Y-107490499D01*
X240443704Y-107490499D01*
X240480859Y-107487576D01*
X240639897Y-107441371D01*
X240639897Y-107441370D01*
X240639900Y-107441370D01*
X240669870Y-107423645D01*
X240732990Y-107406377D01*
X240796112Y-107423645D01*
X240825301Y-107440907D01*
X240984217Y-107487077D01*
X241021352Y-107490000D01*
X241050000Y-107490000D01*
X241050000Y-106930000D01*
X241550000Y-106930000D01*
X241550000Y-107490000D01*
X241578648Y-107490000D01*
X241615782Y-107487077D01*
X241774698Y-107440907D01*
X241917145Y-107356664D01*
X242034164Y-107239645D01*
X242118407Y-107097198D01*
X242164578Y-106938279D01*
X242165230Y-106930000D01*
X241550000Y-106930000D01*
X241050000Y-106930000D01*
X241050000Y-105870000D01*
X241550000Y-105870000D01*
X241550000Y-106430000D01*
X242165230Y-106430000D01*
X242164578Y-106421720D01*
X242118407Y-106262801D01*
X242034164Y-106120354D01*
X241917145Y-106003335D01*
X241774698Y-105919092D01*
X241615782Y-105872922D01*
X241578648Y-105870000D01*
X241550000Y-105870000D01*
X241050000Y-105870000D01*
X241021352Y-105870000D01*
X240984217Y-105872922D01*
X240924095Y-105890390D01*
X240867222Y-105893296D01*
X240815048Y-105870475D01*
X240778577Y-105826739D01*
X240765500Y-105771314D01*
X240765500Y-105048686D01*
X240778577Y-104993261D01*
X240815048Y-104949525D01*
X240867222Y-104926704D01*
X240924095Y-104929610D01*
X240984217Y-104947077D01*
X241021352Y-104950000D01*
X241050000Y-104950000D01*
X241050000Y-104390000D01*
X241550000Y-104390000D01*
X241550000Y-104950000D01*
X241578648Y-104950000D01*
X241615782Y-104947077D01*
X241774698Y-104900907D01*
X241917145Y-104816664D01*
X242034164Y-104699645D01*
X242118407Y-104557198D01*
X242164578Y-104398279D01*
X242165230Y-104390000D01*
X241550000Y-104390000D01*
X241050000Y-104390000D01*
X241050000Y-103330000D01*
X241550000Y-103330000D01*
X241550000Y-103890000D01*
X242165230Y-103890000D01*
X242164578Y-103881720D01*
X242118407Y-103722801D01*
X242034164Y-103580354D01*
X241917145Y-103463335D01*
X241774698Y-103379092D01*
X241615782Y-103332922D01*
X241578648Y-103330000D01*
X241550000Y-103330000D01*
X241050000Y-103330000D01*
X241021352Y-103330000D01*
X240984217Y-103332922D01*
X240825301Y-103379092D01*
X240796109Y-103396356D01*
X240732989Y-103413622D01*
X240669870Y-103396354D01*
X240639899Y-103378629D01*
X240480860Y-103332424D01*
X240465996Y-103331254D01*
X240443703Y-103329500D01*
X240443700Y-103329500D01*
X240255097Y-103329500D01*
X240207644Y-103320061D01*
X240167416Y-103293181D01*
X239992199Y-103117964D01*
X239981503Y-103105768D01*
X239980928Y-103105019D01*
X239967644Y-103087706D01*
X239962281Y-103080716D01*
X239836840Y-102984463D01*
X239690762Y-102923956D01*
X239573361Y-102908500D01*
X239568780Y-102907897D01*
X239534000Y-102903317D01*
X239506163Y-102906982D01*
X239502697Y-102907439D01*
X239486513Y-102908500D01*
X237128683Y-102908500D01*
X237062711Y-102889494D01*
X237016963Y-102838302D01*
X237005463Y-102770616D01*
X237025565Y-102592200D01*
X237008523Y-102440944D01*
X237005368Y-102412945D01*
X236990410Y-102370197D01*
X236986561Y-102301650D01*
X237019769Y-102241564D01*
X239044840Y-100216494D01*
X239094763Y-100186065D01*
X239153082Y-100181894D01*
X239206828Y-100204909D01*
X239279485Y-100259300D01*
X239414333Y-100309595D01*
X239473943Y-100316004D01*
X242869688Y-100316003D01*
X242929299Y-100309595D01*
X243064147Y-100259300D01*
X243179362Y-100173050D01*
X243265612Y-100057835D01*
X243315907Y-99922987D01*
X243322316Y-99863377D01*
X243322315Y-99710560D01*
X243331754Y-99663108D01*
X243358635Y-99622878D01*
X243398862Y-99596000D01*
X243426541Y-99584536D01*
X243435651Y-99577546D01*
X243551982Y-99488282D01*
X243571209Y-99463223D01*
X243581890Y-99451043D01*
X244035415Y-98997519D01*
X244075644Y-98970639D01*
X244123097Y-98961200D01*
X245496782Y-98961200D01*
X245554911Y-98975669D01*
X245599475Y-99015700D01*
X245620072Y-99071951D01*
X245622805Y-99097383D01*
X245622805Y-99123883D01*
X245618674Y-99162317D01*
X245618674Y-99558064D01*
X245623057Y-99598840D01*
X245623057Y-99625340D01*
X245619174Y-99661471D01*
X245619174Y-99709301D01*
X245631000Y-99721127D01*
X245636457Y-99722417D01*
X245680220Y-99758990D01*
X245719147Y-99810990D01*
X245743386Y-99874248D01*
X245730764Y-99940805D01*
X245685047Y-99990796D01*
X245619880Y-100009301D01*
X245619174Y-100009301D01*
X245619174Y-100057125D01*
X245625576Y-100116676D01*
X245675821Y-100251390D01*
X245761985Y-100366489D01*
X245877084Y-100452653D01*
X246011798Y-100502898D01*
X246071350Y-100509301D01*
X246669174Y-100509301D01*
X246669174Y-100134691D01*
X246685786Y-100072692D01*
X246731173Y-100027305D01*
X246793172Y-100010691D01*
X246819171Y-100010690D01*
X246845173Y-100010690D01*
X246907173Y-100027302D01*
X246952561Y-100072689D01*
X246969174Y-100134690D01*
X246969174Y-100510457D01*
X246997011Y-100555223D01*
X247002531Y-100611267D01*
X246989538Y-100709948D01*
X247009318Y-100860184D01*
X247067305Y-101000178D01*
X247159551Y-101120396D01*
X247230636Y-101174941D01*
X247279769Y-101212642D01*
X247419765Y-101270630D01*
X247524289Y-101284391D01*
X247571969Y-101301041D01*
X247609054Y-101335323D01*
X247629394Y-101381549D01*
X247658791Y-101519850D01*
X247735784Y-101692778D01*
X247847046Y-101845918D01*
X247987719Y-101972581D01*
X248151651Y-102067227D01*
X248230566Y-102092868D01*
X248331680Y-102125722D01*
X248472744Y-102140548D01*
X249167125Y-102140548D01*
X249167128Y-102140548D01*
X249222539Y-102134724D01*
X249289858Y-102146595D01*
X249340658Y-102192335D01*
X249359500Y-102258045D01*
X249359500Y-104806148D01*
X249350061Y-104853601D01*
X249323181Y-104893829D01*
X249282953Y-104920709D01*
X249207176Y-104952096D01*
X249102453Y-105032453D01*
X249022096Y-105137177D01*
X248971583Y-105259127D01*
X248954353Y-105389999D01*
X248954353Y-106890001D01*
X248971583Y-107020871D01*
X249022096Y-107142824D01*
X249096391Y-107239645D01*
X249102454Y-107247546D01*
X249207177Y-107327903D01*
X249329129Y-107378417D01*
X249440156Y-107393034D01*
X249459999Y-107395647D01*
X249460000Y-107395647D01*
X250460000Y-107395647D01*
X250460003Y-107395647D01*
X250598187Y-107378585D01*
X250598618Y-107382077D01*
X250631533Y-107378207D01*
X250702182Y-107387798D01*
X250756897Y-107409288D01*
X250795566Y-107453562D01*
X250809500Y-107510671D01*
X250809500Y-109458203D01*
X250800061Y-109505656D01*
X250773183Y-109545881D01*
X250560941Y-109758123D01*
X250529065Y-109789999D01*
X250516873Y-109800691D01*
X250495719Y-109816924D01*
X250447071Y-109839610D01*
X250393393Y-109839611D01*
X250344744Y-109816926D01*
X250323329Y-109800494D01*
X250311134Y-109789799D01*
X249976399Y-109455064D01*
X249965703Y-109442868D01*
X249946481Y-109417816D01*
X249821040Y-109321563D01*
X249674962Y-109261056D01*
X249557561Y-109245600D01*
X249552980Y-109244997D01*
X249518200Y-109240417D01*
X249490363Y-109244082D01*
X249486897Y-109244539D01*
X249470713Y-109245600D01*
X246178941Y-109245600D01*
X246131488Y-109236161D01*
X246110911Y-109222412D01*
X246110092Y-109223717D01*
X246038076Y-109178467D01*
X245945522Y-109120311D01*
X245775255Y-109060732D01*
X245775253Y-109060731D01*
X245775251Y-109060731D01*
X245596000Y-109040534D01*
X245416748Y-109060731D01*
X245416745Y-109060731D01*
X245416745Y-109060732D01*
X245246478Y-109120311D01*
X245246476Y-109120311D01*
X245246476Y-109120312D01*
X245093735Y-109216285D01*
X244966185Y-109343835D01*
X244885297Y-109472569D01*
X244870211Y-109496578D01*
X244823385Y-109630398D01*
X244810631Y-109666848D01*
X244790434Y-109846100D01*
X244810631Y-110025351D01*
X244810631Y-110025353D01*
X244810632Y-110025355D01*
X244870211Y-110195622D01*
X244896649Y-110237698D01*
X244966185Y-110348364D01*
X245093735Y-110475914D01*
X245093737Y-110475915D01*
X245093738Y-110475916D01*
X245194355Y-110539138D01*
X245241739Y-110568911D01*
X245280761Y-110607933D01*
X245298987Y-110660021D01*
X245311531Y-110771350D01*
X245311532Y-110771355D01*
X245371111Y-110941622D01*
X245371112Y-110941623D01*
X245467085Y-111094364D01*
X245594635Y-111221914D01*
X245594637Y-111221915D01*
X245594638Y-111221916D01*
X245747378Y-111317889D01*
X245917645Y-111377468D01*
X245987355Y-111385322D01*
X246009459Y-111387813D01*
X246065427Y-111408579D01*
X246105206Y-111453091D01*
X246119576Y-111511033D01*
X246119576Y-112097996D01*
X246125985Y-112157611D01*
X246151132Y-112225033D01*
X246176280Y-112292458D01*
X246224812Y-112357288D01*
X246262530Y-112407673D01*
X246289547Y-112427898D01*
X246331418Y-112483831D01*
X246336403Y-112553522D01*
X246302919Y-112614844D01*
X246254586Y-112663179D01*
X246214357Y-112690061D01*
X246166903Y-112699500D01*
X245086478Y-112699500D01*
X245026046Y-112683777D01*
X244980939Y-112640596D01*
X244882711Y-112481342D01*
X244758657Y-112357288D01*
X244609334Y-112265186D01*
X244442797Y-112210000D01*
X244340009Y-112199500D01*
X243339991Y-112199500D01*
X243237203Y-112210000D01*
X243070665Y-112265186D01*
X242921342Y-112357288D01*
X242797288Y-112481342D01*
X242705186Y-112630665D01*
X242650000Y-112797202D01*
X242639500Y-112899990D01*
X242639500Y-113700008D01*
X242650000Y-113802796D01*
X242705186Y-113969334D01*
X242797288Y-114118657D01*
X242891303Y-114212672D01*
X242923397Y-114268259D01*
X242923397Y-114332446D01*
X242891304Y-114388034D01*
X242797681Y-114481656D01*
X242705642Y-114630877D01*
X242650493Y-114797303D01*
X242640000Y-114900021D01*
X242640000Y-115050000D01*
X245039999Y-115050000D01*
X245039999Y-114900021D01*
X245029506Y-114797304D01*
X244974357Y-114630877D01*
X244882316Y-114481654D01*
X244788696Y-114388034D01*
X244756602Y-114332446D01*
X244756602Y-114268259D01*
X244788694Y-114212673D01*
X244882712Y-114118656D01*
X244974814Y-113969334D01*
X244974813Y-113969334D01*
X244980939Y-113959404D01*
X245026046Y-113916223D01*
X245086478Y-113900500D01*
X246419513Y-113900500D01*
X246435697Y-113901560D01*
X246467000Y-113905682D01*
X246623762Y-113885044D01*
X246623762Y-113885043D01*
X246629891Y-113884237D01*
X246698481Y-113894794D01*
X246750657Y-113940551D01*
X246770076Y-114007176D01*
X246770076Y-114049873D01*
X251070076Y-114049873D01*
X251070076Y-113202049D01*
X251063673Y-113142497D01*
X251013428Y-113007783D01*
X250927264Y-112892684D01*
X250812162Y-112806519D01*
X250770038Y-112790807D01*
X250715177Y-112750346D01*
X250689992Y-112687000D01*
X250702096Y-112619914D01*
X250747830Y-112569364D01*
X250813370Y-112550626D01*
X251267948Y-112550626D01*
X251327559Y-112544218D01*
X251462407Y-112493923D01*
X251577622Y-112407673D01*
X251663872Y-112292458D01*
X251714167Y-112157610D01*
X251720576Y-112098000D01*
X251720575Y-110502255D01*
X251714167Y-110442644D01*
X251704179Y-110415866D01*
X251696396Y-110369584D01*
X251706372Y-110323722D01*
X251732677Y-110284856D01*
X251801043Y-110216490D01*
X251813223Y-110205809D01*
X251838282Y-110186582D01*
X251934536Y-110061141D01*
X251995044Y-109915062D01*
X251998596Y-109888081D01*
X252015682Y-109758300D01*
X252011560Y-109726997D01*
X252010500Y-109710813D01*
X252010500Y-107473851D01*
X252019939Y-107426398D01*
X252046819Y-107386169D01*
X252087043Y-107359291D01*
X252162824Y-107327903D01*
X252267546Y-107247546D01*
X252347903Y-107142824D01*
X252398417Y-107020871D01*
X252415647Y-106890000D01*
X252415647Y-105390000D01*
X252398417Y-105259129D01*
X252347903Y-105137177D01*
X252267546Y-105032454D01*
X252267545Y-105032453D01*
X252162824Y-104952096D01*
X252040871Y-104901583D01*
X251910001Y-104884353D01*
X251910000Y-104884353D01*
X250760000Y-104884353D01*
X250701179Y-104892337D01*
X250632397Y-104881987D01*
X250580009Y-104836231D01*
X250560500Y-104769465D01*
X250560500Y-101694615D01*
X252009326Y-101694615D01*
X252048681Y-101879769D01*
X252125674Y-102052697D01*
X252236936Y-102205837D01*
X252377609Y-102332500D01*
X252541541Y-102427146D01*
X252616449Y-102451485D01*
X252721570Y-102485641D01*
X252862634Y-102500467D01*
X253557015Y-102500467D01*
X253557018Y-102500467D01*
X253698082Y-102485641D01*
X253878110Y-102427146D01*
X254042042Y-102332500D01*
X254182714Y-102205838D01*
X254188899Y-102197326D01*
X254293977Y-102052697D01*
X254329647Y-101972581D01*
X254370970Y-101879770D01*
X254395929Y-101762347D01*
X254410326Y-101694615D01*
X254410326Y-101505319D01*
X254370970Y-101320164D01*
X254293977Y-101147236D01*
X254182715Y-100994096D01*
X254042042Y-100867433D01*
X253878110Y-100772787D01*
X253698083Y-100714293D01*
X253656741Y-100709948D01*
X253557018Y-100699467D01*
X252862634Y-100699467D01*
X252777995Y-100708362D01*
X252721568Y-100714293D01*
X252541541Y-100772787D01*
X252377609Y-100867433D01*
X252236936Y-100994096D01*
X252125674Y-101147236D01*
X252048681Y-101320164D01*
X252009326Y-101505319D01*
X252009326Y-101694615D01*
X250560500Y-101694615D01*
X250560500Y-97397687D01*
X250561561Y-97381501D01*
X250565682Y-97350199D01*
X250562964Y-97329560D01*
X250545044Y-97193438D01*
X250484536Y-97047359D01*
X250455619Y-97009674D01*
X250400162Y-96937400D01*
X250388282Y-96921917D01*
X250363229Y-96902694D01*
X250351034Y-96891999D01*
X249750720Y-96291685D01*
X249726681Y-96257805D01*
X249715181Y-96217887D01*
X249705380Y-96130896D01*
X249642451Y-95951056D01*
X249635492Y-95910101D01*
X249642451Y-95869146D01*
X249705380Y-95689306D01*
X249725577Y-95510051D01*
X249705380Y-95330795D01*
X249653869Y-95183586D01*
X249645801Y-95160529D01*
X249645800Y-95160527D01*
X249642495Y-95151082D01*
X249635536Y-95110127D01*
X249642495Y-95069172D01*
X249646250Y-95058443D01*
X249705380Y-94889458D01*
X249725577Y-94710203D01*
X249705380Y-94530948D01*
X249645801Y-94360681D01*
X249549828Y-94207941D01*
X249549827Y-94207940D01*
X249549826Y-94207938D01*
X249422275Y-94080387D01*
X249382793Y-94055579D01*
X249336745Y-94003758D01*
X249325708Y-93935319D01*
X249353134Y-93871651D01*
X249410444Y-93832655D01*
X249488220Y-93807385D01*
X249492187Y-93805095D01*
X249652152Y-93712739D01*
X249654982Y-93710191D01*
X249792824Y-93586077D01*
X249800598Y-93575378D01*
X249904087Y-93432936D01*
X249916161Y-93405817D01*
X249981080Y-93260009D01*
X249998193Y-93179500D01*
X250020436Y-93074854D01*
X250020436Y-92885558D01*
X249984115Y-92714681D01*
X252009326Y-92714681D01*
X252048681Y-92899835D01*
X252125674Y-93072763D01*
X252236936Y-93225903D01*
X252377609Y-93352566D01*
X252541541Y-93447212D01*
X252628189Y-93475365D01*
X252721570Y-93505707D01*
X252862634Y-93520533D01*
X253557015Y-93520533D01*
X253557018Y-93520533D01*
X253698082Y-93505707D01*
X253878110Y-93447212D01*
X254042042Y-93352566D01*
X254182714Y-93225904D01*
X254216429Y-93179500D01*
X254293977Y-93072763D01*
X254331062Y-92989470D01*
X254370970Y-92899836D01*
X254392055Y-92800637D01*
X254410326Y-92714681D01*
X254410326Y-92525385D01*
X254370970Y-92340230D01*
X254293977Y-92167302D01*
X254182715Y-92014162D01*
X254042042Y-91887499D01*
X253878110Y-91792853D01*
X253698083Y-91734359D01*
X253657978Y-91730144D01*
X253557018Y-91719533D01*
X252862634Y-91719533D01*
X252777995Y-91728428D01*
X252721568Y-91734359D01*
X252541541Y-91792853D01*
X252377609Y-91887499D01*
X252236936Y-92014162D01*
X252125674Y-92167302D01*
X252048681Y-92340230D01*
X252009326Y-92525385D01*
X252009326Y-92714681D01*
X249984115Y-92714681D01*
X249981080Y-92700403D01*
X249904087Y-92527475D01*
X249792825Y-92374335D01*
X249652152Y-92247672D01*
X249488220Y-92153026D01*
X249308193Y-92094532D01*
X249272925Y-92090825D01*
X249167128Y-92079706D01*
X248472744Y-92079706D01*
X248388105Y-92088601D01*
X248331678Y-92094532D01*
X248151651Y-92153026D01*
X247987719Y-92247672D01*
X247847047Y-92374335D01*
X247735786Y-92527474D01*
X247735785Y-92527476D01*
X247728074Y-92544796D01*
X247720805Y-92561121D01*
X247693663Y-92599883D01*
X247653977Y-92625655D01*
X247607526Y-92634684D01*
X247527743Y-92634684D01*
X247433095Y-92645746D01*
X247401546Y-92649434D01*
X247242172Y-92707442D01*
X247100477Y-92800636D01*
X246984089Y-92923999D01*
X246899293Y-93070872D01*
X246850649Y-93233352D01*
X246840788Y-93402662D01*
X246870238Y-93569683D01*
X246872695Y-93575378D01*
X246878542Y-93619800D01*
X246907032Y-93654980D01*
X246931947Y-93712739D01*
X246937414Y-93725414D01*
X246944638Y-93735117D01*
X246962880Y-93770161D01*
X246969174Y-93809164D01*
X246969174Y-94086072D01*
X246952562Y-94148071D01*
X246907175Y-94193458D01*
X246845176Y-94210072D01*
X246819176Y-94210072D01*
X246793174Y-94210072D01*
X246731175Y-94193461D01*
X246685787Y-94148074D01*
X246669174Y-94086073D01*
X246669174Y-93710191D01*
X246071350Y-93710191D01*
X246011798Y-93716593D01*
X245877084Y-93766838D01*
X245761985Y-93853002D01*
X245675821Y-93968101D01*
X245625576Y-94102815D01*
X245619174Y-94162367D01*
X245619174Y-94210191D01*
X245620832Y-94210191D01*
X245685999Y-94228696D01*
X245731716Y-94278687D01*
X245744338Y-94345245D01*
X245720098Y-94408503D01*
X245681170Y-94460503D01*
X245637408Y-94497075D01*
X245630706Y-94498658D01*
X245619174Y-94510191D01*
X245619174Y-94558017D01*
X245623126Y-94594781D01*
X245623126Y-94621288D01*
X245620094Y-94649497D01*
X245618674Y-94662702D01*
X245618674Y-95058443D01*
X245622874Y-95097510D01*
X245622874Y-95124015D01*
X245618798Y-95161934D01*
X245618674Y-95163083D01*
X245618674Y-95558826D01*
X245622805Y-95597255D01*
X245622805Y-95623756D01*
X245618674Y-95662190D01*
X245618674Y-96057937D01*
X245622805Y-96096366D01*
X245622805Y-96122868D01*
X245618674Y-96161301D01*
X245618674Y-96557045D01*
X245622874Y-96596112D01*
X245622874Y-96622619D01*
X245618674Y-96661686D01*
X245618674Y-96800567D01*
X245604304Y-96858508D01*
X245564526Y-96903021D01*
X245508558Y-96923787D01*
X245416748Y-96934131D01*
X245416745Y-96934131D01*
X245416745Y-96934132D01*
X245246478Y-96993711D01*
X245246476Y-96993711D01*
X245246476Y-96993712D01*
X245093735Y-97089685D01*
X244966185Y-97217235D01*
X244870212Y-97369976D01*
X244870211Y-97369978D01*
X244856267Y-97409830D01*
X244810631Y-97540249D01*
X244798256Y-97650083D01*
X244777490Y-97706052D01*
X244732977Y-97745830D01*
X244675036Y-97760200D01*
X243870494Y-97760200D01*
X243854308Y-97759139D01*
X243823000Y-97755017D01*
X243822999Y-97755017D01*
X243626130Y-97780936D01*
X243584144Y-97809660D01*
X243520157Y-97836164D01*
X243394719Y-97932416D01*
X243379796Y-97951865D01*
X243335932Y-97987753D01*
X243280681Y-98000376D01*
X243225585Y-97987096D01*
X243182152Y-97950687D01*
X243179361Y-97946958D01*
X243101880Y-97888957D01*
X243065306Y-97845194D01*
X243052190Y-97789690D01*
X243065306Y-97734185D01*
X243101880Y-97690423D01*
X243179004Y-97632689D01*
X243265168Y-97517588D01*
X243315413Y-97382874D01*
X243321816Y-97323323D01*
X243321816Y-96770000D01*
X239021816Y-96770000D01*
X239021816Y-97323323D01*
X239028218Y-97382874D01*
X239078463Y-97517588D01*
X239164628Y-97632689D01*
X239241751Y-97690423D01*
X239278325Y-97734185D01*
X239291441Y-97789690D01*
X239278325Y-97845194D01*
X239241752Y-97888957D01*
X239164270Y-97946959D01*
X239078020Y-98062174D01*
X239028322Y-98195421D01*
X239027725Y-98197023D01*
X239022030Y-98250000D01*
X239021316Y-98256637D01*
X239021316Y-98409425D01*
X239011877Y-98456878D01*
X238984997Y-98497106D01*
X238944769Y-98523986D01*
X238917058Y-98535464D01*
X238791617Y-98631717D01*
X238695364Y-98757158D01*
X238628609Y-98918319D01*
X238628079Y-98918099D01*
X238624860Y-98928704D01*
X238601336Y-98961526D01*
X237771096Y-99791768D01*
X236989769Y-100573094D01*
X236940408Y-100603344D01*
X236882692Y-100607886D01*
X236829205Y-100585731D01*
X236791605Y-100541708D01*
X236778090Y-100485413D01*
X236778090Y-96770000D01*
X225758074Y-96770000D01*
X225758074Y-100716177D01*
X225744559Y-100772472D01*
X225706959Y-100816495D01*
X225653472Y-100838650D01*
X225595756Y-100834108D01*
X225546393Y-100803858D01*
X224546499Y-99803964D01*
X224535803Y-99791768D01*
X224516581Y-99766716D01*
X224391141Y-99670464D01*
X224360150Y-99657627D01*
X224312059Y-99622106D01*
X224286179Y-99568211D01*
X224288527Y-99508470D01*
X224327077Y-99375780D01*
X224330000Y-99338648D01*
X224330000Y-99310000D01*
X222710000Y-99310000D01*
X222710000Y-99338648D01*
X222712922Y-99375782D01*
X222759092Y-99534697D01*
X222776355Y-99563888D01*
X222793622Y-99627008D01*
X222776355Y-99690128D01*
X222758629Y-99720101D01*
X222712424Y-99879139D01*
X222709500Y-99916299D01*
X222709500Y-100473704D01*
X222712423Y-100510859D01*
X222746051Y-100626605D01*
X222748957Y-100683478D01*
X222726136Y-100735652D01*
X222682400Y-100772123D01*
X222626975Y-100785200D01*
X209398997Y-100785200D01*
X209351544Y-100775761D01*
X209311316Y-100748881D01*
X209109538Y-100547103D01*
X209076822Y-100489097D01*
X209078834Y-100422531D01*
X209114991Y-100366607D01*
X209194420Y-100296240D01*
X209287607Y-100161236D01*
X209345777Y-100007853D01*
X209360589Y-99885865D01*
X209360589Y-98854161D01*
X209355227Y-98810000D01*
X222710000Y-98810000D01*
X223270000Y-98810000D01*
X223270000Y-98194769D01*
X223769999Y-98194769D01*
X223770000Y-98194770D01*
X223770000Y-98810000D01*
X224330000Y-98810000D01*
X224330000Y-98781352D01*
X224327077Y-98744217D01*
X224280907Y-98585301D01*
X224196664Y-98442854D01*
X224079645Y-98325835D01*
X223937198Y-98241592D01*
X223778279Y-98195421D01*
X223769999Y-98194769D01*
X223270000Y-98194769D01*
X223261720Y-98195421D01*
X223102801Y-98241592D01*
X222960354Y-98325835D01*
X222843335Y-98442854D01*
X222759092Y-98585301D01*
X222712922Y-98744217D01*
X222710000Y-98781352D01*
X222710000Y-98810000D01*
X209355227Y-98810000D01*
X209345777Y-98732173D01*
X209287607Y-98578790D01*
X209231224Y-98497106D01*
X209194421Y-98443787D01*
X209194420Y-98443786D01*
X209071632Y-98335006D01*
X209005691Y-98300397D01*
X208926379Y-98258770D01*
X208806360Y-98229188D01*
X208767104Y-98219513D01*
X208603062Y-98219513D01*
X208574362Y-98226587D01*
X208443782Y-98258771D01*
X208417712Y-98272454D01*
X208360087Y-98286657D01*
X208302462Y-98272453D01*
X208289704Y-98265757D01*
X208245409Y-98226587D01*
X208224290Y-98171358D01*
X208231147Y-98112631D01*
X208274094Y-97997486D01*
X208280503Y-97937876D01*
X208280502Y-95365898D01*
X208294017Y-95309604D01*
X208331617Y-95265581D01*
X208385104Y-95243426D01*
X208442820Y-95247968D01*
X208492183Y-95278218D01*
X209568599Y-96354634D01*
X209579294Y-96366829D01*
X209598517Y-96391882D01*
X209681048Y-96455209D01*
X209696706Y-96467224D01*
X209723959Y-96488136D01*
X209870038Y-96548644D01*
X209995498Y-96565161D01*
X210026799Y-96569282D01*
X210026799Y-96569281D01*
X210026800Y-96569282D01*
X210058102Y-96565160D01*
X210074287Y-96564100D01*
X224090659Y-96564100D01*
X224138112Y-96573539D01*
X224158688Y-96587287D01*
X224159508Y-96585983D01*
X224196717Y-96609363D01*
X224324078Y-96689389D01*
X224494345Y-96748968D01*
X224673600Y-96769165D01*
X224852855Y-96748968D01*
X225023122Y-96689389D01*
X225175862Y-96593416D01*
X225303416Y-96465862D01*
X225399389Y-96313122D01*
X225458968Y-96142855D01*
X225479165Y-95963600D01*
X225458968Y-95784345D01*
X225399389Y-95614078D01*
X225303416Y-95461338D01*
X225303415Y-95461337D01*
X225303414Y-95461335D01*
X225175864Y-95333785D01*
X225069687Y-95267070D01*
X225023122Y-95237811D01*
X224852855Y-95178232D01*
X224852853Y-95178231D01*
X224852851Y-95178231D01*
X224673600Y-95158034D01*
X224480462Y-95179796D01*
X224480408Y-95179325D01*
X224437168Y-95183586D01*
X224382745Y-95161934D01*
X224344332Y-95117718D01*
X224330499Y-95060803D01*
X224330499Y-94836296D01*
X224327576Y-94799140D01*
X224281371Y-94640103D01*
X224281370Y-94640102D01*
X224281370Y-94640100D01*
X224263644Y-94610128D01*
X224246377Y-94547008D01*
X224263645Y-94483886D01*
X224280908Y-94454695D01*
X224327077Y-94295782D01*
X224330000Y-94258648D01*
X224330000Y-94230000D01*
X223571000Y-94230000D01*
X223509000Y-94213387D01*
X223463613Y-94168000D01*
X223447000Y-94106000D01*
X223447000Y-93888397D01*
X223456439Y-93840944D01*
X223483319Y-93800716D01*
X223517716Y-93766319D01*
X223557944Y-93739439D01*
X223605397Y-93730000D01*
X224330000Y-93730000D01*
X224330000Y-93701352D01*
X224327077Y-93664217D01*
X224280907Y-93505301D01*
X224196664Y-93362854D01*
X224146603Y-93312793D01*
X224114509Y-93257206D01*
X224114509Y-93193018D01*
X224146601Y-93137433D01*
X225502116Y-91781918D01*
X225542344Y-91755039D01*
X225589797Y-91745600D01*
X225634074Y-91745600D01*
X225696074Y-91762213D01*
X225741461Y-91807600D01*
X225758074Y-91869600D01*
X225758074Y-96270000D01*
X236778090Y-96270000D01*
X236778090Y-91869600D01*
X236794703Y-91807600D01*
X236840090Y-91762213D01*
X236902090Y-91745600D01*
X238495400Y-91745600D01*
X238557400Y-91762213D01*
X238602787Y-91807600D01*
X238619400Y-91869600D01*
X238619400Y-93932513D01*
X238618339Y-93948699D01*
X238614217Y-93980000D01*
X238623657Y-94051700D01*
X238625692Y-94067156D01*
X238634856Y-94136762D01*
X238681729Y-94249924D01*
X238695364Y-94282841D01*
X238791617Y-94408282D01*
X238859674Y-94460503D01*
X238917059Y-94504536D01*
X238942481Y-94515066D01*
X238944769Y-94516014D01*
X238984997Y-94542894D01*
X239011877Y-94583122D01*
X239021316Y-94630574D01*
X239021316Y-94783363D01*
X239027725Y-94842978D01*
X239045061Y-94889458D01*
X239078020Y-94977825D01*
X239164269Y-95093038D01*
X239164271Y-95093041D01*
X239198911Y-95118972D01*
X239241749Y-95151041D01*
X239241751Y-95151042D01*
X239278325Y-95194804D01*
X239291441Y-95250308D01*
X239278325Y-95305813D01*
X239241752Y-95349576D01*
X239164627Y-95407311D01*
X239078463Y-95522411D01*
X239028218Y-95657125D01*
X239021816Y-95716677D01*
X239021816Y-96270000D01*
X243321816Y-96270000D01*
X243321816Y-95716677D01*
X243315413Y-95657125D01*
X243265168Y-95522411D01*
X243179005Y-95407312D01*
X243101879Y-95349576D01*
X243065306Y-95305813D01*
X243052190Y-95250308D01*
X243065306Y-95194804D01*
X243101875Y-95151046D01*
X243179362Y-95093040D01*
X243265612Y-94977825D01*
X243315907Y-94842977D01*
X243322316Y-94783367D01*
X243322315Y-93176624D01*
X243315907Y-93117013D01*
X243265612Y-92982165D01*
X243179362Y-92866950D01*
X243064147Y-92780700D01*
X242929299Y-92730405D01*
X242869689Y-92723996D01*
X242869685Y-92723996D01*
X242869590Y-92723996D01*
X239944399Y-92723996D01*
X239882400Y-92707384D01*
X239837013Y-92661997D01*
X239820400Y-92599997D01*
X239820400Y-91869600D01*
X239837013Y-91807600D01*
X239882400Y-91762213D01*
X239944400Y-91745600D01*
X244087413Y-91745600D01*
X244103597Y-91746660D01*
X244134900Y-91750782D01*
X244291662Y-91730144D01*
X244437741Y-91669636D01*
X244437741Y-91669635D01*
X244437741Y-91669634D01*
X244445205Y-91666543D01*
X244453982Y-91657172D01*
X244563182Y-91573382D01*
X244582409Y-91548323D01*
X244593090Y-91536143D01*
X246362693Y-89766540D01*
X246422780Y-89733332D01*
X246491327Y-89737182D01*
X246502777Y-89741188D01*
X246502778Y-89741189D01*
X246510151Y-89743769D01*
X246673044Y-89800768D01*
X246852300Y-89820965D01*
X247031555Y-89800768D01*
X247201822Y-89741189D01*
X247250127Y-89710835D01*
X247300090Y-89692867D01*
X247352985Y-89697443D01*
X247407567Y-89714452D01*
X247474119Y-89720500D01*
X247975880Y-89720499D01*
X247975884Y-89720499D01*
X248029122Y-89715661D01*
X248042433Y-89714452D01*
X248195569Y-89666733D01*
X248258348Y-89628780D01*
X248322498Y-89610897D01*
X248386649Y-89628780D01*
X248420740Y-89649389D01*
X248449433Y-89666734D01*
X248497080Y-89681581D01*
X248602567Y-89714452D01*
X248669119Y-89720500D01*
X249170880Y-89720499D01*
X249170884Y-89720499D01*
X249224122Y-89715661D01*
X249237433Y-89714452D01*
X249390569Y-89666733D01*
X249527835Y-89583753D01*
X249641253Y-89470335D01*
X249724233Y-89333069D01*
X249771952Y-89179933D01*
X249774652Y-89150227D01*
X251501033Y-89150227D01*
X251501033Y-89348051D01*
X251507435Y-89407602D01*
X251557680Y-89542316D01*
X251643844Y-89657415D01*
X251758943Y-89743579D01*
X251893657Y-89793824D01*
X251953209Y-89800227D01*
X252151033Y-89800227D01*
X252151033Y-89150227D01*
X251501033Y-89150227D01*
X249774652Y-89150227D01*
X249778000Y-89113381D01*
X249777999Y-88942597D01*
X249787438Y-88895144D01*
X249814320Y-88854915D01*
X249834119Y-88835117D01*
X249874347Y-88808238D01*
X249921798Y-88798800D01*
X252527033Y-88798800D01*
X252589033Y-88815413D01*
X252634420Y-88860800D01*
X252651033Y-88922800D01*
X252651033Y-89800227D01*
X252848857Y-89800227D01*
X252908408Y-89793824D01*
X253043122Y-89743579D01*
X253125940Y-89681581D01*
X253173893Y-89659681D01*
X253226610Y-89659681D01*
X253274561Y-89681579D01*
X253357636Y-89743769D01*
X253492484Y-89794064D01*
X253552094Y-89800473D01*
X254447839Y-89800472D01*
X254507450Y-89794064D01*
X254642298Y-89743769D01*
X254757513Y-89657519D01*
X254843763Y-89542304D01*
X254894058Y-89407456D01*
X254900467Y-89347846D01*
X254900466Y-88452101D01*
X254894058Y-88392490D01*
X254843763Y-88257642D01*
X254757513Y-88142427D01*
X254642298Y-88056177D01*
X254507450Y-88005882D01*
X254447840Y-87999473D01*
X254447836Y-87999473D01*
X253649070Y-87999473D01*
X253601617Y-87990034D01*
X253561389Y-87963154D01*
X253405499Y-87807264D01*
X253394803Y-87795068D01*
X253375581Y-87770016D01*
X253250140Y-87673763D01*
X253104062Y-87613256D01*
X252986661Y-87597800D01*
X252982080Y-87597197D01*
X252947300Y-87592617D01*
X252919463Y-87596282D01*
X252915997Y-87596739D01*
X252899813Y-87597800D01*
X249669187Y-87597800D01*
X249653002Y-87596739D01*
X249649076Y-87596222D01*
X249621699Y-87592617D01*
X249586441Y-87597259D01*
X249582339Y-87597800D01*
X249464937Y-87613256D01*
X249318861Y-87673762D01*
X249286085Y-87698912D01*
X249193418Y-87770018D01*
X249193416Y-87770019D01*
X249193415Y-87770021D01*
X249174190Y-87795074D01*
X249163498Y-87807265D01*
X248927582Y-88043181D01*
X248887354Y-88070061D01*
X248839902Y-88079500D01*
X248669115Y-88079500D01*
X248602567Y-88085547D01*
X248449429Y-88133267D01*
X248386649Y-88171219D01*
X248322499Y-88189102D01*
X248258350Y-88171219D01*
X248206617Y-88139945D01*
X248166636Y-88101153D01*
X248147671Y-88048774D01*
X248153550Y-87993379D01*
X248183084Y-87946149D01*
X249765815Y-86363419D01*
X249806044Y-86336539D01*
X249853497Y-86327100D01*
X251940613Y-86327100D01*
X251956797Y-86328160D01*
X251988100Y-86332282D01*
X252144862Y-86311644D01*
X252290941Y-86251136D01*
X252312151Y-86234861D01*
X252416382Y-86154882D01*
X252435609Y-86129823D01*
X252446283Y-86117650D01*
X252583218Y-85980716D01*
X252623445Y-85953839D01*
X252670897Y-85944400D01*
X252745413Y-85944400D01*
X252761597Y-85945460D01*
X252792900Y-85949582D01*
X252949662Y-85928944D01*
X253095741Y-85868436D01*
X253110664Y-85856985D01*
X253221182Y-85772182D01*
X253240409Y-85747123D01*
X253251090Y-85734943D01*
X253755943Y-85230090D01*
X253768123Y-85219409D01*
X253793182Y-85200182D01*
X253889436Y-85074741D01*
X253949944Y-84928662D01*
X253949968Y-84928476D01*
X253965891Y-84882022D01*
X253998597Y-84845392D01*
X254022474Y-84827519D01*
X254108724Y-84712304D01*
X254159019Y-84577456D01*
X254165428Y-84517846D01*
X254165427Y-83122101D01*
X254159019Y-83062490D01*
X254108724Y-82927642D01*
X254022474Y-82812427D01*
X253907259Y-82726177D01*
X253772411Y-82675882D01*
X253712801Y-82669473D01*
X253712797Y-82669473D01*
X253691799Y-82669473D01*
X253634324Y-82655349D01*
X253589943Y-82616193D01*
X253568766Y-82560926D01*
X253575617Y-82502139D01*
X253603521Y-82427323D01*
X253609924Y-82367772D01*
X253609924Y-81369948D01*
X249309924Y-81369948D01*
X249309924Y-82367772D01*
X249316326Y-82427325D01*
X249344417Y-82502640D01*
X249351268Y-82561427D01*
X249330091Y-82616693D01*
X249285710Y-82655849D01*
X249228235Y-82669973D01*
X249207096Y-82669973D01*
X249147544Y-82676375D01*
X249012830Y-82726620D01*
X248897731Y-82812784D01*
X248811567Y-82927883D01*
X248761322Y-83062597D01*
X248754920Y-83122149D01*
X248754920Y-83569973D01*
X249680920Y-83569973D01*
X249742920Y-83586586D01*
X249788307Y-83631973D01*
X249804920Y-83693973D01*
X249804920Y-83945973D01*
X249788307Y-84007973D01*
X249742920Y-84053360D01*
X249680920Y-84069973D01*
X248754920Y-84069973D01*
X248746657Y-84078235D01*
X248738307Y-84109400D01*
X248692920Y-84154787D01*
X248630920Y-84171400D01*
X246820587Y-84171400D01*
X246804402Y-84170339D01*
X246800476Y-84169822D01*
X246773099Y-84166217D01*
X246679338Y-84178562D01*
X246616337Y-84186856D01*
X246470256Y-84247364D01*
X246466754Y-84250052D01*
X246412801Y-84273791D01*
X246353982Y-84269935D01*
X246303590Y-84239355D01*
X243953199Y-81888964D01*
X243942503Y-81876768D01*
X243923281Y-81851716D01*
X243797840Y-81755463D01*
X243651762Y-81694956D01*
X243495000Y-81674317D01*
X243467163Y-81677982D01*
X243463697Y-81678439D01*
X243447513Y-81679500D01*
X240006478Y-81679500D01*
X239946046Y-81663777D01*
X239900939Y-81620596D01*
X239802713Y-81461345D01*
X239771732Y-81430364D01*
X239708693Y-81367325D01*
X239676601Y-81311740D01*
X239676601Y-81247552D01*
X239708696Y-81191964D01*
X239802316Y-81098344D01*
X239894357Y-80949122D01*
X239949506Y-80782696D01*
X239960000Y-80679979D01*
X239960000Y-80530000D01*
X237560001Y-80530000D01*
X237560001Y-80679979D01*
X237570493Y-80782695D01*
X237625642Y-80949122D01*
X237717683Y-81098345D01*
X237811303Y-81191965D01*
X237843397Y-81247552D01*
X237843397Y-81311739D01*
X237811304Y-81367327D01*
X237717287Y-81461344D01*
X237625186Y-81610665D01*
X237570000Y-81777202D01*
X237559500Y-81879990D01*
X237559500Y-82680008D01*
X237570000Y-82782796D01*
X237625186Y-82949334D01*
X237717288Y-83098657D01*
X237841342Y-83222711D01*
X237841344Y-83222712D01*
X237990666Y-83314814D01*
X238128516Y-83360493D01*
X238152172Y-83368332D01*
X238209079Y-83407443D01*
X238236244Y-83470927D01*
X238225243Y-83539096D01*
X238179489Y-83590812D01*
X238113168Y-83610038D01*
X238087169Y-83610038D01*
X238027617Y-83616440D01*
X237892903Y-83666685D01*
X237777804Y-83752849D01*
X237691640Y-83867948D01*
X237641395Y-84002662D01*
X237634993Y-84062214D01*
X237634993Y-84210038D01*
X239885007Y-84210038D01*
X239885007Y-84062214D01*
X239878604Y-84002662D01*
X239828359Y-83867948D01*
X239742195Y-83752849D01*
X239627096Y-83666685D01*
X239492382Y-83616440D01*
X239432831Y-83610038D01*
X239406832Y-83610038D01*
X239340511Y-83590812D01*
X239294757Y-83539096D01*
X239283756Y-83470927D01*
X239310921Y-83407443D01*
X239367828Y-83368332D01*
X239391484Y-83360493D01*
X239529334Y-83314814D01*
X239678656Y-83222712D01*
X239802712Y-83098656D01*
X239894814Y-82949334D01*
X239894813Y-82949334D01*
X239900939Y-82939404D01*
X239946046Y-82896223D01*
X240006478Y-82880500D01*
X243194903Y-82880500D01*
X243242356Y-82889939D01*
X243282584Y-82916819D01*
X244963584Y-84597819D01*
X244993834Y-84647182D01*
X244998376Y-84704898D01*
X244976221Y-84758385D01*
X244932198Y-84795985D01*
X244875903Y-84809500D01*
X240009007Y-84809500D01*
X239947007Y-84792887D01*
X239901620Y-84747500D01*
X239893988Y-84719019D01*
X239885007Y-84710038D01*
X237793955Y-84710038D01*
X237754796Y-84703692D01*
X237719647Y-84685306D01*
X237627338Y-84616204D01*
X237492490Y-84565909D01*
X237432880Y-84559500D01*
X237432876Y-84559500D01*
X236087123Y-84559500D01*
X236027508Y-84565909D01*
X235892662Y-84616204D01*
X235777447Y-84702454D01*
X235691197Y-84817668D01*
X235640902Y-84952516D01*
X235634493Y-85012130D01*
X235634493Y-85807869D01*
X235640902Y-85867484D01*
X235641425Y-85868886D01*
X235691197Y-86002331D01*
X235777447Y-86117546D01*
X235892662Y-86203796D01*
X236027510Y-86254091D01*
X236087120Y-86260500D01*
X237432879Y-86260499D01*
X237492490Y-86254091D01*
X237492491Y-86254090D01*
X237497239Y-86253580D01*
X237564675Y-86265334D01*
X237615599Y-86311077D01*
X237634493Y-86376870D01*
X237634493Y-86757831D01*
X237640902Y-86817446D01*
X237664482Y-86880666D01*
X237691197Y-86952293D01*
X237777447Y-87067508D01*
X237892662Y-87153758D01*
X238027510Y-87204053D01*
X238087120Y-87210462D01*
X239432879Y-87210461D01*
X239492490Y-87204053D01*
X239627338Y-87153758D01*
X239742553Y-87067508D01*
X239828803Y-86952293D01*
X239879098Y-86817445D01*
X239885507Y-86757835D01*
X239885506Y-86134499D01*
X239902119Y-86072500D01*
X239947506Y-86027113D01*
X240009506Y-86010500D01*
X245129903Y-86010500D01*
X245177356Y-86019939D01*
X245217584Y-86046819D01*
X245523181Y-86352416D01*
X245550061Y-86392644D01*
X245559500Y-86440096D01*
X245559500Y-86610884D01*
X245565547Y-86677432D01*
X245611640Y-86825348D01*
X245613267Y-86830569D01*
X245641785Y-86877744D01*
X245696248Y-86967837D01*
X245809662Y-87081251D01*
X245809664Y-87081252D01*
X245809665Y-87081253D01*
X245929603Y-87153758D01*
X245946933Y-87164234D01*
X245990286Y-87177743D01*
X246100067Y-87211952D01*
X246166619Y-87218000D01*
X246593380Y-87217999D01*
X246593384Y-87217999D01*
X246646622Y-87213161D01*
X246659933Y-87211952D01*
X246813069Y-87164233D01*
X246950335Y-87081253D01*
X247063753Y-86967835D01*
X247146733Y-86830569D01*
X247194452Y-86677433D01*
X247200500Y-86610881D01*
X247200499Y-86109120D01*
X247199779Y-86101200D01*
X247194452Y-86042567D01*
X247185240Y-86013005D01*
X247146733Y-85889431D01*
X247108780Y-85826649D01*
X247090897Y-85762498D01*
X247108781Y-85698348D01*
X247146733Y-85635569D01*
X247194452Y-85482433D01*
X247194451Y-85482433D01*
X247198367Y-85469870D01*
X247199451Y-85470208D01*
X247214249Y-85428025D01*
X247258968Y-85387188D01*
X247317694Y-85372400D01*
X248759003Y-85372400D01*
X248815298Y-85385915D01*
X248859321Y-85423515D01*
X248881476Y-85477002D01*
X248876934Y-85534718D01*
X248846684Y-85584081D01*
X246655719Y-87775044D01*
X246622882Y-87798575D01*
X246584225Y-87810302D01*
X246501885Y-87821143D01*
X246478666Y-87824200D01*
X246462502Y-87826327D01*
X246446337Y-87828456D01*
X246300259Y-87888963D01*
X246174816Y-87985218D01*
X246155594Y-88010270D01*
X246144900Y-88022464D01*
X245859365Y-88307998D01*
X245847173Y-88318691D01*
X245822118Y-88337917D01*
X245780245Y-88392489D01*
X245780242Y-88392490D01*
X245725863Y-88463359D01*
X245665356Y-88609437D01*
X245647202Y-88747324D01*
X245635475Y-88785982D01*
X245611944Y-88818819D01*
X243922484Y-90508281D01*
X243882256Y-90535161D01*
X243834803Y-90544600D01*
X239267387Y-90544600D01*
X239251202Y-90543539D01*
X239219900Y-90539418D01*
X239188597Y-90543539D01*
X239172413Y-90544600D01*
X225337194Y-90544600D01*
X225321008Y-90543539D01*
X225289698Y-90539416D01*
X225119131Y-90561872D01*
X225106225Y-90571120D01*
X224986857Y-90620564D01*
X224861416Y-90716818D01*
X224842194Y-90741870D01*
X224831500Y-90754064D01*
X222455465Y-93130098D01*
X222443274Y-93140790D01*
X222418221Y-93160015D01*
X222418219Y-93160016D01*
X222418218Y-93160018D01*
X222331369Y-93273202D01*
X222331368Y-93273203D01*
X222321963Y-93285459D01*
X222261456Y-93431537D01*
X222240817Y-93588299D01*
X222244939Y-93619601D01*
X222246000Y-93635787D01*
X222246000Y-94394013D01*
X222244939Y-94410199D01*
X222240817Y-94441500D01*
X222246000Y-94480860D01*
X222246000Y-94480861D01*
X222261456Y-94598262D01*
X222321963Y-94744340D01*
X222418216Y-94869781D01*
X222443268Y-94889003D01*
X222455464Y-94899699D01*
X222673181Y-95117416D01*
X222700061Y-95157644D01*
X222709500Y-95205097D01*
X222709500Y-95239100D01*
X222692887Y-95301100D01*
X222647500Y-95346487D01*
X222585500Y-95363100D01*
X220736236Y-95363100D01*
X220678295Y-95348730D01*
X220633782Y-95308952D01*
X220613016Y-95252983D01*
X220607134Y-95200782D01*
X220605068Y-95182445D01*
X220545489Y-95012178D01*
X220449516Y-94859438D01*
X220449515Y-94859437D01*
X220449514Y-94859435D01*
X220321963Y-94731884D01*
X220230563Y-94674454D01*
X220191541Y-94635432D01*
X220173315Y-94583344D01*
X220179493Y-94528505D01*
X220208852Y-94481781D01*
X222193743Y-92496890D01*
X222205923Y-92486209D01*
X222230982Y-92466982D01*
X222327236Y-92341541D01*
X222387744Y-92195462D01*
X222400115Y-92101494D01*
X222408382Y-92038700D01*
X222404260Y-92007397D01*
X222403200Y-91991213D01*
X222403200Y-90247300D01*
X222419813Y-90185300D01*
X222465200Y-90139913D01*
X222527200Y-90123300D01*
X227127813Y-90123300D01*
X227143997Y-90124360D01*
X227175300Y-90128482D01*
X227332062Y-90107844D01*
X227478141Y-90047336D01*
X227518515Y-90016356D01*
X227603582Y-89951082D01*
X227622809Y-89926023D01*
X227633490Y-89913843D01*
X227693549Y-89853784D01*
X227743473Y-89823355D01*
X227801794Y-89819184D01*
X227855536Y-89842199D01*
X227857669Y-89843796D01*
X227992517Y-89894091D01*
X228052127Y-89900500D01*
X229147872Y-89900499D01*
X229207483Y-89894091D01*
X229342331Y-89843796D01*
X229457546Y-89757546D01*
X229543796Y-89642331D01*
X229594091Y-89507483D01*
X229600500Y-89447873D01*
X229600499Y-88352128D01*
X229594091Y-88292517D01*
X229543796Y-88157669D01*
X229457546Y-88042454D01*
X229342331Y-87956204D01*
X229207483Y-87905909D01*
X229147873Y-87899500D01*
X229147869Y-87899500D01*
X228052130Y-87899500D01*
X227992515Y-87905909D01*
X227857669Y-87956204D01*
X227742454Y-88042454D01*
X227656204Y-88157669D01*
X227608399Y-88285840D01*
X227581450Y-88328608D01*
X227539672Y-88357066D01*
X227495259Y-88375463D01*
X227369816Y-88471718D01*
X227350594Y-88496770D01*
X227339900Y-88508964D01*
X226962884Y-88885981D01*
X226922656Y-88912861D01*
X226875203Y-88922300D01*
X222587641Y-88922300D01*
X222533839Y-88910020D01*
X222490694Y-88875613D01*
X222466750Y-88825893D01*
X222466750Y-88770708D01*
X222485358Y-88689178D01*
X222491745Y-88603955D01*
X222505524Y-88420076D01*
X222485358Y-88150973D01*
X222425309Y-87887881D01*
X222358051Y-87716515D01*
X222349490Y-87669670D01*
X222359217Y-87623049D01*
X222385796Y-87583537D01*
X226410943Y-83558390D01*
X226423123Y-83547709D01*
X226448182Y-83528482D01*
X226544436Y-83403041D01*
X226604944Y-83256962D01*
X226617335Y-83162841D01*
X226625582Y-83100200D01*
X226621460Y-83068897D01*
X226620400Y-83052713D01*
X226620400Y-82254997D01*
X226629839Y-82207544D01*
X226656719Y-82167316D01*
X229401116Y-79422919D01*
X229441344Y-79396039D01*
X229488797Y-79386600D01*
X237541804Y-79386600D01*
X237604583Y-79403667D01*
X237650082Y-79450168D01*
X237665774Y-79513305D01*
X237647342Y-79575697D01*
X237625642Y-79610876D01*
X237570493Y-79777303D01*
X237560000Y-79880021D01*
X237560000Y-80030000D01*
X239959999Y-80030000D01*
X239959999Y-79880021D01*
X239949506Y-79777304D01*
X239894357Y-79610876D01*
X239872658Y-79575697D01*
X239854226Y-79513305D01*
X239869918Y-79450168D01*
X239915417Y-79403667D01*
X239978196Y-79386600D01*
X245314404Y-79386600D01*
X245363217Y-79396612D01*
X245404147Y-79425031D01*
X245430584Y-79467265D01*
X245436204Y-79482331D01*
X245522454Y-79597546D01*
X245637669Y-79683796D01*
X245772517Y-79734091D01*
X245832127Y-79740500D01*
X246927872Y-79740499D01*
X246987483Y-79734091D01*
X247122331Y-79683796D01*
X247237546Y-79597546D01*
X247323796Y-79482331D01*
X247371601Y-79354158D01*
X247398551Y-79311389D01*
X247440330Y-79282931D01*
X247484741Y-79264536D01*
X247610182Y-79168282D01*
X247706436Y-79042841D01*
X247766944Y-78896762D01*
X247777471Y-78816797D01*
X247789198Y-78778141D01*
X247812726Y-78745307D01*
X248086029Y-78472004D01*
X248132753Y-78442645D01*
X248187591Y-78436467D01*
X248239680Y-78454693D01*
X248247038Y-78459316D01*
X248399778Y-78555289D01*
X248570045Y-78614868D01*
X248644803Y-78623291D01*
X248700771Y-78644057D01*
X248740550Y-78688569D01*
X248754920Y-78746511D01*
X248754920Y-79118000D01*
X248761322Y-79177551D01*
X248811567Y-79312265D01*
X248897731Y-79427364D01*
X249012830Y-79513528D01*
X249147544Y-79563773D01*
X249207096Y-79570176D01*
X249228141Y-79570176D01*
X249285616Y-79584300D01*
X249329997Y-79623456D01*
X249351174Y-79678723D01*
X249344323Y-79737510D01*
X249316326Y-79812572D01*
X249309924Y-79872124D01*
X249309924Y-80869948D01*
X253609924Y-80869948D01*
X253609924Y-79872124D01*
X253603521Y-79812572D01*
X253575711Y-79738009D01*
X253568860Y-79679222D01*
X253590037Y-79623955D01*
X253634418Y-79584799D01*
X253691892Y-79570675D01*
X253712800Y-79570675D01*
X253772411Y-79564267D01*
X253907259Y-79513972D01*
X254022474Y-79427722D01*
X254108724Y-79312507D01*
X254159019Y-79177659D01*
X254165428Y-79118049D01*
X254165427Y-77722304D01*
X254159019Y-77662693D01*
X254108724Y-77527845D01*
X254022474Y-77412630D01*
X253998587Y-77394748D01*
X253965881Y-77358117D01*
X253949960Y-77311666D01*
X253949944Y-77311538D01*
X253889436Y-77165459D01*
X253885724Y-77160622D01*
X253793182Y-77040017D01*
X253768129Y-77020794D01*
X253755934Y-77010099D01*
X253420999Y-76675164D01*
X253410303Y-76662968D01*
X253391081Y-76637916D01*
X253265640Y-76541663D01*
X253119562Y-76481156D01*
X253002161Y-76465700D01*
X252997580Y-76465097D01*
X252962800Y-76460517D01*
X252934963Y-76464182D01*
X252931497Y-76464639D01*
X252915313Y-76465700D01*
X248690087Y-76465700D01*
X248673902Y-76464639D01*
X248669976Y-76464122D01*
X248642599Y-76460517D01*
X248607341Y-76465159D01*
X248603239Y-76465700D01*
X248485837Y-76481156D01*
X248339761Y-76541662D01*
X248289582Y-76580165D01*
X248214318Y-76637918D01*
X248214316Y-76637919D01*
X248214315Y-76637921D01*
X248195090Y-76662974D01*
X248184398Y-76675165D01*
X247135729Y-77723834D01*
X247074408Y-77757319D01*
X247004718Y-77752336D01*
X246987486Y-77745909D01*
X246961935Y-77743162D01*
X246927873Y-77739500D01*
X246927869Y-77739500D01*
X245832130Y-77739500D01*
X245772515Y-77745909D01*
X245637669Y-77796204D01*
X245522454Y-77882454D01*
X245436204Y-77997668D01*
X245396197Y-78104934D01*
X245369758Y-78147170D01*
X245328828Y-78175588D01*
X245280015Y-78185600D01*
X238406536Y-78185600D01*
X238348595Y-78171230D01*
X238304082Y-78131452D01*
X238283316Y-78075483D01*
X238279841Y-78044646D01*
X238275368Y-78004945D01*
X238215789Y-77834678D01*
X238119816Y-77681938D01*
X238119815Y-77681937D01*
X238119814Y-77681935D01*
X237992264Y-77554385D01*
X237881015Y-77484483D01*
X237839522Y-77458411D01*
X237669255Y-77398832D01*
X237669253Y-77398831D01*
X237669251Y-77398831D01*
X237490000Y-77378634D01*
X237310748Y-77398831D01*
X237310745Y-77398831D01*
X237310745Y-77398832D01*
X237140478Y-77458411D01*
X237140476Y-77458411D01*
X237140476Y-77458412D01*
X236975908Y-77561817D01*
X236975088Y-77560512D01*
X236954512Y-77574261D01*
X236907059Y-77583700D01*
X235726941Y-77583700D01*
X235670646Y-77570185D01*
X235626623Y-77532585D01*
X235604468Y-77479098D01*
X235609010Y-77421382D01*
X235639260Y-77372019D01*
X235697914Y-77313364D01*
X235697913Y-77313364D01*
X235697916Y-77313362D01*
X235793889Y-77160622D01*
X235853468Y-76990355D01*
X235873665Y-76811100D01*
X235853468Y-76631845D01*
X235793889Y-76461578D01*
X235697916Y-76308838D01*
X235697915Y-76308837D01*
X235697914Y-76308835D01*
X235601425Y-76212346D01*
X235571175Y-76162983D01*
X235566633Y-76105267D01*
X235588788Y-76051780D01*
X235632811Y-76014180D01*
X235689106Y-76000665D01*
X257339363Y-76000665D01*
X257401363Y-76017278D01*
X257446750Y-76062665D01*
X257463363Y-76124665D01*
X257463363Y-130855665D01*
X257446750Y-130917665D01*
X257401363Y-130963052D01*
X257339363Y-130979665D01*
X179748363Y-130979665D01*
X179686363Y-130963052D01*
X179640976Y-130917665D01*
X179624363Y-130855665D01*
X179624363Y-76124665D01*
X179640976Y-76062665D01*
X179686363Y-76017278D01*
X179748363Y-76000665D01*
X198194791Y-76000665D01*
X198259581Y-76018938D01*
G37*
%TD.AperFunction*%
%TA.AperFunction,Conductor*%
G36*
X192021219Y-119740104D02*
G01*
X192061447Y-119766984D01*
X195292447Y-122997984D01*
X195322697Y-123047347D01*
X195327239Y-123105063D01*
X195305084Y-123158550D01*
X195261061Y-123196150D01*
X195204766Y-123209665D01*
X194713961Y-123209665D01*
X194666508Y-123200226D01*
X194626280Y-123173346D01*
X192778181Y-121325248D01*
X192751301Y-121285020D01*
X192741862Y-121237567D01*
X192741862Y-121048961D01*
X192738939Y-121011805D01*
X192695321Y-120861674D01*
X192692733Y-120852765D01*
X192608426Y-120710211D01*
X192608425Y-120710209D01*
X192491318Y-120593102D01*
X192348762Y-120508794D01*
X192189723Y-120462589D01*
X192174859Y-120461419D01*
X192152566Y-120459665D01*
X192152563Y-120459665D01*
X191595158Y-120459665D01*
X191558003Y-120462588D01*
X191398964Y-120508794D01*
X191368991Y-120526520D01*
X191305871Y-120543787D01*
X191242751Y-120526520D01*
X191213559Y-120509256D01*
X191206031Y-120507069D01*
X191151580Y-120474285D01*
X191120525Y-120418830D01*
X191121025Y-120355273D01*
X191152947Y-120300315D01*
X191686279Y-119766983D01*
X191726507Y-119740104D01*
X191773960Y-119730665D01*
X191973766Y-119730665D01*
X192021219Y-119740104D01*
G37*
%TD.AperFunction*%
%TA.AperFunction,Conductor*%
G36*
X197057778Y-116806817D02*
G01*
X197103031Y-116851066D01*
X197120552Y-116911883D01*
X197105777Y-116973425D01*
X197062555Y-117019658D01*
X197048610Y-117028421D01*
X196959598Y-117084350D01*
X196832048Y-117211900D01*
X196807858Y-117250399D01*
X196736074Y-117364643D01*
X196726549Y-117391865D01*
X196676494Y-117534913D01*
X196656297Y-117714165D01*
X196676494Y-117893416D01*
X196676494Y-117893418D01*
X196676495Y-117893420D01*
X196736074Y-118063687D01*
X196783711Y-118139500D01*
X196832048Y-118216429D01*
X196959598Y-118343979D01*
X196959600Y-118343980D01*
X196959601Y-118343981D01*
X197112341Y-118439954D01*
X197282608Y-118499533D01*
X197461863Y-118519730D01*
X197641118Y-118499533D01*
X197811385Y-118439954D01*
X197883626Y-118394561D01*
X197923130Y-118378414D01*
X197965771Y-118376619D01*
X198035863Y-118385847D01*
X198067165Y-118381725D01*
X198083350Y-118380665D01*
X199373893Y-118380665D01*
X199438681Y-118398937D01*
X199484376Y-118448367D01*
X199488096Y-118467065D01*
X199500205Y-118480165D01*
X199765685Y-118480165D01*
X199828806Y-118497433D01*
X199887102Y-118531909D01*
X200044927Y-118577762D01*
X200044931Y-118577763D01*
X200081806Y-118580665D01*
X201238192Y-118580665D01*
X201238194Y-118580665D01*
X201275069Y-118577763D01*
X201432898Y-118531909D01*
X201491193Y-118497433D01*
X201554315Y-118480165D01*
X202040685Y-118480165D01*
X202103806Y-118497433D01*
X202162102Y-118531909D01*
X202319927Y-118577762D01*
X202319931Y-118577763D01*
X202356806Y-118580665D01*
X203061000Y-118580665D01*
X203123000Y-118597278D01*
X203168387Y-118642665D01*
X203185000Y-118704665D01*
X203185000Y-118755665D01*
X203168387Y-118817665D01*
X203123000Y-118863052D01*
X203061000Y-118879665D01*
X202356806Y-118879665D01*
X202344514Y-118880632D01*
X202319927Y-118882567D01*
X202162102Y-118928420D01*
X202103806Y-118962897D01*
X202040685Y-118980165D01*
X201554315Y-118980165D01*
X201491194Y-118962897D01*
X201432897Y-118928420D01*
X201275072Y-118882567D01*
X201252943Y-118880825D01*
X201238194Y-118879665D01*
X200081806Y-118879665D01*
X200069514Y-118880632D01*
X200044927Y-118882567D01*
X199887102Y-118928420D01*
X199828806Y-118962897D01*
X199765685Y-118980165D01*
X199500204Y-118980165D01*
X199500400Y-118982657D01*
X199546217Y-119140360D01*
X199546923Y-119141554D01*
X199564190Y-119204673D01*
X199546924Y-119267792D01*
X199545755Y-119269767D01*
X199499902Y-119427592D01*
X199497000Y-119464473D01*
X199497000Y-119800745D01*
X199487561Y-119848198D01*
X199460681Y-119888426D01*
X197865260Y-121483846D01*
X197825032Y-121510726D01*
X197777579Y-121520165D01*
X197203863Y-121520165D01*
X197203863Y-122093881D01*
X197194424Y-122141334D01*
X197167544Y-122181562D01*
X196758700Y-122590405D01*
X196703112Y-122622499D01*
X196638925Y-122622499D01*
X196583338Y-122590405D01*
X196233353Y-122240420D01*
X196201429Y-122185459D01*
X196200930Y-122121901D01*
X196231987Y-122066445D01*
X196286438Y-122033663D01*
X196293763Y-122031535D01*
X196323733Y-122013810D01*
X196386853Y-121996542D01*
X196449975Y-122013810D01*
X196479164Y-122031072D01*
X196638080Y-122077242D01*
X196675215Y-122080165D01*
X196703863Y-122080165D01*
X196703863Y-120460165D01*
X197203863Y-120460165D01*
X197203863Y-121020165D01*
X197819093Y-121020165D01*
X197818441Y-121011885D01*
X197772270Y-120852966D01*
X197688027Y-120710519D01*
X197571008Y-120593500D01*
X197428561Y-120509257D01*
X197269645Y-120463087D01*
X197232511Y-120460165D01*
X197203863Y-120460165D01*
X196703863Y-120460165D01*
X196675215Y-120460165D01*
X196638080Y-120463087D01*
X196479164Y-120509257D01*
X196449972Y-120526521D01*
X196386852Y-120543787D01*
X196323733Y-120526519D01*
X196293762Y-120508794D01*
X196134723Y-120462589D01*
X196119859Y-120461419D01*
X196097566Y-120459665D01*
X196097563Y-120459665D01*
X195908961Y-120459665D01*
X195861508Y-120450226D01*
X195821280Y-120423346D01*
X193737062Y-118339129D01*
X193726366Y-118326933D01*
X193707144Y-118301881D01*
X193581703Y-118205628D01*
X193435625Y-118145121D01*
X193435624Y-118145120D01*
X193392929Y-118139500D01*
X193278863Y-118124482D01*
X193251026Y-118128147D01*
X193247560Y-118128604D01*
X193231376Y-118129665D01*
X189381350Y-118129665D01*
X189365165Y-118128604D01*
X189361239Y-118128087D01*
X189333862Y-118124482D01*
X189177100Y-118145121D01*
X189031024Y-118205627D01*
X189016947Y-118216429D01*
X188956355Y-118262923D01*
X188905580Y-118301882D01*
X188886357Y-118326934D01*
X188875664Y-118339126D01*
X186581447Y-120633346D01*
X186541219Y-120660226D01*
X186493766Y-120669665D01*
X186002959Y-120669665D01*
X185946666Y-120656151D01*
X185902644Y-120618554D01*
X185880487Y-120565070D01*
X185885025Y-120507356D01*
X185915267Y-120457994D01*
X185920305Y-120452956D01*
X185932486Y-120442274D01*
X185957545Y-120423047D01*
X186053799Y-120297606D01*
X186114307Y-120151527D01*
X186119979Y-120108447D01*
X186134945Y-119994765D01*
X186130823Y-119963462D01*
X186129763Y-119947278D01*
X186129763Y-119812955D01*
X186139775Y-119764142D01*
X186168194Y-119723212D01*
X186210427Y-119696774D01*
X186271594Y-119673961D01*
X186386809Y-119587711D01*
X186473059Y-119472496D01*
X186495872Y-119411329D01*
X186522310Y-119369096D01*
X186563240Y-119340677D01*
X186612053Y-119330665D01*
X186746376Y-119330665D01*
X186762560Y-119331725D01*
X186793863Y-119335847D01*
X186950625Y-119315209D01*
X187096704Y-119254701D01*
X187116277Y-119239682D01*
X187222145Y-119158447D01*
X187241372Y-119133388D01*
X187252053Y-119121208D01*
X189546279Y-116826984D01*
X189586508Y-116800104D01*
X189633961Y-116790665D01*
X196996583Y-116790665D01*
X197057778Y-116806817D01*
G37*
%TD.AperFunction*%
%TA.AperFunction,Conductor*%
G36*
X213943306Y-119192433D02*
G01*
X213987522Y-119230845D01*
X214009174Y-119285266D01*
X214003433Y-119343555D01*
X213940031Y-119524744D01*
X213919834Y-119703999D01*
X213940031Y-119883251D01*
X213940031Y-119883253D01*
X213940032Y-119883255D01*
X213999611Y-120053522D01*
X214025808Y-120095214D01*
X214095585Y-120206264D01*
X214223135Y-120333814D01*
X214223137Y-120333815D01*
X214223138Y-120333816D01*
X214375878Y-120429789D01*
X214546145Y-120489368D01*
X214725400Y-120509565D01*
X214904655Y-120489368D01*
X215074922Y-120429789D01*
X215159710Y-120376512D01*
X215213055Y-120358151D01*
X215269015Y-120365326D01*
X215292512Y-120374090D01*
X215292515Y-120374090D01*
X215292517Y-120374091D01*
X215352127Y-120380500D01*
X216447872Y-120380499D01*
X216507483Y-120374091D01*
X216642331Y-120323796D01*
X216695676Y-120283860D01*
X216754531Y-120260095D01*
X216817438Y-120268567D01*
X216837721Y-120276968D01*
X216870738Y-120290644D01*
X216988139Y-120306100D01*
X217027499Y-120311282D01*
X217027499Y-120311281D01*
X217027500Y-120311282D01*
X217058802Y-120307160D01*
X217074987Y-120306100D01*
X217306259Y-120306100D01*
X217353712Y-120315539D01*
X217374288Y-120329287D01*
X217375108Y-120327983D01*
X217386938Y-120335416D01*
X217539678Y-120431389D01*
X217709945Y-120490968D01*
X217844386Y-120506115D01*
X217889199Y-120511165D01*
X217889199Y-120511164D01*
X217889200Y-120511165D01*
X218068455Y-120490968D01*
X218238722Y-120431389D01*
X218391462Y-120335416D01*
X218519016Y-120207862D01*
X218614989Y-120055122D01*
X218674568Y-119884855D01*
X218694765Y-119705600D01*
X218688913Y-119653665D01*
X218674568Y-119526344D01*
X218610607Y-119343555D01*
X218604866Y-119285266D01*
X218626518Y-119230845D01*
X218670734Y-119192433D01*
X218727648Y-119178600D01*
X222616706Y-119178600D01*
X222678143Y-119194890D01*
X222723438Y-119239479D01*
X222740182Y-119267792D01*
X222754419Y-119291865D01*
X222870635Y-119408081D01*
X222930228Y-119443324D01*
X223012102Y-119491744D01*
X223168065Y-119537056D01*
X223222518Y-119569839D01*
X223253574Y-119625295D01*
X223253075Y-119688853D01*
X223221151Y-119743813D01*
X223040865Y-119924098D01*
X223028674Y-119934790D01*
X223003621Y-119954015D01*
X223003619Y-119954016D01*
X223003618Y-119954018D01*
X222920380Y-120062496D01*
X222914959Y-120069561D01*
X222907362Y-120079461D01*
X222846856Y-120225537D01*
X222826217Y-120382299D01*
X222830339Y-120413601D01*
X222831400Y-120429787D01*
X222831400Y-120953713D01*
X222830339Y-120969899D01*
X222826217Y-121001200D01*
X222829136Y-121023365D01*
X222831400Y-121040561D01*
X222838371Y-121093516D01*
X222827815Y-121162104D01*
X222782058Y-121214280D01*
X222715433Y-121233700D01*
X219022941Y-121233700D01*
X218975488Y-121224261D01*
X218954911Y-121210512D01*
X218954092Y-121211817D01*
X218848800Y-121145658D01*
X218789522Y-121108411D01*
X218619255Y-121048832D01*
X218619253Y-121048831D01*
X218619251Y-121048831D01*
X218440000Y-121028634D01*
X218260748Y-121048831D01*
X218260745Y-121048831D01*
X218260745Y-121048832D01*
X218090478Y-121108411D01*
X218090476Y-121108411D01*
X218090476Y-121108412D01*
X217937735Y-121204385D01*
X217810185Y-121331935D01*
X217739673Y-121444155D01*
X217714211Y-121484678D01*
X217668812Y-121614423D01*
X217654631Y-121654949D01*
X217638999Y-121793684D01*
X217618232Y-121849652D01*
X217573720Y-121889430D01*
X217515779Y-121903800D01*
X208530097Y-121903800D01*
X208482644Y-121894361D01*
X208442416Y-121867481D01*
X207641281Y-121066346D01*
X207611031Y-121016983D01*
X207606489Y-120959267D01*
X207628644Y-120905780D01*
X207672667Y-120868180D01*
X207728962Y-120854665D01*
X210772513Y-120854665D01*
X210788697Y-120855725D01*
X210820000Y-120859847D01*
X210976762Y-120839209D01*
X211122841Y-120778701D01*
X211248282Y-120682447D01*
X211344536Y-120557006D01*
X211405044Y-120410927D01*
X211420500Y-120293526D01*
X211425682Y-120254165D01*
X211421560Y-120222862D01*
X211420500Y-120206678D01*
X211420500Y-119634932D01*
X211431755Y-119583313D01*
X211463476Y-119541065D01*
X211509905Y-119515856D01*
X211530870Y-119509765D01*
X211592898Y-119491744D01*
X211734365Y-119408081D01*
X211850581Y-119291865D01*
X211881561Y-119239479D01*
X211926857Y-119194890D01*
X211988294Y-119178600D01*
X213886392Y-119178600D01*
X213943306Y-119192433D01*
G37*
%TD.AperFunction*%
%TA.AperFunction,Conductor*%
G36*
X207320000Y-116807278D02*
G01*
X207365387Y-116852665D01*
X207382000Y-116914665D01*
X207382000Y-117055694D01*
X207382690Y-117064463D01*
X207384902Y-117092572D01*
X207430755Y-117250399D01*
X207431922Y-117252371D01*
X207449189Y-117315486D01*
X207431927Y-117378602D01*
X207431218Y-117379800D01*
X207385400Y-117537507D01*
X207385204Y-117539999D01*
X207385205Y-117540000D01*
X207650685Y-117540000D01*
X207713806Y-117557268D01*
X207772102Y-117591744D01*
X207929927Y-117637597D01*
X207929931Y-117637598D01*
X207966806Y-117640500D01*
X208929363Y-117640500D01*
X208991363Y-117657113D01*
X209036750Y-117702500D01*
X209053363Y-117764500D01*
X209053363Y-117815500D01*
X209036750Y-117877500D01*
X208991363Y-117922887D01*
X208929363Y-117939500D01*
X207966806Y-117939500D01*
X207954514Y-117940467D01*
X207929927Y-117942402D01*
X207789689Y-117983146D01*
X207751756Y-117988025D01*
X207714139Y-117981112D01*
X207706424Y-117978412D01*
X207706422Y-117978411D01*
X207536155Y-117918832D01*
X207536153Y-117918831D01*
X207536151Y-117918831D01*
X207356900Y-117898634D01*
X207177648Y-117918831D01*
X207177645Y-117918831D01*
X207177645Y-117918832D01*
X207007378Y-117978411D01*
X207007376Y-117978411D01*
X207007376Y-117978412D01*
X206854635Y-118074385D01*
X206727085Y-118201935D01*
X206637832Y-118343981D01*
X206631111Y-118354678D01*
X206571786Y-118524221D01*
X206571531Y-118524949D01*
X206566169Y-118572538D01*
X206539896Y-118635967D01*
X206483903Y-118675696D01*
X206415356Y-118679545D01*
X206355268Y-118646335D01*
X206129297Y-118420364D01*
X206118601Y-118408168D01*
X206118471Y-118407999D01*
X206109021Y-118395682D01*
X206099379Y-118383116D01*
X205973938Y-118286863D01*
X205827860Y-118226356D01*
X205823773Y-118225818D01*
X205802391Y-118223003D01*
X205671098Y-118205717D01*
X205643261Y-118209382D01*
X205639795Y-118209839D01*
X205623611Y-118210900D01*
X204615185Y-118210900D01*
X204567732Y-118201461D01*
X204527504Y-118174581D01*
X204500624Y-118134353D01*
X204490750Y-118110516D01*
X204476836Y-118076924D01*
X204404750Y-117982979D01*
X204404748Y-117982977D01*
X204401244Y-117978411D01*
X204399802Y-117976531D01*
X204380582Y-117951483D01*
X204368747Y-117942402D01*
X204355533Y-117932262D01*
X204343338Y-117921567D01*
X204134319Y-117712548D01*
X204107439Y-117672320D01*
X204098000Y-117624867D01*
X204098000Y-117564473D01*
X204095878Y-117537511D01*
X204095098Y-117527596D01*
X204049244Y-117369767D01*
X203965581Y-117228300D01*
X203849365Y-117112084D01*
X203707898Y-117028421D01*
X203707897Y-117028420D01*
X203696021Y-117021397D01*
X203651239Y-116975763D01*
X203635144Y-116913886D01*
X203652015Y-116852216D01*
X203697367Y-116807148D01*
X203759142Y-116790665D01*
X207258000Y-116790665D01*
X207320000Y-116807278D01*
G37*
%TD.AperFunction*%
%TA.AperFunction,Conductor*%
G36*
X223454354Y-113061315D02*
G01*
X223498377Y-113098915D01*
X223520532Y-113152402D01*
X223515990Y-113210118D01*
X223485740Y-113259481D01*
X223402485Y-113342735D01*
X223320831Y-113472688D01*
X223306511Y-113495478D01*
X223278961Y-113574211D01*
X223246931Y-113665748D01*
X223226734Y-113845000D01*
X223246931Y-114024251D01*
X223246931Y-114024253D01*
X223246932Y-114024255D01*
X223306511Y-114194522D01*
X223335510Y-114240673D01*
X223360238Y-114280028D01*
X223379195Y-114342522D01*
X223363772Y-114405981D01*
X223318245Y-114452803D01*
X223255244Y-114470000D01*
X220312497Y-114470000D01*
X220265044Y-114460561D01*
X220224816Y-114433681D01*
X219700099Y-113908964D01*
X219689403Y-113896768D01*
X219670181Y-113871716D01*
X219544742Y-113775464D01*
X219500328Y-113757067D01*
X219458549Y-113728608D01*
X219431600Y-113685839D01*
X219383796Y-113557669D01*
X219297546Y-113442454D01*
X219182331Y-113356204D01*
X219047483Y-113305909D01*
X218987873Y-113299500D01*
X218987869Y-113299500D01*
X217892130Y-113299500D01*
X217832515Y-113305909D01*
X217697669Y-113356204D01*
X217582451Y-113442455D01*
X217559819Y-113472688D01*
X217520720Y-113506801D01*
X217471085Y-113521927D01*
X217419605Y-113515419D01*
X217417354Y-113514631D01*
X217238100Y-113494434D01*
X217058848Y-113514631D01*
X217058845Y-113514631D01*
X217058845Y-113514632D01*
X216888578Y-113574211D01*
X216888576Y-113574211D01*
X216888576Y-113574212D01*
X216735835Y-113670185D01*
X216608285Y-113797735D01*
X216512312Y-113950476D01*
X216512311Y-113950478D01*
X216477531Y-114049873D01*
X216452731Y-114120748D01*
X216432534Y-114299999D01*
X216452731Y-114479251D01*
X216452731Y-114479253D01*
X216452732Y-114479255D01*
X216512311Y-114649522D01*
X216569079Y-114739867D01*
X216608285Y-114802264D01*
X216735835Y-114929814D01*
X216735837Y-114929815D01*
X216735838Y-114929816D01*
X216888578Y-115025789D01*
X217058845Y-115085368D01*
X217238100Y-115105565D01*
X217417355Y-115085368D01*
X217419597Y-115084583D01*
X217471076Y-115078070D01*
X217520717Y-115093196D01*
X217559820Y-115127311D01*
X217582454Y-115157546D01*
X217697669Y-115243796D01*
X217832517Y-115294091D01*
X217892127Y-115300500D01*
X218517060Y-115300499D01*
X218573353Y-115314014D01*
X218617376Y-115351613D01*
X218639532Y-115405100D01*
X218634991Y-115462815D01*
X218604742Y-115512179D01*
X218587983Y-115528937D01*
X218532244Y-115617647D01*
X218492011Y-115681678D01*
X218459146Y-115775602D01*
X218432431Y-115851948D01*
X218412234Y-116031200D01*
X218432431Y-116210451D01*
X218432431Y-116210453D01*
X218432432Y-116210455D01*
X218492011Y-116380722D01*
X218530917Y-116442641D01*
X218587985Y-116533464D01*
X218715535Y-116661014D01*
X218715537Y-116661015D01*
X218715538Y-116661016D01*
X218868278Y-116756989D01*
X219038545Y-116816568D01*
X219217800Y-116836765D01*
X219397055Y-116816568D01*
X219567322Y-116756989D01*
X219720062Y-116661016D01*
X219720061Y-116661016D01*
X219731892Y-116653583D01*
X219732711Y-116654887D01*
X219753288Y-116641139D01*
X219800741Y-116631700D01*
X222498000Y-116631700D01*
X222560000Y-116648313D01*
X222605387Y-116693700D01*
X222622000Y-116755700D01*
X222622000Y-117055694D01*
X222622690Y-117064463D01*
X222624902Y-117092572D01*
X222670755Y-117250399D01*
X222671922Y-117252371D01*
X222689189Y-117315486D01*
X222671927Y-117378602D01*
X222671218Y-117379800D01*
X222625400Y-117537507D01*
X222625204Y-117539999D01*
X222625205Y-117540000D01*
X222890685Y-117540000D01*
X222953806Y-117557268D01*
X223012102Y-117591744D01*
X223169927Y-117637597D01*
X223169931Y-117637598D01*
X223206806Y-117640500D01*
X223206808Y-117640500D01*
X223911000Y-117640500D01*
X223973000Y-117657113D01*
X224018387Y-117702500D01*
X224035000Y-117764500D01*
X224035000Y-117815500D01*
X224018387Y-117877500D01*
X223973000Y-117922887D01*
X223911000Y-117939500D01*
X223206806Y-117939500D01*
X223188368Y-117940951D01*
X223169929Y-117942402D01*
X223091706Y-117965128D01*
X223065727Y-117972676D01*
X223031133Y-117977600D01*
X211834761Y-117977600D01*
X211573867Y-117977600D01*
X211539272Y-117972676D01*
X211466326Y-117951483D01*
X211435070Y-117942402D01*
X211422777Y-117941434D01*
X211398194Y-117939500D01*
X211398192Y-117939500D01*
X210571201Y-117939500D01*
X210523748Y-117930061D01*
X210483520Y-117903181D01*
X210458020Y-117877681D01*
X210425926Y-117822094D01*
X210425926Y-117757906D01*
X210458020Y-117702319D01*
X210483520Y-117676819D01*
X210523748Y-117649939D01*
X210571201Y-117640500D01*
X211398192Y-117640500D01*
X211398194Y-117640500D01*
X211435069Y-117637598D01*
X211592898Y-117591744D01*
X211651193Y-117557268D01*
X211714315Y-117540000D01*
X211979795Y-117540000D01*
X211979795Y-117539999D01*
X211979599Y-117537511D01*
X211933780Y-117379800D01*
X211933077Y-117378610D01*
X211915810Y-117315488D01*
X211933080Y-117252366D01*
X211934244Y-117250398D01*
X211980098Y-117092569D01*
X211983000Y-117055694D01*
X211983000Y-116624306D01*
X211980329Y-116590373D01*
X211987611Y-116537730D01*
X212016264Y-116492969D01*
X215425115Y-113084119D01*
X215465344Y-113057239D01*
X215512797Y-113047800D01*
X223398059Y-113047800D01*
X223454354Y-113061315D01*
G37*
%TD.AperFunction*%
%TA.AperFunction,Conductor*%
G36*
X212824512Y-104967839D02*
G01*
X212845088Y-104981587D01*
X212845908Y-104980283D01*
X212857738Y-104987716D01*
X213010478Y-105083689D01*
X213180745Y-105143268D01*
X213360000Y-105163465D01*
X213539255Y-105143268D01*
X213709522Y-105083689D01*
X213744530Y-105061691D01*
X213807021Y-105042735D01*
X213870480Y-105058158D01*
X213917302Y-105103684D01*
X213934500Y-105166686D01*
X213934500Y-105730008D01*
X213945000Y-105832796D01*
X214000186Y-105999334D01*
X214092288Y-106148657D01*
X214216342Y-106272711D01*
X214228427Y-106280165D01*
X214365666Y-106364814D01*
X214477017Y-106401712D01*
X214532202Y-106419999D01*
X214542702Y-106421071D01*
X214634991Y-106430500D01*
X216735008Y-106430499D01*
X216837797Y-106419999D01*
X217004334Y-106364814D01*
X217153656Y-106272712D01*
X217277712Y-106148656D01*
X217298009Y-106115748D01*
X217347493Y-106070238D01*
X217413456Y-106057241D01*
X217476506Y-106080580D01*
X217518109Y-106133392D01*
X217524964Y-106149941D01*
X217621216Y-106275381D01*
X217646268Y-106294603D01*
X217658464Y-106305299D01*
X222864199Y-111511034D01*
X222874894Y-111523229D01*
X222894117Y-111548282D01*
X222985344Y-111618282D01*
X222985347Y-111618284D01*
X222993351Y-111624426D01*
X223031143Y-111672367D01*
X223041480Y-111732531D01*
X223021856Y-111790336D01*
X222977029Y-111831774D01*
X222917862Y-111846800D01*
X215260187Y-111846800D01*
X215244002Y-111845739D01*
X215240076Y-111845222D01*
X215212699Y-111841617D01*
X215177441Y-111846259D01*
X215173339Y-111846800D01*
X215055937Y-111862256D01*
X214909859Y-111922763D01*
X214784416Y-112019018D01*
X214765194Y-112044070D01*
X214754500Y-112056264D01*
X210807584Y-116003181D01*
X210767356Y-116030061D01*
X210719903Y-116039500D01*
X210241806Y-116039500D01*
X210229514Y-116040467D01*
X210204927Y-116042402D01*
X210047102Y-116088255D01*
X209905634Y-116171919D01*
X209789419Y-116288134D01*
X209789231Y-116288453D01*
X209780902Y-116296651D01*
X209778342Y-116299212D01*
X209778321Y-116299191D01*
X209743936Y-116333041D01*
X209682500Y-116349330D01*
X209621064Y-116333041D01*
X209586678Y-116299191D01*
X209586658Y-116299212D01*
X209584097Y-116296651D01*
X209575769Y-116288453D01*
X209575580Y-116288134D01*
X209459365Y-116171919D01*
X209317897Y-116088255D01*
X209234905Y-116064144D01*
X209188476Y-116038935D01*
X209156755Y-115996687D01*
X209145500Y-115945068D01*
X209145500Y-111145287D01*
X209146561Y-111129101D01*
X209150682Y-111097799D01*
X209147964Y-111077160D01*
X209130044Y-110941038D01*
X209069536Y-110794959D01*
X209059208Y-110781499D01*
X209035467Y-110727545D01*
X209039322Y-110668725D01*
X209069900Y-110618333D01*
X210121043Y-109567190D01*
X210133223Y-109556509D01*
X210158282Y-109537282D01*
X210254536Y-109411841D01*
X210315044Y-109265762D01*
X210321558Y-109216284D01*
X210335683Y-109109000D01*
X210331560Y-109077691D01*
X210330500Y-109061506D01*
X210330500Y-108013851D01*
X210339939Y-107966398D01*
X210366819Y-107926169D01*
X210407043Y-107899291D01*
X210482824Y-107867903D01*
X210587546Y-107787546D01*
X210667903Y-107682824D01*
X210718417Y-107560871D01*
X210735647Y-107430000D01*
X210735647Y-105930000D01*
X210718417Y-105799129D01*
X210667903Y-105677177D01*
X210587546Y-105572454D01*
X210587545Y-105572453D01*
X210482824Y-105492096D01*
X210360871Y-105441583D01*
X210230001Y-105424353D01*
X210230000Y-105424353D01*
X210228644Y-105424353D01*
X210226996Y-105423957D01*
X210221942Y-105423292D01*
X210222011Y-105422760D01*
X210172349Y-105410838D01*
X210128326Y-105373238D01*
X210106171Y-105319751D01*
X210110713Y-105262035D01*
X210140963Y-105212672D01*
X210358916Y-104994719D01*
X210399144Y-104967839D01*
X210446597Y-104958400D01*
X212777059Y-104958400D01*
X212824512Y-104967839D01*
G37*
%TD.AperFunction*%
%TA.AperFunction,Conductor*%
G36*
X221882356Y-105639939D02*
G01*
X221922584Y-105666819D01*
X225128733Y-108872968D01*
X225157387Y-108917730D01*
X225164670Y-108970377D01*
X225162000Y-109004308D01*
X225162000Y-109435692D01*
X225164902Y-109472572D01*
X225210755Y-109630399D01*
X225211922Y-109632371D01*
X225229189Y-109695486D01*
X225211927Y-109758602D01*
X225211218Y-109759800D01*
X225165400Y-109917507D01*
X225165204Y-109919999D01*
X225165205Y-109920000D01*
X225430685Y-109920000D01*
X225493806Y-109937268D01*
X225552102Y-109971744D01*
X225709927Y-110017597D01*
X225709931Y-110017598D01*
X225746806Y-110020500D01*
X225746808Y-110020500D01*
X226451000Y-110020500D01*
X226513000Y-110037113D01*
X226558387Y-110082500D01*
X226575000Y-110144500D01*
X226575000Y-110195500D01*
X226558387Y-110257500D01*
X226513000Y-110302887D01*
X226451000Y-110319500D01*
X225746806Y-110319500D01*
X225734514Y-110320467D01*
X225709927Y-110322402D01*
X225552102Y-110368255D01*
X225493806Y-110402732D01*
X225430685Y-110420000D01*
X225165205Y-110420000D01*
X225153096Y-110433099D01*
X225149376Y-110451798D01*
X225103681Y-110501228D01*
X225038893Y-110519500D01*
X223622497Y-110519500D01*
X223575044Y-110510061D01*
X223534816Y-110483181D01*
X219693815Y-106642180D01*
X219663565Y-106592817D01*
X219659023Y-106535101D01*
X219681178Y-106481614D01*
X219725201Y-106444014D01*
X219781496Y-106430499D01*
X220735009Y-106430499D01*
X220820949Y-106421720D01*
X220837797Y-106419999D01*
X221004334Y-106364814D01*
X221153656Y-106272712D01*
X221277712Y-106148656D01*
X221369814Y-105999334D01*
X221424999Y-105832797D01*
X221434285Y-105741896D01*
X221454708Y-105685360D01*
X221499322Y-105645071D01*
X221557643Y-105630500D01*
X221834903Y-105630500D01*
X221882356Y-105639939D01*
G37*
%TD.AperFunction*%
%TA.AperFunction,Conductor*%
G36*
X228439998Y-78456015D02*
G01*
X228484021Y-78493615D01*
X228506176Y-78547102D01*
X228501634Y-78604818D01*
X228471384Y-78654181D01*
X225807484Y-81318081D01*
X225767256Y-81344961D01*
X225719803Y-81354400D01*
X224822594Y-81354400D01*
X224806408Y-81353339D01*
X224775098Y-81349216D01*
X224604531Y-81371672D01*
X224591625Y-81380920D01*
X224472257Y-81430364D01*
X224346816Y-81526618D01*
X224327594Y-81551670D01*
X224316900Y-81563864D01*
X224107582Y-81773181D01*
X224067354Y-81800061D01*
X224019902Y-81809500D01*
X223849115Y-81809500D01*
X223782567Y-81815547D01*
X223629432Y-81863266D01*
X223492162Y-81946248D01*
X223378748Y-82059662D01*
X223295765Y-82196933D01*
X223248048Y-82350065D01*
X223242000Y-82416618D01*
X223242000Y-82843379D01*
X223242804Y-82852221D01*
X223235472Y-82906828D01*
X223205208Y-82952868D01*
X223157985Y-82981252D01*
X223103127Y-82986376D01*
X223076100Y-82982817D01*
X223044585Y-82986967D01*
X223036739Y-82988000D01*
X222919337Y-83003456D01*
X222773259Y-83063963D01*
X222647816Y-83160218D01*
X222628594Y-83185270D01*
X222617900Y-83197464D01*
X217839814Y-87975549D01*
X217783105Y-88007938D01*
X217717806Y-88007022D01*
X217662027Y-87973056D01*
X217631242Y-87915461D01*
X217624980Y-87888026D01*
X217526418Y-87636897D01*
X217391525Y-87403254D01*
X217337831Y-87335923D01*
X215987807Y-88685947D01*
X215932220Y-88718041D01*
X215868032Y-88718041D01*
X215812445Y-88685947D01*
X214462422Y-87335924D01*
X214408725Y-87403258D01*
X214273835Y-87636897D01*
X214175273Y-87888026D01*
X214115240Y-88151049D01*
X214095079Y-88420076D01*
X214114172Y-88674856D01*
X214104173Y-88733709D01*
X214067832Y-88781069D01*
X214013572Y-88805960D01*
X213953969Y-88802613D01*
X213902838Y-88771803D01*
X213160099Y-88029064D01*
X213149403Y-88016868D01*
X213130181Y-87991816D01*
X213004742Y-87895564D01*
X212977070Y-87884102D01*
X212936842Y-87857222D01*
X212909963Y-87816993D01*
X212900524Y-87769541D01*
X212900524Y-87072206D01*
X212896969Y-87039137D01*
X212894116Y-87012593D01*
X212882471Y-86981372D01*
X214814975Y-86981372D01*
X215900127Y-88066523D01*
X215900128Y-88066523D01*
X216985277Y-86981372D01*
X216802646Y-86856856D01*
X216559587Y-86739805D01*
X216301787Y-86660284D01*
X216035018Y-86620076D01*
X215765236Y-86620076D01*
X215498466Y-86660284D01*
X215240669Y-86739805D01*
X214997603Y-86856859D01*
X214814975Y-86981372D01*
X212882471Y-86981372D01*
X212843821Y-86877745D01*
X212757571Y-86762530D01*
X212642356Y-86676280D01*
X212507508Y-86625985D01*
X212447898Y-86619576D01*
X212447894Y-86619576D01*
X209752155Y-86619576D01*
X209692540Y-86625985D01*
X209557694Y-86676280D01*
X209442479Y-86762530D01*
X209356229Y-86877744D01*
X209305934Y-87012592D01*
X209299525Y-87072206D01*
X209299525Y-89767945D01*
X209305934Y-89827560D01*
X209311990Y-89843796D01*
X209356229Y-89962407D01*
X209442479Y-90077622D01*
X209557694Y-90163872D01*
X209692542Y-90214167D01*
X209752152Y-90220576D01*
X212447897Y-90220575D01*
X212507508Y-90214167D01*
X212642356Y-90163872D01*
X212757571Y-90077622D01*
X212843821Y-89962407D01*
X212894116Y-89827559D01*
X212900525Y-89767949D01*
X212900524Y-89767333D01*
X212900644Y-89766837D01*
X212901235Y-89761341D01*
X212901944Y-89761417D01*
X212914033Y-89711038D01*
X212951630Y-89667009D01*
X213005119Y-89644849D01*
X213062839Y-89649389D01*
X213112205Y-89679640D01*
X214424999Y-90992434D01*
X214435694Y-91004629D01*
X214454917Y-91029682D01*
X214537444Y-91093006D01*
X214580359Y-91125936D01*
X214726438Y-91186444D01*
X214851898Y-91202961D01*
X214883199Y-91207082D01*
X214883199Y-91207081D01*
X214883200Y-91207082D01*
X214914502Y-91202960D01*
X214930687Y-91201900D01*
X215338700Y-91201900D01*
X215400700Y-91218513D01*
X215446087Y-91263900D01*
X215462700Y-91325900D01*
X215462700Y-92438665D01*
X215445432Y-92501786D01*
X215375755Y-92619602D01*
X215329902Y-92777427D01*
X215327000Y-92814308D01*
X215327000Y-93245703D01*
X215327006Y-93245779D01*
X215327000Y-93245809D01*
X215327000Y-93250566D01*
X215326054Y-93250566D01*
X215313870Y-93311799D01*
X215268176Y-93361229D01*
X215203388Y-93379500D01*
X211088997Y-93379500D01*
X211041544Y-93370061D01*
X211001316Y-93343181D01*
X207257264Y-89599129D01*
X207246568Y-89586933D01*
X207227346Y-89561881D01*
X207101905Y-89465628D01*
X206955827Y-89405121D01*
X206838426Y-89389665D01*
X206833845Y-89389062D01*
X206799065Y-89384482D01*
X206771228Y-89388147D01*
X206767762Y-89388604D01*
X206751578Y-89389665D01*
X199178362Y-89389665D01*
X199130909Y-89380226D01*
X199090681Y-89353346D01*
X198114919Y-88377584D01*
X198088039Y-88337356D01*
X198078600Y-88289903D01*
X198078600Y-86909689D01*
X198095213Y-86847689D01*
X198140600Y-86802302D01*
X198202600Y-86785689D01*
X198501458Y-86785689D01*
X198551045Y-86796035D01*
X198592356Y-86825348D01*
X198618498Y-86868731D01*
X198656111Y-86976222D01*
X198684236Y-87020982D01*
X198752085Y-87128964D01*
X198879635Y-87256514D01*
X198879637Y-87256515D01*
X198879638Y-87256516D01*
X199032378Y-87352489D01*
X199202645Y-87412068D01*
X199381900Y-87432265D01*
X199561155Y-87412068D01*
X199731422Y-87352489D01*
X199884162Y-87256516D01*
X200011716Y-87128962D01*
X200107689Y-86976222D01*
X200167268Y-86805955D01*
X200187465Y-86626700D01*
X200167268Y-86447445D01*
X200107689Y-86277178D01*
X200026529Y-86148013D01*
X200004283Y-86112608D01*
X200005587Y-86111788D01*
X199991839Y-86091212D01*
X199982400Y-86043759D01*
X199982400Y-85507687D01*
X199983461Y-85491501D01*
X199987582Y-85460199D01*
X199972898Y-85348665D01*
X199966944Y-85303438D01*
X199906436Y-85157359D01*
X199869839Y-85109665D01*
X199810182Y-85031917D01*
X199684739Y-84935662D01*
X199658176Y-84924659D01*
X199611339Y-84890629D01*
X199585057Y-84839044D01*
X199585058Y-84781149D01*
X199611342Y-84729566D01*
X199658177Y-84695539D01*
X199684741Y-84684536D01*
X199700938Y-84672107D01*
X199727644Y-84651616D01*
X199727645Y-84651614D01*
X199732461Y-84647918D01*
X199768085Y-84628880D01*
X199807941Y-84622300D01*
X200077059Y-84622300D01*
X200124512Y-84631739D01*
X200145088Y-84645487D01*
X200145908Y-84644183D01*
X200157738Y-84651616D01*
X200310478Y-84747589D01*
X200466731Y-84802264D01*
X200513455Y-84831623D01*
X200542816Y-84878348D01*
X200547810Y-84892621D01*
X200643785Y-85045364D01*
X200771335Y-85172914D01*
X200771337Y-85172915D01*
X200771338Y-85172916D01*
X200924078Y-85268889D01*
X201094345Y-85328468D01*
X201273600Y-85348665D01*
X201367116Y-85338129D01*
X201434802Y-85349629D01*
X201485994Y-85395377D01*
X201505000Y-85461349D01*
X201505000Y-86148013D01*
X201503939Y-86164199D01*
X201499817Y-86195500D01*
X201505000Y-86234860D01*
X201505000Y-86234861D01*
X201520456Y-86352262D01*
X201580963Y-86498340D01*
X201677216Y-86623781D01*
X201702268Y-86643003D01*
X201714464Y-86653699D01*
X202099902Y-87039137D01*
X202129047Y-87085252D01*
X202135580Y-87139413D01*
X202134500Y-87149990D01*
X202134500Y-88050008D01*
X202145000Y-88152796D01*
X202200186Y-88319334D01*
X202292288Y-88468657D01*
X202416342Y-88592711D01*
X202416344Y-88592712D01*
X202565666Y-88684814D01*
X202665938Y-88718041D01*
X202732202Y-88739999D01*
X202742703Y-88741071D01*
X202834991Y-88750500D01*
X204185008Y-88750499D01*
X204287797Y-88739999D01*
X204454334Y-88684814D01*
X204603656Y-88592712D01*
X204727712Y-88468656D01*
X204819814Y-88319334D01*
X204874999Y-88152797D01*
X204885500Y-88050009D01*
X204885499Y-87149992D01*
X204874999Y-87047203D01*
X204819814Y-86880666D01*
X204727712Y-86731344D01*
X204727711Y-86731342D01*
X204603657Y-86607288D01*
X204454334Y-86515186D01*
X204287797Y-86460000D01*
X204185009Y-86449500D01*
X203260097Y-86449500D01*
X203212644Y-86440061D01*
X203172416Y-86413181D01*
X202742319Y-85983084D01*
X202715439Y-85942856D01*
X202706000Y-85895403D01*
X202706000Y-85774000D01*
X202722613Y-85712000D01*
X202768000Y-85666613D01*
X202830000Y-85650000D01*
X203260000Y-85650000D01*
X203260000Y-84750000D01*
X203760000Y-84750000D01*
X203760000Y-85649999D01*
X204184979Y-85649999D01*
X204287695Y-85639506D01*
X204454122Y-85584357D01*
X204603345Y-85492316D01*
X204727316Y-85368345D01*
X204819357Y-85219122D01*
X204874506Y-85052696D01*
X204885000Y-84949979D01*
X204885000Y-84750000D01*
X203760000Y-84750000D01*
X203260000Y-84750000D01*
X203260000Y-83350001D01*
X202835021Y-83350001D01*
X202732304Y-83360493D01*
X202552121Y-83420201D01*
X202551279Y-83417661D01*
X202524809Y-83426716D01*
X202470334Y-83420346D01*
X202423936Y-83391101D01*
X202382835Y-83350000D01*
X203760000Y-83350000D01*
X203760000Y-84250000D01*
X204884999Y-84250000D01*
X204884999Y-84050021D01*
X204874506Y-83947304D01*
X204819357Y-83780877D01*
X204727316Y-83631654D01*
X204603345Y-83507683D01*
X204454122Y-83415642D01*
X204287696Y-83360493D01*
X204184979Y-83350000D01*
X203760000Y-83350000D01*
X202382835Y-83350000D01*
X201501799Y-82468964D01*
X201491103Y-82456768D01*
X201471882Y-82431718D01*
X201466154Y-82427323D01*
X201446864Y-82412521D01*
X201405828Y-82356556D01*
X201401289Y-82287307D01*
X201434667Y-82226466D01*
X201923325Y-81737809D01*
X201972682Y-81707563D01*
X202030397Y-81703021D01*
X202083885Y-81725176D01*
X202121485Y-81769199D01*
X202135000Y-81825493D01*
X202135000Y-81979978D01*
X202145493Y-82082695D01*
X202200642Y-82249122D01*
X202292683Y-82398345D01*
X202416654Y-82522316D01*
X202565877Y-82614357D01*
X202732303Y-82669506D01*
X202835021Y-82680000D01*
X203260000Y-82680000D01*
X203260000Y-81780000D01*
X203760000Y-81780000D01*
X203760000Y-82679999D01*
X204184979Y-82679999D01*
X204287695Y-82669506D01*
X204454122Y-82614357D01*
X204603345Y-82522316D01*
X204727316Y-82398345D01*
X204819357Y-82249122D01*
X204874506Y-82082696D01*
X204885000Y-81979979D01*
X204885000Y-81780000D01*
X203760000Y-81780000D01*
X203260000Y-81780000D01*
X203260000Y-81404000D01*
X203276613Y-81342000D01*
X203322000Y-81296613D01*
X203384000Y-81280000D01*
X204884999Y-81280000D01*
X204884999Y-81080021D01*
X204874506Y-80977304D01*
X204819357Y-80810877D01*
X204793895Y-80769596D01*
X204775463Y-80707204D01*
X204791157Y-80644068D01*
X204836655Y-80597566D01*
X204899434Y-80580500D01*
X205544013Y-80580500D01*
X205560197Y-80581560D01*
X205591500Y-80585682D01*
X205748262Y-80565044D01*
X205894341Y-80504536D01*
X205958487Y-80455315D01*
X206019782Y-80408282D01*
X206039009Y-80383223D01*
X206049690Y-80371043D01*
X207499104Y-78921629D01*
X207550322Y-78890794D01*
X207610018Y-78887508D01*
X207664313Y-78912538D01*
X207700584Y-78960065D01*
X207710401Y-79019040D01*
X207694592Y-79219923D01*
X207713740Y-79463227D01*
X207770714Y-79700539D01*
X207864107Y-79926012D01*
X207927832Y-80030000D01*
X207991627Y-80134103D01*
X208150127Y-80319683D01*
X208335707Y-80478183D01*
X208378713Y-80504537D01*
X208543797Y-80605702D01*
X208769270Y-80699095D01*
X208769273Y-80699095D01*
X208769274Y-80699096D01*
X209006584Y-80756070D01*
X209249886Y-80775218D01*
X209493188Y-80756070D01*
X209730498Y-80699096D01*
X209730499Y-80699095D01*
X209730501Y-80699095D01*
X209955974Y-80605702D01*
X210022321Y-80565044D01*
X210164065Y-80478183D01*
X210349645Y-80319683D01*
X210508145Y-80134103D01*
X210635663Y-79926013D01*
X210641810Y-79911170D01*
X210647703Y-79896947D01*
X210674583Y-79856719D01*
X210714811Y-79829839D01*
X210762264Y-79820400D01*
X221037736Y-79820400D01*
X221085189Y-79829839D01*
X221125417Y-79856719D01*
X221152297Y-79896947D01*
X221164337Y-79926014D01*
X221228060Y-80030000D01*
X221291855Y-80134103D01*
X221450355Y-80319683D01*
X221635935Y-80478183D01*
X221678941Y-80504537D01*
X221844025Y-80605702D01*
X222069498Y-80699095D01*
X222069501Y-80699095D01*
X222069502Y-80699096D01*
X222306812Y-80756070D01*
X222550114Y-80775218D01*
X222793416Y-80756070D01*
X223030726Y-80699096D01*
X223030727Y-80699095D01*
X223030729Y-80699095D01*
X223256202Y-80605702D01*
X223322549Y-80565044D01*
X223464293Y-80478183D01*
X223649873Y-80319683D01*
X223808373Y-80134103D01*
X223905277Y-79975969D01*
X223935892Y-79926012D01*
X224029285Y-79700539D01*
X224034523Y-79678723D01*
X224086260Y-79463226D01*
X224105408Y-79219924D01*
X224086260Y-78976622D01*
X224037871Y-78775070D01*
X224029286Y-78739311D01*
X223977361Y-78613953D01*
X223968519Y-78554346D01*
X223988820Y-78497609D01*
X224033469Y-78457142D01*
X224091922Y-78442500D01*
X228383703Y-78442500D01*
X228439998Y-78456015D01*
G37*
%TD.AperFunction*%
%TA.AperFunction,Conductor*%
G36*
X186784221Y-78700104D02*
G01*
X186824449Y-78726984D01*
X188182908Y-80085442D01*
X188182909Y-80085444D01*
X189718481Y-81621016D01*
X189745361Y-81661244D01*
X189754800Y-81708697D01*
X189754800Y-82950813D01*
X189753739Y-82966999D01*
X189749617Y-82998300D01*
X189763870Y-83106551D01*
X189765917Y-83122101D01*
X189767063Y-83130804D01*
X189770256Y-83155064D01*
X189830764Y-83301141D01*
X189927016Y-83426581D01*
X189952068Y-83445803D01*
X189964264Y-83456499D01*
X190408799Y-83901034D01*
X190419494Y-83913229D01*
X190438717Y-83938282D01*
X190505215Y-83989307D01*
X190544324Y-84019316D01*
X190564159Y-84034536D01*
X190630979Y-84062214D01*
X190684522Y-84084392D01*
X190735446Y-84123466D01*
X190760009Y-84182767D01*
X190751631Y-84246405D01*
X190712557Y-84297329D01*
X190602315Y-84381920D01*
X190583090Y-84406974D01*
X190572398Y-84419165D01*
X189918219Y-85073346D01*
X189877991Y-85100226D01*
X189830538Y-85109665D01*
X187577703Y-85109665D01*
X187515422Y-85092889D01*
X187469993Y-85047102D01*
X187453707Y-84984691D01*
X187470971Y-84922544D01*
X187524741Y-84831623D01*
X187555233Y-84780065D01*
X187601439Y-84621023D01*
X187604363Y-84583868D01*
X187604362Y-84026463D01*
X187602907Y-84007973D01*
X187601439Y-83989305D01*
X187555234Y-83830268D01*
X187555233Y-83830266D01*
X187555233Y-83830265D01*
X187537507Y-83800293D01*
X187520240Y-83737173D01*
X187537508Y-83674051D01*
X187554771Y-83644860D01*
X187600940Y-83485947D01*
X187603863Y-83448813D01*
X187603863Y-83420165D01*
X185983863Y-83420165D01*
X185983863Y-83448813D01*
X185986785Y-83485947D01*
X186032955Y-83644862D01*
X186050218Y-83674053D01*
X186067485Y-83737173D01*
X186050218Y-83800293D01*
X186032492Y-83830266D01*
X185986287Y-83989304D01*
X185986287Y-83989307D01*
X185984158Y-84016367D01*
X185983363Y-84026464D01*
X185983363Y-84583869D01*
X185986286Y-84621024D01*
X186023758Y-84750000D01*
X186032493Y-84780065D01*
X186071127Y-84845391D01*
X186116800Y-84922619D01*
X186157043Y-84962862D01*
X186183924Y-85003091D01*
X186193363Y-85050544D01*
X186193363Y-85662678D01*
X186192302Y-85678864D01*
X186188180Y-85710165D01*
X186193363Y-85749525D01*
X186193363Y-85749526D01*
X186208819Y-85866927D01*
X186269326Y-86013005D01*
X186365580Y-86138447D01*
X186491022Y-86234701D01*
X186637101Y-86295209D01*
X186761938Y-86311644D01*
X186793862Y-86315847D01*
X186793862Y-86315846D01*
X186793863Y-86315847D01*
X186825165Y-86311725D01*
X186841350Y-86310665D01*
X190083148Y-86310665D01*
X190099332Y-86311725D01*
X190130635Y-86315847D01*
X190287397Y-86295209D01*
X190433476Y-86234701D01*
X190488859Y-86192204D01*
X190558917Y-86138447D01*
X190578144Y-86113388D01*
X190588825Y-86101208D01*
X191243015Y-85447019D01*
X191283244Y-85420139D01*
X191330697Y-85410700D01*
X191455487Y-85410700D01*
X191517487Y-85427313D01*
X191562874Y-85472700D01*
X191579487Y-85534700D01*
X191579487Y-85542215D01*
X191618745Y-85701493D01*
X191632428Y-85727563D01*
X191646631Y-85785187D01*
X191632428Y-85842812D01*
X191618745Y-85868882D01*
X191591181Y-85980718D01*
X191579487Y-86028162D01*
X191579487Y-86192204D01*
X191581024Y-86198439D01*
X191618744Y-86351479D01*
X191675701Y-86460000D01*
X191694980Y-86496732D01*
X191796106Y-86610880D01*
X191803761Y-86619521D01*
X191865385Y-86662057D01*
X191938764Y-86712707D01*
X192092147Y-86770877D01*
X192214135Y-86785689D01*
X192813635Y-86785689D01*
X192863222Y-86796035D01*
X192904533Y-86825348D01*
X192930675Y-86868732D01*
X192956111Y-86941422D01*
X193000830Y-87012592D01*
X193052085Y-87094164D01*
X193179635Y-87221714D01*
X193179637Y-87221715D01*
X193179638Y-87221716D01*
X193332378Y-87317689D01*
X193502645Y-87377268D01*
X193681900Y-87397465D01*
X193861155Y-87377268D01*
X194031422Y-87317689D01*
X194184162Y-87221716D01*
X194308533Y-87097344D01*
X194358925Y-87066766D01*
X194417745Y-87062911D01*
X194471699Y-87086651D01*
X194511558Y-87117235D01*
X194511559Y-87117236D01*
X194657638Y-87177744D01*
X194783098Y-87194261D01*
X194814399Y-87198382D01*
X194814399Y-87198381D01*
X194814400Y-87198382D01*
X194845702Y-87194260D01*
X194861887Y-87193200D01*
X195766759Y-87193200D01*
X195814212Y-87202639D01*
X195834788Y-87216387D01*
X195835608Y-87215083D01*
X195847438Y-87222516D01*
X196000178Y-87318489D01*
X196170445Y-87378068D01*
X196349700Y-87398265D01*
X196528955Y-87378068D01*
X196699222Y-87318489D01*
X196699224Y-87318487D01*
X196712409Y-87313874D01*
X196713792Y-87317829D01*
X196750204Y-87306815D01*
X196813629Y-87322267D01*
X196860417Y-87367790D01*
X196877600Y-87430768D01*
X196877600Y-87865500D01*
X196860987Y-87927500D01*
X196815600Y-87972887D01*
X196753600Y-87989500D01*
X194095379Y-87989500D01*
X194047926Y-87980061D01*
X194007697Y-87953180D01*
X193967454Y-87912937D01*
X193824899Y-87828629D01*
X193665860Y-87782424D01*
X193650995Y-87781254D01*
X193628703Y-87779500D01*
X193628700Y-87779500D01*
X193071295Y-87779500D01*
X193034140Y-87782423D01*
X192875101Y-87828629D01*
X192845620Y-87846064D01*
X192782500Y-87863331D01*
X192719380Y-87846064D01*
X192689898Y-87828629D01*
X192530860Y-87782424D01*
X192515995Y-87781254D01*
X192493703Y-87779500D01*
X192493700Y-87779500D01*
X191936295Y-87779500D01*
X191899141Y-87782423D01*
X191833659Y-87801447D01*
X191781869Y-87805172D01*
X191733094Y-87787364D01*
X191720580Y-87779501D01*
X191592322Y-87698911D01*
X191422055Y-87639332D01*
X191422053Y-87639331D01*
X191422051Y-87639331D01*
X191242800Y-87619134D01*
X191063548Y-87639331D01*
X191063545Y-87639331D01*
X191063545Y-87639332D01*
X190893278Y-87698911D01*
X190893276Y-87698911D01*
X190893276Y-87698912D01*
X190740535Y-87794885D01*
X190612985Y-87922435D01*
X190528950Y-88056177D01*
X190517011Y-88075178D01*
X190490463Y-88151049D01*
X190457431Y-88245448D01*
X190437234Y-88424699D01*
X190457431Y-88603951D01*
X190457431Y-88603953D01*
X190457432Y-88603955D01*
X190517011Y-88774222D01*
X190538385Y-88808238D01*
X190612985Y-88926964D01*
X190627613Y-88941592D01*
X190654493Y-88981820D01*
X190663932Y-89029272D01*
X190654494Y-89076724D01*
X190643056Y-89104338D01*
X190622417Y-89261099D01*
X190626539Y-89292401D01*
X190627600Y-89308587D01*
X190627600Y-91135831D01*
X190618161Y-91183284D01*
X190591281Y-91223512D01*
X189121447Y-92693346D01*
X189081219Y-92720226D01*
X189033766Y-92729665D01*
X184978363Y-92729665D01*
X184916363Y-92713052D01*
X184870976Y-92667665D01*
X184854363Y-92605665D01*
X184854363Y-84483044D01*
X184863802Y-84435591D01*
X184890683Y-84395362D01*
X184904127Y-84381918D01*
X184930926Y-84355119D01*
X185015233Y-84212565D01*
X185061439Y-84053523D01*
X185064363Y-84016368D01*
X185064362Y-83458963D01*
X185061439Y-83421807D01*
X185061439Y-83421805D01*
X185015234Y-83262768D01*
X185015233Y-83262767D01*
X185015233Y-83262765D01*
X184997507Y-83232793D01*
X184980240Y-83169673D01*
X184997508Y-83106551D01*
X185014771Y-83077360D01*
X185060441Y-82920165D01*
X185983863Y-82920165D01*
X186543863Y-82920165D01*
X186543863Y-82304934D01*
X187043862Y-82304934D01*
X187043863Y-82304935D01*
X187043863Y-82920165D01*
X187603863Y-82920165D01*
X187603863Y-82891517D01*
X187600940Y-82854382D01*
X187554770Y-82695466D01*
X187470527Y-82553019D01*
X187353508Y-82436000D01*
X187211061Y-82351757D01*
X187052142Y-82305586D01*
X187043862Y-82304934D01*
X186543863Y-82304934D01*
X186535583Y-82305586D01*
X186376664Y-82351757D01*
X186234217Y-82436000D01*
X186117198Y-82553019D01*
X186032955Y-82695466D01*
X185986785Y-82854382D01*
X185983863Y-82891517D01*
X185983863Y-82920165D01*
X185060441Y-82920165D01*
X185060940Y-82918447D01*
X185063863Y-82881313D01*
X185063863Y-82852665D01*
X184738289Y-82852665D01*
X184698431Y-82846084D01*
X184662803Y-82827041D01*
X184556703Y-82745628D01*
X184410625Y-82685121D01*
X184340447Y-82675882D01*
X184253863Y-82664482D01*
X184226026Y-82668147D01*
X184222560Y-82668604D01*
X184206376Y-82669665D01*
X182438363Y-82669665D01*
X182376363Y-82653052D01*
X182330976Y-82607665D01*
X182314363Y-82545665D01*
X182314363Y-82352665D01*
X183443863Y-82352665D01*
X184003863Y-82352665D01*
X184003863Y-81737434D01*
X184503862Y-81737434D01*
X184503863Y-81737435D01*
X184503863Y-82352665D01*
X185063863Y-82352665D01*
X185063863Y-82324017D01*
X185060940Y-82286882D01*
X185014770Y-82127966D01*
X184930527Y-81985519D01*
X184813508Y-81868500D01*
X184671061Y-81784257D01*
X184512142Y-81738086D01*
X184503862Y-81737434D01*
X184003863Y-81737434D01*
X183995583Y-81738086D01*
X183836664Y-81784257D01*
X183694217Y-81868500D01*
X183577198Y-81985519D01*
X183492955Y-82127966D01*
X183446785Y-82286882D01*
X183443863Y-82324017D01*
X183443863Y-82352665D01*
X182314363Y-82352665D01*
X182314363Y-80930262D01*
X182323802Y-80882809D01*
X182350682Y-80842581D01*
X184466280Y-78726984D01*
X184506508Y-78700104D01*
X184553961Y-78690665D01*
X186736768Y-78690665D01*
X186784221Y-78700104D01*
G37*
%TD.AperFunction*%
%TD*%
M02*
