%TF.GenerationSoftware,KiCad,Pcbnew,7.0.1*%
%TF.CreationDate,2025-03-28T02:07:49+02:00*%
%TF.ProjectId,PowerCircuit_V6,506f7765-7243-4697-9263-7569745f5636,rev?*%
%TF.SameCoordinates,Original*%
%TF.FileFunction,Paste,Top*%
%TF.FilePolarity,Positive*%
%FSLAX46Y46*%
G04 Gerber Fmt 4.6, Leading zero omitted, Abs format (unit mm)*
G04 Created by KiCad (PCBNEW 7.0.1) date 2025-03-28 02:07:49*
%MOMM*%
%LPD*%
G01*
G04 APERTURE LIST*
G04 Aperture macros list*
%AMRoundRect*
0 Rectangle with rounded corners*
0 $1 Rounding radius*
0 $2 $3 $4 $5 $6 $7 $8 $9 X,Y pos of 4 corners*
0 Add a 4 corners polygon primitive as box body*
4,1,4,$2,$3,$4,$5,$6,$7,$8,$9,$2,$3,0*
0 Add four circle primitives for the rounded corners*
1,1,$1+$1,$2,$3*
1,1,$1+$1,$4,$5*
1,1,$1+$1,$6,$7*
1,1,$1+$1,$8,$9*
0 Add four rect primitives between the rounded corners*
20,1,$1+$1,$2,$3,$4,$5,0*
20,1,$1+$1,$4,$5,$6,$7,0*
20,1,$1+$1,$6,$7,$8,$9,0*
20,1,$1+$1,$8,$9,$2,$3,0*%
G04 Aperture macros list end*
%ADD10RoundRect,0.150000X-0.512500X-0.150000X0.512500X-0.150000X0.512500X0.150000X-0.512500X0.150000X0*%
%ADD11RoundRect,0.160000X-0.197500X-0.160000X0.197500X-0.160000X0.197500X0.160000X-0.197500X0.160000X0*%
%ADD12R,0.600000X1.500000*%
%ADD13R,3.300000X2.100000*%
%ADD14R,3.300000X1.510998*%
%ADD15R,10.020015X10.122022*%
%ADD16RoundRect,0.250000X0.450000X-0.350000X0.450000X0.350000X-0.450000X0.350000X-0.450000X-0.350000X0*%
%ADD17RoundRect,0.155000X-0.212500X-0.155000X0.212500X-0.155000X0.212500X0.155000X-0.212500X0.155000X0*%
%ADD18R,1.250013X0.700000*%
%ADD19RoundRect,0.250000X-0.400000X-0.625000X0.400000X-0.625000X0.400000X0.625000X-0.400000X0.625000X0*%
%ADD20O,1.251994X0.364008*%
%ADD21O,1.300000X0.350013*%
%ADD22R,2.740005X2.740005*%
%ADD23R,1.400000X0.300000*%
%ADD24RoundRect,0.155000X0.155000X-0.212500X0.155000X0.212500X-0.155000X0.212500X-0.155000X-0.212500X0*%
%ADD25O,0.350013X1.300000*%
%ADD26RoundRect,0.250000X0.400000X0.625000X-0.400000X0.625000X-0.400000X-0.625000X0.400000X-0.625000X0*%
%ADD27R,0.800000X0.800000*%
%ADD28RoundRect,0.250000X0.625000X-0.400000X0.625000X0.400000X-0.625000X0.400000X-0.625000X-0.400000X0*%
%ADD29RoundRect,0.150000X-0.587500X-0.150000X0.587500X-0.150000X0.587500X0.150000X-0.587500X0.150000X0*%
%ADD30R,0.600000X1.300000*%
%ADD31R,3.300000X2.400000*%
%ADD32RoundRect,0.160000X0.160000X-0.197500X0.160000X0.197500X-0.160000X0.197500X-0.160000X-0.197500X0*%
%ADD33RoundRect,0.250000X-1.000000X-0.650000X1.000000X-0.650000X1.000000X0.650000X-1.000000X0.650000X0*%
G04 APERTURE END LIST*
D10*
%TO.C,U4*%
X200660000Y-117780165D03*
X200660000Y-118730165D03*
X200660000Y-119680165D03*
X202935000Y-119680165D03*
X202935000Y-118730165D03*
X202935000Y-117780165D03*
%TD*%
D11*
%TO.C,R9*%
X242645000Y-121920000D03*
X243840000Y-121920000D03*
%TD*%
D12*
%TO.C,U9*%
X246920076Y-117300127D03*
X247920076Y-117300127D03*
X248920076Y-117300127D03*
X249920076Y-117300127D03*
X250920076Y-117300127D03*
X250920076Y-111300127D03*
X249920076Y-111299873D03*
X248920076Y-111299873D03*
X247920076Y-111299873D03*
X246920076Y-111300127D03*
D13*
X248920076Y-114299873D03*
%TD*%
D14*
%TO.C,U10*%
X241171816Y-99060005D03*
X241171816Y-96520000D03*
X241171816Y-93979995D03*
D15*
X231268082Y-96520000D03*
%TD*%
D16*
%TO.C,R13*%
X238760000Y-82280000D03*
X238760000Y-80280000D03*
%TD*%
D17*
%TO.C,C8*%
X194445000Y-96520000D03*
X195580000Y-96520000D03*
%TD*%
D18*
%TO.C,U14*%
X238760000Y-86359962D03*
X238760000Y-84460038D03*
X236760000Y-85410000D03*
%TD*%
D10*
%TO.C,U2*%
X226325000Y-109220000D03*
X226325000Y-110170000D03*
X226325000Y-111120000D03*
X228600000Y-111120000D03*
X228600000Y-110170000D03*
X228600000Y-109220000D03*
%TD*%
D19*
%TO.C,R7*%
X190323863Y-106030165D03*
X193423863Y-106030165D03*
%TD*%
D20*
%TO.C,U13*%
X236132160Y-121330208D03*
X236132160Y-120680221D03*
X236132160Y-120030233D03*
X236132160Y-119379992D03*
X233680040Y-119379992D03*
X233680040Y-120030233D03*
X233680040Y-120680221D03*
X233680040Y-121330208D03*
%TD*%
D21*
%TO.C,U12*%
X198430013Y-86110183D03*
X198430013Y-85460195D03*
X198430013Y-84810208D03*
X198430013Y-84159967D03*
X198430013Y-83509979D03*
X198430013Y-82859992D03*
X198430013Y-82210005D03*
X198430013Y-81560017D03*
X192729987Y-81560017D03*
X192729987Y-82210005D03*
X192729987Y-82859992D03*
X192729987Y-83509979D03*
X192729987Y-84159967D03*
X192729987Y-84810208D03*
X192729987Y-85460195D03*
X192729987Y-86110183D03*
D22*
X195580000Y-83835100D03*
%TD*%
D23*
%TO.C,U8*%
X246819174Y-99859301D03*
X246819174Y-99360191D03*
X246819174Y-98861080D03*
X246819174Y-98360699D03*
X246819174Y-97860318D03*
X246819174Y-97359936D03*
X246819174Y-96859555D03*
X246819174Y-96359174D03*
X246819174Y-95860064D03*
X246819174Y-95360953D03*
X246819174Y-94860572D03*
X246819174Y-94360191D03*
%TD*%
D24*
%TO.C,C15*%
X223520000Y-95115000D03*
X223520000Y-93980000D03*
%TD*%
D25*
%TO.C,U1*%
X204134917Y-99370013D03*
X204784905Y-99370013D03*
X205434892Y-99370013D03*
X206085133Y-99370013D03*
X206735121Y-99370013D03*
X207385108Y-99370013D03*
X208035095Y-99370013D03*
X208685083Y-99370013D03*
X208685083Y-93669987D03*
X208035095Y-93669987D03*
X207385108Y-93669987D03*
X206735121Y-93669987D03*
X206085133Y-93669987D03*
X205434892Y-93669987D03*
X204784905Y-93669987D03*
X204134917Y-93669987D03*
D22*
X206410000Y-96520000D03*
%TD*%
D17*
%TO.C,C13*%
X240165000Y-119380000D03*
X241300000Y-119380000D03*
%TD*%
%TO.C,C9*%
X195818863Y-121270165D03*
X196953863Y-121270165D03*
%TD*%
D24*
%TO.C,C14*%
X223520000Y-100195000D03*
X223520000Y-99060000D03*
%TD*%
D17*
%TO.C,C2*%
X240165000Y-106680000D03*
X241300000Y-106680000D03*
%TD*%
D26*
%TO.C,R6*%
X186793863Y-106030165D03*
X183693863Y-106030165D03*
%TD*%
D16*
%TO.C,R8*%
X243840000Y-115300000D03*
X243840000Y-113300000D03*
%TD*%
D27*
%TO.C,LED1*%
X252401033Y-88900227D03*
X253999967Y-88899973D03*
%TD*%
D28*
%TO.C,R4*%
X203510000Y-81530000D03*
X203510000Y-78430000D03*
%TD*%
D24*
%TO.C,C4*%
X186793863Y-84305165D03*
X186793863Y-83170165D03*
%TD*%
D11*
%TO.C,R10*%
X252805000Y-121920000D03*
X254000000Y-121920000D03*
%TD*%
D17*
%TO.C,C7*%
X190738863Y-121270165D03*
X191873863Y-121270165D03*
%TD*%
D10*
%TO.C,U5*%
X208545000Y-116840000D03*
X208545000Y-117790000D03*
X208545000Y-118740000D03*
X210820000Y-118740000D03*
X210820000Y-117790000D03*
X210820000Y-116840000D03*
%TD*%
D24*
%TO.C,C11*%
X195580000Y-93980000D03*
X195580000Y-92845000D03*
%TD*%
D11*
%TO.C,R14*%
X231140000Y-114300000D03*
X232335000Y-114300000D03*
%TD*%
D17*
%TO.C,C3*%
X240165000Y-111190000D03*
X241300000Y-111190000D03*
%TD*%
D29*
%TO.C,Q1*%
X216565000Y-93030000D03*
X216565000Y-94930000D03*
X218440000Y-93980000D03*
%TD*%
D24*
%TO.C,C5*%
X184253863Y-83737665D03*
X184253863Y-82602665D03*
%TD*%
D17*
%TO.C,C12*%
X195012500Y-99060000D03*
X196147500Y-99060000D03*
%TD*%
D28*
%TO.C,R5*%
X203510000Y-87600000D03*
X203510000Y-84500000D03*
%TD*%
D17*
%TO.C,C1*%
X240165000Y-104140000D03*
X241300000Y-104140000D03*
%TD*%
D11*
%TO.C,R1*%
X227405000Y-104140000D03*
X228600000Y-104140000D03*
%TD*%
D10*
%TO.C,U3*%
X223785000Y-116840000D03*
X223785000Y-117790000D03*
X223785000Y-118740000D03*
X226060000Y-118740000D03*
X226060000Y-116840000D03*
%TD*%
D17*
%TO.C,C6*%
X192215000Y-88590000D03*
X193350000Y-88590000D03*
%TD*%
D11*
%TO.C,R11*%
X247725000Y-88900000D03*
X248920000Y-88900000D03*
%TD*%
D30*
%TO.C,U11*%
X249554920Y-83819973D03*
X250824923Y-83819973D03*
X252094925Y-83819973D03*
X253364928Y-83819973D03*
X253364928Y-78420176D03*
X252094925Y-78420176D03*
X250824923Y-78420176D03*
X249554920Y-78420176D03*
D31*
X251459924Y-81119948D03*
%TD*%
D32*
%TO.C,R12*%
X246380000Y-86360000D03*
X246380000Y-85165000D03*
%TD*%
D11*
%TO.C,R3*%
X224100000Y-82630000D03*
X225295000Y-82630000D03*
%TD*%
D33*
%TO.C,D1*%
X215685000Y-105030000D03*
X219685000Y-105030000D03*
%TD*%
D11*
%TO.C,R2*%
X223520000Y-104130000D03*
X224715000Y-104130000D03*
%TD*%
D17*
%TO.C,C10*%
X194413863Y-126350165D03*
X195548863Y-126350165D03*
%TD*%
M02*
